<svg id="Capa_1" enable-background="new 0 0 512 512" height="512" viewBox="0 0 512 512" width="512" xmlns="http://www.w3.org/2000/svg"><g><g><path d="m450.347 0c-8.284 0-15 6.716-15 15 0 31.195-4.793 59.291-14.246 83.508-8.741 22.393-21.508 41.574-37.944 57.008-31.284 29.375-75.254 44.902-127.156 44.902s-95.872-15.527-127.156-44.902c-16.437-15.434-29.203-34.615-37.944-57.008-9.455-24.217-14.248-52.313-14.248-83.508 0-8.284-6.716-15-15-15s-15 6.716-15 15c0 68.36 21.32 124.512 61.655 162.386 33.812 31.749 79.457 49.791 132.691 52.626v53.424c0 8.284 6.716 15 15 15s15-6.716 15-15v-53.424c53.234-2.836 98.879-20.877 132.691-52.626 40.336-37.874 61.657-94.026 61.657-162.386 0-8.284-6.716-15-15-15z" fill="#ecbd3e"/><path d="m450.347 0c-8.284 0-15 6.716-15 15 0 31.195-4.793 59.291-14.246 83.508-8.741 22.393-21.508 41.574-37.944 57.008-31.284 29.375-75.254 44.902-127.156 44.902v98.018c8.284 0 15-6.716 15-15v-53.424c53.234-2.836 98.879-20.877 132.691-52.626 40.334-37.874 61.655-94.026 61.655-162.386 0-8.284-6.716-15-15-15z" fill="#e79e37"/></g><g><g><path d="m284.682 343.806h-57.364l-28.682 49.679 28.682 49.678h57.364l28.682-49.678z" fill="#eff5ff"/><path d="m284.682 343.806h-28.682v99.357h28.682l28.682-49.678z" fill="#bfdafe"/></g><g><path d="m313.364 393.485h79.486l-68.426-118.515-39.742 68.836z" fill="#578df1"/><path d="m284.682 443.163 39.742 68.837 68.426-118.515h-79.486z" fill="#86b1e5"/><path d="m198.636 393.485 28.682 49.678-39.742 68.837-68.426-118.515z" fill="#dae7fd"/><path d="m227.318 343.806-39.742-68.836-68.426 118.515h79.486z" fill="#bfdafe"/><g><path d="m187.576 274.97 39.742 68.836h57.364l39.742-68.836z" fill="#dae7fd"/><path d="m256 274.969v68.837h28.682l39.742-68.837z" fill="#86b1e5"/></g><g><path d="m227.318 443.163-39.742 68.837h136.848l-39.742-68.837z" fill="#bfdafe"/><path d="m256 512h68.424l-39.742-68.837h-28.682z" fill="#578df1"/></g></g></g></g></svg>