<svg id="Capa_1" enable-background="new 0 0 512 512" height="512" viewBox="0 0 512 512" width="512" xmlns="http://www.w3.org/2000/svg"><g><g><g><path d="m418.232 81.087-162.229-10-162.186 10v400.913l162.208 10 162.207-10z" fill="#b1705e"/><path d="m256.025 71.089v420.911l162.207-10v-400.913z" fill="#9e5f4e"/></g><g><g><path d="m428.729 81.087c8.284 0 15-6.716 15-15s-6.716-15-15-15l-86.7-.001c0-15.232-12.348-27.58-27.58-27.58-8.971 0-16.939 4.286-21.976 10.919-1.081-19.192-16.984-34.425-36.448-34.425s-35.367 15.233-36.447 34.426c-5.037-6.633-13.004-10.919-21.976-10.919-15.232 0-27.58 12.348-27.58 27.58l-86.744.001c-8.284 0-15 6.716-15 15s6.716 15 15 15h10.54 324.415 10.496z" fill="#9e5f4e"/><path d="m428.729 51.087-86.7-.001c0-15.232-12.348-27.58-27.58-27.58-8.971 0-16.939 4.286-21.976 10.919-1.081-19.192-16.984-34.425-36.448-34.425v81.087h162.208 10.496c8.284 0 15-6.716 15-15s-6.716-15-15-15z" fill="#7b493b"/></g><g><path d="m428.729 482h-10.496-324.416-10.546c-8.284 0-15 6.716-15 15s6.716 15 15 15h345.457c8.284 0 15-6.716 15-15s-6.715-15-14.999-15z" fill="#9e5f4e"/><path d="m428.729 482h-10.496-162.208v30h172.704c8.284 0 15-6.716 15-15s-6.716-15-15-15z" fill="#7b493b"/></g></g></g><g><g><g><path d="m339.421 446.889h-166.845c-8.284 0-15-6.716-15-15v-41.452c0-8.284 6.716-15 15-15h166.846c8.284 0 15 6.716 15 15v41.452c-.001 8.284-6.716 15-15.001 15z" fill="#504542"/><path d="m339.421 375.437h-83.397v71.452h83.397c8.284 0 15-6.716 15-15v-41.452c0-8.284-6.715-15-15-15z" fill="#182831"/></g><g><ellipse cx="255.998" cy="411.163" fill="#ecbd3e" rx="35.726" ry="35.726" transform="matrix(.226 -.974 .974 .226 -202.428 567.48)"/><path d="m256.025 375.438v71.451c19.719-.014 35.7-16.003 35.7-35.725-.001-19.723-15.981-35.712-35.7-35.726z" fill="#e79e37"/></g></g><g><g><g><ellipse cx="255.998" cy="224.331" fill="#9e5f4e" rx="113.157" ry="113.157" transform="matrix(.707 -.707 .707 .707 -83.646 246.723)"/><path d="m256.025 111.174v226.314c62.483-.014 113.131-50.671 113.131-113.157s-50.648-113.143-113.131-113.157z" fill="#7b493b"/></g><g><ellipse cx="255.998" cy="224.331" fill="#eff5ff" rx="83.158" ry="83.157" transform="matrix(.813 -.582 .582 .813 -82.749 191.017)"/><path d="m256.025 141.175v166.313c45.841-.015 83.131-37.312 83.131-83.157 0-45.844-37.29-83.142-83.131-83.156z" fill="#dae7fd"/></g></g><g><path d="m288.607 211.831h-17.607v-17.607c0-8.284-6.716-15-15-15s-15 6.716-15 15v32.607c0 8.284 6.716 15 15 15h32.607c8.284 0 15-6.716 15-15s-6.715-15-15-15z" fill="#635551"/><path d="m288.607 211.831h-17.607v-17.607c0-8.276-6.703-14.985-14.975-14.999v62.606h32.583c8.284 0 15-6.716 15-15-.001-8.284-6.716-15-15.001-15z" fill="#504542"/></g></g></g></g></svg>