<svg id="Capa_1" enable-background="new 0 0 511.553 511.553" height="512" viewBox="0 0 511.553 511.553" width="512" xmlns="http://www.w3.org/2000/svg"><g><path d="m163.773 482.996c-24.813 0-45-20.186-45-45 0-24.813 20.187-45 45-45s45 20.187 45 45c0 24.814-20.187 45-45 45zm0-60c-8.271 0-15 6.729-15 15 0 8.272 6.729 15 15 15s15-6.728 15-15c0-8.271-6.729-15-15-15z" fill="#5b7726"/><g><g><g><path d="m256.1 235.634c-8.284 0-15-6.716-15-15v-84.709c0-8.284 6.716-15 15-15s15 6.716 15 15v84.709c0 8.284-6.716 15-15 15z" fill="#dae7fd"/><path d="m256.1 120.925c-.109 0-.215.014-.324.016v114.676c.109.002.214.016.324.016 8.284 0 15-6.716 15-15v-84.709c0-8.283-6.716-14.999-15-14.999z" fill="#bfdafe"/></g><g><path d="m317.593 101.673c0 34.14-27.676 61.816-61.816 61.816s-61.816-27.676-61.816-61.816c0-23.595 29.526-68.769 47.766-94.425 6.871-9.665 21.229-9.665 28.1 0 18.24 25.657 47.766 70.831 47.766 94.425z" fill="#ecbd3e"/><path d="m269.827 7.249c-3.436-4.832-8.743-7.249-14.05-7.249v163.49c34.14 0 61.816-27.676 61.816-61.816 0-23.595-29.526-68.769-47.766-94.425z" fill="#e79e37"/></g></g><g><g><path d="m176.24 250.31h159.072v233.748h-159.072z" fill="#dae7fd"/><path d="m255.777 250.31h79.536v233.748h-79.536z" fill="#bfdafe"/></g><g><path d="m160.832 240.678v77.428c0 17.589 14.259 31.849 31.849 31.849 17.589 0 31.849-14.259 31.849-31.849v-17.084c0-17.257 13.99-31.247 31.247-31.247 17.257 0 31.247 13.99 31.247 31.247v59.501c0 17.59 14.259 31.849 31.849 31.849 17.59 0 31.849-14.259 31.849-31.849v-119.845c0-18.674-15.139-33.813-33.813-33.813h-122.264c-18.674 0-33.813 15.139-33.813 33.813z" fill="#eff5ff"/><path d="m316.908 206.865h-61.131v62.91c17.257 0 31.247 13.99 31.247 31.247v59.501c0 17.59 14.259 31.849 31.849 31.849 17.59 0 31.849-14.259 31.849-31.849v-119.845c-.001-18.674-15.14-33.813-33.814-33.813z" fill="#dae7fd"/></g></g></g><g><path d="m409.726 511.553h-307.899c-23.529 0-42.602-19.074-42.602-42.602v-6.172c0-8.284 6.716-15 15-15h363.103c8.284 0 15 6.716 15 15v6.172c0 23.528-19.074 42.602-42.602 42.602z" fill="#738b2f"/><path d="m437.328 447.779h-181.551v63.774h153.949c23.529 0 42.602-19.074 42.602-42.603v-6.172c0-8.283-6.716-14.999-15-14.999z" fill="#5b7726"/></g></g></svg>