<svg id="Capa_1" enable-background="new 0 0 512 512" height="512" viewBox="0 0 512 512" width="512" xmlns="http://www.w3.org/2000/svg"><g><g><g><path d="m391.842 85.762h-271.621v105.237l11.246 21.017-11.246 21.15v193.072h271.621v-177.135l-11.247-18.527 11.247-18.526z" fill="#f1d0a7"/><path d="m391.842 85.762h-135.842v340.476h135.842v-177.135l-11.247-18.527 11.247-18.526z" fill="#edbc8b"/></g><g><path d="m311.05 361c-6.282 0-11.985-4.055-14.119-9.946-2.134-5.893-.225-12.684 4.609-16.654 4.852-3.985 11.832-4.461 17.211-1.26 5.39 3.207 8.215 9.651 6.999 15.79-1.372 6.922-7.642 12.07-14.7 12.07z" fill="#dc4e26"/><g><g><path d="m311.048 301h-110.096c-8.284 0-15-6.716-15-15s6.716-15 15-15h110.096c8.284 0 15 6.716 15 15s-6.716 15-15 15z" fill="#635551"/><path d="m311.048 271h-55.048v30h55.048c8.284 0 15-6.716 15-15s-6.716-15-15-15z" fill="#504542"/></g><g><path d="m311.048 241h-110.096c-8.284 0-15-6.716-15-15s6.716-15 15-15h110.096c8.284 0 15 6.716 15 15s-6.716 15-15 15z" fill="#635551"/><path d="m311.048 211h-55.048v30h55.048c8.284 0 15-6.716 15-15s-6.716-15-15-15z" fill="#504542"/></g><g><path d="m311.048 181h-110.096c-8.284 0-15-6.716-15-15s6.716-15 15-15h110.096c8.284 0 15 6.716 15 15s-6.716 15-15 15z" fill="#635551"/><path d="m311.048 151h-55.048v30h55.048c8.284 0 15-6.716 15-15s-6.716-15-15-15z" fill="#504542"/></g></g></g></g><g><g><g><path d="m63.903 85.762v-63.979h384.194v63.979h-384.128" fill="#b1705e"/><path d="m256 21.783h192.097v63.979h-192.097z" fill="#9e5f4e"/></g><g><path d="m361.842 21.783h30v63.979h-30z" fill="#7b493b"/><path d="m120.221 21.783h30v63.979h-30z" fill="#9e5f4e"/></g></g><g><g fill="#9e5f4e"><path d="m75.159 107.545c-8.284 0-15-6.716-15-15v-77.545c0-8.284 6.716-15 15-15s15 6.716 15 15v77.545c0 8.285-6.716 15-15 15z"/><ellipse cx="31.867" cy="53.773" rx="31.867" ry="31.867" transform="matrix(.16 -.987 .987 .16 -26.316 76.615)"/></g><g fill="#7b493b"><path d="m436.842 107.545c-8.284 0-15-6.716-15-15v-77.545c0-8.284 6.716-15 15-15s15 6.716 15 15v77.545c0 8.285-6.716 15-15 15z"/><circle cx="480.133" cy="53.773" r="31.867"/></g></g></g><g><g><g><path d="m63.903 490.217v-63.979h384.194v63.979h-384.128" fill="#b1705e"/><path d="m256 426.238h192.097v63.979h-192.097z" fill="#9e5f4e"/></g><g><path d="m361.842 426.238h30v63.979h-30z" fill="#7b493b"/><path d="m120.221 426.238h30v63.979h-30z" fill="#9e5f4e"/></g></g><g><g fill="#9e5f4e"><ellipse cx="31.867" cy="458.227" rx="31.867" ry="31.867" transform="matrix(.152 -.988 .988 .152 -425.891 420.212)"/><path d="m75.159 512c-8.284 0-15-6.716-15-15v-77.545c0-8.284 6.716-15 15-15s15 6.716 15 15v77.545c0 8.284-6.716 15-15 15z"/></g><g fill="#7b493b"><circle cx="480.133" cy="458.227" r="31.867"/><path d="m436.842 512c-8.284 0-15-6.716-15-15v-77.545c0-8.284 6.716-15 15-15s15 6.716 15 15v77.545c0 8.284-6.716 15-15 15z"/></g></g></g></g></svg>