<svg id="Capa_1" enable-background="new 0 0 512 512" height="512" viewBox="0 0 512 512" width="512" xmlns="http://www.w3.org/2000/svg"><g><g><path d="m308.365 432.265h-104.73c-8.284 0-15 6.716-15 15s6.716 15 15 15h5.365v34.735c0 8.284 6.716 15 15 15s15-6.716 15-15v-34.735h34v34.735c0 8.284 6.716 15 15 15s15-6.716 15-15v-34.735h5.365c8.284 0 15-6.716 15-15 0-8.285-6.716-15-15-15z" fill="#635551"/><path d="m308.365 432.265h-52.365v30h17v34.735c0 8.284 6.716 15 15 15s15-6.716 15-15v-34.735h5.365c8.284 0 15-6.716 15-15 0-8.285-6.716-15-15-15z" fill="#504542"/></g><g><g><g><path d="m400.793 272.344c-3.19-7.647-11.977-11.259-19.618-8.069-7.647 3.189-11.259 11.973-8.069 19.618 2.635 6.317 1.854 13.395-2.091 18.931-3.005 4.216-7.468 7.005-12.567 7.852-5.122.853-10.273-.354-14.509-3.395-7.828-5.618-10.283-15.979-6.277-24.372 20.014-30.025 32.349-71.039 32.349-116.269 0-92.034-51.045-166.64-114.011-166.64s-114.011 74.606-114.011 166.639c0 45.231 12.335 86.244 32.349 116.269 4.005 8.394 1.551 18.754-6.276 24.372-4.237 3.04-9.39 4.247-14.51 3.395-5.1-.847-9.562-3.636-12.567-7.852-3.944-5.536-4.726-12.613-2.091-18.931 3.189-7.646-.423-16.429-8.069-19.618-7.641-3.189-16.428.422-19.618 8.069-6.653 15.949-4.655 33.852 5.347 47.888 7.666 10.759 19.06 17.875 32.083 20.038 2.734.454 5.472.679 8.19.679 10.248 0 20.221-3.191 28.727-9.295 6.98-5.009 12.27-11.517 15.753-18.774 16.237 13.001 34.874 20.398 54.693 20.398s38.456-7.397 54.693-20.398c3.483 7.256 8.773 13.764 15.753 18.774 8.506 6.105 18.479 9.295 28.727 9.295 2.718 0 5.456-.225 8.19-.679 13.023-2.163 24.417-9.279 32.083-20.038 10.002-14.036 12-31.938 5.347-47.887z" fill="#ecbd3e"/><path d="m400.793 272.344c-3.19-7.647-11.977-11.259-19.618-8.069-7.647 3.189-11.259 11.973-8.069 19.618 2.635 6.317 1.854 13.395-2.091 18.931-3.005 4.216-7.468 7.005-12.567 7.852-5.122.853-10.273-.354-14.509-3.395-7.828-5.618-10.283-15.979-6.277-24.372 20.014-30.025 32.349-71.039 32.349-116.269 0-92.034-51.045-166.64-114.011-166.64v333.277c19.82 0 38.456-7.397 54.693-20.398 3.483 7.256 8.773 13.764 15.753 18.774 8.506 6.105 18.479 9.295 28.727 9.295 2.718 0 5.456-.225 8.19-.679 13.023-2.163 24.417-9.279 32.083-20.038 10.002-14.036 12-31.938 5.347-47.887z" fill="#e79e37"/></g><g><g><path d="m256 303.277c-27.321 0-46.725-22.396-55.858-35.747-17.892-26.15-28.152-62.924-28.152-100.892s10.261-74.741 28.152-100.892c9.133-13.35 28.537-35.746 55.858-35.746s46.725 22.396 55.858 35.747c17.892 26.15 28.152 62.924 28.152 100.892s-10.261 74.741-28.152 100.892c-9.133 13.35-28.537 35.746-55.858 35.746z" fill="#eff5ff"/><path d="m311.858 65.747c-9.133-13.351-28.537-35.747-55.858-35.747v273.277c27.321 0 46.725-22.396 55.858-35.747 17.892-26.15 28.152-62.924 28.152-100.892.001-37.967-10.26-74.741-28.152-100.891z" fill="#dae7fd"/></g><g><g><path d="m241.657 157.1c-3.83 0-7.659-1.457-10.586-4.373-5.869-5.847-5.888-15.345-.041-21.213l28.685-28.795c5.848-5.872 15.346-5.888 21.213-.041 5.869 5.847 5.888 15.345.041 21.213l-28.686 28.795c-2.929 2.942-6.778 4.414-10.626 4.414z" fill="#dae7fd"/><path d="m280.929 102.678c-5.867-5.847-15.365-5.831-21.213.041l-3.716 3.73v42.507l24.97-25.065c5.846-5.869 5.828-15.367-.041-21.213z" fill="#bfdafe"/></g><g><path d="m241.657 237.403c-3.83 0-7.659-1.457-10.586-4.373-5.869-5.847-5.888-15.345-.041-21.213l28.685-28.795c5.848-5.872 15.346-5.887 21.213-.041 5.869 5.847 5.888 15.345.041 21.213l-28.686 28.795c-2.929 2.943-6.778 4.414-10.626 4.414z" fill="#dae7fd"/><path d="m280.929 182.981c-5.867-5.846-15.365-5.831-21.213.041l-3.716 3.73v42.507l24.97-25.065c5.846-5.868 5.828-15.366-.041-21.213z" fill="#bfdafe"/></g></g></g></g><g><g><path d="m396.36 512c-3.58 0-7.172-1.273-10.04-3.86-11.787-10.628-17.263-24.415-16.275-40.975.753-12.627 5.161-25.155 9.051-36.209 3.094-8.794 6.293-17.888 6.293-23.725 0-1.391 0-5.623-4.444-5.82-8.276-.368-14.686-7.376-14.318-15.652.368-8.277 7.366-14.687 15.652-14.318 13.31.593 33.11 10.613 33.11 35.791 0 10.961-3.883 21.997-7.994 33.681-8.322 23.653-11.132 35.799-.984 44.949 6.152 5.548 6.643 15.032 1.095 21.184-2.962 3.283-7.046 4.954-11.146 4.954z" fill="#3d3532"/><path d="m115.64 512c-4.1 0-8.183-1.67-11.145-4.955-5.548-6.152-5.058-15.637 1.095-21.184 10.147-9.15 7.338-21.296-.984-44.949-4.111-11.684-7.994-22.72-7.994-33.681 0-25.178 19.801-35.198 33.11-35.791l1.334 29.971c.001.008.133.001.355-.021-4.799.477-4.799 3.705-4.799 5.842 0 5.837 3.199 14.931 6.293 23.725 3.89 11.054 8.298 23.582 9.051 36.209.987 16.561-4.488 30.348-16.275 40.975-2.869 2.585-6.462 3.859-10.041 3.859z" fill="#504542"/></g><g><g><path d="m425.888 401.869h-339.776c-8.284 0-15-6.716-15-15v-50.336h369.776v50.336c0 8.284-6.716 15-15 15z" fill="#635551"/><path d="m256 336.533v65.336h169.888c8.284 0 15-6.716 15-15v-50.336z" fill="#504542"/></g><g><path d="m256 366.524c-8.284 0-15-6.716-15-15v-15.114c0-8.284 6.716-15 15-15s15 6.716 15 15v15.114c0 8.285-6.716 15-15 15z" fill="#ecbd3e"/><path d="m256 321.41v45.114c8.284 0 15-6.716 15-15v-15.114c0-8.284-6.716-15-15-15z" fill="#e79e37"/></g><g><path d="m437.086 341.41h-362.172c-8.284 0-15-6.716-15-15s6.716-15 15-15h362.172c8.284 0 15 6.716 15 15s-6.716 15-15 15z" fill="#b1705e"/><path d="m437.086 311.41h-181.086v30h181.086c8.284 0 15-6.716 15-15s-6.716-15-15-15z" fill="#9e5f4e"/></g></g></g></g></g></svg>