<svg id="Capa_1" enable-background="new 0 0 512.508 512.508" height="512" viewBox="0 0 512.508 512.508" width="512" xmlns="http://www.w3.org/2000/svg"><g><g><path d="m376.242 98.458c-2.296 0-4.625-.528-6.81-1.644l-134.07-68.452c-7.378-3.767-10.306-12.802-6.539-20.181 3.767-7.378 12.803-10.305 20.18-6.538l149.365 76.233c7.378 3.767-4.988 5.021-8.756 12.4-2.65 5.194-7.913 8.182-13.37 8.182z" fill="#182831"/><g><path d="m437.422 512.508c-5.575 0-10.93-3.122-13.518-8.48l-18.287-37.796c-3.604-7.459 5.495-4.124 12.955-7.727s16.428-.478 20.031 6.982l12.314 25.492c3.604 7.459.478 16.428-6.982 20.031-2.102 1.016-4.325 1.498-6.513 1.498z" fill="#182831"/><path d="m75.086 512.508c-2.189 0-4.411-.481-6.514-1.497-7.46-3.603-10.586-12.572-6.983-20.031l12.315-25.492c3.604-7.459 12.573-10.585 20.031-6.982 7.46 3.604 15.39 2.472 11.786 9.931l-17.118 35.592c-2.587 5.356-7.942 8.479-13.517 8.479z" fill="#504542"/></g></g><g><g><g><path d="m439.94 473.792h-367.372c-39.938 0-72.314-32.376-72.314-72.314v-257.49c0-39.938 32.376-72.314 72.314-72.314h367.372c39.938 0 72.314 32.376 72.314 72.314v257.49c0 39.938-32.376 72.314-72.314 72.314z" fill="#635551"/><path d="m439.94 71.675h-183.686v402.118h183.686c39.938 0 72.314-32.376 72.314-72.314v-257.49c0-39.938-32.376-72.314-72.314-72.314z" fill="#504542"/></g><g><path d="m63.988 285.507v-95.695c0-30.046 24.357-54.403 54.403-54.403h275.725c30.046 0 54.403 24.357 54.403 54.403v95.695c0 6.801-5.513 12.314-12.314 12.314h-359.902c-6.801 0-12.315-5.513-12.315-12.314z" fill="#86b1e5"/><path d="m394.116 135.409h-137.862v162.413h179.951c6.801 0 12.314-5.513 12.314-12.315v-95.695c0-30.046-24.357-54.403-54.403-54.403z" fill="#578df1"/></g></g><g><g><g><path d="m63.988 285.507v-95.695c0-30.046 24.357-54.403 54.403-54.403h275.725c30.046 0 54.403 24.357 54.403 54.403v95.695c0 6.801-5.513 12.314-12.314 12.314h-359.902c-6.801 0-12.315-5.513-12.315-12.314z" fill="#eff5ff"/><path d="m394.116 135.409h-137.862v162.413h179.951c6.801 0 12.314-5.513 12.314-12.315v-95.695c0-30.046-24.357-54.403-54.403-54.403z" fill="#dae7fd"/></g><g><path d="m361.254 135.409h30v162.413h-30z" fill="#bfdafe"/><path d="m301.254 135.409h30v162.413h-30z" fill="#bfdafe"/><path d="m181.254 135.409h30v162.413h-30z" fill="#dae7fd"/><path d="m121.254 135.409h30v162.413h-30z" fill="#dae7fd"/><g><path d="m241.254 135.409h30v162.413h-30z" fill="#dae7fd"/><path d="m256.254 135.409h15v162.413h-15z" fill="#bfdafe"/></g></g></g><g><g><ellipse cx="415.59" cy="384.787" fill="#182831" rx="31.867" ry="31.867" transform="matrix(.159 -.987 .987 .159 -30.242 734.086)"/><ellipse cx="96.918" cy="384.787" fill="#504542" rx="31.867" ry="31.867" transform="matrix(.159 -.987 .987 .159 -298.371 419.448)"/></g><g><path d="m415.59 399.787h-318.672c-8.284 0-15-6.716-15-15s6.716-15 15-15h318.672c8.284 0 15 6.716 15 15s-6.716 15-15 15z" fill="#504542"/><path d="m415.59 369.787h-159.336v30h159.336c8.284 0 15-6.716 15-15s-6.716-15-15-15z" fill="#182831"/></g></g></g></g></g></svg>