<svg id="Capa_1" enable-background="new 0 0 512 512" height="512" viewBox="0 0 512 512" width="512" xmlns="http://www.w3.org/2000/svg"><g><g><path d="m497 0h-482c-8.284 0-15 6.716-15 15v482c0 8.284 6.716 15 15 15h482c8.284 0 15-6.716 15-15v-482c0-8.284-6.716-15-15-15zm-433.266 202.698h384.531v106h-384.531zm15-138.964h354.531c8.284 0 15 6.716 15 15v93.964h-384.531v-93.964c0-8.284 6.716-15 15-15zm354.532 384.532h-354.532c-8.284 0-15-6.716-15-15v-94.567h384.531v94.567c.001 8.284-6.715 15-14.999 15z" fill="#b1705e"/><path d="m497 0h-241v63.734h177.266c8.284 0 15 6.716 15 15v93.964h-192.266v30h192.266v106h-192.266v30h192.266v94.567c0 8.284-6.716 15-15 15h-177.266v63.735h241c8.284 0 15-6.716 15-15v-482c0-8.284-6.716-15-15-15z" fill="#7b493b"/></g><g><g><g><ellipse cx="161.106" cy="188.302" fill="#a0bd3a" rx="35.436" ry="35.436" transform="matrix(.707 -.707 .707 .707 -85.963 169.072)"/><path d="m161.106 152.866v70.873c19.571 0 35.436-15.865 35.436-35.436s-15.865-35.437-35.436-35.437z" fill="#738b2f"/></g><g><ellipse cx="232.106" cy="188.302" fill="#a0bd3a" rx="35.436" ry="35.436" transform="matrix(.707 -.707 .707 .707 -65.167 219.276)"/><path d="m232.106 152.866v70.873c19.571 0 35.436-15.865 35.436-35.436s-15.865-35.437-35.436-35.437z" fill="#738b2f"/></g><g><ellipse cx="302.979" cy="188.302" fill="#a0bd3a" rx="35.436" ry="35.436" transform="matrix(.158 -.987 .987 .158 69.053 457.621)"/><path d="m302.979 152.866v70.873c19.571 0 35.436-15.865 35.436-35.436s-15.865-35.437-35.436-35.437z" fill="#738b2f"/></g></g><g><g><ellipse cx="216.906" cy="323.698" fill="#e17734" rx="35.436" ry="35.436" transform="matrix(.226 -.974 .974 .226 -147.483 461.718)"/><path d="m216.906 288.262v70.873c19.571 0 35.436-15.865 35.436-35.436 0-19.572-15.865-35.437-35.436-35.437z" fill="#dc4e26"/></g><g><ellipse cx="287.906" cy="323.698" fill="#e17734" rx="35.436" ry="35.436" transform="matrix(.226 -.974 .974 .226 -92.552 530.876)"/><path d="m287.906 288.262v70.873c19.571 0 35.436-15.865 35.436-35.436 0-19.572-15.865-35.437-35.436-35.437z" fill="#dc4e26"/></g><g><ellipse cx="358.779" cy="323.698" fill="#e17734" rx="35.436" ry="35.436" transform="matrix(.169 -.986 .986 .169 -20.806 622.727)"/><path d="m358.779 288.262v70.873c19.571 0 35.436-15.865 35.436-35.436 0-19.572-15.866-35.437-35.436-35.437z" fill="#dc4e26"/></g></g></g></g></svg>