<svg id="Capa_1" enable-background="new 0 0 512 512" height="512" viewBox="0 0 512 512" width="512" xmlns="http://www.w3.org/2000/svg"><g><g><g><g><path d="m55.089 465.806v-450.806c0-8.284 6.716-15 15-15h371.822c8.284 0 15 6.716 15 15v369.783z" fill="#635551"/><path d="m441.911 0h-186.001v425.313l201.001-40.53v-369.783c0-8.284-6.716-15-15-15z" fill="#504542"/></g><g><path d="m287.466 142.142-.007-42.042c-.001-8.283-6.717-14.997-15-14.997h-32.925c-8.284 0-15 6.716-15 15v42.039h-41.64c-8.284 0-15 6.716-15 15v32.971c0 8.283 6.714 14.999 14.997 15l41.643.007.009 108.939c.001 8.284 6.716 14.999 15 14.999h32.924c8.284 0 15-6.716 15-15v-108.937h41.64c8.284 0 15-6.716 15-15v-32.972c0-8.283-6.714-14.999-14.997-15z" fill="#ecbd3e"/><path d="m329.109 142.149-41.643-.007-.007-42.041c-.001-8.283-6.717-14.997-15-14.997h-16.549v243.956h16.557c8.284 0 15-6.716 15-15v-108.939h41.64c8.284 0 15-6.716 15-15v-32.972c0-8.283-6.715-14.998-14.998-15z" fill="#e79e37"/></g></g><g><g><path d="m433.04 384.783h-324.284c-28.52 0-51.842 22.197-53.667 50.256v30.767c0 25.512 20.682 46.194 46.194 46.194h340.628c8.284 0 15-6.716 15-15v-112.217z" fill="#f1d0a7"/><path d="m433.04 384.783h-177.13v127.217h186.001c8.284 0 15-6.716 15-15v-112.217z" fill="#edbc8b"/></g><g><path d="m456.911 430.783h-326.155c-8.284 0-15 6.716-15 15s6.716 15 15 15h326.155z" fill="#edbc8b"/><path d="m255.91 430.783h201.001v30h-201.001z" fill="#e2a773"/></g></g></g><path d="m456.911 208.869-60.161 43.061c-4.047 2.897-6.206 7.435-6.254 12.057-.002.048-.016.092-.016.14v51.903c0 8.284 6.716 15 15 15s15-6.716 15-15v-44.193l36.431-26.076z" fill="#3d3532"/></g></svg>