<svg id="Capa_1" enable-background="new 0 0 512 512" height="512" viewBox="0 0 512 512" width="512" xmlns="http://www.w3.org/2000/svg"><g><g><g><path d="m347.402 512c-8.413 0-15.234-6.716-15.234-15v-199.656c0-8.284 6.82-15 15.234-15 8.413 0 15.234 6.716 15.234 15v199.656c0 8.284-6.82 15-15.234 15z" fill="#e17734"/><path d="m164.598 512c-8.413 0-15.234-6.716-15.234-15v-199.656c0-8.284 6.821-15 15.234-15s15.234 6.716 15.234 15v199.656c-.001 8.284-6.821 15-15.234 15z" fill="#e79e37"/><path d="m286.687 512c-8.413 0-15.234-6.716-15.234-15v-233.773c0-8.284 6.82-15 15.234-15 8.413 0 15.234 6.716 15.234 15v233.773c-.001 8.284-6.821 15-15.234 15z" fill="#e17734"/><path d="m225.752 512c-8.413 0-15.234-6.716-15.234-15v-233.773c0-8.284 6.82-15 15.234-15 8.413 0 15.234 6.716 15.234 15v233.773c0 8.284-6.821 15-15.234 15z" fill="#e79e37"/></g><g><g><path d="m268.429 57.886c-4.17 0-8.313.204-12.429.576-4.116-.372-8.259-.576-12.429-.576-138.161 0-180.245 180.045-180.179 180.084 48.573 28.412 71.253 56.344 81.457 73.398 4.598 7.685 15.032 9.732 22.232 4.319 24.686-18.559 55.492-29.622 88.918-29.747 33.427.125 64.233 11.188 88.918 29.747 7.2 5.413 17.634 3.366 22.232-4.319 10.205-17.053 32.884-44.986 81.457-73.398.068-.039-42.016-180.084-180.177-180.084z" fill="#ecbd3e"/><path d="m268.429 57.886c-3.858 0-7.691.181-11.502.502v227.565c33.069.324 63.535 11.347 87.992 29.734 7.2 5.413 17.634 3.366 22.232-4.319 10.205-17.053 32.884-44.986 81.457-73.398.066-.039-42.018-180.084-180.179-180.084z" fill="#e79e37"/></g><g><path d="m511.31 193.448c-35.475-111.453-135.266-192.05-253.205-193.416v-.02c-.39-.001-.778-.012-1.168-.012-.313 0-.624.009-.937.01-.313-.001-.624-.01-.937-.01-.39 0-.778.011-1.168.013v.02c-117.939 1.365-217.73 81.962-253.205 193.415-2.287 7.185 1.279 14.917 8.234 18.045 15.41 6.933 41.691 19.022 54.169 26.306l.299.171c23.702-88.168 101.016-153.656 192.608-154.101 91.592.445 168.906 65.933 192.607 154.101l.299-.171c12.479-7.284 38.759-19.373 54.169-26.306 6.956-3.129 10.522-10.861 8.235-18.045z" fill="#e17734"/><path d="m511.31 193.448c-35.475-111.453-135.266-192.05-253.205-193.416v-.02c-.39-.001-.778-.012-1.168-.012-.003 0-.007 0-.01 0v83.884c91.185.881 168.06 66.216 191.681 154.086l.299-.171c12.479-7.284 38.759-19.373 54.169-26.306 6.955-3.129 10.521-10.861 8.234-18.045z" fill="#dc4e26"/></g></g></g><g><path d="m347 258.67c-8.284 0-15-6.716-15-15v-13.725c0-8.284 6.716-15 15-15s15 6.716 15 15v13.725c0 8.284-6.716 15-15 15z" fill="#e17734"/><path d="m287 228.67c-8.284 0-15-6.716-15-15v-13.725c0-8.284 6.716-15 15-15s15 6.716 15 15v13.725c0 8.284-6.716 15-15 15z" fill="#e17734"/><g fill="#e79e37"><path d="m227 228.67c-8.284 0-15-6.716-15-15v-13.725c0-8.284 6.716-15 15-15s15 6.716 15 15v13.725c0 8.284-6.716 15-15 15z"/><path d="m167 258.67c-8.284 0-15-6.716-15-15v-13.725c0-8.284 6.716-15 15-15s15 6.716 15 15v13.725c0 8.284-6.716 15-15 15z"/></g></g></g></svg>