<svg id="Capa_1" enable-background="new 0 0 512 512" height="512" viewBox="0 0 512 512" width="512" xmlns="http://www.w3.org/2000/svg"><g><g><g><path d="m447.007 310.06c-8.284 0-15 6.716-15 15l-1 37.947h-160.007v-76.947c0-8.284-6.716-15-15-15s-15 6.716-15 15v76.947h-159.007v-37.947c0-8.284-6.716-15-15-15s-15 6.716-15 15v52.947c0 8.284 6.716 15 15 15h174.007v78.661c0 8.284 6.716 15 15 15s15-6.716 15-15v-78.661h175.007c8.284 0 15-6.716 15-15l1-52.947c0-8.285-6.716-15-15-15z" fill="#e79e37"/><path d="m446.007 310.06c-8.284 0-15 6.716-15 15v37.947h-160.007v-76.947c0-8.284-6.716-15-15-15v215.608c8.284 0 15-6.716 15-15v-78.661h175.007c8.284 0 15-6.716 15-15v-52.947c0-8.285-6.716-15-15-15z" fill="#e17734"/></g><g><g><path d="m354.716 448.773h-197.432c-10.25 0-18.559 8.309-18.559 18.559v34.668h234.55v-34.668c0-10.25-8.309-18.559-18.559-18.559z" fill="#e79e37"/><path d="m354.716 448.773h-98.716v53.227h117.275v-34.668c0-10.25-8.309-18.559-18.559-18.559z" fill="#e17734"/></g><g><path d="m372.777 512h-233.554c-7.713 0-13.966-6.253-13.966-13.966 0-7.713 6.253-13.966 13.966-13.966h233.554c7.713 0 13.966 6.253 13.966 13.966 0 7.713-6.253 13.966-13.966 13.966z" fill="#ecbd3e"/><path d="m372.777 484.068h-116.777v27.932h116.777c7.713 0 13.966-6.253 13.966-13.966s-6.253-13.966-13.966-13.966z" fill="#e79e37"/></g></g></g><g><g><g><g><path d="m445.549 184.398c-8.284 0-15-6.716-15-15v-67.103c0-8.284 6.716-15 15-15s15 6.716 15 15v67.103c0 8.285-6.716 15-15 15z" fill="#dae7fd"/><path d="m445.549 87.296v97.103c8.284 0 15-6.716 15-15v-67.103c0-8.284-6.716-15-15-15z" fill="#bfdafe"/></g><g><path d="m477.974 293.497h-64.849v-116.356c0-8.284 6.716-15 15-15h34.849c8.284 0 15 6.716 15 15z" fill="#eff5ff"/><path d="m462.974 162.141h-17.425v131.356h32.425v-116.356c0-8.284-6.716-15-15-15z" fill="#dae7fd"/></g><g><path d="m480.65 89.34c0 19.386-15.715 35.101-35.101 35.101-19.385 0-35.101-15.715-35.101-35.101 0-14.236 18.931-42.309 28.987-56.217 3.011-4.164 9.216-4.164 12.227 0 10.057 13.908 28.988 41.981 28.988 56.217z" fill="#ecbd3e"/><path d="m451.662 33.123c-1.505-2.082-3.809-3.123-6.113-3.123v94.441c19.386 0 35.101-15.715 35.101-35.101 0-14.236-18.931-42.309-28.988-56.217z" fill="#e79e37"/></g></g><g><path d="m477.315 333.864h-63.533c-19.156 0-34.685-15.529-34.685-34.685v-20.388c0-4.784 3.878-8.662 8.662-8.662h115.578c4.784 0 8.662 3.878 8.662 8.662v20.388c.001 19.156-15.528 34.685-34.684 34.685z" fill="#ecbd3e"/><path d="m503.338 270.129h-57.789v63.734h31.766c19.156 0 34.685-15.529 34.685-34.685v-20.388c0-4.782-3.878-8.661-8.662-8.661z" fill="#e79e37"/></g></g><g><g><g><path d="m66.451 184.398c-8.284 0-15-6.716-15-15v-67.103c0-8.284 6.716-15 15-15s15 6.716 15 15v67.103c0 8.285-6.716 15-15 15z" fill="#dae7fd"/><path d="m66.451 87.296v97.103c8.284 0 15-6.716 15-15v-67.103c0-8.284-6.716-15-15-15z" fill="#bfdafe"/></g><g><path d="m98.876 293.497h-64.85v-116.356c0-8.284 6.716-15 15-15h34.849c8.284 0 15 6.716 15 15v116.356z" fill="#eff5ff"/><path d="m83.876 162.141h-17.425v131.356h32.425v-116.356c0-8.284-6.716-15-15-15z" fill="#dae7fd"/></g><g><path d="m101.552 89.34c0 19.386-15.715 35.101-35.101 35.101s-35.101-15.715-35.101-35.101c0-14.236 18.931-42.309 28.987-56.217 3.011-4.164 9.216-4.164 12.227 0 10.057 13.908 28.988 41.981 28.988 56.217z" fill="#ecbd3e"/><path d="m72.564 33.123c-1.505-2.082-3.809-3.123-6.113-3.123v94.441c19.386 0 35.101-15.715 35.101-35.101 0-14.236-18.931-42.309-28.988-56.217z" fill="#e79e37"/></g></g><g><path d="m98.217 333.864h-63.532c-19.156 0-34.685-15.529-34.685-34.685v-20.388c0-4.784 3.878-8.662 8.662-8.662h115.578c4.784 0 8.662 3.878 8.662 8.662v20.388c0 19.156-15.529 34.685-34.685 34.685z" fill="#ecbd3e"/><path d="m124.24 270.129h-57.789v63.734h31.766c19.156 0 34.685-15.529 34.685-34.685v-20.388c0-4.782-3.878-8.661-8.662-8.661z" fill="#e79e37"/></g></g><g><g><g><g><path d="m256 154.398c-8.284 0-15-6.716-15-15v-67.102c0-8.284 6.716-15 15-15s15 6.716 15 15v67.103c0 8.284-6.716 14.999-15 14.999z" fill="#dae7fd"/></g><path d="m256 57.296v97.103c8.284 0 15-6.716 15-15v-67.103c0-8.284-6.716-15-15-15z" fill="#bfdafe"/></g><g><path d="m288.425 263.497h-64.849v-116.356c0-8.284 6.716-15 15-15h34.849c8.284 0 15 6.716 15 15z" fill="#eff5ff"/><path d="m273.425 132.141h-17.425v131.356h32.425v-116.356c0-8.284-6.716-15-15-15z" fill="#dae7fd"/></g><g><path d="m291.101 59.34c0 19.386-15.715 35.101-35.101 35.101-19.385 0-35.101-15.715-35.101-35.101 0-14.236 18.931-42.309 28.987-56.217 3.011-4.164 9.216-4.164 12.227 0 10.057 13.908 28.988 41.981 28.988 56.217z" fill="#ecbd3e"/><path d="m262.113 3.123c-1.505-2.082-3.809-3.123-6.113-3.123v94.441c19.386 0 35.101-15.715 35.101-35.101 0-14.236-18.931-42.309-28.988-56.217z" fill="#e79e37"/></g></g><g><path d="m287.766 303.864h-63.532c-19.156 0-34.685-15.529-34.685-34.685v-20.388c0-4.784 3.878-8.662 8.662-8.662h115.578c4.784 0 8.662 3.878 8.662 8.662v20.388c0 19.156-15.529 34.685-34.685 34.685z" fill="#ecbd3e"/><path d="m313.789 240.129h-57.789v63.734h31.766c19.156 0 34.685-15.529 34.685-34.685v-20.388c0-4.782-3.878-8.661-8.662-8.661z" fill="#e79e37"/></g></g></g></g></svg>