<svg id="Capa_1" enable-background="new 0 0 512 512" height="512" viewBox="0 0 512 512" width="512" xmlns="http://www.w3.org/2000/svg"><g><g><g><path d="m202.502 492.578s22.016-31.166 22.016-92.571h62.964c0 61.405 22.016 92.571 22.016 92.571z" fill="#dae7fd"/><path d="m255.815 492.578h53.682s-22.016-31.166-22.016-92.571h-31.667v92.571z" fill="#bfdafe"/></g><g><g><g><path d="m241 54.614h30v109.176h-30z" fill="#dae7fd"/><path d="m255.815 54.614h15.185v109.176h-15.185z" fill="#bfdafe"/></g><path d="m359.155 512h-206.31c-71.516 0-129.698-51.404-129.698-114.588v-26.789c0-8.284 6.716-15 15-15 29.662 0 53.542-10.456 73.004-31.964 36.959-40.843 49.459-113.426 53.438-167.124 4.403-59.431-.45-109.099-.5-109.593-.422-4.217.959-8.417 3.803-11.559 2.844-3.143 6.884-4.936 11.122-4.936h153.971c4.238 0 8.279 1.793 11.122 4.936 2.844 3.143 4.225 7.342 3.803 11.559-.07.715-4.907 50.714-.463 110.075 4.008 53.541 16.53 125.917 53.422 166.666 19.459 21.493 43.332 31.941 72.983 31.941 8.284 0 15 6.716 15 15v26.789c.001 63.183-58.181 114.587-129.697 114.587zm-306.008-127.137v12.549c0 46.642 44.724 84.588 99.698 84.588h206.311c54.974 0 99.698-37.946 99.698-84.588v-12.549c-31.558-3.264-58.5-17.04-80.249-41.076-34.258-37.859-54.819-100.114-61.111-185.036-3.085-41.638-1.868-78.158-.67-98.305h-121.647c1.198 20.147 2.415 56.667-.67 98.305-6.292 84.922-26.852 147.177-61.111 185.036-21.749 24.036-48.691 37.812-80.249 41.076z" fill="#dae7fd"/></g><path d="m473.853 355.622c-29.651 0-53.524-10.448-72.983-31.941-36.893-40.749-49.414-113.125-53.422-166.666-4.444-59.361.393-109.36.463-110.075.422-4.217-.959-8.417-3.803-11.559-2.844-3.143-6.884-4.936-11.122-4.936h-77.17v30h61.008c-1.198 20.147-2.415 56.667.67 98.305 6.292 84.922 26.852 147.177 61.111 185.036 21.749 24.036 48.691 37.812 80.249 41.076v12.549c0 46.642-44.724 84.588-99.698 84.588h-103.34v30h103.34c71.516 0 129.698-51.404 129.698-114.588v-26.789c-.001-8.284-6.717-15-15.001-15z" fill="#bfdafe"/></g></g><g><g><g><g><path d="m66.451 310.504c-8.284 0-15-6.716-15-15v-50.034c0-8.284 6.716-15 15-15s15 6.716 15 15v50.034c0 8.285-6.716 15-15 15z" fill="#dae7fd"/><path d="m66.451 230.471c-.062 0-.123.009-.185.009v80.015c.062.001.122.009.185.009 8.284 0 15-6.716 15-15v-50.034c0-8.283-6.716-14.999-15-14.999z" fill="#bfdafe"/></g><g><path d="m98.876 378.803h-64.85v-68.298c0-8.284 6.716-15 15-15h34.849c8.284 0 15 6.716 15 15v68.298z" fill="#bfdafe"/><path d="m83.876 295.505h-17.61v83.298h32.61v-68.298c0-8.285-6.716-15-15-15z" fill="#86b1e5"/></g><g><path d="m98.876 218.039c0 18.01-14.6 32.61-32.61 32.61s-32.61-14.6-32.61-32.61c0-14.444 20.976-44.22 29.282-55.443 1.657-2.239 4.999-2.239 6.656 0 8.305 11.223 29.282 40.998 29.282 55.443z" fill="#ecbd3e"/><path d="m69.594 162.596c-.828-1.119-2.078-1.679-3.328-1.679v89.732c18.01 0 32.61-14.6 32.61-32.61 0-14.445-20.977-44.22-29.282-55.443z" fill="#e79e37"/></g></g><g><path d="m98.217 405.36h-63.532c-19.156 0-34.685-15.529-34.685-34.685v-14.05c0-8.284 6.716-15 15-15h102.902c8.284 0 15 6.716 15 15v14.05c0 19.156-15.529 34.685-34.685 34.685z" fill="#ecbd3e"/><path d="m117.902 341.626h-51.636v63.734h31.951c19.156 0 34.685-15.529 34.685-34.685v-14.05c0-8.283-6.716-14.999-15-14.999z" fill="#e79e37"/></g></g><g><g><g><path d="m445.549 310.504c-8.284 0-15-6.716-15-15v-50.034c0-8.284 6.716-15 15-15s15 6.716 15 15v50.034c0 8.285-6.716 15-15 15z" fill="#dae7fd"/><path d="m445.549 230.471c-.062 0-.123.009-.185.009v80.015c.062.001.123.009.185.009 8.284 0 15-6.716 15-15v-50.034c0-8.283-6.716-14.999-15-14.999z" fill="#bfdafe"/></g><g><path d="m477.974 378.803h-64.849v-68.298c0-8.284 6.716-15 15-15h34.849c8.284 0 15 6.716 15 15z" fill="#bfdafe"/><path d="m462.974 295.505h-17.61v83.298h32.61v-68.298c0-8.285-6.716-15-15-15z" fill="#86b1e5"/></g><g><path d="m477.974 218.039c0 18.01-14.6 32.61-32.61 32.61s-32.61-14.6-32.61-32.61c0-14.444 20.976-44.22 29.282-55.443 1.657-2.239 4.999-2.239 6.656 0 8.305 11.223 29.282 40.998 29.282 55.443z" fill="#ecbd3e"/><path d="m448.692 162.596c-.828-1.119-2.078-1.679-3.328-1.679v89.732c18.01 0 32.61-14.6 32.61-32.61 0-14.445-20.977-44.22-29.282-55.443z" fill="#e79e37"/></g></g><g><path d="m477.315 405.36h-63.532c-19.156 0-34.685-15.529-34.685-34.685v-14.05c0-8.284 6.716-15 15-15h102.902c8.284 0 15 6.716 15 15v14.05c0 19.156-15.529 34.685-34.685 34.685z" fill="#ecbd3e"/><path d="m497 341.626h-51.636v63.734h31.951c19.156 0 34.685-15.529 34.685-34.685v-14.05c0-8.283-6.716-14.999-15-14.999z" fill="#e79e37"/></g></g><g><g><g><path d="m256 280.504c-8.284 0-15-6.716-15-15v-50.034c0-8.284 6.716-15 15-15s15 6.716 15 15v50.034c0 8.285-6.716 15-15 15z" fill="#eff5ff"/><path d="m256 200.471c-.062 0-.123.009-.185.009v80.015c.062.001.123.009.185.009 8.284 0 15-6.716 15-15v-50.034c0-8.283-6.716-14.999-15-14.999z" fill="#dae7fd"/></g><g><path d="m288.425 378.803h-64.849v-98.298c0-8.284 6.716-15 15-15h34.849c8.284 0 15 6.716 15 15z" fill="#bfdafe"/><path d="m273.425 265.505h-17.61v113.298h32.61v-98.298c0-8.285-6.716-15-15-15z" fill="#86b1e5"/></g><g><path d="m288.425 188.039c0 18.01-14.6 32.61-32.61 32.61s-32.61-14.6-32.61-32.61c0-14.444 20.976-44.22 29.282-55.443 1.657-2.239 4.999-2.239 6.656 0 8.305 11.223 29.282 40.998 29.282 55.443z" fill="#ecbd3e"/><path d="m259.143 132.596c-.828-1.119-2.078-1.679-3.328-1.679v89.732c18.01 0 32.61-14.6 32.61-32.61 0-14.445-20.977-44.22-29.282-55.443z" fill="#e79e37"/></g></g><g><path d="m287.766 405.36h-63.532c-19.156 0-34.685-15.529-34.685-34.685v-14.05c0-8.284 6.716-15 15-15h102.902c8.284 0 15 6.716 15 15v14.05c0 19.156-15.529 34.685-34.685 34.685z" fill="#ecbd3e"/><path d="m307.451 341.626h-51.636v63.734h31.951c19.156 0 34.685-15.529 34.685-34.685v-14.05c0-8.283-6.716-14.999-15-14.999z" fill="#e79e37"/></g></g></g><g><path d="m347.844 69.522h-183.688c-10.25 0-18.559-8.309-18.559-18.559v-50.963h220.807v50.963c-.001 10.25-8.31 18.559-18.56 18.559z" fill="#ecbd3e"/><path d="m255.815 0v69.522h92.029c10.25 0 18.559-8.309 18.559-18.559v-50.963z" fill="#e79e37"/></g></g></svg>