<svg id="Capa_1" enable-background="new 0 0 512 512" height="512" viewBox="0 0 512 512" width="512" xmlns="http://www.w3.org/2000/svg"><g><g><g><path d="m96.823 184.072h318.353v256.768h-318.353z" fill="#86b1e5"/><path d="m256 184.072h159.177v256.768h-159.177z" fill="#578df1"/></g><g><path d="m287.772 440.84v-132.171c0-16.522 13.394-29.915 29.915-29.915h3.724c16.522 0 29.915 13.393 29.915 29.915v132.171z" fill="#bfdafe"/><path d="m160.676 440.84v-132.168c0-16.522 13.393-29.915 29.915-29.915h3.724c16.522 0 29.915 13.393 29.915 29.915v132.168z" fill="#dae7fd"/><g><path d="m224.223 440.84v-132.154c0-16.522 13.393-29.915 29.915-29.915h3.724c16.521 0 29.915 13.393 29.915 29.915v132.154z" fill="#eff5ff"/><path d="m257.862 278.771h-1.862v162.07h31.777v-132.155c0-16.522-13.394-29.915-29.915-29.915z" fill="#dae7fd"/></g></g></g><g><g><path d="m337.193 87.869c-11.189 0-20.258-9.07-20.258-20.258v-4.015c0-8.861-5.606-16.752-13.973-19.669-3.675-1.281-7.391-2.404-11.135-3.376l-12.829-22.22-4.375-7.578c-8.277-14.336-28.969-14.336-37.246 0l-4.375 7.578-12.829 22.22c-3.744.972-7.46 2.095-11.135 3.376-8.367 2.917-13.973 10.808-13.973 19.669v4.015c0 11.188-9.07 20.258-20.258 20.258-35.443 0-64.175 28.732-64.175 64.175l145.368 10 145.367-10c.001-35.443-28.732-64.175-64.174-64.175z" fill="#504542"/><path d="m337.179 87.869c-11.23.002-20.244-9.316-20.244-20.546v-3.728c0-8.861-5.606-16.752-13.973-19.669-3.675-1.281-7.391-2.404-11.135-3.376l-12.829-22.22-4.375-7.578c-4.139-7.168-11.381-10.752-18.623-10.752v162.044l145.367-10c0-35.448-28.739-64.183-64.188-64.175z" fill="#182831"/></g><g><path d="m410.157 215.849h-308.314c-17.55 0-31.777-14.227-31.777-31.777 0-17.55 14.227-31.777 31.777-31.777h308.313c17.55 0 31.777 14.227 31.777 31.777.001 17.55-14.226 31.777-31.776 31.777z" fill="#e17734"/><path d="m410.157 152.295h-154.157v63.554h154.156c17.55 0 31.777-14.227 31.777-31.777.001-17.55-14.226-31.777-31.776-31.777z" fill="#dc4e26"/></g><g><path d="m410.022 427.199h-308.044c-17.624 0-31.912 14.287-31.912 31.911 0 17.519 14.123 31.762 31.641 31.91l119.88 1.015c7.072.06 13.585 3.857 17.122 9.982 7.685 13.31 26.897 13.31 34.582 0 3.536-6.125 10.049-9.922 17.122-9.982l119.88-1.015c17.518-.148 31.641-14.391 31.641-31.91 0-17.624-14.288-31.911-31.912-31.911z" fill="#e17734"/><path d="m410.022 427.199h-154.022v84.801c6.724 0 13.448-3.328 17.291-9.983 3.536-6.125 10.049-9.922 17.122-9.982l119.88-1.015c17.518-.148 31.641-14.391 31.641-31.91 0-17.624-14.288-31.911-31.912-31.911z" fill="#dc4e26"/></g></g></g></svg>