<svg id="Capa_1" enable-background="new 0 0 512 512" height="512" viewBox="0 0 512 512" width="512" xmlns="http://www.w3.org/2000/svg"><g><g><path d="m256 265.974-171.035 108.046c-6.132 3.874-8.603 11.576-5.903 18.307 28.132 70.138 96.745 119.673 176.938 119.673s148.806-49.535 176.939-119.673c2.7-6.731.228-14.433-5.903-18.307z" fill="#edbc8b"/><path d="m427.035 374.021-171.027-108.043v246.022c80.19-.003 148.799-49.537 176.931-119.673 2.699-6.731.228-14.433-5.904-18.306z" fill="#e2a773"/></g><g><g><g><path d="m398.005 264.845v-113.946c0-8.284 6.716-15 15-15h34.35c8.284 0 15 6.716 15 15v113.946c0 8.284-6.716 15-15 15h-34.35c-8.284 0-15-6.716-15-15z" fill="#7b493b"/><path d="m49.645 264.845v-113.946c0-8.284 6.716-15 15-15h34.35c8.284 0 15 6.716 15 15v113.946c0 8.284-6.716 15-15 15h-34.35c-8.284 0-15-6.716-15-15z" fill="#b1705e"/></g><g><path d="m312.973 64.35h-113.946c-8.284 0-15-6.716-15-15v-34.35c0-8.284 6.716-15 15-15h113.946c8.284 0 15 6.716 15 15v34.35c0 8.284-6.716 15-15 15z" fill="#b1705e"/><path d="m312.973 0h-56.965v64.35h56.965c8.284 0 15-6.716 15-15v-34.35c0-8.284-6.716-15-15-15z" fill="#7b493b"/></g></g><g><g><circle cx="256.008" cy="207.872" fill="#e2a773" r="152.636"/><path d="m256.008 55.237v305.271c84.298 0 152.635-68.337 152.635-152.635 0-84.299-68.337-152.636-152.635-152.636z" fill="#b1705e"/></g><g><g><path d="m256.008 296.773c-18.381 0-35.478-5.607-49.668-15.201-4.732-3.199 2.787-17.364-1.239-21.389-3.075-3.075-17.853 4.15-20.453.655-11.016-14.803-17.541-33.137-17.541-52.966 0-18.381 5.607-35.477 15.201-49.667 2.64-3.905 16.568 1.084 19.779-2.348 3.65-3.901-3.339-16.149.955-19.345 14.803-11.016 33.137-17.542 52.967-17.542 19.829 0 38.162 6.525 52.966 17.542 3.495 2.601-3.224 15.667-.15 18.742 4.024 4.024 17.683-1.784 20.882 2.947 9.595 14.191 15.204 31.288 15.204 49.671 0 19.829-6.526 38.163-17.542 52.967-2.601 3.495-15.469 2.06-18.543 5.135-4.024 4.024 1.585 12.398-3.145 15.596-14.193 9.595-31.29 15.203-49.673 15.203z" fill="#f1d0a7"/><path d="m256.008 118.971v177.803c18.383 0 35.48-5.608 49.671-15.204 4.024-2.721-3.39-18.665.13-21.99 3.779-3.57 18.449 5.437 21.558 1.259 11.017-14.804 17.542-33.137 17.542-52.967 0-18.245-5.524-35.224-14.988-49.351-2.839-4.238-18.798 6.446-22.303 2.764s5.442-21.732 1.356-24.772c-14.804-11.017-33.137-17.542-52.966-17.542z" fill="#edbc8b"/></g><g><path d="m308.972 136.514-52.965 52.965-52.964-52.965c-8.07 6.006-15.093 13.344-20.735 21.69l52.487 52.487-50.144 50.144c6.006 8.071 13.344 15.093 21.69 20.736l49.667-49.667 49.668 49.668c8.346-5.642 15.685-12.665 21.69-20.736l-50.145-50.145 52.488-52.488c-5.644-8.344-12.666-15.683-20.737-21.689z" fill="#e2a773"/><path d="m329.708 158.204c-5.643-8.346-12.665-15.684-20.736-21.69l-52.964 52.964v42.427l49.667 49.667c8.346-5.642 15.685-12.665 21.69-20.736l-50.145-50.145z" fill="#b1705e"/></g></g></g></g></g></svg>