<svg id="Capa_1" enable-background="new 0 0 512 512" height="512" viewBox="0 0 512 512" width="512" xmlns="http://www.w3.org/2000/svg"><g><g><g><g><path d="m129.048 125.701h-114.048c-8.284 0-15-6.716-15-15s6.716-15 15-15h114.048c8.284 0 15 6.716 15 15s-6.716 15-15 15z" fill="#7b493b"/><path d="m497 125.701h-114.048c-8.284 0-15-6.716-15-15s6.716-15 15-15h114.048c8.284 0 15 6.716 15 15s-6.716 15-15 15z" fill="#2c2226"/><path d="m353.097 140.556c-16.489 0-29.855-13.367-29.855-29.855 0-16.489 13.367-29.855 29.855-29.855 16.489 0 29.855 13.367 29.855 29.855 0 16.489-13.366 29.855-29.855 29.855z" fill="#7b493b"/><path d="m158.903 140.556c-16.489 0-29.855-13.367-29.855-29.855 0-16.489 13.367-29.855 29.855-29.855 16.489 0 29.855 13.367 29.855 29.855 0 16.489-13.366 29.855-29.855 29.855z" fill="#b1705e"/><g><path d="m293.386 140.556h-74.772c-16.489 0-29.855-13.367-29.855-29.855 0-16.489 13.367-29.855 29.855-29.855h74.772c16.489 0 29.855 13.367 29.855 29.855 0 16.489-13.366 29.855-29.855 29.855z" fill="#b1705e"/><path d="m293.386 80.846h-37.385v59.711h37.385c16.489 0 29.855-13.367 29.855-29.855s-13.366-29.856-29.855-29.856z" fill="#7b493b"/></g></g><g><g><g><path d="m448.133 257.031c-8.284 0-15-6.716-15-15v-13.894c0-8.284 6.716-15 15-15s15 6.716 15 15v13.894c0 8.284-6.715 15-15 15z" fill="#ecbd3e"/><path d="m448.133 213.137v43.894c8.284 0 15-6.716 15-15v-13.894c0-8.284-6.715-15-15-15z" fill="#e79e37"/></g><g><path d="m448.133 181.132c-8.284 0-15-6.716-15-15v-74.431c0-8.284 6.716-15 15-15s15 6.716 15 15v74.431c0 8.284-6.715 15-15 15z" fill="#ecbd3e"/><path d="m448.133 76.701v104.431c8.284 0 15-6.716 15-15v-74.431c0-8.284-6.715-15-15-15z" fill="#e79e37"/></g><g><path d="m408.12 223.755h80.027l-9.536-57.6c-1.199-7.24-7.46-12.55-14.799-12.55h-31.357c-7.339 0-13.6 5.31-14.798 12.55z" fill="#e79e37"/><path d="m448.133 223.755h40.014l-9.536-57.6c-1.199-7.24-7.46-12.55-14.799-12.55h-15.678v70.15z" fill="#e17734"/></g><g><path d="m497 243.137h-97.733c-8.284 0-15-6.716-15-15s6.716-15 15-15h97.733c8.284 0 15 6.716 15 15s-6.716 15-15 15z" fill="#504542"/><path d="m497 213.137h-48.867v30h48.867c8.284 0 15-6.716 15-15s-6.716-15-15-15z" fill="#182831"/></g></g><g><g><path d="m63.867 257.031c-8.284 0-15-6.716-15-15v-13.894c0-8.284 6.716-15 15-15s15 6.716 15 15v13.894c0 8.284-6.716 15-15 15z" fill="#ecbd3e"/><path d="m63.867 213.137v43.894c8.284 0 15-6.716 15-15v-13.894c0-8.284-6.716-15-15-15z" fill="#e79e37"/></g><g><path d="m63.867 181.132c-8.284 0-15-6.716-15-15v-74.431c0-8.284 6.716-15 15-15s15 6.716 15 15v74.431c0 8.284-6.716 15-15 15z" fill="#ecbd3e"/><path d="m63.867 76.701v104.431c8.284 0 15-6.716 15-15v-74.431c0-8.284-6.716-15-15-15z" fill="#e79e37"/></g><g><path d="m23.853 223.755h80.027l-9.536-57.6c-1.199-7.24-7.46-12.55-14.799-12.55h-31.357c-7.339 0-13.6 5.31-14.799 12.55z" fill="#e79e37"/><path d="m63.867 223.755h40.014l-9.536-57.6c-1.199-7.24-7.46-12.55-14.799-12.55h-15.679z" fill="#e17734"/></g><g><path d="m112.733 243.137h-97.733c-8.284 0-15-6.716-15-15s6.716-15 15-15h97.733c8.284 0 15 6.716 15 15s-6.715 15-15 15z" fill="#504542"/><path d="m112.733 213.137h-48.866v30h48.867c8.284 0 15-6.716 15-15-.001-8.284-6.716-15-15.001-15z" fill="#182831"/></g></g></g></g><g><g><path d="m256 303.736c-8.284 0-15-6.716-15-15v-97c0-8.284 6.716-15 15-15s15 6.716 15 15v97c0 8.284-6.716 15-15 15z" fill="#e79e37"/><path d="m256.001 176.736v127c8.284-.001 14.999-6.716 14.999-15v-97c0-8.284-6.715-15-14.999-15z" fill="#e17734"/></g><g><path d="m323.241 222.736h-134.483c-8.284 0-15-6.716-15-15v-147.437c0-8.284 6.716-15 15-15s15 6.716 15 15v132.437h104.483v-132.437c0-8.284 6.716-15 15-15s15 6.716 15 15v147.437c0 8.284-6.715 15-15 15z" fill="#ecbd3e"/><path d="m323.241 45.299c-8.284 0-15 6.716-15 15v132.437h-52.241v30h67.241c8.284 0 15-6.716 15-15v-147.437c0-8.284-6.715-15-15-15z" fill="#e79e37"/></g></g></g><g><g><g><path d="m418.601 451.701h-325.202v-142.162c0-16.988 13.772-30.76 30.76-30.76h263.682c16.988 0 30.76 13.772 30.76 30.76z" fill="#e17734"/><path d="m387.841 278.779h-131.84v172.922h162.6v-142.162c0-16.988-13.772-30.76-30.76-30.76z" fill="#dc4e26"/></g><g><path d="m438.59 466.701h-365.18c-8.284 0-15-6.716-15-15s6.716-15 15-15h365.18c8.284 0 15 6.716 15 15s-6.716 15-15 15z" fill="#504542"/><path d="m438.59 436.701h-182.589v30h182.589c8.284 0 15-6.716 15-15s-6.716-15-15-15z" fill="#182831"/></g></g><g><g><circle cx="256" cy="361.701" fill="#635551" r="90"/><path d="m256.001 271.701v180c49.626-.001 89.999-40.374 89.999-90s-40.374-90-89.999-90z" fill="#504542"/><g><circle cx="256" cy="361.701" fill="#ecbd3e" r="60"/><path d="m256.001 301.701v120c33.084-.001 59.999-26.916 59.999-60s-26.916-60-59.999-60z" fill="#e79e37"/></g></g><g><circle cx="256" cy="361.701" fill="#e79e37" r="30"/><path d="m256.001 331.701v60c16.542-.001 29.999-13.458 29.999-30s-13.457-30-29.999-30z" fill="#e17734"/></g></g></g></g></svg>