<svg id="Capa_1" enable-background="new 0 0 512 512" height="512" viewBox="0 0 512 512" width="512" xmlns="http://www.w3.org/2000/svg"><g><g><g><path d="m435.646 293.859c-8.284 0-15-6.716-15-15v-59.778c-10.188-2.758-18.874-8.457-25.57-16.871-20.643-25.937-17.534-72.505-13.684-98.637h-35.037c-8.284 0-15-6.716-15-15s6.716-15 15-15h53.03c4.57 0 8.891 2.083 11.736 5.659 2.846 3.575 3.906 8.254 2.881 12.707-3.959 17.304-11.626 71.297 4.557 91.602 4.111 5.159 9.381 7.459 17.087 7.459 8.284 0 15 6.716 15 15v72.859c0 8.285-6.716 15-15 15z" fill="#e17734"/><path d="m76.355 293.859c-8.284 0-15-6.716-15-15v-72.859c0-8.284 6.716-15 15-15 7.711 0 12.984-2.305 17.097-7.472 16.231-20.394 8.526-74.31 4.547-91.589-1.026-4.453.035-9.132 2.881-12.707 2.846-3.576 7.166-5.659 11.736-5.659h53.03c8.284 0 15 6.716 15 15s-6.716 15-15 15h-35.038c3.851 26.132 6.959 72.7-13.684 98.638-6.696 8.413-15.382 14.112-25.57 16.87v59.778c.001 8.285-6.715 15-14.999 15z" fill="#e79e37"/></g><g><g><path d="m256 275.859c-28.537 0-55.027-15.008-74.591-42.258-18.484-25.747-28.665-59.724-28.665-95.672s10.18-69.926 28.665-95.673c19.564-27.249 46.054-42.256 74.591-42.256s55.027 15.007 74.591 42.257c18.485 25.747 28.665 59.725 28.665 95.673s-10.18 69.925-28.665 95.672c-19.564 27.25-46.054 42.257-74.591 42.257z" fill="#ecbd3e"/><path d="m330.591 42.257c-19.555-27.238-46.03-42.243-74.552-42.256v275.858c28.523-.014 54.998-15.02 74.552-42.257 18.485-25.747 28.665-59.724 28.665-95.672 0-35.949-10.18-69.926-28.665-95.673z" fill="#e79e37"/></g><g><g><path d="m306.222 59.753c-13.776-19.187-31.611-29.753-50.222-29.753s-36.446 10.566-50.221 29.753c-14.854 20.69-23.035 48.454-23.035 78.177s8.181 57.486 23.035 78.176c13.775 19.188 31.61 29.754 50.221 29.754 18.61 0 36.446-10.566 50.222-29.754 14.853-20.689 23.034-48.453 23.034-78.176s-8.181-57.487-23.034-78.177z" fill="#eff5ff"/><path d="m306.222 59.753c-13.766-19.173-31.586-29.738-50.183-29.752v215.858c18.596-.015 36.417-10.579 50.183-29.753 14.853-20.689 23.034-48.453 23.034-78.176s-8.181-57.487-23.034-78.177z" fill="#dae7fd"/></g><g><g><path d="m239.373 132.469c-4.123 0-8.227-1.688-11.189-5.004-5.521-6.177-4.989-15.659 1.188-21.18l33.266-29.731c6.178-5.521 15.66-4.989 21.18 1.188 5.521 6.177 4.989 15.659-1.188 21.18l-33.266 29.731c-2.863 2.557-6.434 3.816-9.991 3.816z" fill="#dae7fd"/><path d="m283.816 77.741c-5.52-6.177-15.002-6.708-21.18-1.188l-6.598 5.897v40.235l26.591-23.766c6.177-5.519 6.709-15.001 1.187-21.178z" fill="#bfdafe"/></g><g><path d="m240.67 202.706c-4.123 0-8.227-1.689-11.189-5.004-5.52-6.177-4.988-15.66 1.188-21.181l30.671-27.412c6.179-5.519 15.659-4.987 21.181 1.188 5.521 6.177 4.988 15.66-1.189 21.181l-30.672 27.412c-2.861 2.557-6.433 3.816-9.99 3.816z" fill="#dae7fd"/><path d="m282.521 150.298c-5.521-6.176-15.002-6.707-21.181-1.188l-5.301 4.738v40.236l25.294-22.605c6.176-5.521 6.708-15.004 1.188-21.181z" fill="#bfdafe"/></g></g></g></g></g><g><g><g><path d="m54.441 502.949-9.417-152.787c-.017-.269-.026-.541-.022-.811.218-16.292 13.513-29.432 29.881-29.432 16.369 0 29.664 13.14 29.882 29.432.004.27-.006.541-.022.811l-9.417 152.787c-.313 5.086-4.536 9.051-9.64 9.051h-21.605c-5.104 0-9.326-3.965-9.64-9.051z" fill="#504542"/><path d="m74.883 319.919v192.081h10.803c5.104 0 9.326-3.965 9.64-9.051l9.417-152.787c.017-.269.026-.541.022-.811-.218-16.291-13.513-29.432-29.882-29.432z" fill="#3d3532"/></g><g><path d="m416.673 502.947-9.442-153.189c0-16.48 13.38-29.839 29.884-29.839 16.505 0 29.884 13.359 29.884 29.839l-9.442 153.189c-.314 5.087-4.537 9.053-9.642 9.053h-21.601c-5.104 0-9.328-3.966-9.641-9.053z" fill="#504542"/><path d="m437.115 319.919v192.081h10.801c5.105 0 9.328-3.966 9.642-9.053l9.442-153.189c-.001-16.479-13.381-29.839-29.885-29.839z" fill="#3d3532"/></g></g><g><g><g><path d="m362.784 379.628h-213.568c-8.284 0-15-6.716-15-15v-44.768h106.784l15 10 15-10h106.784v44.768c0 8.284-6.715 15-15 15z" fill="#504542"/><path d="m271 319.859-14.962 9.975v49.794h106.746c8.284 0 15-6.716 15-15v-44.768h-106.784z" fill="#3d3532"/></g><g><path d="m241 319.859v13.769c0 8.284 6.716 15 15 15s15-6.716 15-15v-13.769z" fill="#ecbd3e"/><path d="m256.038 319.859v28.767c8.266-.021 14.962-6.727 14.962-14.998v-13.769z" fill="#e79e37"/></g></g><g><path d="m464.299 319.859h-416.598c-8.284.768-15-5.947-15-14.232v-14.768c0-8.284 6.716-15 15-15h416.598c8.284 0 15 6.716 15 15v14.768c0 8.285-6.716 15.001-15 14.232z" fill="#635551"/><path d="m464.299 275.859h-208.261v44h208.261c8.284.768 15-5.947 15-14.232v-14.768c0-8.284-6.716-15-15-15z" fill="#504542"/></g></g></g></g></svg>