<svg id="Capa_1" enable-background="new 0 0 512 512" height="512" viewBox="0 0 512 512" width="512" xmlns="http://www.w3.org/2000/svg"><g><g><g><path d="m131.88 206.311-57.496 146.654c-3.033 7.736-11.872 11.597-19.752 8.628l-44.81-16.882c-7.892-2.973-11.833-11.671-8.798-19.421l82.251-210.028 48.605 34.163z" fill="#738b2f"/><path d="m380.12 206.311 57.496 146.654c3.033 7.736 11.872 11.597 19.752 8.628l44.81-16.882c7.892-2.974 11.833-11.672 8.798-19.421l-82.251-210.028-48.605 34.163z" fill="#5b7726"/></g><g><path d="m338.398 284.466 90.327-169.203-110.776-62.58v-37.659c0-8.298-6.849-15.024-15.296-15.024h-93.486c-8.448 0-15.296 6.726-15.296 15.024v37.659l-110.776 62.58 90.327 169.203c6.849 12.83 7.221 28.062 1.005 41.199l-66.622 140.822c-3.839 8.115.35 17.707 8.982 20.567l14.811 4.907c80.642 26.719 167.981 26.719 248.624 0l14.81-4.907c8.633-2.86 12.822-12.452 8.983-20.567l-66.622-140.822c-6.216-13.137-5.844-28.369 1.005-41.199z" fill="#a0bd3a"/><path d="m337.392 325.665c-6.215-13.137-5.844-28.369 1.006-41.199l90.327-169.203-110.776-62.58v-37.659c0-8.298-6.849-15.024-15.296-15.024h-46.743v512c41.995 0 83.991-6.68 124.312-20.039l14.81-4.907c8.633-2.86 12.822-12.452 8.982-20.567z" fill="#738b2f"/></g></g><g><g fill="#a0bd3a"><path d="m275.28 367.961c-6.38 0-12.253-4.055-14.389-9.962-2.136-5.906-.266-12.69 4.69-16.67 4.955-3.979 12.062-4.486 17.558-1.272 5.469 3.197 8.412 9.683 7.141 15.815-1.439 6.939-7.771 12.089-15 12.089z"/><path d="m275.28 295.116c-6.379 0-12.253-4.055-14.389-9.962-2.133-5.898-.27-12.706 4.69-16.68 4.956-3.971 12.069-4.471 17.558-1.262 5.469 3.198 8.412 9.682 7.141 15.815-1.438 6.938-7.772 12.089-15 12.089z"/><path d="m275.28 222.271c-6.379 0-12.253-4.055-14.389-9.962s-.267-12.689 4.69-16.67c4.956-3.979 12.062-4.486 17.558-1.272 5.47 3.198 8.412 9.682 7.141 15.815-1.438 6.938-7.772 12.089-15 12.089z"/><path d="m275.28 149.426c-6.378 0-12.253-4.056-14.389-9.962-2.133-5.899-.27-12.706 4.69-16.68 4.961-3.975 12.065-4.474 17.558-1.262 5.469 3.198 8.413 9.681 7.141 15.815-1.438 6.937-7.772 12.089-15 12.089z"/></g><g><path d="m240.619 511.7c10.193.394 20.398.394 30.592 0v-511.7h-30.592z" fill="#738b2f"/><path d="m255.91 0v511.996c5.101 0 10.203-.098 15.301-.296v-511.7z" fill="#5b7726"/></g></g></g></svg>