<svg id="Capa_1" enable-background="new 0 0 512 512" height="512" viewBox="0 0 512 512" width="512" xmlns="http://www.w3.org/2000/svg"><g><g><path d="m448.221 512c-8.284 0-15-6.716-15-15v-50.191c0-8.284 6.716-15 15-15s15 6.716 15 15v50.191c0 8.284-6.716 15-15 15z" fill="#504542"/><path d="m63.779 512c-8.284 0-15-6.716-15-15v-50.191c0-8.284 6.716-15 15-15s15 6.716 15 15v50.191c0 8.284-6.716 15-15 15z" fill="#635551"/></g><g><g><g><g><path d="m132.828 158.34s27.46 238.073-88.523 253.302l212.579 12.41 210.813-12.41c-115.984-15.229-78.523-253.302-78.523-253.302z" fill="#635551"/><path d="m389.172 158.34h-133.172v265.618l.883.093 210.813-12.41c-115.984-15.228-78.524-253.301-78.524-253.301z" fill="#3d3532"/></g><g><path d="m497 461.751h-482c-8.284 0-15-6.716-15-15v-30.109c0-8.284 6.716-15 15-15h482c8.284 0 15 6.716 15 15v30.109c0 8.284-6.716 15-15 15z" fill="#a0bd3a"/><path d="m497 401.642h-241v60.109h241c8.284 0 15-6.716 15-15v-30.109c0-8.285-6.716-15-15-15z" fill="#738b2f"/></g></g><g><g><path d="m124.061 161.668h-37.183c-8.284 0-15-6.716-15-15s6.716-15 15-15h37.183c8.284 0 15 6.716 15 15s-6.716 15-15 15z" fill="#738b2f"/><path d="m425.122 161.668h-37.183c-8.284 0-15-6.716-15-15s6.716-15 15-15h37.183c8.284 0 15 6.716 15 15s-6.716 15-15 15z" fill="#5b7726"/></g><g><g><circle cx="256" cy="146.668" fill="#738b2f" r="146.667"/><path d="m256 0v293.335c80.872 0 146.667-65.795 146.667-146.667 0-80.873-65.795-146.668-146.667-146.668z" fill="#5b7726"/></g><g><circle cx="256" cy="146.667" fill="#eff5ff" r="116.667"/><path d="m256 30v233.334c64.433 0 116.667-52.234 116.667-116.667s-52.234-116.667-116.667-116.667z" fill="#dae7fd"/></g><g><path d="m335.85 131.668h-64.85v-26.273c0-8.284-6.716-15-15-15s-15 6.716-15 15v41.273c0 8.284 6.716 15 15 15h79.85c8.284 0 15-6.716 15-15s-6.716-15-15-15z" fill="#a0bd3a"/><path d="m335.85 131.668h-64.85v-26.273c0-8.284-6.716-15-15-15v71.273h79.85c8.284 0 15-6.716 15-15s-6.716-15-15-15z" fill="#738b2f"/></g></g></g></g><g><g><path d="m321.547 361.779h-15.094c-8.284 0-15-6.716-15-15s6.716-15 15-15h15.094c8.284 0 15 6.716 15 15 0 8.285-6.716 15-15 15z" fill="#86b1e5"/><path d="m205.547 361.779h-15.094c-8.284 0-15-6.716-15-15s6.716-15 15-15h15.094c8.284 0 15 6.716 15 15 0 8.285-6.716 15-15 15z" fill="#bfdafe"/></g><g><g><path d="m256 401.642c-29.785 0-54.018-24.232-54.018-54.017s24.232-54.018 54.018-54.018 54.018 24.233 54.018 54.018-24.233 54.017-54.018 54.017z" fill="#eff5ff"/><path d="m256 293.606v108.035c29.785 0 54.018-24.232 54.018-54.017s-24.233-54.018-54.018-54.018z" fill="#dae7fd"/></g><g><path d="m255.993 362.608c-6.284 0-11.982-4.064-14.115-9.952-2.126-5.869-.243-12.706 4.605-16.647 4.868-3.958 11.825-4.492 17.217-1.265 5.363 3.209 8.245 9.658 7.004 15.795-1.4 6.917-7.64 12.069-14.711 12.069z" fill="#bfdafe"/><path d="m263.699 334.743c-2.368-1.417-5.037-2.107-7.699-2.103v29.967c7.069-.004 13.304-5.155 14.703-12.07 1.24-6.135-1.641-12.584-7.004-15.794z" fill="#86b1e5"/></g></g></g></g></g></svg>