<svg id="Capa_1" enable-background="new 0 0 512 512" height="512" viewBox="0 0 512 512" width="512" xmlns="http://www.w3.org/2000/svg"><g><g><g><g><path d="m226.042 437.084h59.916v59.916h-59.916z" fill="#504542"/><path d="m256 437.084h29.958v59.916h-29.958z" fill="#182831"/></g><g><path d="m358.163 451.94h-204.326c-51.122 0-92.713-41.591-92.713-92.713v-162.227c0-8.284 6.716-15 15-15h60c8.284 0 15 6.716 15 15s-6.716 15-15 15h-45v147.227c0 34.58 28.133 62.713 62.713 62.713h204.326c34.58 0 62.713-28.133 62.713-62.713v-147.227h-45c-8.284 0-15-6.716-15-15s6.716-15 15-15h60c8.284 0 15 6.716 15 15v162.227c0 51.122-41.591 92.713-92.713 92.713z" fill="#635551"/><path d="m435.876 182h-60c-8.284 0-15 6.716-15 15s6.716 15 15 15h45v147.227c0 34.58-28.133 62.713-62.713 62.713h-102.163v30h102.163c51.122 0 92.713-41.591 92.713-92.713v-162.227c0-8.284-6.716-15-15-15z" fill="#504542"/></g></g><g><path d="m345.958 512h-179.916c-8.284 0-15-6.716-15-15s6.716-15 15-15h179.916c8.284 0 15 6.716 15 15s-6.716 15-15 15z" fill="#635551"/><path d="m345.958 482h-89.958v30h89.958c8.284 0 15-6.716 15-15s-6.716-15-15-15z" fill="#504542"/></g></g><g><g><g><path d="m337.836 392.948h-163.673c-26.68 0-48.309-21.629-48.309-48.309v-296.33c0-26.68 21.629-48.309 48.309-48.309h163.673c26.681 0 48.309 21.629 48.309 48.309v296.329c.001 26.681-21.628 48.31-48.309 48.31z" fill="#eff5ff"/><path d="m337.836 0h-81.836v392.948h81.836c26.681 0 48.309-21.629 48.309-48.309v-296.33c.001-26.68-21.628-48.309-48.309-48.309z" fill="#dae7fd"/></g><g><path d="m125.854 237.509v107.129c0 26.68 21.629 48.309 48.309 48.309h163.673c26.681 0 48.309-21.629 48.309-48.309v-107.129z" fill="#635551"/><path d="m256 237.509v155.439h81.836c26.681 0 48.309-21.629 48.309-48.309v-107.13z" fill="#504542"/></g></g><g><g><path d="m316 210c-6.415 0-12.204-4.229-14.236-10.294-2.025-6.047.167-12.978 5.308-16.756 5.113-3.757 12.162-3.895 17.407-.316 5.275 3.599 7.716 10.421 5.921 16.549-1.855 6.331-7.796 10.817-14.4 10.817z" fill="#bfdafe"/><path d="m196 210c-5.89 0-11.299-3.566-13.704-8.924-2.649-5.9-1.055-13.036 3.772-17.315 4.908-4.35 12.22-4.916 17.795-1.525 5.407 3.289 8.169 9.927 6.759 16.083-1.543 6.737-7.69 11.681-14.622 11.681z" fill="#dae7fd"/><path d="m316 150c-6.277 0-11.988-4.06-14.119-9.947-2.127-5.877-.233-12.703 4.609-16.654 4.883-3.985 11.807-4.453 17.216-1.259 5.38 3.177 8.231 9.677 7.004 15.79-1.39 6.92-7.643 12.07-14.71 12.07z" fill="#bfdafe"/><path d="m196 150c-6.4 0-12.224-4.23-14.24-10.294-1.975-5.94.082-12.745 5.055-16.564 4.54-3.487 10.802-4.112 15.92-1.531 5.768 2.909 9.109 9.386 8.07 15.775-1.165 7.166-7.534 12.614-14.805 12.614z" fill="#dae7fd"/><path d="m316 90c-6.175 0-11.845-3.942-14.026-9.707-2.181-5.764-.519-12.444 4.094-16.533 4.908-4.351 12.219-4.916 17.795-1.525 5.408 3.289 8.169 9.927 6.759 16.083-1.544 6.739-7.69 11.682-14.622 11.682z" fill="#bfdafe"/><path d="m196 90c-5.836 0-11.265-3.511-13.663-8.827-2.625-5.821-1.211-12.893 3.51-17.222 4.444-4.074 11.111-5.106 16.56-2.502 5.999 2.868 9.518 9.51 8.372 16.09-1.234 7.097-7.555 12.461-14.779 12.461z" fill="#dae7fd"/><g><path d="m256 210c-5.885 0-11.312-3.561-13.704-8.924-2.631-5.898-1.073-13.042 3.772-17.315 4.921-4.34 12.209-4.923 17.796-1.525 5.581 3.394 8.29 10.299 6.635 16.591-1.712 6.504-7.781 11.173-14.499 11.173z" fill="#dae7fd"/><path d="m263.863 182.236c-2.413-1.467-5.143-2.189-7.863-2.189v29.953c6.718 0 12.787-4.669 14.498-11.173 1.655-6.293-1.054-13.197-6.635-16.591z" fill="#bfdafe"/></g><g><path d="m256 150c-6.277 0-11.989-4.06-14.119-9.947-2.127-5.877-.233-12.703 4.609-16.654 4.883-3.985 11.807-4.453 17.216-1.259 5.38 3.177 8.231 9.678 7.004 15.79-1.39 6.918-7.644 12.07-14.71 12.07z" fill="#dae7fd"/><path d="m263.706 122.14c-2.377-1.403-5.046-2.098-7.706-2.1v29.96c7.066 0 13.32-5.152 14.71-12.07 1.227-6.112-1.624-12.613-7.004-15.79z" fill="#bfdafe"/></g><g><path d="m256 90c-6.176 0-11.848-3.939-14.027-9.707-2.174-5.755-.527-12.457 4.094-16.533 4.921-4.34 12.209-4.923 17.796-1.525 5.408 3.289 8.169 9.927 6.759 16.083-1.544 6.738-7.69 11.682-14.622 11.682z" fill="#dae7fd"/><path d="m263.863 62.236c-2.413-1.467-5.143-2.189-7.863-2.189v29.953c6.932 0 13.079-4.944 14.622-11.681 1.41-6.157-1.351-12.794-6.759-16.083z" fill="#bfdafe"/></g></g><g><path d="m293.416 300h-23.894c-2.416-5.047-7.554-8.541-13.522-8.541s-11.107 3.494-13.523 8.541h-23.893c-8.284 0-15 6.716-15 15s6.716 15 15 15h23.893c2.416 5.047 7.554 8.541 13.523 8.541 5.968 0 11.107-3.494 13.522-8.541h23.894c8.284 0 15-6.716 15-15s-6.716-15-15-15z" fill="#504542"/><path d="m293.416 300h-23.894c-2.416-5.047-7.554-8.541-13.522-8.541v47.082c5.968 0 11.107-3.494 13.522-8.541h23.894c8.284 0 15-6.716 15-15s-6.716-15-15-15z" fill="#182831"/></g></g></g></g></svg>