<svg id="Capa_1" enable-background="new 0 0 512.078 512.078" height="512" viewBox="0 0 512.078 512.078" width="512" xmlns="http://www.w3.org/2000/svg"><g><g><g><path d="m368.257 119c-24.813 0-45-20.187-45-45 0-8.284 6.716-15 15-15s15 6.716 15 15c0 8.271 6.729 15 15 15s15-6.729 15-15-6.729-15-15-15c-8.284 0-15-6.716-15-15s6.716-15 15-15c24.813 0 45 20.187 45 45s-20.187 45-45 45z" fill="#dc4e26"/><path d="m243.603 119c-24.814 0-45-20.187-45-45s20.186-45 45-45c8.284 0 15 6.716 15 15s-6.716 15-15 15c-8.271 0-15 6.729-15 15s6.729 15 15 15 15-6.729 15-15c0-8.284 6.716-15 15-15s15 6.716 15 15c0 24.813-20.187 45-45 45z" fill="#e17734"/></g><g><g><path d="m305.93 149.29c-8.284 0-15-6.716-15-15v-119.29c0-8.284 6.716-15 15-15s15 6.716 15 15v119.29c0 8.284-6.716 15-15 15z" fill="#ecbd3e"/><path d="m305.93 0v149.29c8.284 0 15-6.716 15-15v-119.29c0-8.284-6.716-15-15-15z" fill="#e79e37"/></g><g><path d="m352.744 132.227h-93.628v-58.775c0-8.284 6.716-15 15-15h63.628c8.284 0 15 6.716 15 15z" fill="#e79e37"/><path d="m337.744 58.452h-31.814v73.774h46.814v-58.774c0-8.284-6.716-15-15-15z" fill="#e17734"/></g></g></g><g><g><path d="m194.547 198.123c-16.974 0-33.252-9.642-40.87-26.018-10.466-22.498-.677-49.316 21.821-59.782 7.515-3.494 16.434-.237 19.928 7.273 3.494 7.512.237 16.434-7.273 19.928-7.5 3.488-10.763 12.428-7.274 19.927 1.689 3.633 4.693 6.391 8.457 7.765s7.838 1.2 11.47-.49c7.514-3.493 16.434-.237 19.928 7.273 3.494 7.512.237 16.434-7.273 19.928-6.124 2.847-12.569 4.196-18.914 4.196z" fill="#e79e37"/><path d="m417.099 198.149c-6.47 0-12.914-1.413-18.954-4.223-7.511-3.494-10.768-12.416-7.273-19.928s12.414-10.768 19.928-7.273c3.632 1.691 7.704 1.864 11.47.49 3.763-1.374 6.767-4.131 8.456-7.764 1.691-3.634 1.864-7.707.49-11.471s-4.131-6.768-7.764-8.457c-7.512-3.494-10.769-12.416-7.274-19.927 3.495-7.512 12.416-10.768 19.927-7.274 10.899 5.069 19.171 14.08 23.293 25.372 4.121 11.291 3.599 23.512-1.471 34.41-5.069 10.898-14.079 19.17-25.371 23.291-5.034 1.839-10.254 2.754-15.457 2.754z" fill="#e17734"/></g><g><g><path d="m305.535 117.227c-76.963.215-138.84 63.619-138.84 140.583v75.631h-101.765c-8.284 0-15 6.716-15 15v89.333c0 8.284 6.716 15 15 15h380.235v-196.312c0-76.906-62.675-139.45-139.63-139.235zm-108.841 139.235c0-30.03 12.183-57.267 31.863-77.033-1.208 5.49-1.864 11.185-1.864 17.033v136.978h-29.999zm-88.382 166.311h-28.382v-59.333h28.382zm30 0v-59.333h28.383v59.333zm152.618 0h-94.235v-59.333h94.235zm0-89.333h-34.236v-136.978c0-21.919 14.401-40.531 34.236-46.891zm64.236 89.333h-34.236v-273.202c19.835 6.36 34.236 24.972 34.236 46.891zm59.999 0h-29.999v-226.311c0-5.848-.656-11.543-1.863-17.033 19.68 19.766 31.863 47.003 31.863 77.033v166.311z" fill="#ecbd3e"/><path d="m305.93 117.231v335.543h139.235v-196.312c0-76.774-62.461-139.231-139.235-139.231zm49.236 305.542h-34.236v-273.202c19.835 6.36 34.236 24.972 34.236 46.891zm59.999 0h-29.999v-226.311c0-5.848-.656-11.543-1.863-17.033 19.68 19.766 31.863 47.003 31.863 77.033v166.311z" fill="#e79e37"/></g><g><path d="m430.165 512.078h-248.471c-8.284-.229-15-6.945-15-15.229v-44.076h278.471v44.076c0 8.284-6.716 15-15 15.229z" fill="#e79e37"/><path d="m305.93 452.773v59.305h124.235c8.284-.229 15-6.945 15-15.229v-44.075h-139.235z" fill="#e17734"/></g></g></g></g></svg>