<svg id="Capa_1" enable-background="new 0 0 512 512" height="512" viewBox="0 0 512 512" width="512" xmlns="http://www.w3.org/2000/svg"><g><g><path d="m246.677 411.758-45.472 56.096c6.74 25.474 28.72 44.146 54.795 44.146s48.055-18.672 54.795-44.146l-45.472-56.096c-5.461-4.334-13.186-4.334-18.646 0z" fill="#504542"/><path d="m265.323 411.758c-2.73-2.167-6.026-3.25-9.323-3.25v103.492c26.075 0 48.055-18.672 54.795-44.146z" fill="#182831"/></g><g><g><g><path d="m512 217.888v-31.851c0-12.63-4.349-24.836-14.183-31.91l-14.349-10.322c-6.789-4.884-11.576-12.339-13.386-20.849l-3.833-18.019c-2.618-12.307-11.369-22.09-22.784-25.472l-16.709-4.95c-7.896-2.339-14.658-7.796-18.909-15.258l-8.982-15.768c-6.153-10.802-17.384-17.129-29.232-16.466l-17.321.969c-8.165.457-16.189-2.41-22.442-8.02l-13.271-11.904c-9.071-8.137-21.608-10.308-32.632-5.65l-16.087 6.798c-7.595 3.209-16.164 3.209-23.759 0l-16.088-6.797c-11.025-4.658-23.561-2.488-32.632 5.65l-13.271 11.904c-6.254 5.61-14.277 8.477-22.442 8.02l-17.321-.969c-11.848-.663-23.078 5.663-29.232 16.466l-8.981 15.768c-4.251 7.463-11.013 12.919-18.909 15.258l-16.709 4.95c-11.415 3.382-20.166 13.165-22.784 25.472l-3.833 18.018c-1.81 8.51-6.597 15.965-13.386 20.849l-14.349 10.322c-9.834 7.074-15.22 19.333-14.017 31.906l-.143 31.854 104.47 83.999 302.786-.324z" fill="#a0bd3a"/><path d="m497.817 154.127-14.349-10.322c-6.789-4.884-11.576-12.339-13.386-20.849l-3.833-18.019c-2.618-12.307-11.369-22.09-22.784-25.472l-16.709-4.95c-7.896-2.339-14.658-7.796-18.909-15.258l-8.982-15.768c-6.153-10.802-17.384-17.129-29.232-16.466l-17.321.969c-8.165.457-16.189-2.41-22.442-8.02l-13.271-11.904c-9.071-8.137-21.607-10.308-32.632-5.65l-16.087 6.798c-3.797 1.605-7.839 2.407-11.879 2.407v290.102l151.279-.162 104.72-83.675v-31.851c0-12.466-4.349-24.836-14.183-31.91z" fill="#738b2f"/></g><g><path d="m351.744 289.578c-3.928 0-7.85-1.532-10.793-4.581-21.926-22.71-21.289-59.024 1.42-80.951 9.378-9.054 21.701-13.9 34.753-13.686 13.032.229 25.196 5.52 34.25 14.896 7.799 8.076 11.986 18.709 11.79 29.938-.144 8.193-6.831 14.737-14.993 14.737-.089 0-.178-.001-.268-.002-8.283-.145-14.88-6.978-14.735-15.261.057-3.216-1.143-6.261-3.375-8.573-3.489-3.614-8.175-5.652-13.195-5.74-5.045-.077-9.775 1.785-13.389 5.272-10.809 10.437-11.112 27.722-.676 38.531 5.754 5.96 5.588 15.456-.372 21.21-2.911 2.812-6.667 4.21-10.417 4.21z" fill="#5b7726"/><path d="m153.72 285.25c-17.725 0-35.186-6.911-48.068-19.758-22.351-22.292-22.399-58.612-.108-80.964 9.205-9.229 21.453-14.322 34.488-14.34h.067c13.01 0 25.245 5.059 34.459 14.247 7.95 7.93 12.337 18.48 12.353 29.709.012 8.284-6.694 15.01-14.979 15.021-.008 0-.015 0-.021 0-8.275 0-14.988-6.701-15-14.979-.005-3.217-1.261-6.239-3.538-8.511-3.549-3.539-8.264-5.488-13.275-5.488-.009 0-.017 0-.025 0-5.023.007-9.74 1.969-13.286 5.524-10.61 10.639-10.588 27.927.052 38.537 10.242 10.217 25.681 13.703 39.333 8.88 7.81-2.758 16.38 1.339 19.139 9.15 2.758 7.811-1.339 16.38-9.15 19.139-7.307 2.581-14.899 3.833-22.441 3.833z" fill="#738b2f"/><g><path d="m256.847 259.455c-1.885 0-3.8-.357-5.653-1.112-15.488-6.308-28.052-18.069-35.377-33.116-6.692-13.75-7.63-29.283-2.641-43.738 4.99-14.455 15.311-26.102 29.061-32.794 24.196-11.775 53.46-1.673 65.236 22.52 4.914 10.098 5.603 21.503 1.938 32.117-2.703 7.831-11.245 11.987-19.073 9.284-7.831-2.703-11.987-11.242-9.284-19.073 1.049-3.04.852-6.307-.556-9.198-4.537-9.32-15.809-13.212-25.133-8.675-6.544 3.186-11.456 8.729-13.831 15.608-2.375 6.881-1.929 14.274 1.257 20.819 4.084 8.39 11.087 14.947 19.719 18.463 7.672 3.124 11.358 11.877 8.233 19.55-2.37 5.819-7.978 9.345-13.896 9.345z" fill="#738b2f"/><g fill="#5b7726"><path d="m262.51 230.56c-2.295-.935-4.47-2.09-6.51-3.432v32.287c.283.016.565.04.847.04 5.918 0 11.526-3.526 13.897-9.346 3.124-7.673-.562-16.425-8.234-19.549z"/><path d="m307.473 171.214c-9.604-19.73-30.84-30.084-51.473-26.846v31.031c9.196-4.067 20.063-.167 24.498 8.945 1.407 2.892 1.604 6.158.556 9.198-2.703 7.831 1.453 16.37 9.284 19.073 7.828 2.703 16.37-1.453 19.073-9.284 3.664-10.614 2.976-22.02-1.938-32.117z"/></g></g></g></g><g><path d="m407.042 301.269-141.623 114.801c-5.494 4.454-13.352 4.464-18.858.024l-141.892-114.426c34.893-48.285 89.696-79.404 151.331-79.404 61.465 0 116.136 30.948 151.042 79.005" fill="#635551"/><path d="m256 222.264v197.153c3.338-.005 6.673-1.121 9.419-3.347l141.623-114.802c-34.906-48.056-89.577-79.004-151.042-79.004z" fill="#504542"/></g></g></g></svg>