<svg id="Capa_1" enable-background="new 0 0 512 512" height="512" viewBox="0 0 512 512" width="512" xmlns="http://www.w3.org/2000/svg"><g><g><g><g><path d="m497 426.126h-65l-15-10-15 10h-292l-15-10-15 10h-65c-8.284 0-15-6.716-15-15v-46l10-15-10-15v-30l10-15-10-15v-30l10-15-10-15v-45l259.328-42.674 252.672 42.674v45l-10 15 10 15v30l-10 15 10 15v30l-10 15 10 15v46c0 8.285-6.716 15-15 15z" fill="#b1705e"/><path d="m512 170.126-252.672-42.674-3.328.548v298.126h146l15-10 15 10h65c8.284 0 15-6.716 15-15v-46l-10-15 10-15v-30l-10-15 10-15v-30l-10-15 10-15z" fill="#9e5f4e"/></g><g><path d="m0 170.126h512v-69.253c0-8.284-6.716-15-15-15h-65l-15 10-15-10h-292l-15 10-15-10h-65c-8.284 0-15 6.716-15 15z" fill="#9e5f4e"/><path d="m497 85.874h-65l-15 10-15-10h-146v84.253h256v-69.253c0-8.285-6.716-15-15-15z" fill="#7b493b"/></g></g><g><g><g><path d="m80 85.874h30v340.253h-30z" fill="#ecbd3e"/><path d="m402 85.874h30v340.253h-30z" fill="#e79e37"/></g><g><g fill="#e79e37"><path d="m455.549 350.126c0 8.284 6.716 15 15 15h41.451v-30h-41.451c-8.284 0-15 6.716-15 15z"/><path d="m470.549 275.126c-8.284 0-15 6.716-15 15s6.716 15 15 15h41.451v-30z"/><path d="m470.549 215.126c-8.284 0-15 6.716-15 15s6.716 15 15 15h41.451v-30z"/></g><g fill="#ecbd3e"><path d="m41.451 365.126c8.284 0 15-6.716 15-15s-6.716-15-15-15h-41.451v30z"/><path d="m56.451 290.126c0-8.284-6.716-15-15-15h-41.451v30h41.451c8.284 0 15-6.715 15-15z"/><path d="m56.451 230.126c0-8.284-6.716-15-15-15h-41.451v30h41.451c8.284 0 15-6.715 15-15z"/></g></g></g></g></g><g><path d="m283.024 257.515c0-14.925-12.099-27.024-27.024-27.024s-27.024 12.099-27.024 27.024c0 9.375 4.775 17.632 12.024 22.479v33.173c0 8.284 6.716 15 15 15s15-6.716 15-15v-33.173c7.249-4.847 12.024-13.104 12.024-22.479z" fill="#7b493b"/><path d="m256 230.492-.001 97.675h.001c8.284 0 15-6.716 15-15v-33.173c7.249-4.847 12.024-13.104 12.024-22.479 0-14.925-12.099-27.023-27.024-27.023z" fill="#3d3532"/></g></g></svg>