<svg id="Capa_1" enable-background="new 0 0 512 512" height="512" viewBox="0 0 512 512" width="512" xmlns="http://www.w3.org/2000/svg"><g><g><path d="m149.508 390.791c-8.284 0-15-6.716-15-15v-67.482c0-8.284 6.716-15 15-15s15 6.716 15 15v67.482c0 8.284-6.716 15-15 15z" fill="#e17734"/><g><path d="m149.394 175.726c74.312.248 309.257 90.587 309.257 90.587v-241.313s-235.652 90.59-309.568 90.59l.424.133c-55.942 0-101.293 45.35-101.293 101.293 0 55.943 45.35 101.293 101.293 101.293h88.925c8.284 0 15 6.716 15 15v42.674h58.752v-62.583c0-30.431-24.669-55.101-55.1-55.101l-107.577.009c-22.769 0-41.293-18.524-41.293-41.293.001-22.73 18.464-41.227 41.18-41.289z" fill="#ecbd3e"/><path d="m149.394 175.726c74.312.248 309.257 90.587 309.257 90.587v-120.657h-381.027c-18.176 18.309-29.409 43.521-29.409 71.359 0 55.943 45.35 101.293 101.293 101.293h88.925c8.284 0 15 6.716 15 15v42.674h58.752v-62.582c0-30.431-24.669-55.101-55.1-55.101l-107.577.009c-22.769 0-41.293-18.524-41.293-41.293 0-22.73 18.463-41.227 41.179-41.289z" fill="#e79e37"/></g><g><g><path d="m413.651 41.712c-9.05 3.284-19.15 6.908-30 10.733v186.417c10.85 3.826 20.95 7.45 30 10.735z" fill="#e79e37"/><path d="m383.651 145.656v93.206c10.85 3.826 20.95 7.45 30 10.735v-103.941z" fill="#e17734"/></g><g><path d="m458.651 291.312c-8.284 0-15-6.716-15-15v-261.312c0-8.284 6.716-15 15-15s15 6.716 15 15v261.312c0 8.285-6.716 15-15 15z" fill="#e79e37"/><path d="m443.651 145.656v130.656c0 8.284 6.716 15 15 15s15-6.716 15-15v-130.656z" fill="#e17734"/></g></g></g><g><g><g><path d="m73.349 375.983h360.169v121.017h-360.169z" fill="#b1705e"/><path d="m253.434 375.983h180.085v121.017h-180.085z" fill="#9e5f4e"/></g><g><path d="m373.518 450.983h-240.169c-8.284 0-15-6.716-15-15s6.716-15 15-15h240.169c8.284 0 15 6.716 15 15s-6.716 15-15 15z" fill="#635551"/><path d="m373.518 420.983h-120.084v30h120.084c8.284 0 15-6.716 15-15s-6.716-15-15-15z" fill="#504542"/></g></g><g><g><path d="m453.518 512h-400.169c-8.284 0-15-6.716-15-15s6.716-15 15-15h400.169c8.284 0 15 6.716 15 15s-6.716 15-15 15z" fill="#9e5f4e"/><path d="m453.518 482h-200.084v30h200.084c8.284 0 15-6.716 15-15s-6.716-15-15-15z" fill="#7b493b"/></g><g><path d="m453.518 390.983h-400.169c-8.284 0-15-6.716-15-15s6.716-15 15-15h400.169c8.284 0 15 6.716 15 15s-6.716 15-15 15z" fill="#9e5f4e"/><path d="m453.518 360.983h-200.084v30h200.084c8.284 0 15-6.716 15-15s-6.716-15-15-15z" fill="#7b493b"/></g></g></g></g></svg>