<svg id="Capa_1" enable-background="new 0 0 512 512" height="512" viewBox="0 0 512 512" width="512" xmlns="http://www.w3.org/2000/svg"><g><g><path d="m313.86 28.636c0-15.815-12.82-28.636-28.636-28.636h-58.449c-15.815 0-28.635 12.821-28.635 28.636h-129.62c-8.284 0-15 6.716-15 15v453.364c0 8.284 6.716 15 15 15h33.734c8.284 0 15-6.716 15-15v-2.938c0-4.993 4.048-9.041 9.041-9.041h42.592c6.652 0 12.735-3.688 15.869-9.556 4.178-7.824 12.422-13.148 21.912-13.148 2.955 0 5.788.516 8.417 1.463 6.102 2.198 12.964 1.145 17.854-3.116 6.169-5.377 14.235-8.634 23.062-8.634s16.892 3.257 23.062 8.634c4.889 4.261 11.752 5.314 17.854 3.116 2.628-.947 5.462-1.463 8.417-1.463 9.49 0 17.733 5.324 21.912 13.148 3.134 5.868 9.217 9.556 15.869 9.556h42.643c4.993 0 9.041 4.048 9.041 9.041v2.938c0 8.284 6.716 15 15 15h33.684c8.284 0 15-6.716 15-15v-137.749l-10-149.203 10-118.091v-48.321c0-8.284-6.716-15-15-15z" fill="#b1705e"/><path d="m443.48 28.636h-129.62c0-15.815-12.821-28.636-28.636-28.636h-29.224v452.031c8.827 0 16.892 3.257 23.062 8.634 4.889 4.261 11.752 5.314 17.854 3.116 2.628-.947 5.462-1.463 8.417-1.463 9.49 0 17.733 5.324 21.912 13.148 3.133 5.868 9.217 9.556 15.869 9.556h42.643c4.993 0 9.041 4.048 9.041 9.041v2.937c0 8.284 6.716 15 15 15h33.684c8.284 0 15-6.716 15-15v-137.749l-10-157.884 10-109.41v-48.321c-.002-8.285-6.718-15-15.002-15z" fill="#9e5f4e"/></g><g><g><g><path d="m196 275c-8.284 0-15-6.716-15-15v-33.632c0-8.284 6.716-15 15-15s15 6.716 15 15v33.632c0 8.284-6.716 15-15 15z" fill="#7b493b"/></g><g><path d="m255.76 254.571h202.48v125.838h-202.48z" fill="#9e5f4e"/><path d="m458.24 178.285h-78.24l-15-10-15 10h-94.24v-76.313h202.48z" fill="#9e5f4e"/><path d="m458.24 254.597h-78.24l-15-10-15 10h-94.24v-76.312h202.48z" fill="#b1705e"/><g><path d="m365 332.476c-6.274 0-12-4.058-14.119-9.951-2.122-5.9-.232-12.672 4.609-16.649 4.829-3.967 11.855-4.496 17.211-1.265 5.377 3.244 8.221 9.629 6.999 15.795-1.371 6.92-7.643 12.07-14.7 12.07z" fill="#7b493b"/></g><g fill="#7b493b"><path d="m365 230.049c-8.284 0-15 6.716-15 15v9.522h30v-9.522c0-8.284-6.716-15-15-15z"/><path d="m365 153.763c-8.284 0-15 6.716-15 15v9.522h30v-9.522c0-8.284-6.716-15-15-15z"/></g></g></g><g><path d="m458.48 369.251h-187.48v-267.293h187.48v-30h-404.96v30h187.48v267.293h-187.48v30h404.96z" fill="#9e5f4e"/><path d="m458.48 101.958v-30h-202.48v327.293h202.48v-30h-187.48v-267.293z" fill="#7b493b"/></g></g></g></svg>