<svg id="Capa_1" enable-background="new 0 0 512 512" height="512" viewBox="0 0 512 512" width="512" xmlns="http://www.w3.org/2000/svg"><g><g><g><g><path d="m381.078 329.628h-250.156c-30.543 0-55.391-22.697-55.391-50.596v-86.032c0-8.284 6.716-15 15-15s15 6.716 15 15v86.032c0 11.356 11.391 20.596 25.391 20.596h250.156c14 0 25.391-9.239 25.391-20.596v-86.032c0-8.284 6.716-15 15-15s15 6.716 15 15v86.032c0 27.899-24.848 50.596-55.391 50.596z" fill="#eff5ff"/></g><path d="m421.469 178c-8.284 0-15 6.716-15 15v86.032c0 11.356-11.391 20.596-25.391 20.596h-125.078v30h125.078c30.543 0 55.391-22.697 55.391-50.596v-86.032c0-8.284-6.716-15-15-15z" fill="#dae7fd"/></g><g><circle cx="256" cy="450.184" fill="#ecbd3e" r="61.816"/><path d="m299.71 406.473c-12.07-12.07-27.89-18.105-43.71-18.105v123.632c15.82 0 31.64-6.035 43.71-18.105 24.141-24.141 24.141-63.281 0-87.422z" fill="#e79e37"/></g><g><g><path d="m256 443.797c-8.284 0-15-6.716-15-15v-201.663c0-8.284 6.716-15 15-15s15 6.716 15 15v201.663c0 8.284-6.716 15-15 15z" fill="#dae7fd"/></g><path d="m256 212.134v231.663c8.284 0 15-6.716 15-15v-201.663c0-8.284-6.716-15-15-15z" fill="#bfdafe"/></g><g><circle cx="256" cy="227.134" fill="#eff5ff" r="30"/><path d="m256 197.134v60c16.569 0 30-13.431 30-30 0-16.568-13.431-30-30-30z" fill="#dae7fd"/></g></g><g><g><g><path d="m496.628 207.68h-150.252c-9.539 0-16.774-8.6-15.141-17.998l7.552-43.475 12.669-15.368-7.33-15.368 17.845-102.733c1.279-7.363 7.668-12.738 15.141-12.738h88.779c7.473 0 13.863 5.375 15.141 12.738l17.845 102.733-7.33 15.368 12.669 15.368 7.552 43.475c1.634 9.398-5.601 17.998-15.14 17.998z" fill="#ecbd3e"/><g><path d="m511.769 189.682-7.552-43.475-12.476-14.255 7.137-16.481-17.845-102.733c-1.279-7.363-7.669-12.738-15.141-12.738h-44.39v207.68h75.126c9.539 0 16.774-8.6 15.141-17.998z" fill="#e79e37"/></g></g><g><path d="m338.786 146.207h165.431l-5.339-30.736h-154.753z" fill="#e17734"/><path d="m421.502 146.207h82.715l-5.339-30.736h-77.376z" fill="#dc4e26"/></g></g><g><g><path d="m165.624 207.68h-150.252c-9.539 0-16.774-8.6-15.141-17.998l7.552-43.475 12.67-15.368-7.33-15.368 17.844-102.733c1.279-7.363 7.669-12.738 15.141-12.738h88.779c7.473 0 13.863 5.375 15.141 12.738l17.845 102.733-7.33 15.368 12.669 15.368 7.552 43.475c1.634 9.398-5.601 17.998-15.14 17.998z" fill="#ecbd3e"/><g><path d="m180.766 189.682-7.552-43.475-12.476-14.255 7.137-16.481-17.846-102.733c-1.279-7.363-7.668-12.738-15.141-12.738h-44.39v207.68h75.126c9.539 0 16.774-8.6 15.142-17.998z" fill="#e79e37"/></g></g><g><path d="m7.783 146.207h165.431l-5.339-30.736h-154.753z" fill="#e17734"/><path d="m90.498 146.207h82.716l-5.339-30.736h-77.377z" fill="#dc4e26"/></g></g></g></g></svg>