<svg id="Capa_1" enable-background="new 0 0 512 512" height="512" viewBox="0 0 512 512" width="512" xmlns="http://www.w3.org/2000/svg"><g><g fill="#7b493b"><g><path d="m176.212 480.683c2.822 0 5.676-.795 8.213-2.459 6.927-4.543 8.859-13.842 4.316-20.77l-137.518-209.681c-4.543-6.927-13.84-8.858-20.77-4.316-6.927 4.543-8.859 13.842-4.316 20.77l137.518 209.681c2.88 4.39 7.671 6.775 12.557 6.775z"/><path d="m49.051 480.681c8.284 0 15-6.716 15-15v-154.012c0-8.284-6.716-15-15-15s-15 6.716-15 15v154.012c0 8.284 6.716 15 15 15z"/></g><g><path d="m441.64 479.519c1.886 0 3.803-.357 5.658-1.114 7.671-3.127 11.354-11.881 8.227-19.553l-79.249-194.385c-3.128-7.671-11.88-11.356-19.553-8.227-7.671 3.127-11.355 11.881-8.227 19.553l79.249 194.385c2.371 5.816 7.979 9.341 13.895 9.341z"/><path d="m305.609 478.681c8.284 0 15-6.716 15-15v-181.697c0-8.284-6.716-15-15-15s-15 6.716-15 15v181.696c0 8.285 6.716 15.001 15 15.001z"/></g></g><g><g><g><path d="m373.398 129.002h123.211v91.976h-123.211z" fill="#ecbd3e" transform="matrix(-1 0 0 -1 870.007 349.979)"/><path d="m373.398 173.208h123.211v47.77h-123.211z" fill="#e79e37"/></g><g><g><path d="m435.609 233.344c8.284 0 15-6.716 15-15v-86.709c0-8.284-6.716-15-15-15s-15 6.716-15 15v86.709c0 8.284 6.716 15 15 15z" fill="#e79e37"/><path d="m420.609 173.208v45.136c0 8.284 6.716 15 15 15s15-6.716 15-15v-45.136z" fill="#e17734"/></g><g><path d="m497 243.344c8.284 0 15-6.716 15-15v-106.709c0-8.284-6.716-15-15-15s-15 6.716-15 15v106.709c0 8.284 6.716 15 15 15z" fill="#e79e37"/><path d="m482 173.208v55.136c0 8.284 6.716 15 15 15s15-6.716 15-15v-55.136z" fill="#e17734"/></g></g></g><g><g><path d="m54.114 331.251 308.762-63.644v-185.235l-308.762-63.644z" fill="#e17734"/><path d="m54.114 173.208v158.043l308.762-63.645v-94.398z" fill="#dc4e26"/></g><g><path d="m15 349.979h34.114c8.284 0 15-6.716 15-15v-319.979c0-8.284-6.716-15-15-15h-34.114c-8.284 0-15 6.716-15 15v319.979c0 8.284 6.716 15 15 15z" fill="#b1705e"/><path d="m0 173.208v161.771c0 8.284 6.716 15 15 15h34.114c8.284 0 15-6.716 15-15v-161.771z" fill="#9e5f4e"/></g><g><g><path d="m135.051 327.303c8.284 0 15-6.716 15-15v-274.627c0-8.284-6.716-15-15-15s-15 6.716-15 15v274.627c0 8.284 6.716 15 15 15z" fill="#dc4e26"/><path d="m120.051 173.208v139.095c0 8.284 6.716 15 15 15s15-6.716 15-15v-139.095z" fill="#ad2621"/></g><g><path d="m195.051 317.303c8.284 0 15-6.716 15-15v-254.627c0-8.284-6.716-15-15-15s-15 6.716-15 15v254.627c0 8.284 6.716 15 15 15z" fill="#dc4e26"/><path d="m180.051 173.208v129.095c0 8.284 6.716 15 15 15s15-6.716 15-15v-129.095z" fill="#ad2621"/></g><g><path d="m255.051 307.303c8.284 0 15-6.716 15-15v-234.627c0-8.284-6.716-15-15-15s-15 6.716-15 15v234.627c0 8.284 6.716 15 15 15z" fill="#dc4e26"/><path d="m240.051 173.208v119.095c0 8.284 6.716 15 15 15s15-6.716 15-15v-119.095z" fill="#ad2621"/></g></g><g><path d="m334.284 285.323h34.114c8.284 0 15-6.716 15-15v-190.668c0-8.284-6.716-15-15-15h-34.114c-8.284 0-15 6.716-15 15v190.668c0 8.285 6.716 15 15 15z" fill="#b1705e"/><path d="m319.284 173.208v97.116c0 8.284 6.716 15 15 15h34.114c8.284 0 15-6.716 15-15v-97.116z" fill="#9e5f4e"/></g></g></g><g><path d="m0 512h481.609v-48.588c0-8.284-6.716-15-15-15h-451.609c-8.284 0-15 6.716-15 15z" fill="#b1705e"/><path d="m466.609 448.412h-225.804v63.588h240.805v-48.588c-.001-8.285-6.717-15-15.001-15z" fill="#9e5f4e"/></g></g></svg>