<svg id="Capa_1" enable-background="new 0 0 512 512" height="512" viewBox="0 0 512 512" width="512" xmlns="http://www.w3.org/2000/svg"><g><g><path d="m479.657 512h-447.171v-301.515c0-116.248 94.237-210.485 210.484-210.485h26.202c116.248 0 210.485 94.237 210.485 210.485z" fill="#ecbd3e"/><path d="m269.172 0h-13.173v512h223.657v-301.515c.001-116.248-94.236-210.485-210.484-210.485z" fill="#e79e37"/></g><g><g><path d="m96.22 512v-288.415c0-88.142 71.709-159.851 159.851-159.851s159.851 71.708 159.851 159.851v288.415z" fill="#635551"/><path d="m256.071 63.734c-.024 0-.048.001-.072.001v448.265h159.923v-288.415c0-88.142-71.709-159.851-159.851-159.851z" fill="#504542"/></g><g><g><path d="m256.071 127.469c43.914 0 80.528 31.257 88.807 72.736 1.843 9.234-5.32 17.824-14.736 17.824h-148.141c-9.416 0-16.579-8.59-14.736-17.824 8.279-41.479 44.892-72.736 88.806-72.736z" fill="#eff5ff"/><path d="m344.878 200.205c-8.279-41.479-44.893-72.736-88.807-72.736-.024 0-.048.002-.072.002v90.559h74.142c9.417-.001 16.58-8.591 14.737-17.825z" fill="#dae7fd"/></g><g><g><path d="m341.254 265.648h-170.508c-8.284 0-15 6.716-15 15v71.098c0 55.28 44.974 100.254 100.254 100.254s100.254-44.974 100.254-100.254v-71.098c0-8.284-6.716-15-15-15z" fill="#bfdafe"/><path d="m341.254 265.648h-85.183v186.351c55.248-.039 100.183-44.997 100.183-100.253v-71.098c0-8.284-6.716-15-15-15z" fill="#86b1e5"/></g><g><path d="m190.807 377.88c3.52 8.749 8.74 16.635 15.267 23.235l18.731-9.863-29.697-15.637z" fill="#dae7fd"/><path d="m224.805 326.074-39.059-20.567v31.274l9.362 4.929z" fill="#dae7fd"/><path d="m289.195 391.252 17.399 9.162c6.425-6.677 11.542-14.614 14.942-23.405l-2.646-1.393z" fill="#bfdafe"/><path d="m318.891 341.71 7.363-3.877v-31.272l-37.059 19.513z" fill="#bfdafe"/><g><path d="m281.587 295.648h-51.175l25.588 13.474z" fill="#dae7fd"/><path d="m256.071 295.648v13.436l25.516-13.436z" fill="#bfdafe"/></g><g><path d="m226.304 358.663 29.696 15.637 29.696-15.637-29.696-15.637z" fill="#dae7fd"/><path d="m256.071 343.064v31.199l29.625-15.6z" fill="#bfdafe"/></g><g><path d="m235.578 419.146c6.278 1.846 12.912 2.854 19.779 2.854 7.336 0 14.412-1.135 21.065-3.23l-20.065-10.565z" fill="#dae7fd"/><path d="m256.071 421.986c7.081-.072 13.914-1.189 20.351-3.217l-20.065-10.565-.286.151z" fill="#bfdafe"/></g></g></g></g></g><g><g><path d="m486.111 512h-77.865v-108.629c0-8.284 6.716-15 15-15h47.865c8.284 0 15 6.716 15 15z" fill="#ad2621"/><path d="m103.754 512h-77.865v-108.629c0-8.284 6.716-15 15-15h47.865c8.284 0 15 6.716 15 15z" fill="#dc4e26"/></g><g><g fill="#dc4e26"><path d="m487.359 214h-78.999c-8.284 0-15-6.716-15-15s6.716-15 15-15h78.999c8.284 0 15 6.716 15 15s-6.716 15-15 15z"/><path d="m487.359 274h-78.999c-8.284 0-15-6.716-15-15s6.716-15 15-15h78.999c8.284 0 15 6.716 15 15s-6.716 15-15 15z"/><path d="m487.359 334h-78.999c-8.284 0-15-6.716-15-15s6.716-15 15-15h78.999c8.284 0 15 6.716 15 15s-6.716 15-15 15z"/></g><g fill="#e17734"><path d="m103.64 214h-78.999c-8.284 0-15-6.716-15-15s6.716-15 15-15h78.999c8.284 0 15 6.716 15 15s-6.715 15-15 15z"/><path d="m103.64 274h-78.999c-8.284 0-15-6.716-15-15s6.716-15 15-15h78.999c8.284 0 15 6.716 15 15s-6.715 15-15 15z"/><path d="m103.64 334h-78.999c-8.284 0-15-6.716-15-15s6.716-15 15-15h78.999c8.284 0 15 6.716 15 15s-6.715 15-15 15z"/></g></g></g><g><path d="m496.858 512h-481.716c-8.284 0-15-6.716-15-15s6.716-15 15-15h481.717c8.284 0 15 6.716 15 15s-6.716 15-15.001 15z" fill="#edbc8b"/><path d="m496.858 482h-240.859v30h240.859c8.284 0 15-6.716 15-15s-6.715-15-15-15z" fill="#e2a773"/></g></g></svg>