<svg id="Capa_1" enable-background="new 0 0 512 512" height="512" viewBox="0 0 512 512" width="512" xmlns="http://www.w3.org/2000/svg"><g><path d="m137.165 285.414s-53.193-60.14-128.707-49.643c-4.771.663-8.303 4.789-8.303 9.606v28.343c0 3.922 2.365 7.436 5.98 8.957 24.266 10.212 59.107 35.822 72.213 99.798 20.957 102.297 72.652 88.68 72.652 88.68l55.629-105.232z" fill="#dc4e26"/><g><g><g><path d="m161.154 313.754c-8.284 0-15-6.716-15-15v-186.885c-24.729-2.939-43.968-24.038-43.968-49.544 0-27.513 22.383-49.896 49.895-49.896h309.869c27.512 0 49.895 22.383 49.895 49.896 0 25.507-19.239 46.605-43.968 49.544v184.472c0 8.284-6.716 15-15 15s-15-6.716-15-15v-199.122c0-8.284 6.716-15 15-15h9.073c10.97 0 19.895-8.925 19.895-19.894 0-10.97-8.925-19.896-19.895-19.896h-309.869c-10.97 0-19.895 8.925-19.895 19.896 0 10.97 8.925 19.894 19.895 19.894h9.073c8.284 0 15 6.716 15 15v201.535c0 8.284-6.716 15-15 15z" fill="#b1705e"/><path d="m461.95 12.429h-154.935v30h154.935c10.97 0 19.895 8.925 19.895 19.896 0 10.97-8.925 19.894-19.895 19.894h-9.073c-8.284 0-15 6.716-15 15v199.122c0 8.284 6.716 15 15 15s15-6.716 15-15v-184.472c24.729-2.939 43.968-24.038 43.968-49.544-.001-27.513-22.384-49.896-49.895-49.896z" fill="#7b493b"/></g><g><path d="m360.836 54.859h-107.641c-10.672 0-19.324-8.652-19.324-19.324v-16.211c0-10.672 8.651-19.324 19.324-19.324h107.641c10.672 0 19.324 8.652 19.324 19.324v16.212c0 10.672-8.652 19.323-19.324 19.323z" fill="#e17734"/><path d="m360.836 0h-53.821v54.859h53.821c10.672 0 19.324-8.652 19.324-19.324v-16.211c0-10.672-8.652-19.324-19.324-19.324z" fill="#dc4e26"/></g></g><g><g><g><path d="m423.406 269.121-116.471 10-116.31-10v-3.699c0-32.824 26.609-59.434 59.434-59.434h113.913c32.825 0 59.434 26.609 59.434 59.434z" fill="#dc4e26"/><path d="m363.971 205.987h-56.956v73.126l116.39-9.993v-3.699c.001-32.824-26.609-59.434-59.434-59.434z" fill="#ad2621"/></g><g><ellipse cx="307.015" cy="176.491" fill="#e17734" rx="29.297" ry="29.297" transform="matrix(.16 -.987 .987 .16 83.624 451.271)"/><path d="m307.015 147.195v58.594c16.18 0 29.297-13.117 29.297-29.297 0-16.181-13.117-29.297-29.297-29.297z" fill="#dc4e26"/></g><g><path d="m425.95 512h-237.87c-39.809 0-72.08-32.271-72.08-72.08v-98.345c0-39.809 32.271-72.08 72.08-72.08h237.87c39.809 0 72.08 32.271 72.08 72.08v98.345c.001 39.809-32.271 72.08-72.08 72.08z" fill="#e17734"/><path d="m425.95 269.494h-118.935v242.506h118.935c39.809 0 72.08-32.272 72.08-72.08v-98.345c.001-39.809-32.271-72.081-72.08-72.081z" fill="#dc4e26"/></g></g><g><path d="m446.887 387.983-22.021 43.158c-1.856 3.637-7.052 3.637-8.908 0l-22.021-43.158c-.728-1.427-.728-3.118 0-4.545l22.021-43.158c1.856-3.637 7.052-3.637 8.908 0l22.021 43.158c.728 1.427.728 3.118 0 4.545z" fill="#edbc8b"/><path d="m220.094 387.983-22.021 43.158c-1.856 3.637-7.052 3.637-8.908 0l-22.021-43.158c-.728-1.427-.728-3.118 0-4.545l22.021-43.158c1.856-3.637 7.052-3.637 8.908 0l22.021 43.158c.728 1.427.728 3.118 0 4.545z" fill="#f1d0a7"/><g><path d="m333.49 387.983-22.021 43.158c-1.856 3.637-7.052 3.637-8.907 0l-22.021-43.158c-.728-1.427-.728-3.118 0-4.545l22.021-43.158c1.856-3.637 7.052-3.637 8.907 0l22.021 43.158c.729 1.427.729 3.118 0 4.545z" fill="#f1d0a7"/><path d="m333.49 383.438-22.021-43.158c-.928-1.818-2.691-2.727-4.454-2.727v96.316c1.763 0 3.526-.909 4.454-2.727l22.021-43.158c.729-1.429.729-3.119 0-4.546z" fill="#edbc8b"/></g></g></g></g></g></svg>