<svg id="Capa_1" enable-background="new 0 0 511.986 511.986" height="512" viewBox="0 0 511.986 511.986" width="512" xmlns="http://www.w3.org/2000/svg"><g><g><path d="m440.498 283.112c-7.583-4.764-16.163-7.216-24.896-7.217-3.534 0-7.092.402-10.622 1.215-5.398 1.242-10.439 3.382-14.962 6.298.924-9.113 1.395-18.38 1.395-27.745 0-9.124-.452-18.154-1.33-27.04 4.506 2.894 9.525 5.017 14.896 6.253 3.53.813 7.088 1.214 10.622 1.214 8.733-.001 17.313-2.454 24.896-7.217 21.968-13.798 28.664-42.955 14.924-64.994-8.666-13.903-23.581-22.183-39.934-22.183-.07 0-.141 0-.21 0-8.349.036-15.089 6.833-15.052 15.182.036 8.327 6.797 15.052 15.116 15.052h.141c5.844 0 11.179 2.964 14.281 7.943 4.951 7.939 2.551 18.436-5.348 23.397-3.797 2.386-8.291 3.148-12.655 2.142-4.383-1.009-8.114-3.677-10.504-7.512-.025-.038-.049-.077-.073-.115l-28.779-45.247c5.497-1.111 10.806-3.217 15.699-6.291 21.969-13.798 28.665-42.954 14.925-64.994-8.666-13.902-23.583-22.183-39.938-22.183-.068 0-.137 0-.205 0-8.349.035-15.089 6.832-15.053 15.181.035 8.327 6.796 15.053 15.116 15.053h.138c5.846 0 11.181 2.965 14.284 7.942 4.951 7.941 2.551 18.437-5.348 23.398-3.797 2.386-8.291 3.147-12.655 2.142-4.383-1.009-8.114-3.677-10.504-7.512-.979-1.57-2.209-2.883-3.592-3.952-18.277-22.69-40.262-37.741-64.079-44.044-.28-.204-.557-.412-.855-.599-9.182-5.767-11.972-17.967-6.219-27.194 2.779-4.459 7.118-7.562 12.216-8.736 5.08-1.166 10.308-.282 14.726 2.492 5.801 3.643 9.247 9.937 9.217 16.836-.035 8.349 6.703 15.146 15.052 15.182h.066c8.318 0 15.08-6.726 15.116-15.052.075-17.416-8.662-33.33-23.37-42.569-11.275-7.082-24.625-9.339-37.59-6.352-9.279 2.136-17.555 6.783-24.106 13.387-6.551-6.605-14.828-11.252-24.107-13.389-12.966-2.982-26.315-.728-37.588 6.353-14.708 9.239-23.445 25.151-23.371 42.569.035 8.326 6.797 15.052 15.116 15.052h.066c8.349-.035 15.088-6.832 15.053-15.181-.03-6.899 3.416-13.193 9.218-16.837 4.418-2.774 9.649-3.658 14.724-2.492 5.098 1.174 9.437 4.276 12.217 8.736 5.752 9.228 2.962 21.427-6.219 27.194-.298.187-.574.395-.855.599-26.519 7.017-50.769 24.88-70.155 52.058-1.996 1.66-4.354 2.853-6.951 3.451-4.365 1.005-8.858.243-12.656-2.142-7.899-4.961-10.298-15.457-5.348-23.398 3.102-4.977 8.438-7.942 14.284-7.942h.139c8.319 0 15.08-6.726 15.116-15.053.035-8.349-6.704-15.146-15.053-15.181-.069 0-.136 0-.205 0-16.353 0-31.273 8.282-39.938 22.183-13.739 22.04-7.044 51.197 14.924 64.994 4.9 3.078 10.216 5.185 15.72 6.295l-28.776 45.242c-.025.038-.049.077-.073.116-2.391 3.834-6.121 6.503-10.504 7.511-4.361 1.006-8.857.244-12.656-2.142-7.899-4.961-10.298-15.458-5.349-23.397 3.103-4.978 8.437-7.943 14.281-7.943.048.001.094.001.142 0 8.318 0 15.079-6.725 15.116-15.052.036-8.349-6.703-15.146-15.052-15.182-.07 0-.139 0-.21 0-16.352 0-31.269 8.281-39.935 22.182-13.738 22.04-7.043 51.197 14.924 64.995 7.585 4.764 16.162 7.217 24.897 7.217 3.534-.001 7.094-.403 10.623-1.214 4.918-1.132 9.534-3.019 13.738-5.549-.832 8.659-1.264 17.452-1.264 26.335 0 9.123.452 18.151 1.329 27.036-4.221-2.55-8.859-4.451-13.803-5.589-3.529-.812-7.089-1.214-10.623-1.215-8.735 0-17.312 2.453-24.897 7.217-21.968 13.798-28.663 42.955-14.924 64.995 8.666 13.901 23.583 22.182 39.935 22.182h.21c8.349-.036 15.088-6.833 15.052-15.182-.036-8.327-6.798-15.052-15.116-15.052-.047-.001-.094-.001-.142 0-5.844 0-11.178-2.964-14.281-7.942-4.95-7.94-2.55-18.436 5.349-23.397 3.799-2.386 8.295-3.147 12.656-2.142 4.383 1.009 8.113 3.677 10.504 7.511.025.039.049.078.073.116l28.776 45.242c-5.504 1.11-10.82 3.217-15.72 6.295-21.968 13.798-28.663 42.954-14.924 64.994 8.665 13.901 23.584 22.183 39.938 22.183h.205c8.349-.035 15.089-6.832 15.053-15.181-.035-8.327-6.797-15.053-15.116-15.053-.048 0-.093 0-.139 0-5.846 0-11.182-2.964-14.284-7.941-4.95-7.941-2.551-18.437 5.348-23.398 3.798-2.385 8.29-3.146 12.656-2.142 3.268.752 6.171 2.428 8.428 4.821.864 1.175 1.737 2.332 2.619 3.471.239.335.488.656.749.966 18.208 23.161 40.208 38.63 64.093 45.267.637.573 1.32 1.11 2.071 1.582 9.182 5.767 11.971 17.966 6.219 27.194-2.78 4.459-7.119 7.561-12.217 8.736-5.075 1.166-10.306.283-14.724-2.492-5.802-3.643-9.248-9.937-9.218-16.837.035-8.349-6.704-15.146-15.053-15.181-.022 0-.044 0-.066 0-8.319 0-15.08 6.726-15.116 15.052-.074 17.417 8.662 33.33 23.371 42.568 11.273 7.081 24.623 9.335 37.588 6.353 9.279-2.136 17.555-6.783 24.107-13.388 6.551 6.605 14.826 11.251 24.106 13.387 12.966 2.987 26.315.73 37.59-6.352 14.708-9.239 23.445-25.152 23.37-42.568-.036-8.326-6.798-15.052-15.116-15.052-.022 0-.043 0-.066 0-8.349.036-15.088 6.833-15.052 15.182.03 6.898-3.416 13.192-9.217 16.836-4.418 2.775-9.645 3.658-14.726 2.492-5.098-1.174-9.436-4.276-12.216-8.736-5.753-9.228-2.962-21.427 6.219-27.194.751-.472 1.434-1.009 2.071-1.582 22.812-6.338 43.904-20.735 61.617-42.194 1.9-1.182 3.574-2.792 4.838-4.819 2.391-3.835 6.122-6.504 10.504-7.512 4.364-1.006 8.858-.244 12.655 2.142 7.899 4.961 10.299 15.457 5.348 23.398-3.102 4.976-8.438 7.941-14.284 7.941-.046 0-.094 0-.138 0-8.32 0-15.081 6.726-15.116 15.053-.035 8.349 6.704 15.146 15.053 15.181h.205c16.354 0 31.272-8.281 39.938-22.183 13.739-22.04 7.044-51.197-14.925-64.994-4.893-3.074-10.202-5.179-15.699-6.291l28.779-45.246c.024-.038.048-.077.073-.115 2.391-3.835 6.122-6.504 10.504-7.512 4.364-1.007 8.858-.244 12.655 2.142 7.899 4.961 10.299 15.458 5.348 23.397-3.102 4.978-8.437 7.942-14.281 7.942-.045 0-.093 0-.141 0-8.319 0-15.08 6.725-15.116 15.052-.036 8.349 6.703 15.146 15.052 15.182h.21c16.352 0 31.268-8.28 39.934-22.183 13.742-22.036 7.047-51.193-14.922-64.992z" fill="#ecbd3e"/><path d="m440.498 283.112c-7.583-4.764-16.163-7.216-24.896-7.217-3.534 0-7.092.402-10.622 1.215-5.398 1.242-10.439 3.382-14.962 6.298.924-9.113 1.396-18.38 1.396-27.745 0-9.124-.452-18.153-1.33-27.04 4.506 2.894 9.525 5.017 14.896 6.254 3.53.813 7.088 1.215 10.622 1.215 8.733-.001 17.313-2.454 24.896-7.217 21.968-13.798 28.664-42.955 14.924-64.994-8.666-13.903-23.581-22.183-39.934-22.183-.07 0-.141 0-.21 0-8.349.037-15.089 6.833-15.052 15.182.036 8.327 6.797 15.052 15.116 15.052h.141c5.844 0 11.178 2.964 14.281 7.943 4.951 7.939 2.551 18.436-5.348 23.397-3.797 2.386-8.291 3.148-12.655 2.142-4.383-1.009-8.114-3.677-10.504-7.512-.025-.038-.049-.077-.073-.115l-28.779-45.247c5.496-1.111 10.806-3.217 15.699-6.291 21.969-13.797 28.665-42.954 14.925-64.994-8.666-13.902-23.583-22.183-39.938-22.183-.068 0-.137 0-.205 0-8.349.035-15.089 6.832-15.053 15.181.035 8.327 6.796 15.053 15.116 15.053h.138c5.846 0 11.181 2.965 14.284 7.941 4.951 7.941 2.551 18.437-5.348 23.399-3.797 2.386-8.291 3.147-12.655 2.142-4.383-1.009-8.114-3.677-10.504-7.512-.979-1.57-2.209-2.883-3.592-3.952-18.277-22.69-40.263-37.742-64.079-44.043-.28-.204-.557-.412-.855-.599-9.181-5.767-11.972-17.967-6.219-27.194 2.779-4.459 7.118-7.562 12.216-8.736 5.08-1.166 10.307-.282 14.726 2.492 5.801 3.643 9.247 9.938 9.217 16.836-.035 8.349 6.703 15.146 15.052 15.182h.066c8.319 0 15.08-6.726 15.116-15.052.075-17.417-8.662-33.33-23.37-42.569-11.275-7.082-24.625-9.339-37.59-6.352-9.025 2.078-17.097 6.536-23.56 12.856v483.702c6.463 6.32 14.534 10.778 23.56 12.856 12.966 2.987 26.315.73 37.59-6.352 14.708-9.239 23.445-25.152 23.37-42.569-.036-8.326-6.798-15.052-15.116-15.052-.022 0-.043 0-.066 0-8.349.036-15.088 6.833-15.052 15.182.03 6.898-3.416 13.192-9.217 16.836-4.418 2.775-9.645 3.659-14.726 2.492-5.098-1.174-9.436-4.276-12.216-8.736-5.753-9.228-2.962-21.427 6.219-27.194.751-.472 1.434-1.009 2.071-1.582 22.812-6.338 43.904-20.735 61.617-42.194 1.9-1.182 3.574-2.792 4.838-4.819 2.391-3.836 6.122-6.504 10.504-7.513 4.364-1.006 8.858-.244 12.655 2.142 7.899 4.961 10.299 15.457 5.348 23.398-3.102 4.976-8.438 7.941-14.284 7.941-.046 0-.094 0-.138 0-8.32 0-15.081 6.726-15.116 15.053-.035 8.349 6.704 15.146 15.053 15.181h.205c16.354 0 31.272-8.281 39.938-22.183 13.739-22.04 7.044-51.197-14.925-64.994-4.893-3.074-10.202-5.18-15.699-6.291l28.779-45.246c.024-.038.048-.077.073-.115 2.391-3.835 6.122-6.504 10.504-7.512 4.364-1.007 8.858-.244 12.655 2.142 7.899 4.961 10.299 15.458 5.348 23.397-3.102 4.978-8.437 7.943-14.281 7.943-.045 0-.094 0-.141 0-8.319 0-15.08 6.725-15.116 15.052-.036 8.349 6.703 15.146 15.052 15.182h.21c16.353 0 31.268-8.28 39.934-22.183 13.74-22.042 7.045-51.198-14.924-64.997z" fill="#e79e37"/></g><g><g><path d="m361.179 255.663c0-44.165-11.632-85.489-32.755-116.363-19.922-29.118-45.839-45.154-72.977-45.154s-53.055 16.035-72.977 45.154c-21.122 30.873-32.755 72.198-32.755 116.363s11.633 85.49 32.755 116.363c19.922 29.118 45.839 45.154 72.977 45.154s53.055-16.036 72.977-45.154c21.123-30.873 32.755-72.199 32.755-116.363z" fill="#eff5ff"/><path d="m328.424 139.3c-19.788-28.923-45.492-44.93-72.431-45.144v323.013c26.939-.214 52.643-16.221 72.431-45.144 21.123-30.872 32.755-72.198 32.755-116.362 0-44.165-11.632-85.49-32.755-116.363z" fill="#dae7fd"/></g><g><g><path d="m241.538 324.401c-3.859 0-7.719-1.468-10.669-4.407-5.915-5.892-5.933-15.464-.041-21.379l28.91-29.021c5.893-5.918 15.466-5.934 21.379-.041 5.915 5.892 5.934 15.464.041 21.379l-28.91 29.021c-2.954 2.965-6.832 4.448-10.71 4.448z" fill="#dae7fd"/><path d="m281.117 269.553c-5.913-5.892-15.485-5.877-21.379.041l-3.745 3.759v42.839l25.165-25.261c5.892-5.915 5.874-15.486-.041-21.378z" fill="#bfdafe"/></g><g><path d="m241.538 243.469c-3.859 0-7.719-1.468-10.669-4.407-5.915-5.892-5.933-15.465-.04-21.38l28.91-29.02c5.893-5.916 15.465-5.932 21.38-.04 5.914 5.892 5.933 15.465.04 21.38l-28.911 29.02c-2.954 2.964-6.832 4.447-10.71 4.447z" fill="#dae7fd"/><path d="m281.118 188.622c-5.915-5.892-15.486-5.876-21.38.04l-3.745 3.759v42.84l25.165-25.26c5.892-5.914 5.874-15.487-.04-21.379z" fill="#bfdafe"/></g></g></g></g></svg>