<svg id="Capa_1" enable-background="new 0 0 511.326 511.326" height="512" viewBox="0 0 511.326 511.326" width="512" xmlns="http://www.w3.org/2000/svg"><g><g><g><path d="m165.324 389.13h-70c-8.284 0-15-6.716-15-15s6.716-15 15-15h70c8.284 0 15 6.716 15 15s-6.716 15-15 15z" fill="#e79e37"/><path d="m416.003 389.13h-70c-8.284 0-15-6.716-15-15s6.716-15 15-15h70c8.284 0 15 6.716 15 15s-6.716 15-15 15z" fill="#e17734"/></g><g><g><path d="m255.663 136.672c-20.975 0-40.463-13.542-54.874-38.131-12.634-21.556-20.877-50.833-23.21-82.437-.307-4.159 1.131-8.257 3.969-11.313 2.839-3.055 6.82-4.791 10.99-4.791h126.248c4.17 0 8.152 1.736 10.99 4.791s4.276 7.154 3.969 11.313c-2.332 31.604-10.574 60.881-23.208 82.437-14.411 24.589-33.899 38.131-54.874 38.131zm-46.388-106.672c7.099 47.773 28.452 76.672 46.388 76.672s39.29-28.9 46.388-76.672z" fill="#e79e37"/><path d="m329.777 4.791c-2.838-3.055-6.82-4.791-10.99-4.791h-63.093v30h46.356c-7.094 47.745-28.426 76.637-46.356 76.671v30.001c20.963-.014 40.439-13.554 54.844-38.131 12.634-21.556 20.876-50.833 23.208-82.437.307-4.159-1.131-8.258-3.969-11.313z" fill="#e17734"/></g><g><path d="m105.324 403.421c-8.284 0-15-6.716-15-15v-167.582c0-6.807 4.584-12.761 11.165-14.501l89.316-23.623c6.222-1.646 12.547-3.058 18.925-4.229-2.669-10.639-4.269-20.82-4.269-28 0-27.682 22.521-50.202 50.202-50.202s50.202 22.521 50.202 50.202c0 7.181-1.6 17.361-4.268 28 6.38 1.171 12.704 2.583 18.926 4.229l89.316 23.624c6.58 1.741 11.164 7.694 11.164 14.501v167.58c0 8.284-6.716 15-15 15s-15-6.716-15-15v-156.032l-78.152-20.671c-10.513-2.781-21.365-4.807-32.258-6.022-4.548-.507-8.615-3.063-11.046-6.94s-2.959-8.651-1.434-12.966c5.035-14.249 7.752-28.824 7.752-35.304 0-11.14-9.062-20.202-20.202-20.202s-20.202 9.062-20.202 20.202c0 6.48 2.717 21.056 7.752 35.305 1.524 4.315.997 9.089-1.435 12.966-2.431 3.876-6.498 6.432-11.045 6.939-10.888 1.214-21.741 3.24-32.258 6.022l-78.151 20.67v156.034c0 8.285-6.716 15-15 15z" fill="#ecbd3e"/><path d="m409.839 206.338-89.316-23.624c-6.222-1.646-12.546-3.059-18.926-4.229 2.669-10.639 4.268-20.819 4.268-28 0-27.671-22.504-50.184-50.171-50.201v30.001c11.125.017 20.171 9.071 20.171 20.201 0 6.48-2.717 21.056-7.752 35.304-1.525 4.314-.997 9.089 1.434 12.966s6.498 6.433 11.046 6.94c10.893 1.215 21.745 3.241 32.258 6.022l78.152 20.671v156.031c0 8.284 6.716 15 15 15s15-6.716 15-15v-167.58c0-6.807-4.584-12.761-11.164-14.502z" fill="#e79e37"/></g></g><g><path d="m255.663 160.283c-8.284 0-15-6.716-15-15v-48.568c0-8.284 6.716-15 15-15s15 6.716 15 15v48.568c0 8.284-6.716 15-15 15z" fill="#ecbd3e"/><path d="m255.694 81.717v78.565c8.27-.017 14.969-6.725 14.969-14.998v-48.569c0-8.273-6.699-14.981-14.969-14.998z" fill="#e79e37"/></g></g><g><g><path d="m255.663 511.326c-17.008 0-33.902-2.187-50.21-6.5l-37.92-10.03c-6.581-1.74-11.165-7.694-11.165-14.501v-212.33c0-6.807 4.584-12.761 11.165-14.501l37.92-10.03c16.307-4.313 33.2-6.5 50.21-6.5 17.011 0 33.903 2.187 50.209 6.5l37.921 10.03c6.581 1.741 11.164 7.694 11.164 14.501v212.329c0 6.807-4.584 12.761-11.164 14.501l-37.921 10.03c-16.307 4.314-33.2 6.501-50.209 6.501z" fill="#ecbd3e"/><path d="m343.793 253.464-37.921-10.03c-16.296-4.31-33.178-6.497-50.178-6.499v274.391c16.998-.003 33.88-2.189 50.178-6.5l37.921-10.03c6.581-1.741 11.164-7.694 11.164-14.501v-212.329c0-6.808-4.583-12.761-11.164-14.502z" fill="#e79e37"/></g><g><path d="m255.663 461.774c-13.983 0-27.702-1.776-41.021-5.299v-164.69c13.319-3.523 27.038-5.299 41.021-5.299s27.702 1.776 41.021 5.299v164.691c-13.319 3.522-27.038 5.298-41.021 5.298z" fill="#a0bd3a"/><path d="m255.701 286.487v175.287c13.97-.003 27.676-1.779 40.982-5.298v-164.691c-13.306-3.52-27.012-5.295-40.982-5.298z" fill="#738b2f"/></g></g></g></svg>