<svg id="Capa_1" enable-background="new 0 0 511.173 511.173" height="512" viewBox="0 0 511.173 511.173" width="512" xmlns="http://www.w3.org/2000/svg"><g><g><g><path d="m289.718 342.913c18.857-18.859 45.386-25.686 70.647-20.747 6.123 1.197 12.424-1.085 16.151-6.089 35.982-48.32 30.177-119.042-16.103-165.327-46.28-46.285-116.996-52.09-165.312-16.105-5.004 3.727-7.286 10.029-6.089 16.153 4.939 25.263-1.888 51.795-20.745 70.654-23.257 23.26-58.181 28.213-88.005 15.36-6.081-2.621-13.137-1.333-17.82 3.35l-27.974 27.977c-47.814 47.819-45.575 127.588 5.002 178.17l25.41 25.413c50.577 50.582 130.339 52.822 178.154 5.003l27.974-27.977c4.682-4.683 5.97-11.74 3.35-17.821-12.85-29.828-7.897-64.754 15.36-88.014z" fill="#b1705e"/><path d="m274.36 430.926c-12.851-29.827-7.899-64.753 15.359-88.013 18.857-18.859 45.386-25.686 70.647-20.747 6.123 1.198 12.424-1.085 16.151-6.089 35.913-48.227 30.196-118.769-15.84-165.058l-308.234 308.262 12.439 12.44c50.577 50.582 130.339 52.822 178.154 5.003l27.974-27.977c4.682-4.683 5.97-11.739 3.35-17.821z" fill="#9e5f4e"/></g><g><path d="m191.672 417.699c-3.053-3.053-4.982-6.189-5.853-7.771-15.519-27.169.587-65.212 37.556-89.345-1.182-6.491 1.736-13.31 7.777-16.8 7.687-4.442 17.521-1.808 21.96 5.876 7.261 12.566.462 29.775-10.469 36.764-.032.022-.066.043-.096.062-.039.024-.077.049-.117.074-23.059 14.454-33.522 35.051-29.43 45.858 5.477.075 10.773 2.947 13.714 8.033 4.442 7.687 1.812 17.52-5.875 21.963-5.46 3.156-11.742 3.962-17.688 2.269-4.83-1.377-8.64-4.144-11.479-6.983zm33.604-91.954.007.007z" fill="#edbc8b"/><path d="m93.488 319.506c-2.839-2.839-5.606-6.65-6.981-11.482-1.693-5.946-.887-12.228 2.269-17.689 4.442-7.687 14.274-10.318 21.961-5.875 5.082 2.937 7.957 8.237 8.032 13.715 10.806 4.092 31.401-6.372 45.854-29.433.025-.04.05-.079.076-.118.018-.029.039-.062.06-.094 6.989-10.931 24.196-17.731 36.761-10.469 7.689 4.44 10.317 14.274 5.876 21.962-3.49 6.041-10.308 8.959-16.799 7.777-24.131 36.972-62.171 53.079-89.337 37.559-1.583-.87-4.719-2.8-7.772-5.853z" fill="#f1d0a7"/></g></g><g><g><path d="m122.707 388.478c-6.277-6.278-16.456-6.278-22.733 0l-59.163 59.169 22.733 22.735 59.163-59.169c6.278-6.278 6.278-16.457 0-22.735z" fill="#9e5f4e"/><path d="m122.96 388.757-70.517 70.523 11.1 11.101 59.163-59.169c6.189-6.187 6.264-16.158.254-22.455z" fill="#7b493b"/></g><g><g fill="#b1705e"><path d="m424.81 129.788-43.437-43.441c-6.277-6.278-6.277-16.457 0-22.735s16.455-6.278 22.733 0l43.437 43.441c6.277 6.278 6.277 16.457 0 22.735s-16.455 6.278-22.733 0z"/><path d="m469.023 85.571-43.437-43.441c-6.278-6.278-6.278-16.457 0-22.735 6.277-6.278 16.455-6.278 22.733 0l43.437 43.441c6.277 6.278 6.277 16.457 0 22.735-6.278 6.278-16.456 6.278-22.733 0z"/></g><g><path d="m287.933 243.605-20.366-20.368c-6.423-6.424-6.252-16.891.378-23.101l209.025-195.793c6.33-5.929 16.222-5.767 22.355.366l7.116 7.117c6.133 6.133 6.295 16.027.366 22.357l-195.776 209.044c-6.209 6.63-16.675 6.801-23.098.378z" fill="#9e5f4e"/><path d="m506.807 34.183c5.929-6.331 5.767-16.224-.366-22.357l-3.292-3.292-225.133 225.153 9.917 9.918c6.423 6.424 16.889 6.253 23.099-.378z" fill="#7b493b"/></g></g></g></g></svg>