<svg id="Capa_1" enable-background="new 0 0 512 512" height="512" viewBox="0 0 512 512" width="512" xmlns="http://www.w3.org/2000/svg"><g><g><g><ellipse cx="256" cy="33.515" fill="#ecbd3e" rx="33.515" ry="33.514" transform="matrix(.137 -.991 .991 .137 187.838 282.539)"/><path d="m256 0v67.029c18.51 0 33.514-15.005 33.514-33.515s-15.004-33.514-33.514-33.514z" fill="#e79e37"/></g><g><path d="m398.63 138.696-146.288 22.372-138.972-22.372v-34.7c0-21.897 17.751-39.648 39.648-39.648h205.964c21.897 0 39.648 17.751 39.648 39.648z" fill="#504542"/><path d="m358.982 64.349h-102.982v96.16l142.63-21.813v-34.7c0-21.896-17.751-39.647-39.648-39.647z" fill="#182831"/></g></g><g><g><path d="m167.577 512h-3.734c-16.568 0-30-13.431-30-30v-87.96c0-16.569 13.432-30 30-30h3.734c16.568 0 30 13.431 30 30v87.96c0 16.569-13.432 30-30 30z" fill="#504542"/><path d="m348.158 512h-3.735c-16.568 0-30-13.431-30-30v-87.96c0-16.569 13.432-30 30-30h3.735c16.569 0 30 13.431 30 30v87.96c0 16.569-13.432 30-30 30z" fill="#182831"/></g><g><g><path d="m415.912 138.696h-319.824c-9.948 0-15.978 10.957-10.667 19.368 6.611 10.47 13.163 25.462 15.516 45.639 1.685 14.452-1.033 29.05-7.342 42.161-3.221 6.694-5.965 13.624-8.191 20.754l23.166 35.858-28.818 27.882c10.201 80.976 85.219 143.843 176.248 143.843s166.047-62.867 176.249-143.843l-28.818-30.882 23.102-33.062c-2.215-7.059-4.937-13.92-8.127-20.55-6.309-13.111-9.027-27.709-7.342-42.161 2.353-20.177 8.905-35.169 15.516-45.639 5.311-8.411-.72-19.368-10.668-19.368z" fill="#635551"/><path d="m403.431 299.477 23.102-33.062c-2.215-7.059-4.937-13.92-8.127-20.55-6.309-13.111-9.027-27.709-7.342-42.161 2.353-20.177 8.905-35.169 15.516-45.639 5.311-8.412-.72-19.368-10.667-19.368h-159.913v335.505c91.029 0 166.046-62.867 176.249-143.843z" fill="#504542"/></g><g><path d="m78.569 311.477c0 6.387.415 12.685 1.196 18.88h352.47c.781-6.195 1.195-12.493 1.195-18.88 0-15.561-2.397-30.605-6.846-44.854h-341.168c-4.45 14.249-6.847 29.293-6.847 44.854z" fill="#ecbd3e"/><path d="m426.584 266.622h-170.584v63.734h176.235c.781-6.195 1.195-12.493 1.195-18.88.001-15.56-2.396-30.604-6.846-44.854z" fill="#e79e37"/></g></g></g></g></svg>