<svg id="Capa_1" enable-background="new 0 0 512 512" height="512" viewBox="0 0 512 512" width="512" xmlns="http://www.w3.org/2000/svg"><g><g><path d="m256 512c-86.839 0-157.488-70.649-157.488-157.488s70.649-157.488 157.488-157.488 157.488 70.649 157.488 157.488-70.649 157.488-157.488 157.488zm0-284.976c-70.297 0-127.488 57.191-127.488 127.488s57.191 127.488 127.488 127.488 127.488-57.191 127.488-127.488-57.191-127.488-127.488-127.488z" fill="#ecbd3e"/><path d="m256 197.024v30c70.297 0 127.488 57.191 127.488 127.488s-57.191 127.488-127.488 127.488v30c86.839 0 157.488-70.649 157.488-157.488s-70.649-157.488-157.488-157.488z" fill="#e79e37"/></g><g><g><path d="m256 85.457-38.079 27.666 14.545 44.765h47.068l14.545-44.765z" fill="#eff5ff"/><path d="m256 85.457v72.431h23.534l14.545-44.765z" fill="#dae7fd"/></g><g><path d="m256 85.457v-85.457l119.354 86.715-81.275 26.408z" fill="#bfdafe"/><path d="m279.534 157.888 50.231 69.136 45.589-140.309-81.275 26.408z" fill="#86b1e5"/><path d="m217.921 113.123-81.275-26.408 45.589 140.309 50.231-69.136z" fill="#bfdafe"/><path d="m256 85.457-38.079 27.666-81.275-26.408 119.354-86.715z" fill="#dae7fd"/><g><path d="m232.466 157.888-50.231 69.136h147.53l-50.231-69.136z" fill="#86b1e5"/><path d="m256 227.024h73.765l-50.231-69.136h-23.534z" fill="#578df1"/></g></g></g></g></svg>