<svg id="Capa_1" enable-background="new 0 0 512 512" height="512" viewBox="0 0 512 512" width="512" xmlns="http://www.w3.org/2000/svg"><g><g><g><g fill="#dc4e26"><path d="m436 66.184c-8.284 0-15-6.716-15-15v-36.184c0-8.284 6.716-15 15-15s15 6.716 15 15v36.184c0 8.284-6.716 15-15 15z"/><path d="m376 66.184c-8.284 0-15-6.716-15-15v-36.184c0-8.284 6.716-15 15-15s15 6.716 15 15v36.184c0 8.284-6.716 15-15 15z"/><path d="m316 66.184c-8.284 0-15-6.716-15-15v-36.184c0-8.284 6.716-15 15-15s15 6.716 15 15v36.184c0 8.284-6.716 15-15 15z"/></g><path d="m196 66.184c-8.284 0-15-6.716-15-15v-36.184c0-8.284 6.716-15 15-15s15 6.716 15 15v36.184c0 8.284-6.716 15-15 15z" fill="#e17734"/><path d="m136 66.184c-8.284 0-15-6.716-15-15v-36.184c0-8.284 6.716-15 15-15s15 6.716 15 15v36.184c0 8.284-6.716 15-15 15z" fill="#e17734"/><path d="m76 66.184c-8.284 0-15-6.716-15-15v-36.184c0-8.284 6.716-15 15-15s15 6.716 15 15v36.184c0 8.284-6.716 15-15 15z" fill="#e17734"/><g><path d="m256 66.184c-8.284 0-15-6.716-15-15v-36.184c0-8.284 6.716-15 15-15s15 6.716 15 15v36.184c0 8.284-6.716 15-15 15z" fill="#e17734"/><path d="m256 0v66.184c8.284 0 15-6.716 15-15v-36.184c0-8.284-6.716-15-15-15z" fill="#dc4e26"/></g></g><g><g fill="#dc4e26"><path d="m436 512c-8.284 0-15-6.716-15-15v-35.184c0-8.284 6.716-15 15-15s15 6.716 15 15v35.184c0 8.284-6.716 15-15 15z"/><path d="m376 512c-8.284 0-15-6.716-15-15v-35.184c0-8.284 6.716-15 15-15s15 6.716 15 15v35.184c0 8.284-6.716 15-15 15z"/><path d="m316 512c-8.284 0-15-6.716-15-15v-35.184c0-8.284 6.716-15 15-15s15 6.716 15 15v35.184c0 8.284-6.716 15-15 15z"/></g><path d="m196 512c-8.284 0-15-6.716-15-15v-35.184c0-8.284 6.716-15 15-15s15 6.716 15 15v35.184c0 8.284-6.716 15-15 15z" fill="#e17734"/><path d="m136 512c-8.284 0-15-6.716-15-15v-35.184c0-8.284 6.716-15 15-15s15 6.716 15 15v35.184c0 8.284-6.716 15-15 15z" fill="#e17734"/><path d="m76 512c-8.284 0-15-6.716-15-15v-35.184c0-8.284 6.716-15 15-15s15 6.716 15 15v35.184c0 8.284-6.716 15-15 15z" fill="#e17734"/><g><path d="m256 512c-8.284 0-15-6.716-15-15v-35.184c0-8.284 6.716-15 15-15s15 6.716 15 15v35.184c0 8.284-6.716 15-15 15z" fill="#e17734"/><path d="m256 446.816v65.184c8.284 0 15-6.716 15-15v-35.184c0-8.284-6.716-15-15-15z" fill="#dc4e26"/></g></g></g><g><g><path d="m436 469.847h-360c-8.284 0-15-6.716-15-15v-397.694c0-8.284 6.716-15 15-15h360c8.284 0 15 6.716 15 15v397.694c0 8.284-6.716 15-15 15z" fill="#f1d0a7"/><path d="m436 42.153h-180v427.694h180c8.284 0 15-6.716 15-15v-397.694c0-8.284-6.716-15-15-15z" fill="#edbc8b"/></g><g><g><path d="m376 409.847h-240c-8.284 0-15-6.716-15-15v-277.694c0-8.284 6.716-15 15-15h240c8.284 0 15 6.716 15 15v277.694c0 8.284-6.716 15-15 15z" fill="#edbc8b"/><path d="m376 102.153h-120v307.694h120c8.284 0 15-6.716 15-15v-277.694c0-8.284-6.716-15-15-15z" fill="#e2a773"/></g><g><path d="m361 379.847h-210v-247.694h210z" fill="#e2a773"/><path d="m256 132.153h105v247.694h-105z" fill="#d59a62"/></g></g><g><path d="m316 409.847c-8.284 0-15-6.716-15-15v-277.694c0-8.284 6.716-15 15-15s15 6.716 15 15v277.694c0 8.284-6.716 15-15 15z" fill="#e2a773"/><path d="m196 409.847c-8.284 0-15-6.716-15-15v-277.694c0-8.284 6.716-15 15-15s15 6.716 15 15v277.694c0 8.284-6.716 15-15 15z" fill="#edbc8b"/><g><path d="m256 409.847c-8.284 0-15-6.716-15-15v-277.694c0-8.284 6.716-15 15-15s15 6.716 15 15v277.694c0 8.284-6.716 15-15 15z" fill="#edbc8b"/><path d="m256 102.153v307.694c8.284 0 15-6.716 15-15v-277.694c0-8.284-6.716-15-15-15z" fill="#e2a773"/></g></g></g></g></svg>