<svg id="Capa_1" enable-background="new 0 0 512.172 512.172" height="512" viewBox="0 0 512.172 512.172" width="512" xmlns="http://www.w3.org/2000/svg"><g><g><g><path d="m499.14 279.868c6.658-20.985 12.946-40.806 12.946-59.092 0-26.398-12.516-39.938-23.015-46.647-4.166-2.663-8.285-4.422-11.899-5.592v-47.766h-442.172v47.766c-3.614 1.17-7.733 2.929-11.899 5.592-10.499 6.71-23.015 20.249-23.015 46.647 0 18.286 6.289 38.107 12.946 59.092 14.442 45.521 22.13 77.141-1.656 100.927-5.858 5.857-5.858 15.355 0 21.213 2.929 2.929 6.768 4.393 10.607 4.393s7.677-1.464 10.606-4.393c38.464-38.464 22.149-89.891 9.039-131.212-5.936-18.708-11.542-36.379-11.542-50.02 0-10.436 3-17.425 9.169-21.368.274-.175.549-.341.823-.498 3.203-1.833 6.875-2.681 10.565-2.681h410.885c3.69 0 7.363.848 10.565 2.681.274.157.549.323.823.498 6.17 3.943 9.169 10.933 9.169 21.368 0 13.641-5.606 31.311-11.542 50.02-13.11 41.321-29.426 92.748 9.039 131.212 2.929 2.93 6.767 4.393 10.606 4.393 3.838 0 7.678-1.465 10.607-4.393 5.858-5.858 5.858-15.355 0-21.213-23.785-23.786-16.098-55.405-1.655-100.927z" fill="#504542"/><path d="m499.14 279.868c6.658-20.985 12.946-40.806 12.946-59.092 0-26.398-12.516-39.938-23.015-46.647-4.166-2.663-8.285-4.422-11.899-5.592v-47.766h-221.086v75.459h205.442c3.69 0 7.363.848 10.565 2.681.274.157.549.323.823.498 6.17 3.943 9.169 10.933 9.169 21.368 0 13.641-5.606 31.311-11.542 50.02-13.11 41.321-29.426 92.748 9.039 131.212 2.929 2.93 6.767 4.393 10.606 4.393 3.838 0 7.678-1.465 10.607-4.393 5.858-5.858 5.858-15.355 0-21.213-23.785-23.787-16.098-55.406-1.655-100.928z" fill="#3d3532"/></g><g><path d="m256.086 160.885c-8.284 0-15-6.716-15-15v-15.115h30v15.114c0 8.285-6.716 15.001-15 15.001z" fill="#ecbd3e"/><path d="m256.086 130.77v30.114c8.284 0 15-6.716 15-15v-15.114z" fill="#e79e37"/></g></g><g><path d="m497.172 135.77h-482.172c-8.284 0-15-6.716-15-15s6.716-15 15-15h482.172c8.284 0 15 6.716 15 15 0 8.285-6.716 15-15 15z" fill="#b1705e"/><path d="m497.172 105.771h-241.086v30h241.086c8.284 0 15-6.716 15-15 0-8.285-6.716-15-15-15z" fill="#9e5f4e"/></g></g></svg>