<svg id="Capa_1" enable-background="new 0 0 512 512" height="512" viewBox="0 0 512 512" width="512" xmlns="http://www.w3.org/2000/svg"><g><path d="m142.318 136.799h-91.083v-51.118c0-6.717 5.445-12.163 12.163-12.163h66.758c6.717 0 12.162 5.445 12.162 12.163z" fill="#dc4e26"/><g><g><g><path d="m497 438.482h-482c-8.284 0-15-6.716-15-15v-214.985l10-34.979h492l10 34.979v214.984c0 8.285-6.716 15.001-15 15.001z" fill="#635551"/><path d="m502 173.518h-246v264.963h241c8.284 0 15-6.716 15-15v-214.983z" fill="#504542"/></g><g><path d="m0 208.497h512v-69.979c0-8.284-6.716-15-15-15h-482c-8.284 0-15 6.716-15 15z" fill="#e79e37"/><path d="m497 123.518h-241v84.979h256v-69.979c0-8.284-6.716-15-15-15z" fill="#e17734"/></g></g><g><g><path d="m256 391.032c-62.395 0-113.156-50.761-113.156-113.156s50.761-113.156 113.156-113.156 113.156 50.761 113.156 113.156c0 62.394-50.761 113.156-113.156 113.156z" fill="#bfdafe"/><path d="m256 164.72v226.312c62.395 0 113.156-50.761 113.156-113.156s-50.761-113.156-113.156-113.156z" fill="#86b1e5"/></g><g><g><circle cx="256" cy="277.876" fill="#eff5ff" r="79.731"/><path d="m256 198.145v159.462c43.964 0 79.731-35.767 79.731-79.731s-35.767-79.731-79.731-79.731z" fill="#dae7fd"/></g><g><circle cx="256" cy="277.876" fill="#dae7fd" r="30.907"/><path d="m256 246.969v61.814c17.042 0 30.907-13.864 30.907-30.907s-13.865-30.907-30.907-30.907z" fill="#bfdafe"/></g></g></g></g><circle cx="434.527" cy="206.973" fill="#ad2621" r="30"/></g></svg>