<svg id="Capa_1" enable-background="new 0 0 512 512" height="512" viewBox="0 0 512 512" width="512" xmlns="http://www.w3.org/2000/svg"><g><g><path d="m390.382 369.735c-8.284 0-15-6.716-15-15v-141.331c0-8.284 6.716-15 15-15s15 6.716 15 15v141.331c0 8.285-6.715 15-15 15z" fill="#5b7726"/></g><g><g><g><path d="m256 349.29c-8.284 0-15-6.716-15-15v-120.886c0-8.284 6.716-15 15-15s15 6.716 15 15v120.886c0 8.285-6.716 15-15 15z" fill="#dae7fd"/><path d="m256 198.404v150.886c8.284 0 15-6.716 15-15v-120.886c0-8.284-6.716-15-15-15z" fill="#bfdafe"/></g><g><g><path d="m273.579 314.187h-35.158c-26.726 0-47.256 23.669-43.479 50.127l.594 4.164 12.337 16.374-7.564 17.066 13.876 97.202c1.055 7.39 7.384 12.88 14.849 12.88h53.929c7.465 0 13.794-5.49 14.849-12.88l13.876-97.203-7.937-14.453 12.711-18.987.594-4.163c3.78-26.457-16.751-50.127-43.477-50.127z" fill="#635551"/><path d="m273.579 314.187h-17.579v197.813h26.965c7.465 0 13.794-5.49 14.849-12.88l13.876-97.203-7.937-14.453 12.711-18.987.594-4.163c3.778-26.458-16.753-50.127-43.479-50.127z" fill="#504542"/></g><g><path d="m311.69 401.917 4.774-33.44-26.079 9.1-29.449-10.276c-3.2-1.116-6.684-1.116-9.884 0l-29.444 10.275-26.072-9.099 4.774 33.44 16.356 5.708c3.2 1.117 6.685 1.117 9.885 0l29.444-10.275 29.448 10.275c1.6.558 3.271.837 4.942.837s3.342-.279 4.942-.837z" fill="#ecbd3e"/><path d="m290.385 377.577-29.449-10.276c-1.598-.557-3.267-.836-4.936-.837v30.888l29.443 10.274c1.6.558 3.271.837 4.942.837s3.342-.279 4.942-.837l16.363-5.71 4.774-33.44z" fill="#e79e37"/></g></g></g><g><g><path d="m343.847 210.753c0 22.476-18.22 40.696-40.696 40.696h-6.455c-22.476 0-40.696-18.22-40.696-40.696 0 22.476-18.22 40.696-40.696 40.696h-6.455c-22.476 0-40.696-18.22-40.696-40.696 0 22.476-18.22 40.696-40.696 40.696h-6.455c-22.476 0-40.696-18.22-40.696-40.696v-58.85c0-3.411 1.172-6.717 3.304-9.38 37.241-46.513 47.624-103.745 50.482-129.213.852-7.585 7.271-13.31 14.904-13.31h214.008c7.633 0 14.052 5.725 14.904 13.31 2.858 25.468 13.242 82.7 50.483 129.213 2.132 2.663 3.304 5.968 3.304 9.38v58.85c0 22.476-18.22 40.696-40.696 40.696h-6.455c-22.477 0-40.697-18.22-40.697-40.696" fill="#a0bd3a"/><path d="m377.908 13.31c-.852-7.585-7.271-13.31-14.904-13.31h-107.004v210.756c.001 22.475 18.221 40.694 40.696 40.694h6.455c22.476 0 40.696-18.22 40.696-40.696 0 22.476 18.22 40.696 40.696 40.696h6.455c22.476 0 40.696-18.22 40.696-40.696v-58.849c0-3.415-1.176-6.722-3.31-9.388-37.236-46.513-47.618-103.74-50.476-129.207z" fill="#738b2f"/></g><g><path d="m343.847 210.753c0 12.73 5.848 24.09 15 31.553v-92.006c0-8.284-6.716-15-15-15s-15 6.716-15 15v92.006c9.152-7.463 15-18.823 15-31.553z" fill="#5b7726"/><path d="m168.153 135.3c-8.284 0-15 6.716-15 15v92.006c9.152-7.462 15-18.823 15-31.553 0 12.729 5.848 24.09 15 31.553v-92.006c0-8.284-6.716-15-15-15z" fill="#738b2f"/><g><path d="m256 135.3c-8.284 0-15 6.716-15 15v92.006c9.152-7.462 15-18.823 15-31.553 0 12.73 5.848 24.09 15 31.553v-92.006c0-8.284-6.716-15-15-15z" fill="#738b2f"/><path d="m256 135.3v75.456c.001 12.729 5.848 24.089 15 31.55v-92.006c0-8.284-6.716-15-15-15z" fill="#5b7726"/></g></g></g></g><ellipse cx="390.382" cy="354.208" fill="#738b2f" rx="30.129" ry="30.129" transform="matrix(.213 -.977 .977 .213 -38.704 660.388)"/></g></svg>