<svg id="Capa_1" enable-background="new 0 0 512 512" height="512" viewBox="0 0 512 512" width="512" xmlns="http://www.w3.org/2000/svg"><g><g><g><g><path d="m280.101 334.778h-48.202c-24.814 0-45-20.186-45-45v-25.412c0-8.284 6.716-15 15-15s15 6.716 15 15v25.412c0 8.272 6.729 15 15 15h48.202c8.271 0 15-6.728 15-15v-25.412c0-8.284 6.716-15 15-15s15 6.716 15 15v25.412c0 24.813-20.186 45-45 45z" fill="#ecbd3e"/><path d="m310.101 249.366c-8.284 0-15 6.716-15 15v25.412c0 8.272-6.729 15-15 15h-24.101v30h24.101c24.813 0 45-20.186 45-45v-25.412c0-8.284-6.716-15-15-15z" fill="#e79e37"/></g><g><path d="m256.001 289.547c-6.13 0-11.884-3.785-14.099-9.881l-12.594-34.654c-2.83-7.786 1.188-16.392 8.975-19.221 7.783-2.832 16.391 1.188 19.221 8.975l12.594 34.654c2.83 7.786-1.188 16.392-8.975 19.221-1.69.615-3.42.906-5.122.906z" fill="#ecbd3e"/><path d="m270.098 269.42-12.594-34.654c-.393-1.081-.907-2.081-1.504-3.008v57.789h.001c1.701 0 3.432-.291 5.122-.906 7.787-2.829 11.805-11.434 8.975-19.221z" fill="#e79e37"/></g></g><g><path d="m317.429 175.229c-8.284 0-15-6.716-15-15v-22.654c0-8.284 6.716-15 15-15s15 6.716 15 15v22.654c0 8.284-6.716 15-15 15z" fill="#e79e37"/><g><g><g><path d="m199.376 153.148c-35.862-.179-68.912 18.74-87.002 49.542l-77.972 132.765c-3.064 5.218-7.107 9.838-12.063 13.311-12.979 9.094-21.643 23.923-22.298 40.814-1.219 31.469 24.602 56.474 56.018 54.267 27.169-1.908 48.617-24.553 48.617-52.207 0-.039 0-.078 0-.117-.019-8.373 2.095-16.61 6.49-23.737l51.591-83.659c8.17-13.249 22.623-21.316 38.189-21.316h152.468c28.474 0 51.557-23.083 51.557-51.557 0 0-.06-58.285.005-58.106z" fill="#e79e37"/><path d="m404.975 153.148h-148.975v109.664h97.413c28.474 0 51.557-23.083 51.557-51.557 0-.001-.06-58.286.005-58.107z" fill="#e17734"/></g><g><path d="m294.093 68.017c-14.934 0-28.438 6.881-38.094 17.92-9.656-11.039-23.16-17.92-38.093-17.92-8.284 0-15 6.716-15 15s6.716 15 15 15c12.733 0 23.093 12.946 23.093 28.859v74.027c0 8.284 6.716 15 15 15s15-6.716 15-15v-74.027c0-15.913 10.359-28.859 23.094-28.859 8.284 0 15-6.716 15-15s-6.716-15-15-15z" fill="#ecbd3e"/><path d="m294.093 68.017c-14.933 0-28.437 6.88-38.093 17.919v129.968c8.284 0 14.999-6.716 14.999-15v-74.027c0-15.913 10.359-28.859 23.094-28.859 8.284 0 15-6.716 15-15s-6.716-15.001-15-15.001z" fill="#e79e37"/></g></g><g><path d="m502 107.056-47.68 33.651c-13.964 8.147-29.842 12.44-46.009 12.44h-105.882c0 35.029 28.396 63.425 63.425 63.425h42.457c16.167 0 32.044 4.293 46.009 12.44l47.68 33.652-10-82.039z" fill="#504542"/><path d="m497 273.161c-8.284 0-15-6.716-15-15v-146.602c0-8.284 6.716-15 15-15s15 6.716 15 15v146.603c0 8.284-6.716 14.999-15 14.999z" fill="#ecbd3e"/></g></g></g></g><path d="m69.202 368.835c-.191-2.758-3.123-4.423-5.594-3.185-5.342 2.677-11.288 4.369-17.621 4.813-13.075.917-25.263-3.648-34.332-11.73-7.58 9.352-12.003 21.366-11.632 34.428.804 28.266 24.441 51.026 52.718 50.814 22.277-.167 41.227-14.259 48.615-33.996-17.558-5.71-30.782-21.592-32.154-41.144z" fill="#ecbd3e"/></g></svg>