<svg id="Capa_1" enable-background="new 0 0 512 512" height="512" viewBox="0 0 512 512" width="512" xmlns="http://www.w3.org/2000/svg"><g><g><path d="m388.966 46.384v-.001-.014l-.001-.001c-.009-7.846-6.044-14.271-13.725-14.919-.025-.003-.054-.013-.078-.015-20.621-1.668-40.576-8.058-59.006-17.753-3.173-1.669-6.786-2.613-10.621-2.613-7.616 0-14.343 3.738-18.499 9.463-5.133-12.069-17.095-20.531-31.036-20.531s-25.904 8.462-31.035 20.53c-4.156-5.725-10.883-9.463-18.499-9.463-3.835 0-7.449.944-10.621 2.613-18.075 9.508-37.616 15.838-57.813 17.651l-.039.039c-8.264.023-14.958 6.728-14.958 14.998v447.645c0 9.934 8.053 17.987 17.987 17.987h229.958c9.934 0 17.987-8.053 17.987-17.987v-447.628c-.001 0-.001-.001-.001-.001z" fill="#b1705e"/><path d="m388.965 46.367c-.009-7.846-6.044-14.271-13.725-14.919-.025-.003-.054-.013-.078-.015-20.621-1.668-40.576-8.058-59.006-17.753-3.173-1.669-6.786-2.613-10.621-2.613-7.616 0-14.343 3.738-18.499 9.463-5.133-12.068-17.095-20.53-31.036-20.53v512h114.979c9.934 0 17.987-8.053 17.987-17.987v-447.628-.001-.001-.014z" fill="#7b493b"/></g><g><g><path d="m326.379 471.649h-140.758c-8.946 0-16.198-7.252-16.198-16.198v-370.903c0-8.946 7.252-16.198 16.198-16.198h140.757c8.946 0 16.198 7.252 16.198 16.198v370.904c0 8.945-7.252 16.197-16.197 16.197z" fill="#f1d0a7"/><path d="m326.379 68.351h-70.379v403.299h70.379c8.946 0 16.198-7.252 16.198-16.198v-370.904c-.001-8.945-7.253-16.197-16.198-16.197z" fill="#edbc8b"/></g><g><g><path d="m310.181 439.254h-108.362v-338.508h108.362z" fill="#eff5ff"/><path d="m256 100.746h54.181v338.508h-54.181z" fill="#dae7fd"/></g><g><g><path d="m249.454 216.266c-5.09 0-10.055-2.592-12.869-7.271-4.269-7.1-1.975-16.316 5.125-20.585l13.12-7.89c7.098-4.271 16.316-1.975 20.585 5.124 4.269 7.1 1.975 16.316-5.125 20.585l-13.12 7.89c-2.419 1.454-5.085 2.147-7.716 2.147z" fill="#dae7fd"/><path d="m275.415 185.644c-4.039-6.715-12.503-9.124-19.415-5.75v34.852c.395-.193.786-.397 1.17-.628l13.12-7.89c7.1-4.268 9.394-13.485 5.125-20.584z" fill="#bfdafe"/></g><g><path d="m249.454 276.266c-5.09 0-10.055-2.592-12.869-7.272-4.269-7.1-1.975-16.316 5.125-20.585l13.12-7.89c7.098-4.271 16.316-1.975 20.585 5.124 4.269 7.1 1.975 16.316-5.125 20.585l-13.12 7.89c-2.419 1.455-5.085 2.148-7.716 2.148z" fill="#dae7fd"/><path d="m275.415 245.644c-4.039-6.715-12.503-9.124-19.415-5.75v34.852c.395-.193.786-.397 1.17-.628l13.12-7.89c7.1-4.268 9.394-13.485 5.125-20.584z" fill="#bfdafe"/></g></g></g></g></g></svg>