<svg id="Capa_1" enable-background="new 0 0 512 512" height="512" viewBox="0 0 512 512" width="512" xmlns="http://www.w3.org/2000/svg"><g><g><g><path d="m497 175.694h-65.25c-7.682-.457-15.03-3.245-21.189-8.121-7.938-6.283-12.953-15.281-14.123-25.336-.037-.321-.062-.642-.088-.963.061-1.542.068-3.078.007-4.606.456-5.272 2.437-10.3 5.797-14.544 4.529-5.721 11.015-9.337 18.264-10.18 10.326-1.197 19.707 6.223 20.908 16.55.956 8.229 8.392 14.124 16.633 13.166 8.229-.957 14.124-8.404 13.166-16.633-3.113-26.758-27.409-46-54.174-42.882-13.828 1.608-26.322 8.038-35.621 18.214-9.299-10.175-21.793-16.605-35.621-18.214-26.761-3.115-51.061 16.124-54.174 42.882-.958 8.229 4.938 15.676 13.166 16.633 8.239.958 15.676-4.938 16.633-13.166 1.201-10.327 10.582-17.753 20.908-16.55 13.084 1.522 22.951 12.104 24.06 24.742-.06 1.521-.053 3.049.008 4.583-.026.323-.05.645-.088.969-1.17 10.056-6.186 19.053-14.123 25.336-6.156 4.873-13.498 7.662-21.175 8.121h-11.436-.001-.001-46.729c-59.434 0-112.711-29.346-146.939-53.965-37.603-27.047-61.229-54.562-61.78-55.209-5.352-6.324-14.815-7.113-21.14-1.763-6.324 5.351-7.114 14.815-1.763 21.14 1.037 1.226 25.866 30.357 66.512 59.714 16.187 11.691 32.612 21.729 49.109 30.082h-22.914c-.249 0-.491.025-.737.037-29.645-.461-57.606 17.931-67.837 47.434-7.394 21.319-6.042 44.242 3.805 64.545s27.011 35.556 48.331 42.949c8.881 3.08 17.995 4.871 27.121 5.445-58.905 56.539-102.801 107.313-103.301 107.893-5.408 6.275-4.705 15.747 1.569 21.155 2.833 2.442 6.318 3.638 9.786 3.638 4.213 0 8.403-1.766 11.369-5.207.561-.651 56.921-65.842 127.42-130.268 70.712-64.62 130.244-105.653 174.962-120.904v53.249c0 8.284 6.716 15 15 15s15-6.716 15-15v-59.773c1.802-.123 100.67-.193 100.67-.193 8.284 0 15-6.716 15-15s-6.716-15-15-15zm-308.52 119.895c-18.471 11.374-40.752 13.834-61.247 6.727-28.381-9.842-43.464-40.939-33.622-69.32 7.332-21.143 30.498-32.376 51.64-25.046 15.351 5.324 23.508 22.144 18.185 37.494-3.717 10.719-15.46 16.413-26.178 12.697-7.828-2.717-16.373 1.43-19.086 9.257-2.714 7.827 1.43 16.372 9.257 19.087 5.467 1.896 11.04 2.796 16.525 2.795 20.949-.001 40.584-13.127 47.826-34.007 5.927-17.091 3.56-35.076-4.943-49.579h122.971c-35.643 20.025-76.164 50.04-121.328 89.895z" fill="#dae7fd"/><path d="m497 175.694h-65.25c-7.682-.457-15.03-3.245-21.189-8.121-7.938-6.283-12.953-15.281-14.123-25.336-.037-.321-.062-.642-.088-.963.061-1.542.068-3.078.007-4.606.456-5.272 2.437-10.3 5.797-14.544 4.529-5.721 11.015-9.337 18.264-10.18 10.326-1.197 19.707 6.223 20.908 16.55.956 8.229 8.392 14.124 16.633 13.166 8.229-.957 14.124-8.404 13.166-16.633-3.113-26.758-27.409-46-54.174-42.882-13.828 1.608-26.322 8.038-35.621 18.214v180.301c8.284 0 15-6.716 15-15v-59.773l100.67-.193c8.284 0 15-6.716 15-15s-6.716-15-15-15z" fill="#bfdafe"/></g><path d="m3.938 512h-3.938v-512h3.938c33.461 0 60.586 27.125 60.586 60.586v390.828c0 33.461-27.125 60.586-60.586 60.586z" fill="#eff5ff"/></g><g><g><ellipse cx="381.33" cy="381.33" fill="#635551" rx="130.67" ry="130.67" transform="matrix(.707 -.707 .707 .707 -157.952 381.33)"/><path d="m381.33 250.66v261.34c72.167 0 130.67-58.503 130.67-130.67s-58.503-130.67-130.67-130.67z" fill="#504542"/></g><g><g><ellipse cx="381.33" cy="381.33" fill="#eff5ff" rx="100.67" ry="100.67" transform="matrix(.707 -.707 .707 .707 -157.952 381.33)"/><path d="m381.33 280.66v201.34c55.51 0 100.67-45.16 100.67-100.67s-45.16-100.67-100.67-100.67z" fill="#dae7fd"/></g><g><path d="m414.794 366.33h-18.385v-37.77c0-8.284-6.716-15-15-15s-15 6.716-15 15v52.771c0 8.284 6.716 15 15 15h33.385c8.284 0 15-6.716 15-15s-6.716-15.001-15-15.001z" fill="#bfdafe"/><path d="m414.794 366.33h-18.385v-37.77c0-8.284-6.716-15-15-15-.027 0-.053.004-.079.004v82.762c.027 0 .052.004.079.004h33.385c8.284 0 15-6.716 15-15s-6.716-15-15-15z" fill="#86b1e5"/></g></g></g></g></svg>