<svg id="Capa_1" enable-background="new 0 0 512 512" height="512" viewBox="0 0 512 512" width="512" xmlns="http://www.w3.org/2000/svg"><g><g><path d="m411.198 512c-15.845 0-28.252-4.589-36.877-13.638-16.608-17.426-15.2-46.732-13.57-80.666.548-11.415 1.115-23.219 1.115-35.528 0-8.284 6.716-15 15-15s15 6.716 15 15c0 13.029-.585 25.199-1.15 36.968-1.245 25.921-2.421 50.404 5.321 58.528 1.023 1.072 4.134 4.336 15.161 4.336 8.284 0 15 6.716 15 15s-6.716 15-15 15z" fill="#3d3532"/><path d="m100.802 512c-8.284 0-15-6.716-15-15s6.716-15 15-15c11.027 0 14.139-3.264 15.161-4.336 7.742-8.124 6.566-32.607 5.321-58.528-.565-11.768-1.15-23.938-1.15-36.968 0-8.284 6.716-15 15-15s15 6.716 15 15c0 12.31.567 24.113 1.115 35.528 1.63 33.934 3.038 63.24-13.57 80.666-8.625 9.049-21.033 13.638-36.877 13.638z" fill="#7b493b"/></g><g><g><path d="m382.459 336.984c-8.284 0-15-6.716-15-15v-44.984h-44.918c-8.284 0-15-6.716-15-15s6.716-15 15-15h59.918c8.284 0 15 6.716 15 15v59.984c0 8.285-6.716 15-15 15z" fill="#504542"/><path d="m129.541 336.984c-8.284 0-15-6.716-15-15v-59.984c0-8.284 6.716-15 15-15h59.918c8.284 0 15 6.716 15 15s-6.716 15-15 15h-44.918v44.984c0 8.285-6.716 15-15 15z" fill="#7b493b"/></g><g><g><path d="m319.038 346.415h-126.076c-8.284 0-15-6.716-15-15v-102.44c0-9.517-7.743-17.26-17.261-17.26-8.284 0-15-6.716-15-15v-86.707c0-32.043 25.132-58.328 56.719-60.183 3.319-27.389 39.85-45.112 47.45-48.516 3.9-1.746 8.359-1.746 12.26 0 7.601 3.403 44.131 21.127 47.45 48.516 31.587 1.854 56.719 28.14 56.719 60.183v86.707c0 8.284-6.716 15-15 15-9.518 0-17.261 7.743-17.261 17.26v102.44c0 8.284-6.716 15-15 15z" fill="#9e5f4e"/><path d="m309.58 49.825c-3.319-27.389-39.85-45.112-47.45-48.516-1.978-.886-4.1-1.318-6.22-1.305v346.41h63.128c8.284 0 15-6.716 15-15v-102.44c0-9.517 7.743-17.26 17.261-17.26 8.284 0 15-6.716 15-15v-86.707c0-32.042-25.132-58.327-56.719-60.182z" fill="#7b493b"/></g><g><path d="m304.038 336.415v-107.44c0-20.818 13.531-38.536 32.261-44.82v-74.147c0-16.7-13.587-30.287-30.288-30.287h-12.75c-4.722 0-9.168-2.224-12.001-6.001-2.833-3.778-3.722-8.67-2.398-13.202.638-2.184.961-4.437.961-6.695 0-5.161-10.904-15.003-23.823-22.069-12.91 7.061-23.821 16.907-23.821 22.069 0 2.259.323 4.512.961 6.695 1.323 4.532.435 9.424-2.398 13.202-2.833 3.777-7.279 6.001-12.001 6.001h-12.75c-16.701 0-30.288 13.587-30.288 30.287v74.147c18.73 6.284 32.261 24.002 32.261 44.82v107.44z" fill="#e17734"/><path d="m306.011 79.721h-12.75c-4.722 0-9.168-2.224-12.001-6.001-2.833-3.778-3.722-8.67-2.398-13.202.638-2.184.961-4.437.961-6.695 0-5.161-10.904-15.003-23.823-22.069-.03.016-.059.033-.089.05v304.612h48.128v-107.44c0-20.818 13.531-38.536 32.261-44.82v-74.147c-.001-16.701-13.588-30.288-30.289-30.288z" fill="#dc4e26"/></g></g><g><g><path d="m401.918 387.167h-40.918l-15-10-15 10h-30l-15-10-15 10h-30l-15-10-15 10h-30l-15-10-15 10h-40.918c-8.284 0-15-6.716-15-15v-26.327c0-13.13 10.644-23.774 23.774-23.774h274.288c13.13 0 23.774 10.644 23.774 23.774v26.327c0 8.285-6.716 15-15 15z" fill="#e79e37"/><path d="m393.144 322.067h-137.144v65.101h15l15-10 15 10h30l15-10 15 10h40.918c8.284 0 15-6.716 15-15v-26.327c0-13.13-10.644-23.774-23.774-23.774z" fill="#e17734"/></g><g><path d="m361 387.167v-17.41c0-8.284-6.716-15-15-15s-15 6.716-15 15v17.41z" fill="#dc4e26"/><path d="m301 387.167v-17.41c0-8.284-6.716-15-15-15s-15 6.716-15 15v17.41z" fill="#dc4e26"/><g fill="#e17734"><path d="m241 387.167v-17.41c0-8.284-6.716-15-15-15s-15 6.716-15 15v17.41z"/><path d="m181 387.167v-17.41c0-8.284-6.716-15-15-15s-15 6.716-15 15v17.41z"/></g></g></g></g></g></svg>