<svg id="Capa_1" enable-background="new 0 0 510.667 510.667" height="512" viewBox="0 0 510.667 510.667" width="512" xmlns="http://www.w3.org/2000/svg"><g><g><g><path d="m255.334 510.667c-17.475 0-31.399-14.613-30.555-32.068l9.13-188.869h42.851l9.13 188.869c.842 17.455-13.082 32.068-30.556 32.068z" fill="#635551"/><path d="m285.889 478.6-9.129-188.869h-21.425v220.936c17.473 0 31.397-14.613 30.554-32.067z" fill="#504542"/></g><g><path d="m257.377 395.273h-4.086c-16.603 0-30.062-13.459-30.062-30.062v-38.48c0-16.603 13.459-30.062 30.062-30.062h4.086c16.603 0 30.062 13.459 30.062 30.062v38.48c0 16.603-13.459 30.062-30.062 30.062z" fill="#e79e37"/><path d="m257.377 296.669h-2.043v98.604h2.043c16.603 0 30.062-13.459 30.062-30.062v-38.48c0-16.603-13.459-30.062-30.062-30.062z" fill="#e17734"/></g></g><g><g><path d="m255.334 347.523c-82.895 0-150.335-67.439-150.335-150.334 0-24.059 5.517-47.051 16.398-68.337 8.892-17.396 21.29-33.088 36.16-45.852-.149-1.492-.224-2.996-.224-4.509 0-24.814 20.187-45 45-45 4.542 0 9.001.679 13.25 1.986 9.956-15.696 26.299-29.004 30.515-32.298 5.427-4.24 13.043-4.24 18.47 0 4.216 3.294 20.559 16.602 30.515 32.298 4.248-1.308 8.707-1.986 13.25-1.986 24.813 0 45 20.187 45 45 0 1.513-.075 3.017-.224 4.509 14.87 12.764 27.268 28.456 36.16 45.852 10.881 21.286 16.398 44.278 16.398 68.337.001 82.895-67.439 150.334-150.333 150.334z" fill="#ecbd3e"/><path d="m389.27 128.852c-8.892-17.396-21.29-33.088-36.16-45.852.149-1.492.224-2.996.224-4.509 0-24.814-20.187-45-45-45-4.543 0-9.002.679-13.25 1.986-9.956-15.696-26.299-29.004-30.515-32.298-2.714-2.119-5.975-3.179-9.235-3.179v347.523c82.894 0 150.334-67.439 150.334-150.334 0-24.059-5.517-47.051-16.398-68.337z" fill="#e79e37"/></g><g><g><path d="m327.482 100.875c-5.304-3.979-7.365-10.97-5.069-17.19.611-1.655.92-3.402.92-5.192 0-8.271-6.729-15-15-15-3.809 0-7.441 1.434-10.23 4.039-4.124 3.853-10.061 5.065-15.364 3.137-5.304-1.928-9.077-6.669-9.764-12.27-.615-5.008-8.623-14.936-17.645-23.549-9.021 8.586-17.011 18.429-17.639 23.549-.688 5.601-4.46 10.342-9.764 12.27-5.303 1.93-11.24.717-15.364-3.137-2.789-2.604-6.421-4.039-10.23-4.039-8.271 0-15 6.729-15 15 0 1.79.31 3.537.92 5.192 2.296 6.221.235 13.211-5.069 17.19-30.623 22.981-48.186 58.086-48.186 96.314 0 66.353 53.982 120.334 120.335 120.334s120.334-53.981 120.334-120.334c.001-38.229-17.562-73.333-48.185-96.314z" fill="#eff5ff"/><path d="m327.482 100.875c-5.304-3.979-7.365-10.97-5.069-17.19.611-1.655.92-3.402.92-5.192 0-8.271-6.729-15-15-15-3.809 0-7.441 1.434-10.23 4.039-4.124 3.853-10.061 5.065-15.364 3.137-5.304-1.928-9.077-6.669-9.764-12.27-.615-5.007-8.621-14.933-17.642-23.546v282.671c66.352 0 120.334-53.981 120.334-120.334.001-38.23-17.562-73.334-48.185-96.315z" fill="#dae7fd"/></g><g><g><path d="m237.832 193.521c-3.839 0-7.678-1.465-10.606-4.394-5.858-5.857-5.858-15.355 0-21.213l35.004-35.004c5.857-5.857 15.355-5.857 21.213 0s5.858 15.355 0 21.213l-35.004 35.004c-2.929 2.929-6.768 4.394-10.607 4.394z" fill="#dae7fd"/><path d="m283.442 132.911c-5.857-5.857-15.355-5.857-21.213 0l-6.895 6.896v42.426l28.108-28.108c5.858-5.859 5.858-15.357 0-21.214z" fill="#bfdafe"/></g><g><path d="m237.832 273.521c-3.839 0-7.678-1.465-10.606-4.394-5.858-5.857-5.858-15.355 0-21.213l35.004-35.004c5.857-5.857 15.355-5.857 21.213 0s5.858 15.355 0 21.213l-35.004 35.004c-2.929 2.929-6.768 4.394-10.607 4.394z" fill="#dae7fd"/><path d="m283.442 212.911c-5.857-5.857-15.355-5.857-21.213 0l-6.895 6.896v42.426l28.108-28.108c5.858-5.859 5.858-15.357 0-21.214z" fill="#bfdafe"/></g></g></g></g></g></svg>