<svg id="Capa_1" enable-background="new 0 0 512 512" height="512" viewBox="0 0 512 512" width="512" xmlns="http://www.w3.org/2000/svg"><g><g><g><path d="m215.5 512c-23.803 0-43.168-19.365-43.168-43.168 0-8.284 6.716-15 15-15s15 6.716 15 15c0 7.261 5.907 13.168 13.168 13.168s13.168-5.907 13.168-13.168c0-8.284 6.716-15 15-15s15 6.716 15 15c0 23.803-19.365 43.168-43.168 43.168z" fill="#9e5f4e"/><path d="m296.5 512c-23.803 0-43.168-19.365-43.168-43.168 0-8.284 6.716-15 15-15s15 6.716 15 15c0 7.261 5.907 13.168 13.168 13.168s13.168-5.907 13.168-13.168c0-8.284 6.716-15 15-15s15 6.716 15 15c0 23.803-19.365 43.168-43.168 43.168z" fill="#7b493b"/></g><g><path d="m256 512c-8.284 0-15-6.716-15-15v-172.805c0-8.284 6.716-15 15-15s15 6.716 15 15v172.805c0 8.284-6.716 15-15 15z" fill="#b1705e"/><path d="m256 309.195v202.805c8.284 0 15-6.716 15-15v-172.805c0-8.284-6.716-15-15-15z" fill="#9e5f4e"/></g></g><g><g><path d="m256 70.908c-8.284 0-15-6.716-15-15v-40.908c0-8.284 6.716-15 15-15s15 6.716 15 15v40.908c0 8.284-6.716 15-15 15z" fill="#b1705e"/><path d="m256 0v70.908c8.284 0 15-6.716 15-15v-40.908c0-8.284-6.716-15-15-15z" fill="#9e5f4e"/></g><g><path d="m192.552 339.322h126.895c6.163 0 11.68-3.775 13.963-9.499 4.143-10.385 6.469-22.055 6.469-34.39 0-20.49-6.417-39.146-16.925-53.125-6.771-9.007-9.271-20.516-6.573-31.456l19.321-78.366c2.775-11.254-.5-23.142-8.646-31.388l-40.013-29.615v-10.347c0-8.284-6.716-15-15-15h-32.087c-8.284 0-15 6.716-15 15v10.348l-40.013 29.615c-8.146 8.246-11.42 20.133-8.646 31.388l19.321 78.366c2.697 10.94.197 22.449-6.573 31.456-10.509 13.979-16.925 32.635-16.925 53.125 0 12.334 2.325 24.004 6.469 34.39 2.284 5.723 7.8 9.498 13.963 9.498z" fill="#f1d0a7"/><path d="m322.954 242.308c-6.771-9.007-9.271-20.516-6.573-31.456l19.321-78.366c2.775-11.254-.5-23.142-8.646-31.388l-40.013-29.615v-10.347c0-8.284-6.716-15-15-15h-16.043v293.186h63.448c6.163 0 11.679-3.775 13.963-9.499 4.143-10.385 6.469-22.055 6.469-34.39 0-20.49-6.417-39.146-16.926-53.125z" fill="#edbc8b"/></g><g><g><path d="m164.598 340.598c0-8.284 6.716-15 15-15h152.805c8.284 0 15 6.716 15 15s-6.716 15-15 15h-152.805c-8.284 0-15-6.716-15-15z" fill="#b1705e"/></g><path d="m332.402 325.598h-76.402v30h76.402c8.284 0 15-6.716 15-15s-6.716-15-15-15z" fill="#9e5f4e"/></g></g></g></svg>