<svg id="Capa_1" enable-background="new 0 0 512 512" height="512" viewBox="0 0 512 512" width="512" xmlns="http://www.w3.org/2000/svg"><g><path d="m157.047 155.328c-29.75 0-53.954-24.203-53.954-53.953s24.204-53.954 53.954-53.954 53.953 24.203 53.953 53.953-24.203 53.954-53.953 53.954zm0-77.907c-13.208 0-23.954 10.746-23.954 23.954s10.746 23.953 23.954 23.953 23.953-10.745 23.953-23.953-10.745-23.954-23.953-23.954z" fill="#b1705e"/><g><g><path d="m311.855 116.213 16.332-98.766c1.511-9.137-5.537-17.447-14.799-17.447h-114.777c-9.261 0-16.31 8.31-14.799 17.447l16.332 98.766c-65.365 19.511-112.219 72.291-112.219 134.352 0 9.498 1.097 21.257 3.19 34.593l15.903 30.435-2.16 30.766c15.28 54.249 40.005 115.639 70.467 159.171 2.824 4.036 7.414 6.47 12.341 6.47h136.666c4.927 0 9.516-2.434 12.341-6.47 30.461-43.532 55.187-104.922 70.467-159.171l-2.46-29.447 16.204-31.754c2.093-13.336 3.19-25.095 3.19-34.593 0-62.061-46.853-114.84-112.219-134.352z" fill="#b1705e"/><path d="m424.074 250.565c0-38.762-18.278-73.904-47.929-99.58 19.244-8.252 32.761-27.38 32.761-49.611 0-29.75-24.204-53.954-53.954-53.954-12.734 0-24.443 4.444-33.682 11.85l6.916-41.824c1.512-9.136-5.536-17.446-14.798-17.446h-57.383v512h68.327c4.927 0 9.516-2.434 12.341-6.47 30.461-43.532 55.187-104.922 70.466-159.171l-2.46-29.446 16.204-31.754c2.094-13.336 3.191-25.095 3.191-34.594zm-69.121-173.144c13.208 0 23.954 10.746 23.954 23.954s-10.746 23.953-23.954 23.953-23.953-10.745-23.953-23.953 10.745-23.954 23.953-23.954z" fill="#7b493b"/></g><g><g><path d="m316 243.45c-6.282 0-11.981-4.055-14.115-9.946-2.129-5.876-.239-12.701 4.605-16.654 4.881-3.982 11.81-4.454 17.216-1.26 5.38 3.178 8.232 9.676 7.004 15.79-1.391 6.924-7.642 12.07-14.71 12.07z" fill="#edbc8b"/><path d="m196 243.45c-6.283 0-11.981-4.055-14.115-9.946-2.129-5.876-.239-12.701 4.605-16.654 4.881-3.982 11.81-4.454 17.217-1.26 5.38 3.178 8.232 9.676 7.004 15.79-1.392 6.924-7.642 12.07-14.711 12.07z" fill="#f1d0a7"/><g><path d="m256 243.45c-6.283 0-11.981-4.055-14.115-9.946-2.128-5.875-.238-12.702 4.605-16.654 4.881-3.982 11.81-4.454 17.216-1.26 5.38 3.178 8.232 9.676 7.004 15.79-1.391 6.924-7.641 12.07-14.71 12.07z" fill="#f1d0a7"/><path d="m263.706 215.59c-2.374-1.402-5.042-2.097-7.701-2.099v29.959c7.066-.003 13.314-5.147 14.704-12.07 1.229-6.114-1.622-12.612-7.003-15.79z" fill="#edbc8b"/></g></g><g><path d="m105.517 348.664h300.966c6.57-23.009 11.466-44.808 14.4-63.506h-329.766c2.935 18.698 7.83 40.497 14.4 63.506z" fill="#f1d0a7"/><path d="m256.006 285.159v63.506h150.477c6.57-23.009 11.466-44.808 14.4-63.506z" fill="#edbc8b"/></g><g><path d="m316 423.45c-6.282 0-11.981-4.055-14.115-9.946-2.129-5.876-.239-12.701 4.605-16.654 4.881-3.982 11.81-4.454 17.216-1.26 5.38 3.178 8.232 9.676 7.004 15.79-1.391 6.924-7.642 12.07-14.71 12.07z" fill="#edbc8b"/><path d="m196 423.45c-6.283 0-11.981-4.055-14.115-9.946-2.128-5.876-.238-12.702 4.605-16.654 4.877-3.98 11.814-4.452 17.217-1.26 5.38 3.178 8.231 9.676 7.004 15.79-1.392 6.924-7.642 12.07-14.711 12.07z" fill="#f1d0a7"/><g><path d="m256 423.45c-6.282 0-11.981-4.055-14.115-9.946-2.128-5.876-.238-12.702 4.605-16.654 4.881-3.982 11.81-4.454 17.216-1.26 5.381 3.179 8.232 9.675 7.004 15.79-1.391 6.924-7.642 12.07-14.71 12.07z" fill="#f1d0a7"/><path d="m263.706 395.59c-2.374-1.402-5.042-2.097-7.701-2.099v29.959c7.066-.003 13.314-5.147 14.704-12.07 1.229-6.115-1.622-12.611-7.003-15.79z" fill="#edbc8b"/></g></g></g></g></g></svg>