<svg id="Capa_1" enable-background="new 0 0 512 512" height="512" viewBox="0 0 512 512" width="512" xmlns="http://www.w3.org/2000/svg"><g><g><g><path d="m288.118 387.845c0-9.26-8.751-23.533-17.118-35.067v-95.044c0-8.284-6.716-15-15-15s-15 6.716-15 15v95.044c-8.367 11.535-17.118 25.808-17.118 35.067 0 9.26 8.751 23.532 17.118 35.067v74.088c0 8.284 6.716 15 15 15s15-6.716 15-15v-74.087c8.367-11.535 17.118-25.808 17.118-35.068z" fill="#e79e37"/><path d="m271 352.778v-95.044c0-8.284-6.716-15-15-15v269.266c8.284 0 15-6.716 15-15v-74.087c8.367-11.535 17.118-25.807 17.118-35.067s-8.751-23.533-17.118-35.068z" fill="#e17734"/></g><g><path d="m362.591 512h-213.182c-8.284 0-15-6.716-15-15s6.716-15 15-15h213.182c8.284 0 15 6.716 15 15s-6.716 15-15 15z" fill="#ecbd3e"/><path d="m362.591 482h-106.591v30h106.591c8.284 0 15-6.716 15-15s-6.716-15-15-15z" fill="#e79e37"/></g></g><g><g><g fill="#738b2f"><path d="m436 333.691c-8.284 0-15-6.716-15-15v-60.957c0-8.284 6.716-15 15-15s15 6.716 15 15v60.957c0 8.285-6.716 15-15 15z"/><path d="m376 333.691c-8.284 0-15-6.716-15-15v-60.957c0-8.284 6.716-15 15-15s15 6.716 15 15v60.957c0 8.285-6.716 15-15 15z"/><path d="m316 333.691c-8.284 0-15-6.716-15-15v-60.957c0-8.284 6.716-15 15-15s15 6.716 15 15v60.957c0 8.285-6.716 15-15 15z"/></g><path d="m196 333.691c-8.284 0-15-6.716-15-15v-60.957c0-8.284 6.716-15 15-15s15 6.716 15 15v60.957c0 8.285-6.716 15-15 15z" fill="#a0bd3a"/><path d="m136 333.691c-8.284 0-15-6.716-15-15v-60.957c0-8.284 6.716-15 15-15s15 6.716 15 15v60.957c0 8.285-6.716 15-15 15z" fill="#a0bd3a"/><path d="m76 333.691c-8.284 0-15-6.716-15-15v-60.957c0-8.284 6.716-15 15-15s15 6.716 15 15v60.957c0 8.285-6.716 15-15 15z" fill="#a0bd3a"/><g><path d="m256 333.691c-8.284 0-15-6.716-15-15v-60.957c0-8.284 6.716-15 15-15s15 6.716 15 15v60.957c0 8.285-6.716 15-15 15z" fill="#a0bd3a"/><path d="m256 242.734v90.957c8.284 0 15-6.716 15-15v-60.957c0-8.284-6.716-15-15-15z" fill="#738b2f"/></g></g><g><g><path d="m293.274 1.515h-74.548c0 43.762-35.476 79.239-79.239 79.239-46.109 0-83.487 37.378-83.487 83.487v86.978h400v-86.978c0-46.109-37.378-83.487-83.487-83.487-43.763 0-79.239-35.477-79.239-79.239z" fill="#e17734"/><path d="m372.513 80.754c-43.762 0-79.239-35.477-79.239-79.239h-37.274v249.704h200v-86.978c0-46.109-37.378-83.487-83.487-83.487z" fill="#dc4e26"/></g><g><path d="m309.547 30h-107.094c-8.284 0-15-6.716-15-15s6.716-15 15-15h107.094c8.284 0 15 6.716 15 15s-6.716 15-15 15z" fill="#e79e37"/><path d="m309.547 0h-53.547v30h53.547c8.284 0 15-6.716 15-15s-6.716-15-15-15z" fill="#e17734"/></g><g><path d="m456 272.734h-400c-8.284 0-15-6.716-15-15s6.716-15 15-15h400c8.284 0 15 6.716 15 15 0 8.285-6.716 15-15 15z" fill="#e79e37"/><path d="m456 242.734h-200v30h200c8.284 0 15-6.716 15-15s-6.716-15-15-15z" fill="#e17734"/></g></g></g></g></svg>