<svg id="Capa_1" enable-background="new 0 0 512 512" height="512" viewBox="0 0 512 512" width="512" xmlns="http://www.w3.org/2000/svg"><g><g><g><path d="m397.124 78.431-24.455 64.551c-1.215 3.207-5.511 3.771-7.513.986l-26.235-36.504c-1.016-1.413-2.782-2.075-4.476-1.676l-32.864 7.729c-2.388.562-4.761-.985-5.211-3.397l-5.777-30.954c-.38-2.035-2.156-3.511-4.227-3.511h-271.366c-8.284 0-15 6.716-15 15v35.395c0 18.956 2.06 37.43 5.969 55.212l13.833 15.189-5.277 14.813c35.109 99.491 129.966 170.785 241.475 170.785 111.508 0 206.365-71.294 241.475-170.786l-5.065-15.56 13.621-14.442c3.909-17.782 5.969-36.256 5.969-55.212v-35.395c0-8.284-6.716-15-15-15h-95.855c-1.787 0-3.388 1.106-4.021 2.777z" fill="#f1d0a7"/><path d="m497 75.654h-95.855c-1.787 0-3.388 1.105-4.021 2.777l-24.455 64.551c-1.215 3.207-5.511 3.771-7.513.986l-26.235-36.505c-1.015-1.413-2.782-2.075-4.476-1.676l-32.864 7.729c-2.388.562-4.761-.985-5.211-3.397l-5.778-30.954c-.38-2.035-2.156-3.511-4.227-3.511h-30.365v306.395c111.508 0 206.365-71.294 241.475-170.786l-5.277-14.813 13.833-15.189c3.909-17.782 5.969-36.256 5.969-55.212v-35.395c0-8.284-6.716-15-15-15z" fill="#edbc8b"/></g><g><g><path d="m333.226 257.01v-60.753c0-8.284-6.716-15-15-15h-125.01c-8.284 0-15 6.716-15 15s6.716 15 15 15h110.01v30.753h-154.441v-45.753c0-8.284-6.716-15-15-15h-127.797c2.252 10.244 5.117 20.257 8.555 30h104.242v45.753c0 8.284 6.716 15 15 15h184.441c8.284 0 15-6.716 15-15z" fill="#e17734"/><path d="m318.226 181.257h-62.226v30h47.226v30.753h-47.226v30h62.226c8.284 0 15-6.716 15-15v-60.753c0-8.284-6.716-15-15-15z" fill="#dc4e26"/></g><g><path d="m283.929 325.157c2.728-7.822-1.401-16.375-9.224-19.103l-28.352-9.889c-5.206-1.816-10.988-.63-15.057 3.089l-47.774 43.645-.102-27.626c-.03-8.266-6.74-14.945-14.999-14.945-.019 0-.038 0-.056 0-8.284.031-14.975 6.771-14.945 15.055l.167 45.338c12.812 5.599 26.168 10.183 39.971 13.643l51.365-46.926 19.902 6.941c7.824 2.731 16.375-1.4 19.104-9.222z" fill="#e2a773"/><path d="m274.705 306.054-18.705-6.524v31.772l8.826 3.078c7.823 2.73 16.374-1.401 19.103-9.223 2.728-7.822-1.402-16.375-9.224-19.103z" fill="#d59a62"/></g><path d="m506.012 181.257h-127.797c-8.284 0-15 6.716-15 15v60.753c0 8.284 6.716 15 15 15s15-6.716 15-15v-45.753h104.242c3.439-9.744 6.303-19.756 8.555-30z" fill="#dc4e26"/></g></g><g><path d="m414.931 436.346h-317.862v-22.593c0-23.033 18.672-41.704 41.704-41.704h234.455c23.033 0 41.704 18.672 41.704 41.704v22.593z" fill="#b1705e"/><path d="m373.227 372.049h-117.227v64.297h158.931v-22.593c0-23.033-18.671-41.704-41.704-41.704z" fill="#9e5f4e"/></g></g></svg>