<svg id="Capa_1" enable-background="new 0 0 512 512" height="512" viewBox="0 0 512 512" width="512" xmlns="http://www.w3.org/2000/svg"><g><g><g><path d="m225.783 158.458-35.778-54.471c-17.694-26.938-47.759-43.161-79.989-43.161h-95.016c-8.284 0-15 6.716-15 15v196.571c0 51.038 41.375 92.413 92.413 92.413h51.64 81.38 220.834v-67.491c0-52.854-42.846-95.7-95.7-95.7h-44.796c-32.229.001-62.294-16.222-79.988-43.161z" fill="#738b2f"/><path d="m350.568 201.62h-44.796c-17.831 0-34.994-4.973-49.772-13.972v177.163h190.267v-67.492c0-52.853-42.846-95.699-95.699-95.699z" fill="#5b7726"/></g><g><path d="m376 279.07c-6.286 0-11.981-4.063-14.115-9.952-2.128-5.871-.236-12.702 4.605-16.648 4.862-3.962 11.83-4.488 17.216-1.265 5.366 3.211 8.241 9.658 7.004 15.795-1.394 6.918-7.643 12.07-14.71 12.07z" fill="#3b4a17"/><path d="m316 279.07c-6.286 0-11.981-4.064-14.115-9.952-2.129-5.872-.238-12.7 4.605-16.648 4.862-3.962 11.83-4.488 17.217-1.265 5.365 3.211 8.241 9.657 7.004 15.795-1.396 6.919-7.642 12.07-14.711 12.07z" fill="#3b4a17"/><g fill="#5b7726"><path d="m196 279.07c-6.286 0-11.981-4.064-14.115-9.952-2.126-5.866-.244-12.708 4.605-16.648 4.869-3.956 11.824-4.492 17.217-1.265 5.367 3.212 8.241 9.657 7.004 15.795-1.395 6.919-7.643 12.07-14.711 12.07z"/><path d="m196 219.07c-6.541 0-12.437-4.411-14.35-10.649-1.916-6.248.612-13.195 6.02-16.83 4.923-3.309 11.52-3.308 16.485-.109 5.169 3.331 7.812 9.747 6.503 15.752-1.484 6.805-7.671 11.836-14.658 11.836z"/><path d="m136 279.07c-6.286 0-11.981-4.064-14.115-9.952-2.126-5.866-.244-12.708 4.605-16.648 4.87-3.956 11.824-4.492 17.217-1.265 5.366 3.211 8.241 9.657 7.004 15.795-1.395 6.919-7.643 12.07-14.711 12.07z"/><path d="m136 219.07c-6.416 0-12.207-4.234-14.235-10.299-2.031-6.072.186-12.943 5.308-16.752 5.056-3.759 12.217-3.917 17.408-.323 5.091 3.526 7.582 9.978 6.068 16.001-1.657 6.589-7.735 11.373-14.549 11.373z"/><path d="m136 159.07c-6.415 0-12.208-4.234-14.235-10.299-2.023-6.049.167-12.971 5.308-16.75 5.103-3.752 12.175-3.911 17.41-.317 5.1 3.501 7.575 9.985 6.066 15.99-1.657 6.588-7.732 11.376-14.549 11.376z"/><path d="m76 279.07c-6.286 0-11.981-4.064-14.115-9.952-2.126-5.864-.241-12.711 4.605-16.648 4.869-3.956 11.824-4.492 17.216-1.265 5.366 3.211 8.241 9.657 7.004 15.795-1.394 6.919-7.642 12.07-14.71 12.07z"/><path d="m76 219.07c-6.173 0-11.849-3.945-14.027-9.707-2.17-5.74-.535-12.476 4.094-16.535 4.929-4.321 12.2-4.937 17.796-1.533 5.407 3.29 8.168 9.94 6.759 16.093-1.542 6.733-7.693 11.682-14.622 11.682z"/><path d="m76 159.07c-6.286 0-11.981-4.064-14.115-9.952-2.127-5.867-.244-12.708 4.605-16.648 4.866-3.953 11.825-4.494 17.216-1.269 5.364 3.209 8.244 9.665 7.004 15.799-1.399 6.919-7.638 12.07-14.71 12.07z"/></g><g><path d="m256 279.07c-6.286 0-11.981-4.064-14.115-9.952-2.126-5.866-.244-12.708 4.605-16.648 4.869-3.956 11.824-4.492 17.217-1.265 5.367 3.212 8.241 9.657 7.004 15.795-1.395 6.919-7.643 12.07-14.711 12.07z" fill="#5b7726"/><path d="m263.706 251.205c-2.37-1.418-5.042-2.108-7.706-2.102v29.967c7.068 0 13.316-5.151 14.71-12.069 1.237-6.139-1.637-12.584-7.004-15.796z" fill="#3b4a17"/></g></g></g><g><g><g><g><path d="m453.165 451.174c-6.784 0-12.934-4.634-14.578-11.521l-10-41.899c-1.923-8.059 3.05-16.149 11.108-18.072 8.06-1.922 16.149 3.05 18.073 11.108l10 41.899c1.923 8.059-3.05 16.149-11.108 18.072-1.171.279-2.342.413-3.495.413z" fill="#3d3532"/></g><g><path d="m58.835 451.174c-1.154 0-2.324-.133-3.495-.413-8.058-1.923-13.031-10.014-11.108-18.072l10-41.899c1.924-8.059 10.017-13.034 18.073-11.108 8.058 1.923 13.031 10.014 11.108 18.072l-10 41.899c-1.644 6.887-7.794 11.521-14.578 11.521z" fill="#635551"/></g></g><path d="m469.308 394.868h-426.616c-23.578 0-42.692-19.114-42.692-42.692 0-23.578 19.114-42.692 42.692-42.692h426.616c23.578 0 42.692 19.114 42.692 42.692 0 23.578-19.114 42.692-42.692 42.692z" fill="#a0bd3a"/><path d="m469.308 309.484h-213.308v85.384h213.308c23.578 0 42.692-19.114 42.692-42.692 0-23.578-19.114-42.692-42.692-42.692z" fill="#738b2f"/></g></g></g></svg>