<svg width="206" height="49" viewBox="0 0 206 49" fill="none" xmlns="http://www.w3.org/2000/svg">
<path d="M17.1204 15.2989L29.5269 2.77519C31.0452 1.2425 33.5186 1.23088 35.0512 2.74922L47.5749 15.1557L32.4192 30.4546L17.1204 15.2989Z" fill="#FF763D"/>
<path d="M0 32.8111L12.4065 45.3348C13.9248 46.8675 16.3982 46.8791 17.9309 45.3608L30.4546 32.9543L15.2989 17.6554L0 32.8111Z" fill="#FF763D"/>
<path d="M33.8396 32.8111L46.2461 45.3348C47.7644 46.8675 50.2378 46.8791 51.7705 45.3608L64.2942 32.9543L49.1385 17.6554L33.8396 32.8111Z" fill="#FF763D"/>
<path d="M98.8894 10.1147C99.0603 9.65899 99.3167 9.31718 99.6585 9.0893C100.019 8.84244 100.418 8.71901 100.855 8.71901C101.406 8.71901 101.871 8.88991 102.251 9.23173C102.649 9.57354 102.849 10.0388 102.849 10.6275C102.849 10.9123 102.792 11.2256 102.678 11.5675L96.7531 27.7752C96.5822 28.2309 96.2783 28.5917 95.8416 28.8576C95.4238 29.1044 94.9585 29.2279 94.4458 29.2279C93.9331 29.2279 93.4679 29.1044 93.0501 28.8576C92.6323 28.5917 92.338 28.2309 92.1671 27.7752L87.9229 15.7832L83.5647 27.7752C83.3938 28.2309 83.0995 28.5917 82.6817 28.8576C82.2639 29.1044 81.7987 29.2279 81.286 29.2279C80.7922 29.2279 80.327 29.1044 79.8902 28.8576C79.4724 28.5917 79.1781 28.2309 79.0072 27.7752L73.0824 11.5675C72.9685 11.2446 72.9115 10.9408 72.9115 10.656C72.9115 10.0673 73.1204 9.60203 73.5382 9.26021C73.9559 8.89941 74.4497 8.71901 75.0194 8.71901C75.4751 8.71901 75.8834 8.84244 76.2442 9.0893C76.624 9.31718 76.8993 9.65899 77.0702 10.1147L81.4569 22.7334L86.0144 10.1717C86.1853 9.71596 86.4512 9.36465 86.812 9.11779C87.1918 8.87092 87.5905 8.74749 88.0083 8.74749C88.4451 8.74749 88.8439 8.87092 89.2047 9.11779C89.5655 9.36465 89.8313 9.72546 90.0022 10.2002L94.3604 22.9613L98.8894 10.1147ZM114.434 29.2564C112.44 29.2564 110.702 28.8386 109.221 28.003C107.759 27.1485 106.629 25.9522 105.831 24.414C105.034 22.8568 104.635 21.0338 104.635 18.945C104.635 16.8561 105.034 15.0426 105.831 13.5044C106.629 11.9473 107.759 10.7509 109.221 9.91536C110.702 9.07981 112.44 8.66204 114.434 8.66204C116.427 8.66204 118.155 9.07981 119.618 9.91536C121.099 10.7509 122.238 11.9473 123.036 13.5044C123.833 15.0426 124.232 16.8561 124.232 18.945C124.232 21.0338 123.833 22.8568 123.036 24.414C122.238 25.9522 121.099 27.1485 119.618 28.003C118.155 28.8386 116.427 29.2564 114.434 29.2564ZM114.434 25.8097C116.105 25.8097 117.415 25.2211 118.364 24.0437C119.333 22.8663 119.817 21.1668 119.817 18.945C119.817 16.7232 119.342 15.0331 118.393 13.8747C117.443 12.6973 116.124 12.1087 114.434 12.1087C112.743 12.1087 111.424 12.6973 110.474 13.8747C109.544 15.0331 109.078 16.7232 109.078 18.945C109.078 21.1668 109.553 22.8663 110.503 24.0437C111.452 25.2211 112.762 25.8097 114.434 25.8097ZM144.089 26.18C144.374 26.5978 144.516 27.0061 144.516 27.4049C144.516 27.9366 144.298 28.3733 143.861 28.7152C143.443 29.057 142.95 29.2279 142.38 29.2279C142.019 29.2279 141.668 29.1424 141.326 28.9715C140.984 28.8006 140.699 28.5348 140.471 28.1739L136.712 22.591C136.389 22.0972 136.047 21.7459 135.686 21.537C135.325 21.3092 134.87 21.1952 134.319 21.1952H132.012V26.9491C132.012 27.6327 131.812 28.1739 131.413 28.5727C131.034 28.9715 130.511 29.1709 129.847 29.1709C129.163 29.1709 128.622 28.9715 128.223 28.5727C127.824 28.1739 127.625 27.6327 127.625 26.9491V10.9978C127.625 10.3331 127.805 9.82041 128.166 9.4596C128.527 9.0988 129.04 8.9184 129.704 8.9184H136.854C139.209 8.9184 140.984 9.44061 142.181 10.485C143.396 11.5105 144.004 13.0012 144.004 14.9571C144.004 16.4953 143.576 17.7771 142.722 18.8025C141.867 19.828 140.661 20.5021 139.104 20.8249C139.674 20.9389 140.177 21.1668 140.614 21.5086C141.07 21.8314 141.506 22.3061 141.924 22.9328L144.089 26.18ZM136.199 17.8341C137.471 17.8341 138.392 17.6157 138.962 17.1789C139.532 16.7232 139.816 16.0205 139.816 15.0711C139.816 14.1026 139.532 13.4 138.962 12.9632C138.392 12.5264 137.471 12.3081 136.199 12.3081H131.955V17.8341H136.199ZM149.677 29C149.012 29 148.5 28.8196 148.139 28.4588C147.778 28.098 147.598 27.5853 147.598 26.9206V10.9978C147.598 10.3331 147.778 9.82041 148.139 9.4596C148.5 9.0988 149.012 8.9184 149.677 8.9184H155.402C157.586 8.9184 159.466 9.31718 161.042 10.1147C162.618 10.9123 163.824 12.0612 164.66 13.5614C165.495 15.0616 165.913 16.8561 165.913 18.945C165.913 21.0338 165.495 22.8378 164.66 24.357C163.843 25.8572 162.647 27.0061 161.071 27.8036C159.495 28.6012 157.605 29 155.402 29H149.677ZM155.089 25.4109C159.362 25.4109 161.498 23.2556 161.498 18.945C161.498 14.6533 159.362 12.5074 155.089 12.5074H152.041V25.4109H155.089ZM178.552 29.2564C176.577 29.2564 174.849 28.8386 173.367 28.003C171.886 27.1675 170.747 25.9711 169.949 24.414C169.152 22.8568 168.753 21.0338 168.753 18.945C168.753 16.8561 169.152 15.0426 169.949 13.5044C170.747 11.9473 171.886 10.7509 173.367 9.91536C174.849 9.07981 176.577 8.66204 178.552 8.66204C181.039 8.66204 183.185 9.34566 184.989 10.7129C185.274 10.9408 185.473 11.1687 185.587 11.3966C185.701 11.6244 185.758 11.9093 185.758 12.2511C185.758 12.7448 185.616 13.1721 185.331 13.5329C185.065 13.8747 184.733 14.0456 184.334 14.0456C184.068 14.0456 183.831 14.0171 183.622 13.9602C183.432 13.8842 183.214 13.7608 182.967 13.5899C182.207 13.0961 181.504 12.7448 180.859 12.5359C180.213 12.3081 179.52 12.1941 178.779 12.1941C176.956 12.1941 175.58 12.7638 174.649 13.9032C173.738 15.0236 173.282 16.7042 173.282 18.945C173.282 23.4645 175.114 25.7243 178.779 25.7243C179.482 25.7243 180.147 25.6198 180.773 25.4109C181.4 25.1831 182.131 24.8223 182.967 24.3285C183.252 24.1576 183.489 24.0437 183.679 23.9867C183.869 23.9108 184.087 23.8728 184.334 23.8728C184.733 23.8728 185.065 24.0532 185.331 24.414C185.616 24.7558 185.758 25.1736 185.758 25.6673C185.758 26.0091 185.692 26.3035 185.559 26.5503C185.445 26.7782 185.255 26.9966 184.989 27.2055C183.185 28.5727 181.039 29.2564 178.552 29.2564ZM197.439 29.2564C195.464 29.2564 193.736 28.8386 192.255 28.003C190.774 27.1675 189.634 25.9711 188.837 24.414C188.039 22.8568 187.641 21.0338 187.641 18.945C187.641 16.8561 188.039 15.0426 188.837 13.5044C189.634 11.9473 190.774 10.7509 192.255 9.91536C193.736 9.07981 195.464 8.66204 197.439 8.66204C199.927 8.66204 202.073 9.34566 203.877 10.7129C204.162 10.9408 204.361 11.1687 204.475 11.3966C204.589 11.6244 204.646 11.9093 204.646 12.2511C204.646 12.7448 204.503 13.1721 204.219 13.5329C203.953 13.8747 203.62 14.0456 203.222 14.0456C202.956 14.0456 202.718 14.0171 202.509 13.9602C202.32 13.8842 202.101 13.7608 201.854 13.5899C201.095 13.0961 200.392 12.7448 199.746 12.5359C199.101 12.3081 198.408 12.1941 197.667 12.1941C195.844 12.1941 194.467 12.7638 193.537 13.9032C192.625 15.0236 192.17 16.7042 192.17 18.945C192.17 23.4645 194.002 25.7243 197.667 25.7243C198.37 25.7243 199.034 25.6198 199.661 25.4109C200.288 25.1831 201.019 24.8223 201.854 24.3285C202.139 24.1576 202.377 24.0437 202.566 23.9867C202.756 23.9108 202.975 23.8728 203.222 23.8728C203.62 23.8728 203.953 24.0532 204.219 24.414C204.503 24.7558 204.646 25.1736 204.646 25.6673C204.646 26.0091 204.579 26.3035 204.446 26.5503C204.333 26.7782 204.143 26.9966 203.877 27.2055C202.073 28.5727 199.927 29.2564 197.439 29.2564Z" fill="#333333"/>
<path d="M76.9143 37.9693C77.032 37.9693 77.1257 38.0094 77.1953 38.0897C77.2703 38.1647 77.3077 38.2637 77.3077 38.3868V43.2931C77.3077 43.4162 77.2703 43.5179 77.1953 43.5982C77.1204 43.6731 77.024 43.7106 76.9062 43.7106C76.7671 43.7106 76.66 43.6571 76.585 43.55L73.4373 39.3986V43.2931C73.4373 43.4162 73.3999 43.5179 73.3249 43.5982C73.2553 43.6731 73.1617 43.7106 73.0439 43.7106C72.9261 43.7106 72.8324 43.6731 72.7628 43.5982C72.6932 43.5232 72.6584 43.4215 72.6584 43.2931V38.3868C72.6584 38.2637 72.6959 38.1647 72.7709 38.0897C72.8458 38.0094 72.9422 37.9693 73.0599 37.9693C73.1991 37.9693 73.3062 38.0228 73.3811 38.1299L76.5288 42.2893V38.3868C76.5288 38.2637 76.5636 38.1647 76.6332 38.0897C76.7028 38.0094 76.7965 37.9693 76.9143 37.9693ZM83.3395 43.7347C82.5847 43.7347 82.0119 43.5393 81.6211 43.1485C81.2303 42.7577 81.0349 42.1823 81.0349 41.4221V38.3868C81.0349 38.2583 81.0724 38.1566 81.1473 38.0817C81.2223 38.0067 81.3213 37.9693 81.4444 37.9693C81.5675 37.9693 81.6666 38.0067 81.7415 38.0817C81.8165 38.1566 81.8539 38.2583 81.8539 38.3868V41.4783C81.8539 41.9976 81.9771 42.391 82.2233 42.6587C82.4749 42.9264 82.847 43.0602 83.3395 43.0602C83.8266 43.0602 84.196 42.9264 84.4476 42.6587C84.6992 42.391 84.825 41.9976 84.825 41.4783V38.3868C84.825 38.2637 84.8625 38.1647 84.9374 38.0897C85.0123 38.0094 85.1114 37.9693 85.2345 37.9693C85.3576 37.9693 85.4567 38.0067 85.5316 38.0817C85.6066 38.1566 85.644 38.2583 85.644 38.3868V41.4221C85.644 42.1769 85.446 42.7524 85.0498 43.1485C84.659 43.5393 84.0889 43.7347 83.3395 43.7347ZM94.3929 37.9693C94.5106 37.9693 94.607 38.0094 94.6819 38.0897C94.7569 38.1647 94.7943 38.2637 94.7943 38.3868V43.3171C94.7943 43.4403 94.7596 43.5366 94.69 43.6062C94.6257 43.6758 94.5347 43.7106 94.4169 43.7106C94.3045 43.7106 94.2162 43.6758 94.152 43.6062C94.0877 43.5366 94.0556 43.4403 94.0556 43.3171V39.5833L92.4818 42.5784C92.38 42.7658 92.2489 42.8594 92.0883 42.8594C91.9277 42.8594 91.7965 42.7658 91.6948 42.5784L90.1129 39.6154V43.3171C90.1129 43.4403 90.0808 43.5366 90.0166 43.6062C89.9524 43.6758 89.8613 43.7106 89.7436 43.7106C89.6312 43.7106 89.5402 43.6758 89.4706 43.6062C89.4063 43.5313 89.3742 43.4349 89.3742 43.3171V38.3868C89.3742 38.2637 89.4117 38.1647 89.4866 38.0897C89.5616 38.0094 89.6579 37.9693 89.7757 37.9693C89.9416 37.9693 90.0755 38.0656 90.1772 38.2583L92.0963 41.928L93.9994 38.2583C94.1011 38.0656 94.2323 37.9693 94.3929 37.9693ZM98.9765 43.7106C98.8533 43.7106 98.7543 43.6731 98.6794 43.5982C98.6044 43.5232 98.5669 43.4215 98.5669 43.2931V38.3868C98.5669 38.2637 98.6044 38.1647 98.6794 38.0897C98.7543 38.0094 98.8533 37.9693 98.9765 37.9693C99.1049 37.9693 99.2066 38.0067 99.2816 38.0817C99.3565 38.1566 99.394 38.2583 99.394 38.3868V43.2931C99.394 43.4215 99.3565 43.5232 99.2816 43.5982C99.212 43.6731 99.1103 43.7106 98.9765 43.7106ZM105.028 43.7347C104.621 43.7347 104.233 43.6785 103.863 43.5661C103.499 43.4537 103.208 43.2984 102.988 43.1003C102.886 43.0147 102.836 42.9049 102.836 42.7711C102.836 42.6748 102.862 42.5945 102.916 42.5302C102.969 42.4606 103.034 42.4258 103.109 42.4258C103.184 42.4258 103.275 42.4606 103.382 42.5302C103.858 42.8835 104.401 43.0602 105.012 43.0602C105.44 43.0602 105.769 42.9799 105.999 42.8193C106.23 42.6587 106.345 42.4285 106.345 42.1287C106.345 41.8932 106.238 41.7165 106.023 41.5988C105.809 41.481 105.467 41.3686 104.996 41.2615C104.546 41.1651 104.177 41.0554 103.888 40.9323C103.598 40.8092 103.371 40.6432 103.205 40.4344C103.044 40.2203 102.964 39.95 102.964 39.6234C102.964 39.2969 103.052 39.0078 103.229 38.7562C103.411 38.4992 103.663 38.3012 103.984 38.162C104.305 38.0174 104.672 37.9452 105.084 37.9452C105.464 37.9452 105.815 37.9987 106.136 38.1058C106.457 38.2128 106.73 38.3708 106.955 38.5795C107.062 38.6705 107.116 38.7803 107.116 38.9088C107.116 38.9998 107.086 39.0801 107.027 39.1497C106.974 39.2192 106.909 39.254 106.834 39.254C106.765 39.254 106.677 39.2192 106.569 39.1497C106.323 38.9623 106.09 38.8285 105.871 38.7482C105.657 38.6625 105.397 38.6197 105.092 38.6197C104.68 38.6197 104.359 38.7053 104.128 38.8766C103.898 39.0426 103.783 39.2755 103.783 39.5752C103.783 39.8322 103.885 40.0276 104.088 40.1614C104.292 40.2899 104.618 40.4077 105.068 40.5147C105.539 40.6218 105.919 40.7342 106.208 40.852C106.503 40.9644 106.735 41.1223 106.907 41.3257C107.083 41.5238 107.172 41.7808 107.172 42.0966C107.172 42.4178 107.081 42.7042 106.899 42.9558C106.722 43.202 106.47 43.3948 106.144 43.5339C105.823 43.6678 105.451 43.7347 105.028 43.7347ZM115.667 37.9693C115.785 37.9693 115.881 38.0094 115.956 38.0897C116.031 38.1647 116.068 38.2637 116.068 38.3868V43.3171C116.068 43.4403 116.034 43.5366 115.964 43.6062C115.9 43.6758 115.809 43.7106 115.691 43.7106C115.579 43.7106 115.49 43.6758 115.426 43.6062C115.362 43.5366 115.33 43.4403 115.33 43.3171V39.5833L113.756 42.5784C113.654 42.7658 113.523 42.8594 113.362 42.8594C113.202 42.8594 113.071 42.7658 112.969 42.5784L111.387 39.6154V43.3171C111.387 43.4403 111.355 43.5366 111.291 43.6062C111.226 43.6758 111.135 43.7106 111.018 43.7106C110.905 43.7106 110.814 43.6758 110.745 43.6062C110.68 43.5313 110.648 43.4349 110.648 43.3171V38.3868C110.648 38.2637 110.686 38.1647 110.761 38.0897C110.836 38.0094 110.932 37.9693 111.05 37.9693C111.216 37.9693 111.35 38.0656 111.451 38.2583L113.37 41.928L115.273 38.2583C115.375 38.0656 115.506 37.9693 115.667 37.9693ZM124.836 43.1887C124.862 43.2529 124.876 43.3064 124.876 43.3493C124.876 43.451 124.833 43.5366 124.747 43.6062C124.667 43.6758 124.576 43.7106 124.474 43.7106C124.405 43.7106 124.338 43.6919 124.273 43.6544C124.215 43.6116 124.169 43.5527 124.137 43.4777L123.607 42.2733H120.668L120.138 43.4777C120.106 43.5527 120.058 43.6116 119.994 43.6544C119.929 43.6919 119.862 43.7106 119.793 43.7106C119.686 43.7106 119.589 43.6758 119.504 43.6062C119.423 43.5366 119.383 43.451 119.383 43.3493C119.383 43.3064 119.397 43.2529 119.423 43.1887L121.688 38.2342C121.725 38.1486 121.784 38.0817 121.865 38.0335C121.95 37.9853 122.039 37.9612 122.13 37.9612C122.221 37.9612 122.306 37.9853 122.386 38.0335C122.472 38.0817 122.534 38.1486 122.571 38.2342L124.836 43.1887ZM120.965 41.6148H123.318L122.138 38.9569L120.965 41.6148ZM129.271 43.7106C129.148 43.7106 129.047 43.6731 128.966 43.5982C128.891 43.5179 128.854 43.4162 128.854 43.2931V38.7H127.248C126.991 38.7 126.862 38.5849 126.862 38.3547C126.862 38.2423 126.895 38.1566 126.959 38.0977C127.028 38.0389 127.125 38.0094 127.248 38.0094H131.295C131.418 38.0094 131.512 38.0389 131.576 38.0977C131.646 38.1566 131.68 38.2423 131.68 38.3547C131.68 38.5849 131.552 38.7 131.295 38.7H129.689V43.2931C129.689 43.4162 129.651 43.5179 129.577 43.5982C129.502 43.6731 129.4 43.7106 129.271 43.7106ZM135.225 43.7106C135.102 43.7106 135.003 43.6731 134.928 43.5982C134.853 43.5232 134.816 43.4215 134.816 43.2931V38.3868C134.816 38.2637 134.853 38.1647 134.928 38.0897C135.003 38.0094 135.102 37.9693 135.225 37.9693C135.354 37.9693 135.455 38.0067 135.53 38.0817C135.605 38.1566 135.643 38.2583 135.643 38.3868V43.2931C135.643 43.4215 135.605 43.5232 135.53 43.5982C135.461 43.6731 135.359 43.7106 135.225 43.7106ZM141.871 43.7347C141.33 43.7347 140.859 43.6196 140.458 43.3894C140.056 43.1539 139.748 42.8193 139.534 42.3857C139.32 41.9467 139.213 41.4301 139.213 40.8359C139.213 40.2471 139.32 39.7358 139.534 39.3022C139.748 38.8633 140.056 38.5287 140.458 38.2985C140.859 38.0629 141.33 37.9452 141.871 37.9452C142.224 37.9452 142.559 38.0014 142.874 38.1138C143.19 38.2209 143.466 38.3788 143.702 38.5876C143.803 38.6679 143.854 38.7749 143.854 38.9088C143.854 39.0051 143.827 39.0881 143.774 39.1577C143.72 39.2219 143.656 39.254 143.581 39.254C143.49 39.254 143.402 39.2192 143.316 39.1497C143.059 38.9569 142.824 38.8231 142.61 38.7482C142.401 38.6679 142.163 38.6277 141.895 38.6277C141.306 38.6277 140.854 38.8178 140.538 39.1978C140.222 39.5779 140.064 40.1239 140.064 40.8359C140.064 41.5533 140.222 42.102 140.538 42.482C140.854 42.8621 141.306 43.0522 141.895 43.0522C142.152 43.0522 142.385 43.012 142.593 42.9317C142.808 42.8514 143.048 42.7176 143.316 42.5302C143.423 42.4606 143.512 42.4258 143.581 42.4258C143.656 42.4258 143.72 42.4606 143.774 42.5302C143.827 42.5945 143.854 42.6748 143.854 42.7711C143.854 42.9049 143.803 43.012 143.702 43.0923C143.466 43.3011 143.19 43.4617 142.874 43.5741C142.559 43.6812 142.224 43.7347 141.871 43.7347ZM154.32 43.7347C153.78 43.7347 153.309 43.6196 152.907 43.3894C152.506 43.1539 152.198 42.8193 151.984 42.3857C151.77 41.9467 151.663 41.4301 151.663 40.8359C151.663 40.2471 151.77 39.7358 151.984 39.3022C152.198 38.8633 152.506 38.5287 152.907 38.2985C153.309 38.0629 153.78 37.9452 154.32 37.9452C154.674 37.9452 155.008 38.0014 155.324 38.1138C155.64 38.2209 155.916 38.3788 156.151 38.5876C156.253 38.6679 156.304 38.7749 156.304 38.9088C156.304 39.0051 156.277 39.0881 156.224 39.1577C156.17 39.2219 156.106 39.254 156.031 39.254C155.94 39.254 155.852 39.2192 155.766 39.1497C155.509 38.9569 155.273 38.8231 155.059 38.7482C154.85 38.6679 154.612 38.6277 154.345 38.6277C153.756 38.6277 153.303 38.8178 152.988 39.1978C152.672 39.5779 152.514 40.1239 152.514 40.8359C152.514 41.5533 152.672 42.102 152.988 42.482C153.303 42.8621 153.756 43.0522 154.345 43.0522C154.602 43.0522 154.834 43.012 155.043 42.9317C155.257 42.8514 155.498 42.7176 155.766 42.5302C155.873 42.4606 155.961 42.4258 156.031 42.4258C156.106 42.4258 156.17 42.4606 156.224 42.5302C156.277 42.5945 156.304 42.6748 156.304 42.7711C156.304 42.9049 156.253 43.012 156.151 43.0923C155.916 43.3011 155.64 43.4617 155.324 43.5741C155.008 43.6812 154.674 43.7347 154.32 43.7347ZM162.078 43.7347C161.542 43.7347 161.077 43.6169 160.68 43.3814C160.29 43.1458 159.987 42.8113 159.773 42.3777C159.559 41.944 159.452 41.4328 159.452 40.8439C159.452 40.2497 159.556 39.7358 159.765 39.3022C159.979 38.8633 160.284 38.5287 160.68 38.2985C161.077 38.0629 161.542 37.9452 162.078 37.9452C162.618 37.9452 163.087 38.0629 163.483 38.2985C163.879 38.5287 164.181 38.8633 164.39 39.3022C164.604 39.7358 164.711 40.2471 164.711 40.8359C164.711 41.4248 164.604 41.9387 164.39 42.3777C164.181 42.8113 163.879 43.1458 163.483 43.3814C163.087 43.6169 162.618 43.7347 162.078 43.7347ZM162.078 43.0602C162.645 43.0602 163.087 42.8675 163.403 42.482C163.718 42.0966 163.876 41.5479 163.876 40.8359C163.876 40.1239 163.718 39.5779 163.403 39.1978C163.092 38.8124 162.65 38.6197 162.078 38.6197C161.516 38.6197 161.077 38.8124 160.761 39.1978C160.45 39.5779 160.295 40.1239 160.295 40.8359C160.295 41.5479 160.45 42.0966 160.761 42.482C161.077 42.8675 161.516 43.0602 162.078 43.0602ZM173.315 37.9693C173.433 37.9693 173.529 38.0094 173.604 38.0897C173.679 38.1647 173.717 38.2637 173.717 38.3868V43.3171C173.717 43.4403 173.682 43.5366 173.612 43.6062C173.548 43.6758 173.457 43.7106 173.339 43.7106C173.227 43.7106 173.139 43.6758 173.074 43.6062C173.01 43.5366 172.978 43.4403 172.978 43.3171V39.5833L171.404 42.5784C171.302 42.7658 171.171 42.8594 171.011 42.8594C170.85 42.8594 170.719 42.7658 170.617 42.5784L169.035 39.6154V43.3171C169.035 43.4403 169.003 43.5366 168.939 43.6062C168.875 43.6758 168.784 43.7106 168.666 43.7106C168.554 43.7106 168.463 43.6758 168.393 43.6062C168.329 43.5313 168.297 43.4349 168.297 43.3171V38.3868C168.297 38.2637 168.334 38.1647 168.409 38.0897C168.484 38.0094 168.58 37.9693 168.698 37.9693C168.864 37.9693 168.998 38.0656 169.1 38.2583L171.019 41.928L172.922 38.2583C173.024 38.0656 173.155 37.9693 173.315 37.9693ZM177.899 43.7106C177.776 43.7106 177.677 43.6731 177.602 43.5982C177.527 43.5232 177.489 43.4215 177.489 43.2931V38.4109C177.489 38.2878 177.524 38.1914 177.594 38.1218C177.669 38.0469 177.77 38.0094 177.899 38.0094H179.834C180.434 38.0094 180.899 38.1566 181.231 38.4511C181.563 38.7455 181.729 39.163 181.729 39.7037C181.729 40.239 181.563 40.6566 181.231 40.9564C180.899 41.2561 180.434 41.406 179.834 41.406H178.316V43.2931C178.316 43.4215 178.279 43.5232 178.204 43.5982C178.134 43.6731 178.033 43.7106 177.899 43.7106ZM179.746 40.7396C180.538 40.7396 180.934 40.3943 180.934 39.7037C180.934 39.0185 180.538 38.6759 179.746 38.6759H178.316V40.7396H179.746ZM189.567 43.1887C189.594 43.2529 189.608 43.3064 189.608 43.3493C189.608 43.451 189.565 43.5366 189.479 43.6062C189.399 43.6758 189.308 43.7106 189.206 43.7106C189.136 43.7106 189.07 43.6919 189.005 43.6544C188.946 43.6116 188.901 43.5527 188.869 43.4777L188.339 42.2733H185.4L184.87 43.4777C184.838 43.5527 184.79 43.6116 184.725 43.6544C184.661 43.6919 184.594 43.7106 184.525 43.7106C184.418 43.7106 184.321 43.6758 184.236 43.6062C184.155 43.5366 184.115 43.451 184.115 43.3493C184.115 43.3064 184.129 43.2529 184.155 43.1887L186.42 38.2342C186.457 38.1486 186.516 38.0817 186.596 38.0335C186.682 37.9853 186.77 37.9612 186.861 37.9612C186.952 37.9612 187.038 37.9853 187.118 38.0335C187.204 38.0817 187.266 38.1486 187.303 38.2342L189.567 43.1887ZM185.697 41.6148H188.05L186.869 38.9569L185.697 41.6148ZM197.175 37.9693C197.292 37.9693 197.386 38.0094 197.456 38.0897C197.531 38.1647 197.568 38.2637 197.568 38.3868V43.2931C197.568 43.4162 197.531 43.5179 197.456 43.5982C197.381 43.6731 197.284 43.7106 197.167 43.7106C197.027 43.7106 196.92 43.6571 196.845 43.55L193.698 39.3986V43.2931C193.698 43.4162 193.66 43.5179 193.585 43.5982C193.516 43.6731 193.422 43.7106 193.304 43.7106C193.187 43.7106 193.093 43.6731 193.023 43.5982C192.954 43.5232 192.919 43.4215 192.919 43.2931V38.3868C192.919 38.2637 192.956 38.1647 193.031 38.0897C193.106 38.0094 193.203 37.9693 193.32 37.9693C193.46 37.9693 193.567 38.0228 193.642 38.1299L196.789 42.2893V38.3868C196.789 38.2637 196.824 38.1647 196.894 38.0897C196.963 38.0094 197.057 37.9693 197.175 37.9693ZM204.877 38.1138C204.952 38.0174 205.045 37.9693 205.158 37.9693C205.254 37.9693 205.34 38.0094 205.415 38.0897C205.495 38.1647 205.535 38.253 205.535 38.3547C205.535 38.4511 205.503 38.534 205.439 38.6036L203.544 40.9644V43.2931C203.544 43.4269 203.504 43.5313 203.423 43.6062C203.348 43.6758 203.249 43.7106 203.126 43.7106C203.003 43.7106 202.904 43.6758 202.829 43.6062C202.754 43.5313 202.717 43.4269 202.717 43.2931V40.9644L200.822 38.6036C200.757 38.534 200.725 38.4484 200.725 38.3467C200.725 38.245 200.763 38.1566 200.838 38.0817C200.913 38.0067 201.001 37.9693 201.103 37.9693C201.21 37.9693 201.303 38.0174 201.384 38.1138L203.134 40.314L204.877 38.1138Z" fill="#555555"/>
</svg>
