<svg width="58" height="110" viewBox="0 0 58 110" fill="none" xmlns="http://www.w3.org/2000/svg">
<path d="M0.156657 107.435C0.0785508 107.982 0.458448 108.489 1.00518 108.567L9.91472 109.839C10.4615 109.918 10.968 109.538 11.0461 108.991C11.1242 108.444 10.7443 107.938 10.1976 107.86L2.27798 106.728L3.40938 98.8086C3.48748 98.2619 3.10758 97.7553 2.56085 97.6772C2.01412 97.5991 1.50758 97.979 1.42948 98.5258L0.156657 107.435ZM23.2182 84.1465L24.0552 84.6937L23.2182 84.1465ZM11.8221 50.9328L12.6652 51.4705L12.6652 51.4705L11.8221 50.9328ZM49.3521 0.809472C48.8912 0.505218 48.2709 0.632222 47.9666 1.09314L43.0085 8.60428C42.7043 9.0652 42.8313 9.6855 43.2922 9.98975C43.7531 10.294 44.3734 10.167 44.6777 9.70608L49.0849 3.02951L55.7614 7.43671C56.2223 7.74097 56.8426 7.61396 57.1469 7.15304C57.4512 6.69212 57.3241 6.07183 56.8632 5.76757L49.3521 0.809472ZM1.7466 108.377C8.68056 103.176 12.7073 99.6463 15.7855 96.1993C18.8599 92.7567 20.9653 89.4194 24.0552 84.6937L22.3812 83.5992C19.2627 88.3687 17.2462 91.5612 14.2938 94.8672C11.3453 98.1688 7.44042 101.606 0.546609 106.777L1.7466 108.377ZM47.2552 42.446C53.8681 31.5542 53.4097 19.1669 49.7809 1.44346L47.8215 1.84463C51.4385 19.5101 51.733 31.2171 45.5457 41.4081L47.2552 42.446ZM19.5699 63.1565C23.0237 61.8246 28.2882 59.3538 33.5064 55.8784C38.7152 52.4093 43.9483 47.8927 47.2552 42.446L45.5457 41.4081C42.4525 46.5027 37.4862 50.8248 32.3978 54.2138C27.3187 57.5965 22.1881 60.0032 18.8503 61.2905L19.5699 63.1565ZM10.9789 50.3952C8.91277 53.6353 9.06392 57.5216 10.7196 60.2629C11.5518 61.6408 12.7797 62.7528 14.3216 63.322C15.8731 63.8948 17.668 63.89 19.5699 63.1565L18.8503 61.2905C17.3564 61.8666 16.0654 61.8338 15.0142 61.4458C13.9535 61.0542 13.062 60.2726 12.4316 59.2289C11.1621 57.1271 11.015 54.0584 12.6652 51.4705L10.9789 50.3952ZM24.0552 84.6937C31.4069 73.4499 31.4327 60.3303 28.0935 52.2352C26.4398 48.2265 23.84 45.185 20.6288 44.5206C17.3017 43.8321 13.9177 45.7864 10.9789 50.3952L12.6652 51.4705C15.4245 47.1433 18.1058 46.0409 20.2236 46.4791C22.4573 46.9413 24.6819 49.2096 26.2446 52.9979C29.3379 60.4969 29.3637 72.9202 22.3812 83.5992L24.0552 84.6937Z" fill="#593A3A" fill-opacity="0.8"/>
</svg>
