<svg width="1151" height="1352" viewBox="0 0 1151 1352" fill="none" xmlns="http://www.w3.org/2000/svg">
<g filter="url(#filter0_d)">
<path d="M180 209.962C180 193.414 193.414 180 209.962 180H941.038C957.586 180 971 193.414 971 209.962V1141.78C971 1158.33 957.585 1171.75 941.038 1171.75H209.962C193.414 1171.75 180 1158.33 180 1141.78V209.962Z" fill="white"/>
</g>
<path d="M297.616 293.458L311.273 279.672C315.822 275.079 323.233 275.045 327.825 279.594L341.612 293.251L319.717 315.353L297.616 293.458Z" fill="#FF763D"/>
<path d="M272.883 318.758L286.54 332.544C291.089 337.137 298.5 337.171 303.092 332.622L316.879 318.965L294.984 296.863L272.883 318.758Z" fill="#FF763D"/>
<path d="M321.769 318.758L335.427 332.544C339.976 337.137 347.387 337.171 351.979 332.622L365.766 318.965L343.871 296.863L321.769 318.758Z" fill="#FF763D"/>
<rect x="254.905" y="392.731" width="647.182" height="353.553" rx="14.9811" fill="#CFBA88" fill-opacity="0.25"/>
<rect x="254.905" y="791.227" width="644.186" height="128.837" rx="14.9811" fill="#F3EEE1"/>
<g filter="url(#filter1_d)">
<rect x="254.905" y="953.023" width="644.186" height="128.837" rx="14.9811" fill="#FF763D"/>
</g>
<rect x="299.849" y="508.776" width="548.307" height="71.9091" rx="23.8335" fill="white"/>
<g filter="url(#filter2_d)">
<rect x="299.849" y="508.776" width="182.769" height="71.9091" rx="14.9811" fill="#FF763D"/>
</g>
<path d="M445.527 320.375C443.144 320.375 441.053 319.861 439.255 318.833C437.479 317.806 436.113 316.334 435.155 314.418C434.197 312.503 433.718 310.26 433.718 307.691C433.718 305.121 434.197 302.89 435.155 300.998C436.113 299.083 437.479 297.611 439.255 296.583C441.053 295.555 443.144 295.041 445.527 295.041C447.069 295.041 448.517 295.275 449.872 295.742C451.227 296.186 452.43 296.84 453.481 297.704C453.785 297.938 453.995 298.183 454.112 298.44C454.228 298.697 454.287 299.013 454.287 299.386C454.287 299.9 454.147 300.332 453.866 300.683C453.586 301.033 453.247 301.208 452.85 301.208C452.383 301.208 451.904 301.045 451.414 300.718C450.409 299.97 449.475 299.456 448.61 299.176C447.746 298.872 446.788 298.721 445.737 298.721C443.308 298.721 441.462 299.48 440.201 300.998C438.963 302.517 438.344 304.747 438.344 307.691C438.344 310.657 438.963 312.9 440.201 314.418C441.462 315.937 443.308 316.696 445.737 316.696C446.742 316.696 447.664 316.544 448.505 316.24C449.37 315.937 450.339 315.423 451.414 314.699C451.647 314.559 451.881 314.442 452.114 314.348C452.348 314.255 452.593 314.208 452.85 314.208C453.247 314.208 453.586 314.383 453.866 314.734C454.147 315.084 454.287 315.516 454.287 316.03C454.287 316.381 454.228 316.696 454.112 316.976C453.995 317.233 453.785 317.479 453.481 317.712C452.43 318.576 451.227 319.242 449.872 319.709C448.517 320.153 447.069 320.375 445.527 320.375ZM471.035 302.575C471.712 302.575 472.25 302.762 472.647 303.136C473.044 303.509 473.242 304.012 473.242 304.642V318.238C473.242 318.845 473.032 319.336 472.612 319.709C472.215 320.083 471.689 320.27 471.035 320.27C470.404 320.27 469.902 320.095 469.528 319.744C469.154 319.394 468.967 318.915 468.967 318.308V317.432C468.43 318.366 467.706 319.09 466.795 319.604C465.884 320.095 464.856 320.34 463.712 320.34C459.507 320.34 457.404 317.981 457.404 313.262V304.642C457.404 304.012 457.603 303.509 458 303.136C458.397 302.762 458.923 302.575 459.577 302.575C460.254 302.575 460.792 302.762 461.189 303.136C461.586 303.509 461.784 304.012 461.784 304.642V313.297C461.784 314.512 462.03 315.411 462.52 315.995C463.011 316.579 463.782 316.871 464.833 316.871C466.048 316.871 467.017 316.474 467.741 315.68C468.489 314.862 468.862 313.788 468.862 312.456V304.642C468.862 304.012 469.061 303.509 469.458 303.136C469.855 302.762 470.381 302.575 471.035 302.575ZM487.367 302.575C487.974 302.528 488.453 302.657 488.804 302.96C489.154 303.264 489.329 303.72 489.329 304.327C489.329 304.958 489.177 305.425 488.874 305.728C488.57 306.032 488.021 306.231 487.227 306.324L486.176 306.429C484.797 306.569 483.781 307.037 483.127 307.831C482.496 308.625 482.181 309.618 482.181 310.809V318.168C482.181 318.845 481.971 319.371 481.55 319.744C481.13 320.095 480.604 320.27 479.974 320.27C479.343 320.27 478.817 320.095 478.397 319.744C478 319.371 477.801 318.845 477.801 318.168V304.607C477.801 303.953 478 303.451 478.397 303.101C478.817 302.75 479.331 302.575 479.939 302.575C480.546 302.575 481.036 302.75 481.41 303.101C481.784 303.428 481.971 303.906 481.971 304.537V305.939C482.415 304.911 483.069 304.117 483.933 303.556C484.821 302.995 485.802 302.68 486.876 302.61L487.367 302.575ZM500.781 302.575C501.388 302.528 501.867 302.657 502.217 302.96C502.568 303.264 502.743 303.72 502.743 304.327C502.743 304.958 502.591 305.425 502.287 305.728C501.984 306.032 501.435 306.231 500.641 306.324L499.589 306.429C498.211 306.569 497.195 307.037 496.541 307.831C495.91 308.625 495.595 309.618 495.595 310.809V318.168C495.595 318.845 495.385 319.371 494.964 319.744C494.544 320.095 494.018 320.27 493.387 320.27C492.757 320.27 492.231 320.095 491.81 319.744C491.413 319.371 491.215 318.845 491.215 318.168V304.607C491.215 303.953 491.413 303.451 491.81 303.101C492.231 302.75 492.745 302.575 493.352 302.575C493.96 302.575 494.45 302.75 494.824 303.101C495.198 303.428 495.385 303.906 495.385 304.537V305.939C495.828 304.911 496.482 304.117 497.347 303.556C498.234 302.995 499.216 302.68 500.29 302.61L500.781 302.575ZM517.847 315.364C518.244 315.364 518.559 315.516 518.793 315.82C519.05 316.124 519.178 316.532 519.178 317.046C519.178 317.771 518.746 318.378 517.882 318.868C517.088 319.312 516.188 319.674 515.184 319.955C514.179 320.212 513.222 320.34 512.31 320.34C509.554 320.34 507.37 319.546 505.758 317.957C504.146 316.369 503.34 314.196 503.34 311.44C503.34 309.688 503.691 308.135 504.391 306.78C505.092 305.425 506.073 304.374 507.335 303.626C508.62 302.879 510.068 302.505 511.68 302.505C513.222 302.505 514.565 302.844 515.709 303.521C516.854 304.198 517.742 305.156 518.372 306.394C519.003 307.632 519.318 309.092 519.318 310.774C519.318 311.779 518.875 312.281 517.987 312.281H507.65C507.79 313.893 508.246 315.084 509.017 315.855C509.788 316.603 510.909 316.976 512.381 316.976C513.128 316.976 513.782 316.883 514.343 316.696C514.927 316.509 515.581 316.252 516.305 315.925C517.006 315.551 517.52 315.364 517.847 315.364ZM511.785 305.588C510.594 305.588 509.636 305.962 508.912 306.71C508.211 307.457 507.79 308.532 507.65 309.933H515.569C515.522 308.508 515.172 307.434 514.518 306.71C513.864 305.962 512.953 305.588 511.785 305.588ZM532.853 302.505C534.908 302.505 536.438 303.089 537.443 304.257C538.447 305.425 538.95 307.188 538.95 309.548V318.168C538.95 318.822 538.751 319.336 538.354 319.709C537.98 320.083 537.455 320.27 536.777 320.27C536.1 320.27 535.562 320.083 535.165 319.709C534.768 319.336 534.57 318.822 534.57 318.168V309.793C534.57 308.462 534.313 307.492 533.799 306.885C533.308 306.277 532.526 305.974 531.451 305.974C530.19 305.974 529.173 306.371 528.403 307.165C527.655 307.959 527.281 309.022 527.281 310.354V318.168C527.281 318.822 527.083 319.336 526.686 319.709C526.288 320.083 525.751 320.27 525.074 320.27C524.396 320.27 523.859 320.083 523.462 319.709C523.088 319.336 522.901 318.822 522.901 318.168V304.607C522.901 304 523.1 303.509 523.497 303.136C523.894 302.762 524.431 302.575 525.109 302.575C525.716 302.575 526.207 302.762 526.58 303.136C526.978 303.486 527.176 303.953 527.176 304.537V305.483C527.76 304.525 528.543 303.79 529.524 303.276C530.505 302.762 531.615 302.505 532.853 302.505ZM551.002 320.34C549.297 320.34 547.79 319.978 546.482 319.254C545.197 318.53 544.204 317.502 543.503 316.17C542.803 314.839 542.452 313.285 542.452 311.51C542.452 309.735 542.814 308.17 543.538 306.815C544.286 305.436 545.325 304.374 546.657 303.626C547.988 302.879 549.519 302.505 551.247 302.505C552.158 302.505 553.069 302.633 553.98 302.89C554.915 303.147 555.732 303.498 556.433 303.941C557.181 304.432 557.554 305.051 557.554 305.799C557.554 306.312 557.426 306.733 557.169 307.06C556.935 307.364 556.62 307.516 556.223 307.516C555.966 307.516 555.697 307.457 555.417 307.34C555.137 307.224 554.856 307.083 554.576 306.92C554.062 306.616 553.572 306.383 553.104 306.219C552.637 306.032 552.1 305.939 551.492 305.939C550.044 305.939 548.923 306.418 548.129 307.375C547.358 308.31 546.972 309.665 546.972 311.44C546.972 313.192 547.358 314.547 548.129 315.505C548.923 316.439 550.044 316.906 551.492 316.906C552.076 316.906 552.59 316.824 553.034 316.661C553.501 316.474 554.015 316.229 554.576 315.925C554.926 315.715 555.23 315.563 555.487 315.47C555.744 315.353 556.001 315.294 556.258 315.294C556.632 315.294 556.947 315.458 557.204 315.785C557.461 316.112 557.589 316.521 557.589 317.011C557.589 317.408 557.496 317.759 557.309 318.063C557.146 318.343 556.865 318.6 556.468 318.833C555.744 319.301 554.903 319.674 553.945 319.955C552.988 320.212 552.006 320.34 551.002 320.34ZM572.456 303.836C572.643 303.416 572.888 303.112 573.192 302.925C573.519 302.715 573.869 302.61 574.243 302.61C574.781 302.61 575.259 302.797 575.68 303.171C576.124 303.521 576.346 303.965 576.346 304.502C576.346 304.759 576.276 305.028 576.135 305.308L566.569 325.351C566.172 326.145 565.553 326.542 564.712 326.542C564.175 326.542 563.696 326.367 563.276 326.017C562.879 325.69 562.68 325.269 562.68 324.755C562.68 324.498 562.75 324.206 562.89 323.879L565.273 318.868L558.756 305.308C558.639 305.074 558.58 304.806 558.58 304.502C558.58 303.965 558.802 303.509 559.246 303.136C559.713 302.762 560.239 302.575 560.823 302.575C561.22 302.575 561.582 302.68 561.909 302.89C562.236 303.077 562.493 303.381 562.68 303.801L567.586 314.629L572.456 303.836ZM599.887 320.375C597.505 320.375 595.414 319.861 593.615 318.833C591.84 317.806 590.473 316.334 589.515 314.418C588.558 312.503 588.079 310.26 588.079 307.691C588.079 305.121 588.558 302.89 589.515 300.998C590.473 299.083 591.84 297.611 593.615 296.583C595.414 295.555 597.505 295.041 599.887 295.041C601.429 295.041 602.877 295.275 604.232 295.742C605.587 296.186 606.79 296.84 607.841 297.704C608.145 297.938 608.355 298.183 608.472 298.44C608.589 298.697 608.647 299.013 608.647 299.386C608.647 299.9 608.507 300.332 608.227 300.683C607.946 301.033 607.608 301.208 607.211 301.208C606.743 301.208 606.264 301.045 605.774 300.718C604.769 299.97 603.835 299.456 602.971 299.176C602.106 298.872 601.149 298.721 600.097 298.721C597.668 298.721 595.823 299.48 594.561 300.998C593.323 302.517 592.704 304.747 592.704 307.691C592.704 310.657 593.323 312.9 594.561 314.418C595.823 315.937 597.668 316.696 600.097 316.696C601.102 316.696 602.025 316.544 602.866 316.24C603.73 315.937 604.699 315.423 605.774 314.699C606.008 314.559 606.241 314.442 606.475 314.348C606.708 314.255 606.954 314.208 607.211 314.208C607.608 314.208 607.946 314.383 608.227 314.734C608.507 315.084 608.647 315.516 608.647 316.03C608.647 316.381 608.589 316.696 608.472 316.976C608.355 317.233 608.145 317.479 607.841 317.712C606.79 318.576 605.587 319.242 604.232 319.709C602.877 320.153 601.429 320.375 599.887 320.375ZM619.298 302.505C621.681 302.505 623.445 303.101 624.589 304.292C625.757 305.46 626.341 307.247 626.341 309.653V318.203C626.341 318.833 626.154 319.336 625.781 319.709C625.407 320.06 624.893 320.235 624.239 320.235C623.632 320.235 623.129 320.048 622.732 319.674C622.358 319.301 622.172 318.81 622.172 318.203V317.432C621.774 318.343 621.144 319.055 620.279 319.569C619.438 320.083 618.457 320.34 617.336 320.34C616.191 320.34 615.152 320.107 614.217 319.639C613.283 319.172 612.547 318.53 612.01 317.712C611.473 316.895 611.204 315.984 611.204 314.979C611.204 313.718 611.519 312.725 612.15 312.001C612.804 311.276 613.855 310.751 615.304 310.424C616.752 310.097 618.749 309.933 621.296 309.933H622.172V309.127C622.172 307.983 621.926 307.153 621.436 306.64C620.945 306.102 620.151 305.834 619.053 305.834C618.376 305.834 617.686 305.939 616.986 306.149C616.285 306.336 615.456 306.616 614.498 306.99C613.89 307.294 613.447 307.445 613.166 307.445C612.746 307.445 612.395 307.294 612.115 306.99C611.858 306.686 611.73 306.289 611.73 305.799C611.73 305.401 611.823 305.063 612.01 304.782C612.22 304.479 612.559 304.198 613.026 303.941C613.844 303.498 614.813 303.147 615.934 302.89C617.079 302.633 618.2 302.505 619.298 302.505ZM618.212 317.187C619.38 317.187 620.326 316.801 621.05 316.03C621.798 315.236 622.172 314.22 622.172 312.982V312.246H621.541C619.976 312.246 618.761 312.316 617.897 312.456C617.032 312.596 616.413 312.842 616.04 313.192C615.666 313.542 615.479 314.021 615.479 314.629C615.479 315.376 615.736 315.995 616.25 316.486C616.787 316.953 617.441 317.187 618.212 317.187ZM632.965 320.27C632.334 320.27 631.809 320.095 631.388 319.744C630.991 319.371 630.793 318.845 630.793 318.168V297.249C630.793 296.571 630.991 296.057 631.388 295.707C631.809 295.357 632.334 295.181 632.965 295.181C633.596 295.181 634.121 295.357 634.542 295.707C634.962 296.057 635.173 296.571 635.173 297.249V318.168C635.173 318.845 634.962 319.371 634.542 319.744C634.121 320.095 633.596 320.27 632.965 320.27ZM647.293 320.34C645.588 320.34 644.081 319.978 642.773 319.254C641.488 318.53 640.495 317.502 639.795 316.17C639.094 314.839 638.743 313.285 638.743 311.51C638.743 309.735 639.106 308.17 639.83 306.815C640.577 305.436 641.617 304.374 642.948 303.626C644.28 302.879 645.81 302.505 647.538 302.505C648.45 302.505 649.361 302.633 650.272 302.89C651.206 303.147 652.024 303.498 652.724 303.941C653.472 304.432 653.846 305.051 653.846 305.799C653.846 306.312 653.717 306.733 653.46 307.06C653.227 307.364 652.911 307.516 652.514 307.516C652.257 307.516 651.989 307.457 651.708 307.34C651.428 307.224 651.148 307.083 650.867 306.92C650.353 306.616 649.863 306.383 649.396 306.219C648.928 306.032 648.391 305.939 647.784 305.939C646.335 305.939 645.214 306.418 644.42 307.375C643.649 308.31 643.264 309.665 643.264 311.44C643.264 313.192 643.649 314.547 644.42 315.505C645.214 316.439 646.335 316.906 647.784 316.906C648.368 316.906 648.882 316.824 649.326 316.661C649.793 316.474 650.307 316.229 650.867 315.925C651.218 315.715 651.521 315.563 651.778 315.47C652.035 315.353 652.292 315.294 652.549 315.294C652.923 315.294 653.238 315.458 653.495 315.785C653.752 316.112 653.881 316.521 653.881 317.011C653.881 317.408 653.787 317.759 653.6 318.063C653.437 318.343 653.157 318.6 652.759 318.833C652.035 319.301 651.194 319.674 650.237 319.955C649.279 320.212 648.298 320.34 647.293 320.34ZM670.324 302.575C671.002 302.575 671.539 302.762 671.936 303.136C672.333 303.509 672.532 304.012 672.532 304.642V318.238C672.532 318.845 672.322 319.336 671.901 319.709C671.504 320.083 670.978 320.27 670.324 320.27C669.694 320.27 669.191 320.095 668.818 319.744C668.444 319.394 668.257 318.915 668.257 318.308V317.432C667.72 318.366 666.995 319.09 666.084 319.604C665.173 320.095 664.146 320.34 663.001 320.34C658.796 320.34 656.694 317.981 656.694 313.262V304.642C656.694 304.012 656.892 303.509 657.289 303.136C657.687 302.762 658.212 302.575 658.866 302.575C659.544 302.575 660.081 302.762 660.478 303.136C660.875 303.509 661.074 304.012 661.074 304.642V313.297C661.074 314.512 661.319 315.411 661.81 315.995C662.3 316.579 663.071 316.871 664.122 316.871C665.337 316.871 666.306 316.474 667.031 315.68C667.778 314.862 668.152 313.788 668.152 312.456V304.642C668.152 304.012 668.35 303.509 668.747 303.136C669.145 302.762 669.67 302.575 670.324 302.575ZM679.263 320.27C678.632 320.27 678.107 320.095 677.686 319.744C677.289 319.371 677.091 318.845 677.091 318.168V297.249C677.091 296.571 677.289 296.057 677.686 295.707C678.107 295.357 678.632 295.181 679.263 295.181C679.894 295.181 680.419 295.357 680.84 295.707C681.26 296.057 681.471 296.571 681.471 297.249V318.168C681.471 318.845 681.26 319.371 680.84 319.744C680.419 320.095 679.894 320.27 679.263 320.27ZM693.416 302.505C695.799 302.505 697.562 303.101 698.707 304.292C699.875 305.46 700.459 307.247 700.459 309.653V318.203C700.459 318.833 700.272 319.336 699.898 319.709C699.524 320.06 699.011 320.235 698.356 320.235C697.749 320.235 697.247 320.048 696.85 319.674C696.476 319.301 696.289 318.81 696.289 318.203V317.432C695.892 318.343 695.261 319.055 694.397 319.569C693.556 320.083 692.575 320.34 691.454 320.34C690.309 320.34 689.269 320.107 688.335 319.639C687.401 319.172 686.665 318.53 686.128 317.712C685.59 316.895 685.322 315.984 685.322 314.979C685.322 313.718 685.637 312.725 686.268 312.001C686.922 311.276 687.973 310.751 689.421 310.424C690.87 310.097 692.867 309.933 695.413 309.933H696.289V309.127C696.289 307.983 696.044 307.153 695.553 306.64C695.063 306.102 694.268 305.834 693.171 305.834C692.493 305.834 691.804 305.939 691.103 306.149C690.402 306.336 689.573 306.616 688.615 306.99C688.008 307.294 687.564 307.445 687.284 307.445C686.863 307.445 686.513 307.294 686.233 306.99C685.976 306.686 685.847 306.289 685.847 305.799C685.847 305.401 685.941 305.063 686.128 304.782C686.338 304.479 686.676 304.198 687.144 303.941C687.961 303.498 688.931 303.147 690.052 302.89C691.197 302.633 692.318 302.505 693.416 302.505ZM692.33 317.187C693.498 317.187 694.444 316.801 695.168 316.03C695.915 315.236 696.289 314.22 696.289 312.982V312.246H695.658C694.093 312.246 692.879 312.316 692.014 312.456C691.15 312.596 690.531 312.842 690.157 313.192C689.783 313.542 689.596 314.021 689.596 314.629C689.596 315.376 689.853 315.995 690.367 316.486C690.905 316.953 691.559 317.187 692.33 317.187ZM713.81 317.011C714.978 317.081 715.562 317.607 715.562 318.588C715.562 319.149 715.329 319.581 714.862 319.885C714.418 320.165 713.775 320.282 712.934 320.235L711.988 320.165C708.064 319.885 706.102 317.782 706.102 313.858V306.219H704.35C703.719 306.219 703.228 306.079 702.878 305.799C702.551 305.518 702.387 305.109 702.387 304.572C702.387 304.035 702.551 303.626 702.878 303.346C703.228 303.065 703.719 302.925 704.35 302.925H706.102V299.702C706.102 299.071 706.3 298.569 706.697 298.195C707.094 297.821 707.632 297.634 708.309 297.634C708.963 297.634 709.489 297.821 709.886 298.195C710.283 298.569 710.482 299.071 710.482 299.702V302.925H713.46C714.091 302.925 714.57 303.065 714.897 303.346C715.247 303.626 715.422 304.035 715.422 304.572C715.422 305.109 715.247 305.518 714.897 305.799C714.57 306.079 714.091 306.219 713.46 306.219H710.482V314.173C710.482 315.902 711.276 316.824 712.864 316.941L713.81 317.011ZM725.659 320.34C723.907 320.34 722.365 319.978 721.034 319.254C719.725 318.53 718.709 317.49 717.985 316.135C717.261 314.78 716.899 313.204 716.899 311.405C716.899 309.606 717.261 308.041 717.985 306.71C718.709 305.355 719.725 304.315 721.034 303.591C722.365 302.867 723.907 302.505 725.659 302.505C727.411 302.505 728.941 302.867 730.249 303.591C731.581 304.315 732.597 305.355 733.298 306.71C734.022 308.041 734.384 309.606 734.384 311.405C734.384 313.204 734.022 314.78 733.298 316.135C732.597 317.49 731.581 318.53 730.249 319.254C728.941 319.978 727.411 320.34 725.659 320.34ZM725.624 316.941C727.049 316.941 728.135 316.474 728.883 315.54C729.63 314.605 730.004 313.227 730.004 311.405C730.004 309.606 729.63 308.24 728.883 307.305C728.135 306.348 727.06 305.869 725.659 305.869C724.257 305.869 723.171 306.348 722.4 307.305C721.653 308.24 721.279 309.606 721.279 311.405C721.279 313.227 721.653 314.605 722.4 315.54C723.148 316.474 724.222 316.941 725.624 316.941ZM747.566 302.575C748.173 302.528 748.652 302.657 749.002 302.96C749.353 303.264 749.528 303.72 749.528 304.327C749.528 304.958 749.376 305.425 749.072 305.728C748.769 306.032 748.22 306.231 747.425 306.324L746.374 306.429C744.996 306.569 743.98 307.037 743.326 307.831C742.695 308.625 742.38 309.618 742.38 310.809V318.168C742.38 318.845 742.169 319.371 741.749 319.744C741.329 320.095 740.803 320.27 740.172 320.27C739.541 320.27 739.016 320.095 738.595 319.744C738.198 319.371 738 318.845 738 318.168V304.607C738 303.953 738.198 303.451 738.595 303.101C739.016 302.75 739.53 302.575 740.137 302.575C740.745 302.575 741.235 302.75 741.609 303.101C741.983 303.428 742.169 303.906 742.169 304.537V305.939C742.613 304.911 743.267 304.117 744.132 303.556C745.019 302.995 746.001 302.68 747.075 302.61L747.566 302.575Z" fill="#333333"/>
<path d="M309.527 470.855C307.429 470.855 305.601 470.408 304.044 469.515C302.486 468.601 301.292 467.303 300.461 465.621C299.63 463.918 299.215 461.913 299.215 459.608C299.215 457.323 299.63 455.34 300.461 453.658C301.292 451.954 302.486 450.656 304.044 449.763C305.601 448.849 307.429 448.393 309.527 448.393C310.897 448.393 312.196 448.611 313.421 449.047C314.646 449.462 315.716 450.075 316.63 450.885C317.024 451.196 317.222 451.612 317.222 452.131C317.222 452.505 317.118 452.827 316.91 453.097C316.703 453.346 316.453 453.471 316.163 453.471C315.809 453.471 315.467 453.336 315.134 453.066C314.137 452.318 313.224 451.799 312.393 451.508C311.583 451.196 310.659 451.041 309.62 451.041C307.335 451.041 305.58 451.778 304.355 453.253C303.13 454.727 302.517 456.846 302.517 459.608C302.517 462.391 303.13 464.52 304.355 465.995C305.58 467.469 307.335 468.207 309.62 468.207C310.617 468.207 311.521 468.051 312.331 467.739C313.161 467.428 314.096 466.909 315.134 466.182C315.55 465.912 315.893 465.777 316.163 465.777C316.453 465.777 316.703 465.912 316.91 466.182C317.118 466.431 317.222 466.742 317.222 467.116C317.222 467.635 317.024 468.051 316.63 468.362C315.716 469.172 314.646 469.795 313.421 470.232C312.196 470.647 310.897 470.855 309.527 470.855ZM326.973 470.824C325.477 470.824 324.159 470.502 323.016 469.858C321.895 469.214 321.022 468.3 320.399 467.116C319.797 465.912 319.496 464.52 319.496 462.942C319.496 461.342 319.797 459.951 320.399 458.767C321.022 457.562 321.895 456.638 323.016 455.994C324.159 455.35 325.477 455.028 326.973 455.028C328.468 455.028 329.777 455.35 330.898 455.994C332.041 456.638 332.913 457.562 333.515 458.767C334.138 459.951 334.45 461.342 334.45 462.942C334.45 464.52 334.138 465.912 333.515 467.116C332.913 468.3 332.041 469.214 330.898 469.858C329.777 470.502 328.468 470.824 326.973 470.824ZM326.973 468.331C328.364 468.331 329.424 467.874 330.15 466.96C330.898 466.047 331.272 464.707 331.272 462.942C331.272 461.197 330.898 459.868 330.15 458.954C329.403 458.019 328.344 457.552 326.973 457.552C325.602 457.552 324.543 458.019 323.795 458.954C323.047 459.868 322.673 461.197 322.673 462.942C322.673 464.707 323.037 466.047 323.764 466.96C324.512 467.874 325.581 468.331 326.973 468.331ZM339.542 470.761C339.085 470.761 338.701 470.637 338.389 470.387C338.099 470.138 337.953 469.764 337.953 469.266V456.617C337.953 456.119 338.099 455.745 338.389 455.496C338.701 455.226 339.085 455.091 339.542 455.091C339.999 455.091 340.373 455.226 340.664 455.496C340.954 455.745 341.1 456.119 341.1 456.617V469.266C341.1 469.764 340.954 470.138 340.664 470.387C340.373 470.637 339.999 470.761 339.542 470.761ZM339.542 452.038C338.94 452.038 338.462 451.871 338.109 451.539C337.756 451.207 337.579 450.771 337.579 450.231C337.579 449.691 337.756 449.265 338.109 448.953C338.462 448.621 338.94 448.455 339.542 448.455C340.124 448.455 340.591 448.621 340.944 448.953C341.318 449.265 341.505 449.691 341.505 450.231C341.505 450.771 341.328 451.207 340.975 451.539C340.622 451.871 340.144 452.038 339.542 452.038ZM353.692 455.028C357.327 455.028 359.144 457.074 359.144 461.166V469.266C359.144 469.744 358.998 470.117 358.708 470.387C358.438 470.637 358.053 470.761 357.555 470.761C357.077 470.761 356.693 470.626 356.402 470.356C356.132 470.086 355.997 469.723 355.997 469.266V461.322C355.997 460.034 355.738 459.089 355.218 458.486C354.72 457.884 353.931 457.583 352.851 457.583C351.584 457.583 350.566 457.978 349.798 458.767C349.029 459.556 348.645 460.615 348.645 461.945V469.266C348.645 469.723 348.499 470.086 348.209 470.356C347.939 470.626 347.565 470.761 347.087 470.761C346.609 470.761 346.225 470.626 345.934 470.356C345.644 470.086 345.498 469.723 345.498 469.266V456.586C345.498 456.15 345.644 455.797 345.934 455.527C346.246 455.236 346.63 455.091 347.087 455.091C347.544 455.091 347.908 455.226 348.178 455.496C348.448 455.766 348.583 456.119 348.583 456.555V457.832C349.081 456.918 349.777 456.223 350.67 455.745C351.563 455.267 352.57 455.028 353.692 455.028ZM368.745 470.824C366.626 470.824 364.892 470.387 363.542 469.515C363.168 469.287 362.898 469.048 362.732 468.799C362.587 468.549 362.514 468.269 362.514 467.957C362.514 467.625 362.607 467.345 362.794 467.116C362.981 466.888 363.22 466.774 363.511 466.774C363.781 466.774 364.207 466.94 364.788 467.272C365.411 467.604 366.014 467.874 366.595 468.082C367.197 468.29 367.945 468.394 368.838 468.394C369.835 468.394 370.614 468.217 371.175 467.864C371.735 467.511 372.016 467.012 372.016 466.368C372.016 465.953 371.902 465.621 371.673 465.372C371.465 465.122 371.092 464.904 370.552 464.717C370.012 464.51 369.212 464.292 368.153 464.063C366.325 463.668 365.006 463.139 364.196 462.474C363.407 461.789 363.012 460.865 363.012 459.702C363.012 458.808 363.272 458.009 363.791 457.303C364.31 456.576 365.027 456.015 365.941 455.62C366.855 455.226 367.893 455.028 369.056 455.028C369.887 455.028 370.697 455.143 371.486 455.371C372.275 455.579 372.971 455.89 373.574 456.306C374.259 456.763 374.602 457.292 374.602 457.895C374.602 458.227 374.498 458.507 374.29 458.736C374.103 458.964 373.875 459.078 373.605 459.078C373.418 459.078 373.231 459.037 373.044 458.954C372.857 458.871 372.608 458.736 372.296 458.549C371.735 458.216 371.206 457.957 370.707 457.77C370.23 457.583 369.627 457.49 368.9 457.49C368.028 457.49 367.322 457.676 366.782 458.05C366.263 458.424 366.003 458.933 366.003 459.577C366.003 460.158 366.242 460.615 366.72 460.948C367.218 461.259 368.142 461.56 369.492 461.851C370.884 462.142 371.974 462.474 372.764 462.848C373.553 463.222 374.114 463.689 374.446 464.25C374.799 464.79 374.976 465.486 374.976 466.337C374.976 467.687 374.404 468.778 373.262 469.609C372.14 470.419 370.635 470.824 368.745 470.824ZM407.379 456.056C407.607 455.433 408.033 455.122 408.656 455.122C409.051 455.122 409.404 455.257 409.715 455.527C410.027 455.797 410.183 456.129 410.183 456.524C410.183 456.731 410.141 456.918 410.058 457.085L404.886 469.702C404.762 470.034 404.554 470.294 404.263 470.481C403.973 470.647 403.651 470.73 403.298 470.73C402.965 470.73 402.654 470.647 402.363 470.481C402.072 470.294 401.865 470.034 401.74 469.702L397.69 459.702L393.733 469.702C393.609 470.034 393.401 470.294 393.11 470.481C392.84 470.647 392.529 470.73 392.176 470.73C391.843 470.73 391.521 470.647 391.21 470.481C390.919 470.294 390.701 470.034 390.556 469.702L385.415 457.085C385.332 456.918 385.29 456.742 385.29 456.555C385.29 456.14 385.457 455.797 385.789 455.527C386.142 455.257 386.526 455.122 386.942 455.122C387.565 455.122 387.991 455.423 388.219 456.025L392.238 466.649L396.35 456.119C396.475 455.786 396.672 455.537 396.942 455.371C397.212 455.205 397.503 455.122 397.814 455.122C398.105 455.122 398.386 455.205 398.656 455.371C398.926 455.537 399.123 455.786 399.248 456.119L403.36 466.587L407.379 456.056ZM419.492 470.824C417.997 470.824 416.678 470.502 415.536 469.858C414.414 469.214 413.542 468.3 412.919 467.116C412.316 465.912 412.015 464.52 412.015 462.942C412.015 461.342 412.316 459.951 412.919 458.767C413.542 457.562 414.414 456.638 415.536 455.994C416.678 455.35 417.997 455.028 419.492 455.028C420.988 455.028 422.296 455.35 423.418 455.994C424.56 456.638 425.432 457.562 426.035 458.767C426.658 459.951 426.969 461.342 426.969 462.942C426.969 464.52 426.658 465.912 426.035 467.116C425.432 468.3 424.56 469.214 423.418 469.858C422.296 470.502 420.988 470.824 419.492 470.824ZM419.492 468.331C420.884 468.331 421.943 467.874 422.67 466.96C423.418 466.047 423.791 464.707 423.791 462.942C423.791 461.197 423.418 459.868 422.67 458.954C421.922 458.019 420.863 457.552 419.492 457.552C418.121 457.552 417.062 458.019 416.314 458.954C415.567 459.868 415.193 461.197 415.193 462.942C415.193 464.707 415.556 466.047 416.283 466.96C417.031 467.874 418.101 468.331 419.492 468.331ZM438.448 455.091C439.445 455.028 439.943 455.454 439.943 456.368C439.943 456.825 439.829 457.168 439.601 457.396C439.372 457.625 438.978 457.76 438.417 457.801L437.482 457.895C436.174 458.019 435.198 458.476 434.554 459.265C433.931 460.055 433.619 461.01 433.619 462.132V469.266C433.619 469.764 433.474 470.138 433.183 470.387C432.892 470.637 432.518 470.761 432.061 470.761C431.605 470.761 431.22 470.637 430.909 470.387C430.618 470.138 430.473 469.764 430.473 469.266V456.586C430.473 456.108 430.618 455.745 430.909 455.496C431.22 455.226 431.605 455.091 432.061 455.091C432.477 455.091 432.82 455.226 433.09 455.496C433.38 455.745 433.526 456.098 433.526 456.555V458.05C433.941 457.136 434.543 456.441 435.333 455.963C436.122 455.485 437.015 455.205 438.012 455.122L438.448 455.091ZM450.636 468.362C451.093 468.404 451.415 468.529 451.601 468.736C451.809 468.923 451.913 469.193 451.913 469.546C451.913 469.962 451.747 470.284 451.415 470.512C451.103 470.72 450.636 470.803 450.013 470.761L449.171 470.699C447.489 470.574 446.233 470.065 445.402 469.172C444.571 468.259 444.156 466.919 444.156 465.153V457.832H442.286C441.372 457.832 440.916 457.427 440.916 456.617C440.916 456.243 441.03 455.953 441.258 455.745C441.507 455.516 441.85 455.402 442.286 455.402H444.156V452.193C444.156 451.716 444.291 451.342 444.561 451.072C444.851 450.802 445.236 450.667 445.713 450.667C446.191 450.667 446.575 450.802 446.866 451.072C447.157 451.342 447.302 451.716 447.302 452.193V455.402H450.386C450.823 455.402 451.155 455.516 451.383 455.745C451.633 455.953 451.757 456.243 451.757 456.617C451.757 457.012 451.633 457.313 451.383 457.521C451.155 457.728 450.823 457.832 450.386 457.832H447.302V465.372C447.302 466.348 447.499 467.064 447.894 467.521C448.309 467.978 448.933 468.238 449.763 468.3L450.636 468.362ZM462.398 455.028C466.011 455.028 467.818 457.074 467.818 461.166V469.266C467.818 469.723 467.673 470.086 467.382 470.356C467.091 470.626 466.707 470.761 466.23 470.761C465.752 470.761 465.368 470.626 465.077 470.356C464.807 470.086 464.672 469.723 464.672 469.266V461.197C464.672 459.951 464.412 459.037 463.893 458.455C463.395 457.874 462.605 457.583 461.525 457.583C460.258 457.583 459.241 457.978 458.472 458.767C457.704 459.556 457.319 460.615 457.319 461.945V469.266C457.319 469.723 457.174 470.086 456.883 470.356C456.613 470.626 456.239 470.761 455.762 470.761C455.284 470.761 454.9 470.626 454.609 470.356C454.318 470.086 454.173 469.723 454.173 469.266V449.981C454.173 449.524 454.318 449.161 454.609 448.891C454.921 448.621 455.315 448.486 455.793 448.486C456.25 448.486 456.613 448.621 456.883 448.891C457.174 449.14 457.319 449.483 457.319 449.919V457.708C457.839 456.835 458.534 456.171 459.407 455.714C460.279 455.257 461.276 455.028 462.398 455.028ZM481.926 470.761C481.469 470.761 481.085 470.637 480.774 470.387C480.483 470.138 480.338 469.764 480.338 469.266V450.013C480.338 449.514 480.483 449.14 480.774 448.891C481.085 448.621 481.469 448.486 481.926 448.486C482.383 448.486 482.757 448.621 483.048 448.891C483.339 449.14 483.484 449.514 483.484 450.013V469.266C483.484 469.764 483.339 470.138 483.048 470.387C482.757 470.637 482.383 470.761 481.926 470.761ZM499.784 466.774C500.074 466.774 500.313 466.888 500.5 467.116C500.687 467.345 500.781 467.635 500.781 467.989C500.781 468.591 500.407 469.1 499.659 469.515C498.932 469.93 498.132 470.252 497.26 470.481C496.409 470.709 495.588 470.824 494.799 470.824C492.39 470.824 490.489 470.128 489.098 468.736C487.706 467.324 487.01 465.403 487.01 462.973C487.01 461.415 487.312 460.034 487.914 458.829C488.537 457.625 489.399 456.69 490.5 456.025C491.621 455.361 492.888 455.028 494.3 455.028C496.336 455.028 497.945 455.683 499.129 456.991C500.313 458.3 500.905 460.065 500.905 462.287C500.905 463.118 500.531 463.533 499.784 463.533H490.157C490.365 466.753 491.912 468.362 494.799 468.362C495.567 468.362 496.232 468.259 496.793 468.051C497.354 467.843 497.945 467.573 498.569 467.241C498.631 467.199 498.797 467.116 499.067 466.992C499.358 466.846 499.597 466.774 499.784 466.774ZM494.363 457.334C493.158 457.334 492.192 457.718 491.465 458.486C490.738 459.255 490.302 460.335 490.157 461.727H498.195C498.132 460.314 497.769 459.234 497.104 458.486C496.46 457.718 495.547 457.334 494.363 457.334ZM514.97 456.025C515.095 455.714 515.271 455.485 515.5 455.34C515.749 455.195 516.008 455.122 516.279 455.122C516.673 455.122 517.016 455.257 517.307 455.527C517.618 455.797 517.774 456.119 517.774 456.493C517.774 456.7 517.732 456.898 517.649 457.085L511.699 469.702C511.553 470.034 511.325 470.294 511.013 470.481C510.723 470.647 510.411 470.73 510.079 470.73C509.747 470.73 509.425 470.647 509.113 470.481C508.822 470.294 508.604 470.034 508.459 469.702L502.508 457.085C502.425 456.918 502.384 456.721 502.384 456.493C502.384 456.119 502.55 455.797 502.882 455.527C503.215 455.257 503.588 455.122 504.004 455.122C504.606 455.122 505.053 455.413 505.343 455.994L510.172 466.711L514.97 456.025ZM532.033 466.774C532.324 466.774 532.563 466.888 532.75 467.116C532.937 467.345 533.03 467.635 533.03 467.989C533.03 468.591 532.656 469.1 531.908 469.515C531.181 469.93 530.382 470.252 529.51 470.481C528.658 470.709 527.838 470.824 527.048 470.824C524.639 470.824 522.739 470.128 521.347 468.736C519.956 467.324 519.26 465.403 519.26 462.973C519.26 461.415 519.561 460.034 520.163 458.829C520.786 457.625 521.648 456.69 522.749 456.025C523.871 455.361 525.138 455.028 526.55 455.028C528.585 455.028 530.195 455.683 531.379 456.991C532.563 458.3 533.155 460.065 533.155 462.287C533.155 463.118 532.781 463.533 532.033 463.533H522.406C522.614 466.753 524.161 468.362 527.048 468.362C527.817 468.362 528.481 468.259 529.042 468.051C529.603 467.843 530.195 467.573 530.818 467.241C530.88 467.199 531.046 467.116 531.316 466.992C531.607 466.846 531.846 466.774 532.033 466.774ZM526.612 457.334C525.408 457.334 524.442 457.718 523.715 458.486C522.988 459.255 522.552 460.335 522.406 461.727H530.444C530.382 460.314 530.018 459.234 529.354 458.486C528.71 457.718 527.796 457.334 526.612 457.334ZM538.211 470.761C537.754 470.761 537.37 470.637 537.058 470.387C536.767 470.138 536.622 469.764 536.622 469.266V450.013C536.622 449.514 536.767 449.14 537.058 448.891C537.37 448.621 537.754 448.486 538.211 448.486C538.668 448.486 539.042 448.621 539.332 448.891C539.623 449.14 539.769 449.514 539.769 450.013V469.266C539.769 469.764 539.623 470.138 539.332 470.387C539.042 470.637 538.668 470.761 538.211 470.761Z" fill="#333333"/>
<path d="M319.218 673.459C319.675 673.459 320.049 673.615 320.34 673.926C320.631 674.217 320.776 674.601 320.776 675.079V694.208C320.776 694.686 320.641 695.059 320.371 695.329C320.122 695.599 319.769 695.734 319.312 695.734C318.876 695.734 318.533 695.599 318.284 695.329C318.035 695.059 317.91 694.686 317.91 694.208V679.721L311.804 691.342C311.409 692.069 310.9 692.432 310.277 692.432C309.654 692.432 309.145 692.069 308.751 691.342L302.613 679.846V694.208C302.613 694.686 302.489 695.059 302.239 695.329C301.99 695.599 301.637 695.734 301.18 695.734C300.744 695.734 300.391 695.599 300.121 695.329C299.872 695.039 299.747 694.665 299.747 694.208V675.079C299.747 674.601 299.892 674.217 300.183 673.926C300.474 673.615 300.848 673.459 301.305 673.459C301.949 673.459 302.468 673.833 302.862 674.581L310.308 688.818L317.692 674.581C318.086 673.833 318.595 673.459 319.218 673.459ZM337.438 691.747C337.729 691.747 337.968 691.861 338.155 692.089C338.341 692.318 338.435 692.609 338.435 692.962C338.435 693.564 338.061 694.073 337.313 694.488C336.586 694.904 335.787 695.226 334.915 695.454C334.063 695.682 333.243 695.797 332.453 695.797C330.044 695.797 328.144 695.101 326.752 693.709C325.361 692.297 324.665 690.376 324.665 687.946C324.665 686.388 324.966 685.007 325.568 683.802C326.191 682.598 327.053 681.663 328.154 680.998C329.276 680.334 330.543 680.002 331.955 680.002C333.99 680.002 335.6 680.656 336.784 681.964C337.968 683.273 338.56 685.038 338.56 687.26C338.56 688.091 338.186 688.507 337.438 688.507H327.811C328.019 691.726 329.566 693.336 332.453 693.336C333.222 693.336 333.886 693.232 334.447 693.024C335.008 692.816 335.6 692.546 336.223 692.214C336.285 692.172 336.451 692.089 336.721 691.965C337.012 691.819 337.251 691.747 337.438 691.747ZM332.017 682.307C330.813 682.307 329.847 682.691 329.12 683.46C328.393 684.228 327.957 685.308 327.811 686.7H335.849C335.787 685.287 335.423 684.207 334.759 683.46C334.115 682.691 333.201 682.307 332.017 682.307ZM354.457 673.459C354.935 673.459 355.319 673.594 355.61 673.864C355.901 674.134 356.046 674.498 356.046 674.955V694.208C356.046 694.686 355.901 695.059 355.61 695.329C355.34 695.599 354.966 695.734 354.489 695.734C354.011 695.734 353.627 695.599 353.336 695.329C353.066 695.059 352.931 694.686 352.931 694.208V692.962C352.474 693.876 351.809 694.582 350.937 695.08C350.065 695.558 349.057 695.797 347.915 695.797C346.607 695.797 345.433 695.464 344.395 694.8C343.377 694.135 342.577 693.201 341.996 691.996C341.435 690.791 341.155 689.41 341.155 687.852C341.155 686.274 341.435 684.893 341.996 683.709C342.577 682.525 343.377 681.611 344.395 680.967C345.412 680.323 346.586 680.002 347.915 680.002C349.057 680.002 350.054 680.251 350.906 680.749C351.778 681.227 352.443 681.912 352.9 682.805V674.892C352.9 674.456 353.035 674.113 353.305 673.864C353.596 673.594 353.98 673.459 354.457 673.459ZM348.663 693.304C350.013 693.304 351.062 692.837 351.809 691.902C352.557 690.968 352.931 689.639 352.931 687.915C352.931 686.191 352.557 684.862 351.809 683.927C351.082 682.992 350.034 682.525 348.663 682.525C347.292 682.525 346.222 682.992 345.454 683.927C344.706 684.841 344.332 686.149 344.332 687.852C344.332 689.555 344.717 690.895 345.485 691.871C346.254 692.827 347.313 693.304 348.663 693.304ZM362.022 695.734C361.565 695.734 361.181 695.61 360.87 695.361C360.579 695.111 360.433 694.737 360.433 694.239V681.59C360.433 681.092 360.579 680.718 360.87 680.469C361.181 680.199 361.565 680.064 362.022 680.064C362.479 680.064 362.853 680.199 363.144 680.469C363.435 680.718 363.58 681.092 363.58 681.59V694.239C363.58 694.737 363.435 695.111 363.144 695.361C362.853 695.61 362.479 695.734 362.022 695.734ZM362.022 677.011C361.42 677.011 360.942 676.845 360.589 676.512C360.236 676.18 360.06 675.744 360.06 675.204C360.06 674.664 360.236 674.238 360.589 673.926C360.942 673.594 361.42 673.428 362.022 673.428C362.604 673.428 363.071 673.594 363.424 673.926C363.798 674.238 363.985 674.664 363.985 675.204C363.985 675.744 363.808 676.18 363.455 676.512C363.102 676.845 362.625 677.011 362.022 677.011ZM379.755 680.064C380.233 680.064 380.606 680.199 380.876 680.469C381.167 680.739 381.313 681.113 381.313 681.59V694.27C381.313 694.706 381.167 695.059 380.876 695.329C380.586 695.599 380.201 695.734 379.724 695.734C379.288 695.734 378.934 695.61 378.664 695.361C378.394 695.091 378.259 694.737 378.259 694.301V693.117C377.782 693.99 377.117 694.654 376.266 695.111C375.435 695.568 374.5 695.797 373.462 695.797C369.765 695.797 367.916 693.761 367.916 689.69V681.59C367.916 681.113 368.051 680.739 368.321 680.469C368.612 680.199 369.007 680.064 369.505 680.064C369.983 680.064 370.357 680.199 370.627 680.469C370.917 680.739 371.063 681.113 371.063 681.59V689.659C371.063 690.885 371.312 691.788 371.811 692.37C372.309 692.951 373.078 693.242 374.116 693.242C375.341 693.242 376.318 692.847 377.044 692.058C377.792 691.269 378.166 690.22 378.166 688.912V681.59C378.166 681.133 378.311 680.77 378.602 680.5C378.893 680.209 379.277 680.064 379.755 680.064ZM403.162 680.002C406.568 680.002 408.271 682.047 408.271 686.139V694.239C408.271 694.717 408.126 695.091 407.835 695.361C407.544 695.61 407.16 695.734 406.683 695.734C406.226 695.734 405.852 695.61 405.561 695.361C405.27 695.091 405.125 694.717 405.125 694.239V686.17C405.125 684.903 404.896 683.989 404.439 683.428C403.983 682.847 403.266 682.556 402.29 682.556C401.148 682.556 400.244 682.951 399.579 683.74C398.915 684.508 398.582 685.568 398.582 686.918V694.239C398.582 694.717 398.437 695.091 398.146 695.361C397.856 695.61 397.471 695.734 396.994 695.734C396.537 695.734 396.163 695.61 395.872 695.361C395.581 695.091 395.436 694.717 395.436 694.239V686.17C395.436 684.903 395.207 683.989 394.751 683.428C394.294 682.847 393.577 682.556 392.601 682.556C391.459 682.556 390.545 682.951 389.859 683.74C389.195 684.508 388.862 685.568 388.862 686.918V694.239C388.862 694.717 388.717 695.091 388.426 695.361C388.135 695.61 387.762 695.734 387.305 695.734C386.848 695.734 386.463 695.61 386.152 695.361C385.861 695.091 385.716 694.717 385.716 694.239V681.559C385.716 681.102 385.872 680.739 386.183 680.469C386.495 680.199 386.869 680.064 387.305 680.064C387.741 680.064 388.094 680.199 388.364 680.469C388.655 680.718 388.8 681.071 388.8 681.528V682.681C389.257 681.808 389.89 681.144 390.7 680.687C391.51 680.23 392.445 680.002 393.504 680.002C394.667 680.002 395.623 680.24 396.371 680.718C397.139 681.196 397.71 681.933 398.084 682.93C398.541 682.037 399.216 681.331 400.109 680.812C401.002 680.272 402.02 680.002 403.162 680.002Z" fill="#555555"/>
<path d="M725.878 695.734C725.4 695.734 725.005 695.589 724.694 695.298C724.403 694.987 724.258 694.592 724.258 694.114V676.294H718.027C717.03 676.294 716.532 675.848 716.532 674.955C716.532 674.518 716.656 674.186 716.905 673.958C717.175 673.729 717.549 673.615 718.027 673.615H733.729C734.206 673.615 734.57 673.729 734.819 673.958C735.089 674.186 735.224 674.518 735.224 674.955C735.224 675.848 734.726 676.294 733.729 676.294H727.498V694.114C727.498 694.592 727.352 694.987 727.062 695.298C726.771 695.589 726.376 695.734 725.878 695.734ZM741.714 695.797C740.219 695.797 738.9 695.475 737.758 694.831C736.636 694.187 735.764 693.273 735.141 692.089C734.538 690.885 734.237 689.493 734.237 687.915C734.237 686.315 734.538 684.924 735.141 683.74C735.764 682.535 736.636 681.611 737.758 680.967C738.9 680.323 740.219 680.002 741.714 680.002C743.21 680.002 744.518 680.323 745.64 680.967C746.782 681.611 747.654 682.535 748.256 683.74C748.88 684.924 749.191 686.315 749.191 687.915C749.191 689.493 748.88 690.885 748.256 692.089C747.654 693.273 746.782 694.187 745.64 694.831C744.518 695.475 743.21 695.797 741.714 695.797ZM741.714 693.304C743.106 693.304 744.165 692.847 744.892 691.934C745.64 691.02 746.013 689.68 746.013 687.915C746.013 686.17 745.64 684.841 744.892 683.927C744.144 682.992 743.085 682.525 741.714 682.525C740.343 682.525 739.284 682.992 738.536 683.927C737.789 684.841 737.415 686.17 737.415 687.915C737.415 689.68 737.778 691.02 738.505 691.934C739.253 692.847 740.323 693.304 741.714 693.304ZM760.857 680.002C762.165 680.002 763.328 680.334 764.346 680.998C765.385 681.663 766.184 682.598 766.745 683.802C767.327 685.007 767.617 686.399 767.617 687.977C767.617 689.535 767.337 690.905 766.776 692.089C766.215 693.273 765.416 694.187 764.377 694.831C763.36 695.475 762.186 695.797 760.857 695.797C759.715 695.797 758.707 695.558 757.835 695.08C756.963 694.582 756.298 693.876 755.841 692.962V699.909C755.841 700.345 755.696 700.688 755.405 700.937C755.135 701.207 754.771 701.342 754.315 701.342C753.837 701.342 753.442 701.207 753.131 700.937C752.84 700.667 752.695 700.304 752.695 699.847V681.59C752.695 681.133 752.84 680.77 753.131 680.5C753.421 680.209 753.806 680.064 754.283 680.064C754.74 680.064 755.114 680.209 755.405 680.5C755.696 680.77 755.841 681.133 755.841 681.59V682.868C756.298 681.954 756.963 681.248 757.835 680.749C758.707 680.251 759.715 680.002 760.857 680.002ZM760.109 693.304C761.48 693.304 762.539 692.847 763.287 691.934C764.035 690.999 764.408 689.68 764.408 687.977C764.408 686.253 764.024 684.913 763.256 683.958C762.508 683.003 761.459 682.525 760.109 682.525C758.738 682.525 757.679 682.992 756.931 683.927C756.205 684.862 755.841 686.191 755.841 687.915C755.841 689.639 756.205 690.968 756.931 691.902C757.679 692.837 758.738 693.304 760.109 693.304ZM787.291 680.064C788.288 680.002 788.786 680.427 788.786 681.341C788.786 681.798 788.672 682.141 788.444 682.369C788.215 682.598 787.821 682.733 787.26 682.774L786.325 682.868C785.017 682.992 784.041 683.449 783.397 684.238C782.774 685.028 782.462 685.983 782.462 687.105V694.239C782.462 694.737 782.317 695.111 782.026 695.361C781.735 695.61 781.361 695.734 780.904 695.734C780.447 695.734 780.063 695.61 779.752 695.361C779.461 695.111 779.316 694.737 779.316 694.239V681.559C779.316 681.082 779.461 680.718 779.752 680.469C780.063 680.199 780.447 680.064 780.904 680.064C781.32 680.064 781.662 680.199 781.932 680.469C782.223 680.718 782.369 681.071 782.369 681.528V683.023C782.784 682.11 783.386 681.414 784.176 680.936C784.965 680.458 785.858 680.178 786.855 680.095L787.291 680.064ZM797.02 680.002C799.034 680.002 800.53 680.51 801.506 681.528C802.503 682.546 803.001 684.093 803.001 686.17V694.239C803.001 694.717 802.866 695.091 802.596 695.361C802.326 695.61 801.953 695.734 801.475 695.734C801.018 695.734 800.655 695.599 800.385 695.329C800.115 695.059 799.98 694.696 799.98 694.239V693.086C799.585 693.959 798.993 694.634 798.204 695.111C797.435 695.568 796.532 695.797 795.493 695.797C794.496 695.797 793.583 695.599 792.752 695.205C791.942 694.789 791.298 694.229 790.82 693.522C790.342 692.816 790.104 692.017 790.104 691.124C790.083 690.002 790.363 689.13 790.945 688.507C791.526 687.863 792.471 687.406 793.78 687.136C795.088 686.845 796.906 686.7 799.232 686.7H799.948V685.796C799.948 684.633 799.71 683.792 799.232 683.273C798.754 682.753 797.986 682.494 796.926 682.494C796.199 682.494 795.514 682.587 794.87 682.774C794.226 682.961 793.52 683.231 792.752 683.584C792.191 683.896 791.796 684.052 791.568 684.052C791.256 684.052 790.997 683.937 790.789 683.709C790.602 683.48 790.509 683.19 790.509 682.837C790.509 682.525 790.592 682.255 790.758 682.027C790.945 681.777 791.236 681.538 791.63 681.31C792.357 680.915 793.209 680.604 794.185 680.375C795.161 680.126 796.106 680.002 797.02 680.002ZM796.054 693.46C797.196 693.46 798.131 693.076 798.858 692.307C799.585 691.518 799.948 690.511 799.948 689.285V688.475H799.388C797.768 688.475 796.521 688.548 795.649 688.694C794.777 688.839 794.154 689.088 793.78 689.441C793.406 689.774 793.219 690.262 793.219 690.905C793.219 691.653 793.489 692.266 794.029 692.744C794.569 693.221 795.244 693.46 796.054 693.46ZM814.751 693.336C815.208 693.377 815.53 693.502 815.717 693.709C815.925 693.896 816.029 694.166 816.029 694.519C816.029 694.935 815.863 695.257 815.53 695.485C815.219 695.693 814.751 695.776 814.128 695.734L813.287 695.672C811.605 695.547 810.348 695.039 809.518 694.146C808.687 693.232 808.271 691.892 808.271 690.127V682.805H806.402C805.488 682.805 805.031 682.4 805.031 681.59C805.031 681.217 805.146 680.926 805.374 680.718C805.623 680.49 805.966 680.375 806.402 680.375H808.271V677.166C808.271 676.689 808.406 676.315 808.676 676.045C808.967 675.775 809.351 675.64 809.829 675.64C810.307 675.64 810.691 675.775 810.982 676.045C811.273 676.315 811.418 676.689 811.418 677.166V680.375H814.502C814.938 680.375 815.271 680.49 815.499 680.718C815.748 680.926 815.873 681.217 815.873 681.59C815.873 681.985 815.748 682.286 815.499 682.494C815.271 682.702 814.938 682.805 814.502 682.805H811.418V690.345C811.418 691.321 811.615 692.037 812.01 692.494C812.425 692.951 813.048 693.211 813.879 693.273L814.751 693.336ZM830.19 691.747C830.48 691.747 830.719 691.861 830.906 692.089C831.093 692.318 831.187 692.609 831.187 692.962C831.187 693.564 830.813 694.073 830.065 694.488C829.338 694.904 828.538 695.226 827.666 695.454C826.815 695.682 825.994 695.797 825.205 695.797C822.796 695.797 820.895 695.101 819.504 693.709C818.112 692.297 817.416 690.376 817.416 687.946C817.416 686.388 817.718 685.007 818.32 683.802C818.943 682.598 819.805 681.663 820.906 680.998C822.027 680.334 823.294 680.002 824.706 680.002C826.742 680.002 828.351 680.656 829.535 681.964C830.719 683.273 831.311 685.038 831.311 687.26C831.311 688.091 830.937 688.507 830.19 688.507H820.563C820.771 691.726 822.318 693.336 825.205 693.336C825.973 693.336 826.638 693.232 827.199 693.024C827.76 692.816 828.351 692.546 828.975 692.214C829.037 692.172 829.203 692.089 829.473 691.965C829.764 691.819 830.003 691.747 830.19 691.747ZM824.769 682.307C823.564 682.307 822.598 682.691 821.871 683.46C821.144 684.228 820.708 685.308 820.563 686.7H828.601C828.538 685.287 828.175 684.207 827.51 683.46C826.866 682.691 825.953 682.307 824.769 682.307ZM847.209 673.459C847.687 673.459 848.071 673.594 848.362 673.864C848.652 674.134 848.798 674.498 848.798 674.955V694.208C848.798 694.686 848.652 695.059 848.362 695.329C848.092 695.599 847.718 695.734 847.24 695.734C846.762 695.734 846.378 695.599 846.087 695.329C845.817 695.059 845.682 694.686 845.682 694.208V692.962C845.226 693.876 844.561 694.582 843.689 695.08C842.816 695.558 841.809 695.797 840.667 695.797C839.358 695.797 838.185 695.464 837.146 694.8C836.129 694.135 835.329 693.201 834.747 691.996C834.187 690.791 833.906 689.41 833.906 687.852C833.906 686.274 834.187 684.893 834.747 683.709C835.329 682.525 836.129 681.611 837.146 680.967C838.164 680.323 839.337 680.002 840.667 680.002C841.809 680.002 842.806 680.251 843.657 680.749C844.53 681.227 845.194 681.912 845.651 682.805V674.892C845.651 674.456 845.786 674.113 846.056 673.864C846.347 673.594 846.731 673.459 847.209 673.459ZM841.414 693.304C842.764 693.304 843.813 692.837 844.561 691.902C845.309 690.968 845.682 689.639 845.682 687.915C845.682 686.191 845.309 684.862 844.561 683.927C843.834 682.992 842.785 682.525 841.414 682.525C840.044 682.525 838.974 682.992 838.205 683.927C837.458 684.841 837.084 686.149 837.084 687.852C837.084 689.555 837.468 690.895 838.237 691.871C839.005 692.827 840.064 693.304 841.414 693.304Z" fill="#555555"/>
<path d="M552.895 862.17C553.102 862.468 553.205 862.789 553.205 863.133C553.205 863.545 553.033 863.901 552.689 864.198C552.368 864.473 551.99 864.611 551.555 864.611C550.913 864.611 550.397 864.325 550.008 863.752L545.401 856.601C544.874 855.776 544.313 855.203 543.717 854.882C543.121 854.539 542.342 854.367 541.379 854.367H537.494V862.755C537.494 863.305 537.334 863.74 537.013 864.061C536.715 864.382 536.291 864.542 535.741 864.542C535.214 864.542 534.79 864.382 534.469 864.061C534.148 863.74 533.988 863.305 533.988 862.755V841.853C533.988 841.326 534.137 840.914 534.435 840.616C534.756 840.295 535.191 840.135 535.741 840.135H544.301C546.983 840.135 549.022 840.73 550.42 841.922C551.841 843.114 552.552 844.856 552.552 847.147C552.552 849.05 552.013 850.597 550.936 851.788C549.859 852.957 548.323 853.702 546.329 854.023C546.925 854.183 547.464 854.47 547.945 854.882C548.426 855.295 548.896 855.868 549.355 856.601L552.895 862.17ZM543.889 851.513C545.676 851.513 546.994 851.17 547.842 850.482C548.713 849.772 549.148 848.683 549.148 847.216C549.148 845.749 548.724 844.684 547.876 844.019C547.028 843.332 545.699 842.988 543.889 842.988H537.46V851.513H543.889ZM570.442 860.142C570.763 860.142 571.027 860.268 571.233 860.52C571.439 860.772 571.542 861.093 571.542 861.483C571.542 862.147 571.13 862.709 570.305 863.167C569.503 863.626 568.62 863.981 567.658 864.233C566.718 864.485 565.813 864.611 564.942 864.611C562.284 864.611 560.187 863.843 558.651 862.308C557.116 860.749 556.348 858.629 556.348 855.948C556.348 854.229 556.68 852.705 557.345 851.376C558.032 850.047 558.983 849.015 560.198 848.282C561.436 847.549 562.834 847.182 564.392 847.182C566.638 847.182 568.414 847.904 569.721 849.348C571.027 850.791 571.68 852.739 571.68 855.192C571.68 856.108 571.267 856.567 570.442 856.567H559.82C560.049 860.119 561.756 861.895 564.942 861.895C565.79 861.895 566.523 861.781 567.142 861.551C567.761 861.322 568.414 861.024 569.102 860.658C569.17 860.612 569.354 860.52 569.652 860.383C569.973 860.222 570.236 860.142 570.442 860.142ZM564.461 849.726C563.132 849.726 562.066 850.15 561.264 850.998C560.462 851.846 559.98 853.037 559.82 854.573H568.689C568.62 853.014 568.219 851.823 567.486 850.998C566.776 850.15 565.767 849.726 564.461 849.726ZM581.35 864.611C579.013 864.611 577.099 864.13 575.609 863.167C575.197 862.915 574.899 862.652 574.715 862.376C574.555 862.101 574.475 861.792 574.475 861.448C574.475 861.082 574.578 860.772 574.784 860.52C574.99 860.268 575.254 860.142 575.575 860.142C575.873 860.142 576.343 860.325 576.984 860.692C577.672 861.059 578.336 861.357 578.978 861.586C579.643 861.815 580.468 861.93 581.453 861.93C582.553 861.93 583.413 861.735 584.032 861.345C584.65 860.956 584.96 860.406 584.96 859.695C584.96 859.237 584.834 858.87 584.582 858.595C584.352 858.32 583.94 858.079 583.344 857.873C582.748 857.644 581.866 857.403 580.697 857.151C578.68 856.716 577.225 856.131 576.331 855.398C575.46 854.642 575.025 853.622 575.025 852.338C575.025 851.353 575.311 850.471 575.884 849.691C576.457 848.889 577.248 848.27 578.256 847.835C579.265 847.4 580.411 847.182 581.694 847.182C582.611 847.182 583.504 847.308 584.375 847.56C585.246 847.789 586.014 848.133 586.679 848.591C587.435 849.095 587.813 849.68 587.813 850.345C587.813 850.711 587.698 851.021 587.469 851.273C587.263 851.525 587.011 851.651 586.713 851.651C586.507 851.651 586.3 851.605 586.094 851.513C585.888 851.422 585.613 851.273 585.269 851.066C584.65 850.7 584.066 850.413 583.516 850.207C582.989 850.001 582.324 849.898 581.522 849.898C580.559 849.898 579.78 850.104 579.184 850.516C578.611 850.929 578.325 851.49 578.325 852.201C578.325 852.843 578.589 853.347 579.116 853.713C579.666 854.057 580.686 854.39 582.175 854.71C583.711 855.031 584.914 855.398 585.785 855.81C586.656 856.223 587.274 856.739 587.641 857.357C588.031 857.953 588.226 858.721 588.226 859.661C588.226 861.15 587.595 862.354 586.335 863.27C585.097 864.164 583.436 864.611 581.35 864.611ZM605.222 860.142C605.543 860.142 605.807 860.268 606.013 860.52C606.219 860.772 606.322 861.093 606.322 861.483C606.322 862.147 605.91 862.709 605.085 863.167C604.283 863.626 603.4 863.981 602.438 864.233C601.498 864.485 600.593 864.611 599.722 864.611C597.063 864.611 594.966 863.843 593.431 862.308C591.895 860.749 591.128 858.629 591.128 855.948C591.128 854.229 591.46 852.705 592.125 851.376C592.812 850.047 593.763 849.015 594.978 848.282C596.216 847.549 597.614 847.182 599.172 847.182C601.418 847.182 603.194 847.904 604.5 849.348C605.807 850.791 606.46 852.739 606.46 855.192C606.46 856.108 606.047 856.567 605.222 856.567H594.6C594.829 860.119 596.536 861.895 599.722 861.895C600.57 861.895 601.303 861.781 601.922 861.551C602.541 861.322 603.194 861.024 603.882 860.658C603.95 860.612 604.134 860.52 604.432 860.383C604.752 860.222 605.016 860.142 605.222 860.142ZM599.241 849.726C597.911 849.726 596.846 850.15 596.044 850.998C595.242 851.846 594.76 853.037 594.6 854.573H603.469C603.4 853.014 602.999 851.823 602.266 850.998C601.555 850.15 600.547 849.726 599.241 849.726ZM618.334 861.895C618.838 861.941 619.194 862.079 619.4 862.308C619.629 862.514 619.744 862.812 619.744 863.202C619.744 863.66 619.56 864.015 619.194 864.267C618.85 864.496 618.334 864.588 617.647 864.542L616.718 864.473C614.862 864.336 613.476 863.774 612.559 862.789C611.642 861.781 611.184 860.302 611.184 858.354V850.276H609.121C608.113 850.276 607.609 849.829 607.609 848.935C607.609 848.523 607.735 848.202 607.987 847.973C608.262 847.72 608.64 847.594 609.121 847.594H611.184V844.054C611.184 843.526 611.333 843.114 611.631 842.816C611.952 842.518 612.376 842.369 612.903 842.369C613.43 842.369 613.854 842.518 614.175 842.816C614.495 843.114 614.656 843.526 614.656 844.054V847.594H618.059C618.54 847.594 618.907 847.72 619.159 847.973C619.434 848.202 619.572 848.523 619.572 848.935C619.572 849.371 619.434 849.703 619.159 849.932C618.907 850.161 618.54 850.276 618.059 850.276H614.656V858.595C614.656 859.672 614.874 860.463 615.309 860.967C615.767 861.471 616.455 861.758 617.372 861.826L618.334 861.895Z" fill="#333333"/>
<path d="M463.772 1026.17C462.97 1026.17 462.351 1025.95 461.916 1025.51C461.481 1025.08 461.263 1024.46 461.263 1023.66V1004.44C461.263 1003.64 461.481 1003.02 461.916 1002.58C462.351 1002.15 462.97 1001.93 463.772 1001.93H470.682C473.318 1001.93 475.587 1002.41 477.489 1003.37C479.391 1004.34 480.846 1005.72 481.855 1007.53C482.863 1009.34 483.367 1011.51 483.367 1014.03C483.367 1016.55 482.863 1018.73 481.855 1020.56C480.869 1022.37 479.425 1023.76 477.523 1024.72C475.621 1025.68 473.341 1026.17 470.682 1026.17H463.772ZM470.304 1021.83C475.461 1021.83 478.039 1019.23 478.039 1014.03C478.039 1008.85 475.461 1006.26 470.304 1006.26H466.626V1021.83H470.304ZM489.682 1026.37C488.926 1026.37 488.296 1026.17 487.791 1025.75C487.31 1025.34 487.07 1024.73 487.07 1023.93V1011.38C487.07 1010.58 487.322 1009.97 487.826 1009.56C488.33 1009.15 488.949 1008.94 489.682 1008.94C490.416 1008.94 491.023 1009.15 491.504 1009.56C492.008 1009.97 492.26 1010.58 492.26 1011.38V1023.93C492.26 1024.73 492.008 1025.34 491.504 1025.75C491.023 1026.17 490.416 1026.37 489.682 1026.37ZM489.682 1006.19C488.765 1006.19 488.044 1005.96 487.516 1005.51C486.989 1005.02 486.726 1004.38 486.726 1003.58C486.726 1002.78 486.989 1002.15 487.516 1001.69C488.044 1001.23 488.765 1001 489.682 1001C490.576 1001 491.286 1001.24 491.814 1001.72C492.364 1002.18 492.639 1002.8 492.639 1003.58C492.639 1004.38 492.375 1005.02 491.848 1005.51C491.321 1005.96 490.599 1006.19 489.682 1006.19ZM506.307 1008.94C506.995 1008.9 507.533 1009.06 507.923 1009.42C508.335 1009.77 508.541 1010.3 508.541 1011.01C508.541 1011.76 508.358 1012.32 507.991 1012.69C507.625 1013.06 506.972 1013.29 506.032 1013.38L505.001 1013.48C503.74 1013.62 502.823 1014.03 502.25 1014.72C501.7 1015.41 501.425 1016.29 501.425 1017.37V1023.93C501.425 1024.73 501.173 1025.34 500.669 1025.75C500.188 1026.17 499.581 1026.37 498.847 1026.37C498.091 1026.37 497.461 1026.17 496.956 1025.75C496.475 1025.34 496.234 1024.73 496.234 1023.93V1011.31C496.234 1010.56 496.487 1009.97 496.991 1009.56C497.495 1009.15 498.102 1008.94 498.813 1008.94C499.5 1008.94 500.073 1009.15 500.532 1009.56C500.99 1009.95 501.219 1010.5 501.219 1011.21V1012.14C501.632 1011.15 502.25 1010.4 503.076 1009.87C503.923 1009.34 504.84 1009.05 505.826 1008.98L506.307 1008.94ZM523.241 1021.15C523.7 1021.15 524.066 1021.33 524.341 1021.7C524.639 1022.06 524.788 1022.53 524.788 1023.11C524.788 1023.5 524.674 1023.86 524.444 1024.21C524.215 1024.53 523.894 1024.8 523.482 1025.03C522.703 1025.44 521.797 1025.79 520.766 1026.06C519.735 1026.31 518.784 1026.44 517.913 1026.44C516.079 1026.44 514.475 1026.09 513.1 1025.38C511.748 1024.66 510.705 1023.66 509.972 1022.35C509.238 1021.02 508.872 1019.46 508.872 1017.67C508.872 1015.96 509.227 1014.43 509.937 1013.1C510.648 1011.77 511.633 1010.74 512.894 1010.01C514.154 1009.25 515.587 1008.87 517.191 1008.87C518.726 1008.87 520.067 1009.22 521.213 1009.91C522.382 1010.57 523.287 1011.53 523.929 1012.79C524.57 1014.03 524.891 1015.49 524.891 1017.16C524.891 1017.66 524.765 1018.05 524.513 1018.33C524.284 1018.58 523.952 1018.71 523.516 1018.71H513.891C514.051 1020.06 514.464 1021.04 515.128 1021.66C515.793 1022.26 516.744 1022.56 517.981 1022.56C518.646 1022.56 519.242 1022.48 519.769 1022.32C520.296 1022.16 520.881 1021.94 521.522 1021.66C521.843 1021.52 522.153 1021.41 522.45 1021.32C522.748 1021.2 523.012 1021.15 523.241 1021.15ZM517.328 1012.45C516.343 1012.45 515.552 1012.77 514.956 1013.41C514.36 1014.03 514.005 1014.94 513.891 1016.13H520.525C520.457 1014.91 520.147 1014 519.597 1013.38C519.07 1012.76 518.314 1012.45 517.328 1012.45ZM535.83 1026.44C534.088 1026.44 532.564 1026.09 531.258 1025.38C529.952 1024.66 528.943 1023.66 528.233 1022.35C527.545 1021.04 527.201 1019.51 527.201 1017.74C527.201 1015.98 527.568 1014.43 528.302 1013.1C529.058 1011.75 530.112 1010.71 531.464 1009.97C532.816 1009.24 534.375 1008.87 536.14 1008.87C537.056 1008.87 537.973 1009 538.89 1009.25C539.829 1009.5 540.666 1009.86 541.399 1010.32C542.11 1010.75 542.465 1011.4 542.465 1012.24C542.465 1012.84 542.327 1013.33 542.052 1013.72C541.777 1014.09 541.411 1014.27 540.952 1014.27C540.654 1014.27 540.368 1014.23 540.093 1014.13C539.841 1014.02 539.497 1013.86 539.062 1013.65C538.58 1013.4 538.145 1013.21 537.755 1013.07C537.389 1012.93 536.965 1012.86 536.483 1012.86C535.2 1012.86 534.214 1013.27 533.527 1014.1C532.862 1014.9 532.53 1016.08 532.53 1017.64C532.53 1019.2 532.862 1020.39 533.527 1021.22C534.214 1022.04 535.2 1022.45 536.483 1022.45C536.965 1022.45 537.389 1022.4 537.755 1022.28C538.122 1022.14 538.569 1021.94 539.096 1021.66C539.531 1021.46 539.875 1021.31 540.127 1021.22C540.379 1021.1 540.654 1021.04 540.952 1021.04C541.388 1021.04 541.743 1021.24 542.018 1021.63C542.316 1022.02 542.465 1022.51 542.465 1023.11C542.465 1023.95 542.11 1024.58 541.399 1025C540.666 1025.46 539.818 1025.81 538.855 1026.06C537.893 1026.31 536.884 1026.44 535.83 1026.44ZM554.566 1022.59C555.254 1022.64 555.758 1022.81 556.079 1023.11C556.4 1023.4 556.56 1023.84 556.56 1024.41C556.56 1025.08 556.297 1025.58 555.77 1025.93C555.242 1026.27 554.486 1026.41 553.501 1026.34L552.538 1026.27C548.528 1025.95 546.522 1023.85 546.522 1019.98V1013.17H545.147C544.391 1013.17 543.818 1013.01 543.428 1012.69C543.039 1012.35 542.844 1011.86 542.844 1011.25C542.844 1010.6 543.039 1010.12 543.428 1009.8C543.818 1009.46 544.391 1009.29 545.147 1009.29H546.522V1006.61C546.522 1005.85 546.751 1005.25 547.21 1004.82C547.691 1004.38 548.333 1004.16 549.135 1004.16C549.937 1004.16 550.567 1004.38 551.026 1004.82C551.484 1005.25 551.713 1005.85 551.713 1006.61V1009.29H554.12C555.678 1009.29 556.457 1009.94 556.457 1011.25C556.457 1011.86 556.262 1012.35 555.873 1012.69C555.483 1013.01 554.899 1013.17 554.12 1013.17H551.713V1020.36C551.713 1021.04 551.874 1021.57 552.194 1021.94C552.515 1022.28 552.985 1022.48 553.604 1022.52L554.566 1022.59ZM570.999 1026.17C570.197 1026.17 569.578 1025.95 569.143 1025.51C568.707 1025.08 568.49 1024.46 568.49 1023.66V1004.44C568.49 1003.64 568.707 1003.02 569.143 1002.58C569.578 1002.15 570.197 1001.93 570.999 1001.93H577.909C580.545 1001.93 582.813 1002.41 584.716 1003.37C586.618 1004.34 588.073 1005.72 589.081 1007.53C590.09 1009.34 590.594 1011.51 590.594 1014.03C590.594 1016.55 590.09 1018.73 589.081 1020.56C588.096 1022.37 586.652 1023.76 584.75 1024.72C582.848 1025.68 580.567 1026.17 577.909 1026.17H570.999ZM577.531 1021.83C582.687 1021.83 585.266 1019.23 585.266 1014.03C585.266 1008.85 582.687 1006.26 577.531 1006.26H573.852V1021.83H577.531ZM607.841 1021.15C608.299 1021.15 608.666 1021.33 608.941 1021.7C609.239 1022.06 609.388 1022.53 609.388 1023.11C609.388 1023.5 609.273 1023.86 609.044 1024.21C608.815 1024.53 608.494 1024.8 608.082 1025.03C607.302 1025.44 606.397 1025.79 605.366 1026.06C604.334 1026.31 603.383 1026.44 602.512 1026.44C600.679 1026.44 599.075 1026.09 597.7 1025.38C596.347 1024.66 595.305 1023.66 594.571 1022.35C593.838 1021.02 593.471 1019.46 593.471 1017.67C593.471 1015.96 593.827 1014.43 594.537 1013.1C595.247 1011.77 596.233 1010.74 597.493 1010.01C598.754 1009.25 600.186 1008.87 601.791 1008.87C603.326 1008.87 604.667 1009.22 605.813 1009.91C606.981 1010.57 607.887 1011.53 608.528 1012.79C609.17 1014.03 609.491 1015.49 609.491 1017.16C609.491 1017.66 609.365 1018.05 609.113 1018.33C608.884 1018.58 608.551 1018.71 608.116 1018.71H598.49C598.651 1020.06 599.063 1021.04 599.728 1021.66C600.393 1022.26 601.344 1022.56 602.581 1022.56C603.246 1022.56 603.842 1022.48 604.369 1022.32C604.896 1022.16 605.48 1021.94 606.122 1021.66C606.443 1021.52 606.752 1021.41 607.05 1021.32C607.348 1021.2 607.612 1021.15 607.841 1021.15ZM601.928 1012.45C600.943 1012.45 600.152 1012.77 599.556 1013.41C598.96 1014.03 598.605 1014.94 598.49 1016.13H605.125C605.056 1014.91 604.747 1014 604.197 1013.38C603.67 1012.76 602.914 1012.45 601.928 1012.45ZM623.077 1008.87C624.521 1008.87 625.804 1009.25 626.927 1010.01C628.073 1010.74 628.955 1011.78 629.574 1013.14C630.216 1014.47 630.537 1016 630.537 1017.74C630.537 1019.49 630.216 1021.02 629.574 1022.35C628.955 1023.66 628.084 1024.66 626.961 1025.38C625.838 1026.09 624.544 1026.44 623.077 1026.44C621.931 1026.44 620.888 1026.21 619.949 1025.75C619.032 1025.27 618.321 1024.61 617.817 1023.76V1030.26C617.817 1030.94 617.588 1031.49 617.13 1031.91C616.671 1032.32 616.064 1032.53 615.308 1032.53C614.506 1032.53 613.852 1032.31 613.348 1031.87C612.867 1031.44 612.626 1030.86 612.626 1030.15V1011.38C612.626 1010.65 612.855 1010.07 613.314 1009.63C613.795 1009.17 614.425 1008.94 615.205 1008.94C615.984 1008.94 616.603 1009.17 617.061 1009.63C617.519 1010.07 617.748 1010.65 617.748 1011.38V1011.66C618.253 1010.79 618.975 1010.11 619.914 1009.63C620.854 1009.13 621.908 1008.87 623.077 1008.87ZM621.564 1022.49C622.779 1022.49 623.719 1022.09 624.383 1021.28C625.048 1020.46 625.38 1019.28 625.38 1017.74C625.38 1016.18 625.048 1014.98 624.383 1014.13C623.719 1013.26 622.779 1012.83 621.564 1012.83C620.35 1012.83 619.41 1013.25 618.745 1014.1C618.081 1014.92 617.748 1016.12 617.748 1017.67C617.748 1019.21 618.081 1020.4 618.745 1021.25C619.41 1022.07 620.35 1022.49 621.564 1022.49ZM641.822 1026.44C640.034 1026.44 638.465 1026.09 637.112 1025.38C635.76 1024.64 634.717 1023.62 633.984 1022.32C633.251 1020.99 632.884 1019.43 632.884 1017.64C632.884 1015.85 633.251 1014.31 633.984 1013C634.717 1011.67 635.76 1010.65 637.112 1009.94C638.465 1009.23 640.034 1008.87 641.822 1008.87C643.61 1008.87 645.18 1009.23 646.532 1009.94C647.884 1010.65 648.927 1011.67 649.66 1013C650.393 1014.31 650.76 1015.85 650.76 1017.64C650.76 1019.43 650.393 1020.99 649.66 1022.32C648.927 1023.62 647.884 1024.64 646.532 1025.38C645.18 1026.09 643.61 1026.44 641.822 1026.44ZM641.822 1022.49C644.343 1022.49 645.604 1020.87 645.604 1017.64C645.604 1016.01 645.271 1014.8 644.607 1014C643.965 1013.19 643.037 1012.79 641.822 1012.79C639.301 1012.79 638.041 1014.41 638.041 1017.64C638.041 1020.87 639.301 1022.49 641.822 1022.49ZM660.313 1026.44C658.915 1026.44 657.7 1026.33 656.669 1026.1C655.638 1025.87 654.733 1025.5 653.953 1025C653.61 1024.79 653.346 1024.52 653.163 1024.17C652.979 1023.83 652.888 1023.44 652.888 1023C652.888 1022.48 653.037 1022.04 653.335 1021.7C653.633 1021.33 653.999 1021.15 654.435 1021.15C654.733 1021.15 655.031 1021.2 655.328 1021.32C655.626 1021.41 655.936 1021.52 656.257 1021.66C656.898 1021.96 657.529 1022.2 658.147 1022.38C658.766 1022.54 659.534 1022.62 660.451 1022.62C661.253 1022.62 661.872 1022.5 662.307 1022.25C662.765 1021.99 662.995 1021.65 662.995 1021.22C662.995 1020.89 662.891 1020.64 662.685 1020.46C662.502 1020.25 662.147 1020.07 661.619 1019.91C661.092 1019.75 660.256 1019.55 659.11 1019.32C657.07 1018.94 655.603 1018.35 654.71 1017.57C653.816 1016.79 653.369 1015.7 653.369 1014.31C653.369 1013.27 653.678 1012.35 654.297 1011.52C654.939 1010.7 655.81 1010.05 656.91 1009.6C658.01 1009.11 659.247 1008.87 660.622 1008.87C661.608 1008.87 662.571 1009 663.51 1009.25C664.45 1009.5 665.286 1009.86 666.02 1010.32C666.73 1010.75 667.085 1011.4 667.085 1012.24C667.085 1012.79 666.936 1013.25 666.638 1013.62C666.341 1013.98 665.974 1014.17 665.538 1014.17C665.011 1014.17 664.381 1013.96 663.648 1013.55C663.075 1013.25 662.548 1013.03 662.066 1012.9C661.608 1012.74 661.058 1012.66 660.416 1012.66C659.706 1012.66 659.144 1012.79 658.732 1013.07C658.319 1013.32 658.113 1013.68 658.113 1014.13C658.113 1014.62 658.354 1014.98 658.835 1015.23C659.316 1015.49 660.244 1015.74 661.619 1015.99C663.155 1016.29 664.358 1016.65 665.229 1017.09C666.1 1017.5 666.73 1018.03 667.12 1018.67C667.509 1019.31 667.704 1020.13 667.704 1021.11C667.704 1022.74 667.028 1024.03 665.676 1025C664.347 1025.96 662.559 1026.44 660.313 1026.44ZM673.284 1026.37C672.527 1026.37 671.897 1026.17 671.393 1025.75C670.912 1025.34 670.671 1024.73 670.671 1023.93V1011.38C670.671 1010.58 670.923 1009.97 671.427 1009.56C671.932 1009.15 672.55 1008.94 673.284 1008.94C674.017 1008.94 674.624 1009.15 675.106 1009.56C675.61 1009.97 675.862 1010.58 675.862 1011.38V1023.93C675.862 1024.73 675.61 1025.34 675.106 1025.75C674.624 1026.17 674.017 1026.37 673.284 1026.37ZM673.284 1006.19C672.367 1006.19 671.645 1005.96 671.118 1005.51C670.591 1005.02 670.327 1004.38 670.327 1003.58C670.327 1002.78 670.591 1002.15 671.118 1001.69C671.645 1001.23 672.367 1001 673.284 1001C674.178 1001 674.888 1001.24 675.415 1001.72C675.965 1002.18 676.24 1002.8 676.24 1003.58C676.24 1004.38 675.977 1005.02 675.449 1005.51C674.922 1005.96 674.2 1006.19 673.284 1006.19ZM690.228 1022.59C690.916 1022.64 691.42 1022.81 691.741 1023.11C692.062 1023.4 692.222 1023.84 692.222 1024.41C692.222 1025.08 691.958 1025.58 691.431 1025.93C690.904 1026.27 690.148 1026.41 689.162 1026.34L688.2 1026.27C684.189 1025.95 682.184 1023.85 682.184 1019.98V1013.17H680.809C680.053 1013.17 679.48 1013.01 679.09 1012.69C678.7 1012.35 678.506 1011.86 678.506 1011.25C678.506 1010.6 678.7 1010.12 679.09 1009.8C679.48 1009.46 680.053 1009.29 680.809 1009.29H682.184V1006.61C682.184 1005.85 682.413 1005.25 682.871 1004.82C683.353 1004.38 683.994 1004.16 684.797 1004.16C685.599 1004.16 686.229 1004.38 686.687 1004.82C687.146 1005.25 687.375 1005.85 687.375 1006.61V1009.29H689.781C691.34 1009.29 692.119 1009.94 692.119 1011.25C692.119 1011.86 691.924 1012.35 691.534 1012.69C691.145 1013.01 690.56 1013.17 689.781 1013.17H687.375V1020.36C687.375 1021.04 687.535 1021.57 687.856 1021.94C688.177 1022.28 688.647 1022.48 689.266 1022.52L690.228 1022.59Z" fill="white"/>
<path d="M315.219 643.745C316.756 643.745 317.525 644.389 317.525 645.677C317.525 646.985 316.756 647.639 315.219 647.639H303.63C302.986 647.639 302.467 647.452 302.072 647.079C301.698 646.684 301.512 646.196 301.512 645.614C301.512 644.867 301.813 644.181 302.415 643.558L309.269 636.299C310.806 634.679 311.574 633.184 311.574 631.813C311.574 630.962 311.335 630.318 310.858 629.882C310.38 629.425 309.684 629.196 308.77 629.196C307.981 629.196 307.254 629.331 306.59 629.601C305.925 629.871 305.157 630.266 304.284 630.785C303.931 630.993 303.661 631.138 303.474 631.221C303.287 631.304 303.069 631.346 302.82 631.346C302.384 631.346 302.01 631.148 301.698 630.754C301.387 630.338 301.231 629.861 301.231 629.321C301.231 628.926 301.293 628.604 301.418 628.355C301.563 628.085 301.792 627.846 302.103 627.638C303.038 626.953 304.108 626.413 305.312 626.018C306.538 625.603 307.763 625.395 308.989 625.395C310.463 625.395 311.751 625.645 312.852 626.143C313.973 626.641 314.835 627.358 315.437 628.293C316.04 629.207 316.341 630.266 316.341 631.47C316.341 632.737 316.071 633.911 315.531 634.991C315.012 636.071 314.129 637.275 312.883 638.605L307.992 643.745H315.219ZM322.652 647.826C321.884 647.826 321.25 647.577 320.752 647.079C320.253 646.559 320.004 645.916 320.004 645.147C320.004 644.379 320.253 643.745 320.752 643.247C321.25 642.727 321.884 642.468 322.652 642.468C323.421 642.468 324.054 642.727 324.553 643.247C325.051 643.745 325.3 644.379 325.3 645.147C325.3 645.916 325.051 646.559 324.553 647.079C324.054 647.577 323.421 647.826 322.652 647.826ZM336.041 647.92C333.383 647.92 331.347 646.954 329.935 645.022C328.544 643.091 327.848 640.297 327.848 636.642C327.848 633.007 328.544 630.224 329.935 628.293C331.347 626.361 333.383 625.395 336.041 625.395C338.7 625.395 340.725 626.361 342.116 628.293C343.529 630.224 344.235 633.007 344.235 636.642C344.235 640.297 343.529 643.091 342.116 645.022C340.725 646.954 338.7 647.92 336.041 647.92ZM336.041 644.212C337.246 644.212 338.118 643.61 338.658 642.406C339.219 641.201 339.499 639.28 339.499 636.642C339.499 633.983 339.219 632.062 338.658 630.878C338.118 629.695 337.246 629.103 336.041 629.103C334.837 629.103 333.954 629.705 333.393 630.91C332.853 632.093 332.583 634.004 332.583 636.642C332.583 639.28 332.853 641.201 333.393 642.406C333.954 643.61 334.837 644.212 336.041 644.212ZM361.678 647.889C360.411 647.889 359.311 647.785 358.376 647.577C357.441 647.369 356.621 647.037 355.915 646.58C355.603 646.393 355.364 646.144 355.198 645.832C355.032 645.521 354.949 645.168 354.949 644.773C354.949 644.296 355.084 643.901 355.354 643.589C355.624 643.257 355.956 643.091 356.351 643.091C356.621 643.091 356.891 643.143 357.161 643.247C357.431 643.33 357.711 643.434 358.002 643.558C358.584 643.828 359.155 644.046 359.716 644.212C360.276 644.358 360.972 644.431 361.803 644.431C362.53 644.431 363.091 644.316 363.485 644.088C363.901 643.859 364.108 643.548 364.108 643.153C364.108 642.862 364.015 642.634 363.828 642.468C363.662 642.281 363.34 642.115 362.862 641.969C362.384 641.824 361.626 641.647 360.588 641.44C358.739 641.087 357.41 640.557 356.6 639.851C355.79 639.145 355.385 638.158 355.385 636.891C355.385 635.957 355.666 635.115 356.226 634.368C356.808 633.62 357.597 633.038 358.594 632.623C359.591 632.187 360.713 631.969 361.959 631.969C362.852 631.969 363.724 632.083 364.576 632.312C365.427 632.54 366.185 632.862 366.85 633.277C367.494 633.672 367.816 634.253 367.816 635.022C367.816 635.52 367.681 635.936 367.411 636.268C367.141 636.6 366.808 636.767 366.414 636.767C365.936 636.767 365.365 636.58 364.7 636.206C364.181 635.936 363.703 635.739 363.267 635.614C362.852 635.469 362.353 635.396 361.772 635.396C361.128 635.396 360.619 635.52 360.245 635.77C359.871 635.998 359.684 636.32 359.684 636.735C359.684 637.172 359.903 637.504 360.339 637.732C360.775 637.961 361.616 638.189 362.862 638.418C364.254 638.688 365.344 639.02 366.133 639.415C366.923 639.789 367.494 640.266 367.847 640.848C368.2 641.429 368.376 642.167 368.376 643.06C368.376 644.534 367.764 645.708 366.538 646.58C365.334 647.452 363.714 647.889 361.678 647.889ZM379.418 644.399C380.041 644.441 380.498 644.597 380.789 644.867C381.08 645.137 381.225 645.531 381.225 646.051C381.225 646.653 380.986 647.11 380.509 647.421C380.031 647.733 379.345 647.857 378.452 647.795L377.58 647.733C373.945 647.442 372.128 645.542 372.128 642.032V635.863H370.882C370.197 635.863 369.677 635.718 369.324 635.427C368.971 635.115 368.795 634.679 368.795 634.118C368.795 633.537 368.971 633.101 369.324 632.81C369.677 632.498 370.197 632.343 370.882 632.343H372.128V629.913C372.128 629.227 372.336 628.687 372.751 628.293C373.187 627.898 373.769 627.701 374.496 627.701C375.223 627.701 375.794 627.898 376.209 628.293C376.625 628.687 376.832 629.227 376.832 629.913V632.343H379.013C380.426 632.343 381.132 632.935 381.132 634.118C381.132 634.679 380.955 635.115 380.602 635.427C380.249 635.718 379.719 635.863 379.013 635.863H376.832V642.374C376.832 642.997 376.978 643.475 377.269 643.807C377.559 644.119 377.985 644.296 378.546 644.337L379.418 644.399ZM389.846 631.969C392.089 631.969 393.751 632.519 394.831 633.62C395.911 634.7 396.451 636.362 396.451 638.605V645.646C396.451 646.331 396.253 646.871 395.859 647.266C395.464 647.639 394.914 647.826 394.208 647.826C393.543 647.826 393.003 647.629 392.588 647.234C392.193 646.819 391.996 646.289 391.996 645.646V645.427C391.684 646.196 391.165 646.798 390.438 647.234C389.711 647.671 388.86 647.889 387.883 647.889C386.845 647.889 385.9 647.681 385.048 647.266C384.218 646.85 383.553 646.269 383.054 645.521C382.577 644.773 382.338 643.942 382.338 643.029C382.338 641.907 382.618 641.024 383.179 640.38C383.761 639.737 384.685 639.269 385.952 638.979C387.219 638.688 388.953 638.542 391.155 638.542H391.965V637.982C391.965 637.109 391.767 636.476 391.373 636.081C390.999 635.687 390.365 635.489 389.472 635.489C388.579 635.489 387.291 635.801 385.609 636.424C385.131 636.652 384.726 636.767 384.394 636.767C383.937 636.767 383.574 636.611 383.304 636.299C383.034 635.967 382.899 635.541 382.899 635.022C382.899 634.607 382.992 634.264 383.179 633.994C383.366 633.724 383.667 633.475 384.083 633.246C384.809 632.852 385.692 632.54 386.731 632.312C387.79 632.083 388.828 631.969 389.846 631.969ZM388.911 644.649C389.825 644.649 390.563 644.347 391.123 643.745C391.684 643.122 391.965 642.322 391.965 641.346V640.817H391.435C389.753 640.817 388.569 640.952 387.883 641.222C387.219 641.492 386.886 641.98 386.886 642.686C386.886 643.267 387.073 643.745 387.447 644.119C387.842 644.472 388.33 644.649 388.911 644.649ZM409.096 632.031C409.719 631.99 410.207 632.135 410.56 632.467C410.934 632.779 411.121 633.257 411.121 633.9C411.121 634.586 410.955 635.095 410.623 635.427C410.29 635.759 409.699 635.967 408.847 636.05L407.912 636.144C406.77 636.268 405.939 636.642 405.42 637.265C404.922 637.888 404.672 638.688 404.672 639.664V645.614C404.672 646.341 404.444 646.892 403.987 647.266C403.551 647.639 403 647.826 402.336 647.826C401.65 647.826 401.079 647.639 400.622 647.266C400.186 646.892 399.968 646.341 399.968 645.614V634.181C399.968 633.495 400.196 632.966 400.653 632.592C401.11 632.218 401.661 632.031 402.305 632.031C402.928 632.031 403.447 632.218 403.862 632.592C404.278 632.945 404.485 633.443 404.485 634.087V634.928C404.859 634.035 405.42 633.35 406.168 632.872C406.936 632.395 407.767 632.125 408.66 632.062L409.096 632.031Z" fill="#333333"/>
<path d="M739.051 633.433C740.401 633.433 741.606 633.734 742.665 634.337C743.724 634.918 744.544 635.739 745.126 636.798C745.708 637.857 745.998 639.082 745.998 640.474C745.998 641.928 745.656 643.216 744.97 644.337C744.285 645.459 743.319 646.331 742.073 646.954C740.847 647.577 739.425 647.889 737.805 647.889C736.517 647.889 735.261 647.691 734.035 647.297C732.81 646.902 731.75 646.352 730.857 645.646C730.546 645.417 730.328 645.178 730.203 644.929C730.079 644.659 730.016 644.337 730.016 643.963C730.016 643.423 730.162 642.966 730.452 642.592C730.764 642.198 731.138 642 731.574 642C731.823 642 732.052 642.042 732.259 642.125C732.467 642.187 732.737 642.312 733.069 642.499C733.9 642.997 734.658 643.392 735.344 643.683C736.029 643.953 736.777 644.088 737.587 644.088C738.854 644.088 739.809 643.797 740.453 643.216C741.117 642.634 741.45 641.772 741.45 640.63C741.45 639.55 741.107 638.698 740.422 638.075C739.757 637.452 738.854 637.14 737.711 637.14C737.005 637.14 736.361 637.234 735.78 637.421C735.198 637.587 734.565 637.878 733.879 638.293C733.443 638.542 733.007 638.667 732.571 638.667C732.072 638.667 731.647 638.522 731.294 638.231C730.961 637.919 730.795 637.514 730.795 637.016V627.95C730.795 627.223 730.992 626.662 731.387 626.268C731.782 625.873 732.342 625.676 733.069 625.676H743.101C744.638 625.676 745.406 626.288 745.406 627.514C745.406 628.76 744.638 629.383 743.101 629.383H735.531V634.274C736.527 633.713 737.701 633.433 739.051 633.433ZM751.095 647.826C750.327 647.826 749.693 647.577 749.195 647.079C748.697 646.559 748.447 645.916 748.447 645.147C748.447 644.379 748.697 643.745 749.195 643.247C749.693 642.727 750.327 642.468 751.095 642.468C751.864 642.468 752.497 642.727 752.996 643.247C753.494 643.745 753.744 644.379 753.744 645.147C753.744 645.916 753.494 646.559 752.996 647.079C752.497 647.577 751.864 647.826 751.095 647.826ZM764.484 647.92C761.826 647.92 759.791 646.954 758.378 645.022C756.987 643.091 756.291 640.297 756.291 636.642C756.291 633.007 756.987 630.224 758.378 628.293C759.791 626.361 761.826 625.395 764.484 625.395C767.143 625.395 769.168 626.361 770.56 628.293C771.972 630.224 772.678 633.007 772.678 636.642C772.678 640.297 771.972 643.091 770.56 645.022C769.168 646.954 767.143 647.92 764.484 647.92ZM764.484 644.212C765.689 644.212 766.561 643.61 767.101 642.406C767.662 641.201 767.943 639.28 767.943 636.642C767.943 633.983 767.662 632.062 767.101 630.878C766.561 629.695 765.689 629.103 764.484 629.103C763.28 629.103 762.397 629.705 761.836 630.91C761.296 632.093 761.026 634.004 761.026 636.642C761.026 639.28 761.296 641.201 761.836 642.406C762.397 643.61 763.28 644.212 764.484 644.212ZM790.121 647.889C788.854 647.889 787.754 647.785 786.819 647.577C785.884 647.369 785.064 647.037 784.358 646.58C784.046 646.393 783.807 646.144 783.641 645.832C783.475 645.521 783.392 645.168 783.392 644.773C783.392 644.296 783.527 643.901 783.797 643.589C784.067 643.257 784.399 643.091 784.794 643.091C785.064 643.091 785.334 643.143 785.604 643.247C785.874 643.33 786.154 643.434 786.445 643.558C787.027 643.828 787.598 644.046 788.159 644.212C788.719 644.358 789.415 644.431 790.246 644.431C790.973 644.431 791.534 644.316 791.928 644.088C792.344 643.859 792.551 643.548 792.551 643.153C792.551 642.862 792.458 642.634 792.271 642.468C792.105 642.281 791.783 642.115 791.305 641.969C790.828 641.824 790.069 641.647 789.031 641.44C787.183 641.087 785.853 640.557 785.043 639.851C784.233 639.145 783.828 638.158 783.828 636.891C783.828 635.957 784.109 635.115 784.669 634.368C785.251 633.62 786.04 633.038 787.037 632.623C788.034 632.187 789.156 631.969 790.402 631.969C791.295 631.969 792.167 632.083 793.019 632.312C793.87 632.54 794.628 632.862 795.293 633.277C795.937 633.672 796.259 634.253 796.259 635.022C796.259 635.52 796.124 635.936 795.854 636.268C795.584 636.6 795.251 636.767 794.857 636.767C794.379 636.767 793.808 636.58 793.143 636.206C792.624 635.936 792.146 635.739 791.71 635.614C791.295 635.469 790.796 635.396 790.215 635.396C789.571 635.396 789.062 635.52 788.688 635.77C788.314 635.998 788.128 636.32 788.128 636.735C788.128 637.172 788.346 637.504 788.782 637.732C789.218 637.961 790.059 638.189 791.305 638.418C792.697 638.688 793.787 639.02 794.576 639.415C795.366 639.789 795.937 640.266 796.29 640.848C796.643 641.429 796.82 642.167 796.82 643.06C796.82 644.534 796.207 645.708 794.981 646.58C793.777 647.452 792.157 647.889 790.121 647.889ZM807.861 644.399C808.484 644.441 808.941 644.597 809.232 644.867C809.523 645.137 809.668 645.531 809.668 646.051C809.668 646.653 809.429 647.11 808.952 647.421C808.474 647.733 807.789 647.857 806.896 647.795L806.023 647.733C802.389 647.442 800.571 645.542 800.571 642.032V635.863H799.325C798.64 635.863 798.12 635.718 797.767 635.427C797.414 635.115 797.238 634.679 797.238 634.118C797.238 633.537 797.414 633.101 797.767 632.81C798.12 632.498 798.64 632.343 799.325 632.343H800.571V629.913C800.571 629.227 800.779 628.687 801.194 628.293C801.63 627.898 802.212 627.701 802.939 627.701C803.666 627.701 804.237 627.898 804.652 628.293C805.068 628.687 805.275 629.227 805.275 629.913V632.343H807.456C808.869 632.343 809.575 632.935 809.575 634.118C809.575 634.679 809.398 635.115 809.045 635.427C808.692 635.718 808.162 635.863 807.456 635.863H805.275V642.374C805.275 642.997 805.421 643.475 805.712 643.807C806.002 644.119 806.428 644.296 806.989 644.337L807.861 644.399ZM818.289 631.969C820.532 631.969 822.194 632.519 823.274 633.62C824.354 634.7 824.894 636.362 824.894 638.605V645.646C824.894 646.331 824.697 646.871 824.302 647.266C823.907 647.639 823.357 647.826 822.651 647.826C821.986 647.826 821.446 647.629 821.031 647.234C820.636 646.819 820.439 646.289 820.439 645.646V645.427C820.127 646.196 819.608 646.798 818.881 647.234C818.154 647.671 817.303 647.889 816.326 647.889C815.288 647.889 814.343 647.681 813.491 647.266C812.661 646.85 811.996 646.269 811.498 645.521C811.02 644.773 810.781 643.942 810.781 643.029C810.781 641.907 811.061 641.024 811.622 640.38C812.204 639.737 813.128 639.269 814.395 638.979C815.662 638.688 817.396 638.542 819.598 638.542H820.408V637.982C820.408 637.109 820.21 636.476 819.816 636.081C819.442 635.687 818.808 635.489 817.915 635.489C817.022 635.489 815.735 635.801 814.052 636.424C813.575 636.652 813.17 636.767 812.837 636.767C812.38 636.767 812.017 636.611 811.747 636.299C811.477 635.967 811.342 635.541 811.342 635.022C811.342 634.607 811.435 634.264 811.622 633.994C811.809 633.724 812.11 633.475 812.526 633.246C813.253 632.852 814.135 632.54 815.174 632.312C816.233 632.083 817.271 631.969 818.289 631.969ZM817.355 644.649C818.268 644.649 819.006 644.347 819.567 643.745C820.127 643.122 820.408 642.322 820.408 641.346V640.817H819.878C818.196 640.817 817.012 640.952 816.326 641.222C815.662 641.492 815.33 641.98 815.33 642.686C815.33 643.267 815.516 643.745 815.89 644.119C816.285 644.472 816.773 644.649 817.355 644.649ZM837.539 632.031C838.162 631.99 838.65 632.135 839.004 632.467C839.377 632.779 839.564 633.257 839.564 633.9C839.564 634.586 839.398 635.095 839.066 635.427C838.734 635.759 838.142 635.967 837.29 636.05L836.355 636.144C835.213 636.268 834.382 636.642 833.863 637.265C833.365 637.888 833.115 638.688 833.115 639.664V645.614C833.115 646.341 832.887 646.892 832.43 647.266C831.994 647.639 831.443 647.826 830.779 647.826C830.093 647.826 829.522 647.639 829.065 647.266C828.629 646.892 828.411 646.341 828.411 645.614V634.181C828.411 633.495 828.64 632.966 829.097 632.592C829.553 632.218 830.104 632.031 830.748 632.031C831.371 632.031 831.89 632.218 832.305 632.592C832.721 632.945 832.928 633.443 832.928 634.087V634.928C833.302 634.035 833.863 633.35 834.611 632.872C835.379 632.395 836.21 632.125 837.103 632.062L837.539 632.031Z" fill="#333333"/>
<path d="M810.633 448.486C811.09 448.486 811.463 448.642 811.754 448.953C812.045 449.244 812.19 449.628 812.19 450.106V469.235C812.19 469.712 812.055 470.086 811.785 470.356C811.536 470.626 811.183 470.761 810.726 470.761C810.29 470.761 809.947 470.626 809.698 470.356C809.449 470.086 809.324 469.712 809.324 469.235V454.748L803.218 466.368C802.823 467.095 802.314 467.459 801.691 467.459C801.068 467.459 800.559 467.095 800.165 466.368L794.027 454.873V469.235C794.027 469.712 793.903 470.086 793.654 470.356C793.404 470.626 793.051 470.761 792.594 470.761C792.158 470.761 791.805 470.626 791.535 470.356C791.286 470.065 791.161 469.692 791.161 469.235V450.106C791.161 449.628 791.307 449.244 791.597 448.953C791.888 448.642 792.262 448.486 792.719 448.486C793.363 448.486 793.882 448.86 794.277 449.608L801.722 463.845L809.106 449.608C809.501 448.86 810.01 448.486 810.633 448.486ZM823.338 455.028C825.353 455.028 826.848 455.537 827.824 456.555C828.821 457.573 829.32 459.12 829.32 461.197V469.266C829.32 469.744 829.185 470.117 828.914 470.387C828.644 470.637 828.271 470.761 827.793 470.761C827.336 470.761 826.973 470.626 826.703 470.356C826.433 470.086 826.298 469.723 826.298 469.266V468.113C825.903 468.985 825.311 469.66 824.522 470.138C823.753 470.595 822.85 470.824 821.811 470.824C820.814 470.824 819.901 470.626 819.07 470.232C818.26 469.816 817.616 469.255 817.138 468.549C816.661 467.843 816.422 467.044 816.422 466.15C816.401 465.029 816.681 464.157 817.263 463.533C817.844 462.89 818.789 462.433 820.098 462.163C821.406 461.872 823.224 461.727 825.55 461.727H826.266V460.823C826.266 459.66 826.028 458.819 825.55 458.3C825.072 457.78 824.304 457.521 823.244 457.521C822.518 457.521 821.832 457.614 821.188 457.801C820.544 457.988 819.838 458.258 819.07 458.611C818.509 458.923 818.114 459.078 817.886 459.078C817.574 459.078 817.315 458.964 817.107 458.736C816.92 458.507 816.827 458.216 816.827 457.863C816.827 457.552 816.91 457.282 817.076 457.053C817.263 456.804 817.554 456.565 817.948 456.337C818.675 455.942 819.527 455.631 820.503 455.402C821.479 455.153 822.424 455.028 823.338 455.028ZM822.372 468.487C823.514 468.487 824.449 468.103 825.176 467.334C825.903 466.545 826.266 465.538 826.266 464.312V463.502H825.706C824.086 463.502 822.839 463.575 821.967 463.72C821.095 463.866 820.472 464.115 820.098 464.468C819.724 464.8 819.537 465.288 819.537 465.932C819.537 466.68 819.807 467.293 820.347 467.77C820.887 468.248 821.562 468.487 822.372 468.487ZM846.428 468.238C846.74 468.549 846.895 468.913 846.895 469.328C846.895 469.723 846.75 470.065 846.459 470.356C846.189 470.626 845.857 470.761 845.462 470.761C845.068 470.761 844.704 470.585 844.372 470.232L839.605 464.873L834.87 470.232C834.538 470.585 834.174 470.761 833.779 470.761C833.385 470.761 833.042 470.616 832.751 470.325C832.481 470.034 832.346 469.692 832.346 469.297C832.346 468.902 832.492 468.549 832.782 468.238L837.705 462.817L833.032 457.614C832.72 457.261 832.564 456.908 832.564 456.555C832.564 456.16 832.71 455.828 833.001 455.558C833.291 455.267 833.624 455.122 833.997 455.122C834.392 455.122 834.756 455.298 835.088 455.651L839.605 460.761L844.123 455.651C844.455 455.298 844.829 455.122 845.244 455.122C845.618 455.122 845.95 455.267 846.241 455.558C846.532 455.828 846.677 456.16 846.677 456.555C846.677 456.95 846.521 457.303 846.21 457.614L841.537 462.817L846.428 468.238Z" fill="#333333"/>
<circle cx="865.516" cy="288.554" r="4.49432" fill="#555555" fill-opacity="0.8"/>
<circle cx="865.516" cy="303.535" r="4.49432" fill="#555555" fill-opacity="0.8"/>
<circle cx="865.516" cy="318.516" r="4.49432" fill="#555555" fill-opacity="0.8"/>
<defs>
<filter id="filter0_d" x="0.227264" y="0.227264" width="1150.55" height="1351.29" filterUnits="userSpaceOnUse" color-interpolation-filters="sRGB">
<feFlood flood-opacity="0" result="BackgroundImageFix"/>
<feColorMatrix in="SourceAlpha" type="matrix" values="0 0 0 0 0 0 0 0 0 0 0 0 0 0 0 0 0 0 127 0"/>
<feOffset/>
<feGaussianBlur stdDeviation="89.8864"/>
<feColorMatrix type="matrix" values="0 0 0 0 0.791667 0 0 0 0 0.606944 0 0 0 0 0.610093 0 0 0 0.25 0"/>
<feBlend mode="normal" in2="BackgroundImageFix" result="effect1_dropShadow"/>
<feBlend mode="normal" in="SourceGraphic" in2="effect1_dropShadow" result="shape"/>
</filter>
<filter id="filter1_d" x="224.943" y="923.061" width="704.11" height="188.761" filterUnits="userSpaceOnUse" color-interpolation-filters="sRGB">
<feFlood flood-opacity="0" result="BackgroundImageFix"/>
<feColorMatrix in="SourceAlpha" type="matrix" values="0 0 0 0 0 0 0 0 0 0 0 0 0 0 0 0 0 0 127 0"/>
<feOffset/>
<feGaussianBlur stdDeviation="14.9811"/>
<feColorMatrix type="matrix" values="0 0 0 0 0.454167 0 0 0 0 0.358851 0 0 0 0 0.134358 0 0 0 0.25 0"/>
<feBlend mode="normal" in2="BackgroundImageFix" result="effect1_dropShadow"/>
<feBlend mode="normal" in="SourceGraphic" in2="effect1_dropShadow" result="shape"/>
</filter>
<filter id="filter2_d" x="269.886" y="478.814" width="242.693" height="131.833" filterUnits="userSpaceOnUse" color-interpolation-filters="sRGB">
<feFlood flood-opacity="0" result="BackgroundImageFix"/>
<feColorMatrix in="SourceAlpha" type="matrix" values="0 0 0 0 0 0 0 0 0 0 0 0 0 0 0 0 0 0 127 0"/>
<feOffset/>
<feGaussianBlur stdDeviation="14.9811"/>
<feColorMatrix type="matrix" values="0 0 0 0 0.333333 0 0 0 0 0.333333 0 0 0 0 0.333333 0 0 0 0.25 0"/>
<feBlend mode="normal" in2="BackgroundImageFix" result="effect1_dropShadow"/>
<feBlend mode="normal" in="SourceGraphic" in2="effect1_dropShadow" result="shape"/>
</filter>
</defs>
</svg>
