<svg xmlns="http://www.w3.org/2000/svg" viewBox="0 0 64 64"><defs><path id="a" d="M-859.486-274.578h675.5v132.688h-675.5z"/></defs><path fill="#457abe" d="M23.996 17.998h-6a.5.5 0 01-.5-.5v-2.006c0-1.93 1.57-3.5 3.5-3.5s3.5 1.57 3.5 3.5v2.006a.5.5 0 01-.5.5zm-5.5-1h5v-1.506c0-1.379-1.122-2.5-2.5-2.5s-2.5 1.121-2.5 2.5v1.506z"/><path fill="#457abe" d="M51.996 53.008l-28-.01a.5.5 0 01-.5-.5V16.492a.5.5 0 011 0v35.506l27 .01V15.492c0-1.379-1.122-2.5-2.5-2.5h-28a.5.5 0 010-1h28c1.93 0 3.5 1.57 3.5 3.5v37.016a.5.5 0 01-.5.5z"/><path fill="#457abe" d="M49.017 17.995h-22a.5.5 0 01-.5-.5v-2a.5.5 0 01.5-.5h22a.5.5 0 01.5.5v2a.5.5 0 01-.5.5zm-21.5-1h21v-1h-21v1zm21.5 15h-22a.5.5 0 01-.5-.5v-2a.5.5 0 01.5-.5h22a.5.5 0 01.5.5v2a.5.5 0 01-.5.5zm-21.5-1h21v-1h-21v1zm21.5-10h-13a.5.5 0 010-1h13a.5.5 0 010 1zm0 14h-10a.5.5 0 010-1h10a.5.5 0 010 1zm0 2h-10a.5.5 0 010-1h10a.5.5 0 010 1zm0 2h-10a.5.5 0 010-1h10a.5.5 0 010 1zm0 2h-10a.5.5 0 010-1h10a.5.5 0 010 1zm0 2h-10a.5.5 0 010-1h10a.5.5 0 010 1zm0 7h-10a.5.5 0 010-1h10a.5.5 0 010 1zm-7-27h-6a.5.5 0 010-1h6a.5.5 0 010 1zm-2 2h-4a.5.5 0 010-1h4a.5.5 0 010 1zm-7.021 2h-6a.5.5 0 01-.5-.5v-6a.5.5 0 01.5-.5h6a.5.5 0 01.5.5v6a.5.5 0 01-.5.5zm-5.5-1h5v-5h-5v5z"/><path fill="#457abe" d="M32.996 26.995h-5.442a.5.5 0 01-.354-.854l3.643-3.643a.5.5 0 01.707 0l1.8 1.8a.5.5 0 01.146.354v1.843a.5.5 0 01-.5.5zm-4.236-1h3.735v-1.136l-1.3-1.3-2.435 2.436z"/><path fill="#457abe" d="M27.553 26.995h-.558a.5.5 0 01-.5-.5v-1.843c0-.133.053-.26.146-.354l1.8-1.8a.5.5 0 01.707 0l1.2 1.2a.5.5 0 010 .707l-2.442 2.442a.493.493 0 01-.353.148zm-.057-2.136v.986l1.793-1.793-.493-.493-1.3 1.3zm17.59 22.556a.5.5 0 01-.488-.393c-.131-.599-.757-1-1.339-.896a.496.496 0 01-.527-.246 1.72 1.72 0 00-1.494-.886c-.95 0-1.722.772-1.722 1.722a.5.5 0 01-1 0 2.725 2.725 0 012.722-2.722c.864 0 1.673.419 2.183 1.111a2.183 2.183 0 012.154 1.701.5.5 0 01-.489.609z"/><path fill="#457abe" d="M45.168 47.415a.5.5 0 01-.488-.608 2.178 2.178 0 012.115-1.701c.393 0 .776.109 1.111.313a2.143 2.143 0 011.111-.313.5.5 0 010 1c-.363 0-.623.165-.776.304a.5.5 0 01-.67 0 1.147 1.147 0 00-.776-.304c-.543 0-1.021.385-1.138.916a.501.501 0 01-.489.393zM31.996 38.306l.386.783.864.125-.625.61.147.86-.772-.406-.773.406.148-.86-.625-.61.863-.125z"/><path fill="#457abe" d="M31.996 42.495c-1.654 0-3-1.346-3-3s1.346-3 3-3 3 1.346 3 3-1.346 3-3 3zm0-5c-1.103 0-2 .897-2 2s.897 2 2 2 2-.897 2-2-.897-2-2-2z"/><path fill="#457abe" d="M31.869 45.105c-.001 0-.001 0 0 0a.5.5 0 01-.355-.148l-1.043-1.053-1.461.231a.5.5 0 01-.572-.418l-.225-1.464-1.317-.673a.5.5 0 01-.217-.675l.678-1.314-.67-1.317a.5.5 0 01.221-.673l1.323-.666.232-1.46a.499.499 0 01.575-.415l1.46.239 1.044-1.048a.5.5 0 01.354-.146h.001a.5.5 0 01.354.148l1.041 1.053 1.463-.232a.502.502 0 01.573.419l.222 1.463 1.319.673a.5.5 0 01.217.675l-.68 1.315.672 1.316a.5.5 0 01-.22.675l-1.323.664-.231 1.464a.499.499 0 01-.575.415l-1.461-.239-1.045 1.045a.503.503 0 01-.354.146zm-1.224-2.235c.132 0 .261.053.355.148l.87.878.871-.871a.489.489 0 01.435-.14l1.218.199.193-1.221a.5.5 0 01.269-.369l1.102-.553-.56-1.098a.501.501 0 01.001-.457l.567-1.097-1.1-.561a.498.498 0 01-.267-.37l-.185-1.22-1.219.194a.497.497 0 01-.434-.143l-.867-.877-.871.873a.498.498 0 01-.435.14l-1.218-.199-.193 1.217a.497.497 0 01-.269.368l-1.103.555.559 1.099a.502.502 0 01-.001.456l-.565 1.096 1.099.561a.503.503 0 01.267.369l.187 1.221 1.218-.193a.62.62 0 01.076-.005z"/><path fill="#457abe" d="M34.017 49.995a.507.507 0 01-.212-.047l-1.908-.894-1.644.881a.499.499 0 01-.736-.441V43.64a.5.5 0 011 0v5.02l1.129-.605a.501.501 0 01.448-.013l1.423.667v-5.068a.5.5 0 011 0v5.854a.5.5 0 01-.5.5z"/><path fill="#457abe" d="M32.017 46.995a.5.5 0 01-.5-.5v-2a.5.5 0 011 0v2a.5.5 0 01-.5.5zm25.991-2.987h-2a.5.5 0 01-.489-.396c-.01-.047-1.011-4.831-1.011-11.351 0-4.44.459-8.409.844-10.956.117-.775.781-1.297 1.651-1.297h.007c1.332 0 1.599.823 1.652 1.177.198 1.326.845 6.052.845 11.2 0 5.668-.998 11.159-1.008 11.214a.497.497 0 01-.491.409zm0-.5h.01-.01zm-1.587-.5h1.166c.227-1.365.921-5.935.921-10.623 0-5.079-.639-9.743-.834-11.052-.016-.105-.048-.325-.663-.325h-.007c-.179 0-.602.044-.663.447-.38 2.513-.833 6.427-.833 10.806 0 5.345.68 9.488.913 10.747z"/><path fill="#457abe" d="M58.27 22.977h-2.523a.5.5 0 010-1h2.523a.5.5 0 010 1zm-1.274 26.018a.501.501 0 01-.416-.223l-2-3a.5.5 0 01-.031-.501l1-2a.5.5 0 01.447-.276h2a.5.5 0 01.447.276l1 2c.08.16.068.352-.031.501l-2 3a.501.501 0 01-.416.223zm-1.423-3.536l1.423 2.135 1.423-2.135-.732-1.464h-1.382l-.732 1.464z"/><path fill="#457abe" d="M56.996 48.995a.5.5 0 01-.5-.5v-2.906a.5.5 0 011 0v2.906a.5.5 0 01-.5.5zm1.258-7h-2.52a.5.5 0 010-1h2.52a.5.5 0 010 1zm-41.711 6.868a.5.5 0 01-.5-.5v-4.756a.5.5 0 011 0v4.756c0 .277-.223.5-.5.5zm-5.474-16.352a.494.494 0 01-.25-.067l-5.994-3.461a.5.5 0 11.5-.866l5.994 3.461a.5.5 0 01-.25.933zm10.948-.122a.5.5 0 01-.251-.933l1.928-1.113a.5.5 0 01.5.866l-1.928 1.113a.498.498 0 01-.249.067zm-5.474 9.53a.5.5 0 01-.5-.5V28.824a.5.5 0 011 0v12.595a.5.5 0 01-.5.5z"/><path fill="#457abe" d="M17.404 35.348h-1.66a2.431 2.431 0 01-2.437-2.419 2.43 2.43 0 012.437-2.418h3.523a.5.5 0 010 1h-3.523c-.792 0-1.437.636-1.437 1.418s.645 1.419 1.437 1.419h1.66a.5.5 0 010 1z"/><path fill="#457abe" d="M17.355 39.172h-3.547a.5.5 0 010-1h3.547c.779 0 1.413-.634 1.413-1.412s-.634-1.412-1.413-1.412h-1.093a.5.5 0 010-1h1.093c1.33 0 2.413 1.082 2.413 2.412s-1.083 2.412-2.413 2.412zm-.812-11.785c-.827 0-1.5-.673-1.5-1.5s.673-1.5 1.5-1.5 1.5.673 1.5 1.5-.672 1.5-1.5 1.5zm0-2a.5.5 0 10.002 1.002.5.5 0 00-.002-1.002zM8.041 41.386a1.5 1.5 0 01-.747-.199v-.001a1.502 1.502 0 01-.549-2.049 1.507 1.507 0 012.048-.55c.716.414.963 1.333.55 2.05-.278.48-.783.749-1.302.749zm-.248-1.067c.241.14.546.056.683-.183a.502.502 0 00-.183-.684.502.502 0 00-.5.867z"/><circle cx="8.065" cy="36.887" r=".5" fill="#457abe"/><circle cx="8.065" cy="34.887" r=".5" fill="#457abe"/><circle cx="8.065" cy="32.887" r=".5" fill="#457abe"/><circle cx="10.329" cy="29.019" fill="#457abe" transform="rotate(-29.939 10.329 29.019)" r=".5"/><circle cx="12.062" cy="28.021" fill="#457abe" transform="rotate(-29.939 12.062 28.02)" r=".5"/><circle cx="13.795" cy="27.023" fill="#457abe" transform="rotate(-29.939 13.795 27.022)" r=".5"/><circle cx="18.813" cy="43.751" fill="#457abe" transform="rotate(-29.939 18.813 43.75)" r=".5"/><circle cx="20.546" cy="42.752" fill="#457abe" transform="rotate(-29.939 20.546 42.751)" r=".5"/><circle cx="22.279" cy="41.754" fill="#457abe" transform="rotate(-29.939 22.28 41.753)" r=".5"/><circle cx="22.769" cy="29.019" fill="#457abe" transform="rotate(-60.061 22.767 29.018)" r=".5"/><circle cx="21.036" cy="28.021" fill="#457abe" transform="rotate(-60.061 21.034 28.02)" r=".5"/><circle cx="19.303" cy="27.023" fill="#457abe" transform="rotate(-60.061 19.301 27.021)" r=".5"/><circle cx="14.285" cy="43.751" fill="#457abe" transform="rotate(-60.061 14.283 43.748)" r=".5"/><circle cx="12.551" cy="42.752" fill="#457abe" transform="rotate(-60.061 12.55 42.75)" r=".5"/><circle cx="10.818" cy="41.754" fill="#457abe" transform="rotate(-60.061 10.817 41.752)" r=".5"/><path fill="#457abe" d="M16.492 48.889a.496.496 0 01-.25-.067l-11.5-6.64a.499.499 0 01-.25-.433V28.471c0-.179.095-.344.25-.433l11.5-6.64a.497.497 0 01.5 0l7.504 4.332c.155.089.25.254.25.433v17.894a.499.499 0 01-.25.433l-7.504 4.332a.506.506 0 01-.25.067zm-11-7.429l11 6.352 7.004-4.044V26.452l-7.004-4.044-11 6.352v12.7zm18.504 2.597h.01-.01z"/></svg>