<svg xmlns="http://www.w3.org/2000/svg" viewBox="0 0 64 64"><path fill="#457abe" d="M58 13H6c-1.103 0-2-.897-2-2s.897-2 2-2h52c1.103 0 2 .897 2 2s-.897 2-2 2zM6 10a1.001 1.001 0 000 2h52a1.001 1.001 0 000-2H6zm30.5 10h-9c-1.379 0-2.5-1.122-2.5-2.5s1.121-2.5 2.5-2.5h9c1.379 0 2.5 1.122 2.5 2.5S37.879 20 36.5 20zm-9-4c-.827 0-1.5.673-1.5 1.5s.673 1.5 1.5 1.5h9c.827 0 1.5-.673 1.5-1.5s-.673-1.5-1.5-1.5h-9zm-9.003 29h-6c-1.379 0-2.5-1.122-2.5-2.5s1.121-2.5 2.5-2.5h6c1.379 0 2.5 1.122 2.5 2.5s-1.121 2.5-2.5 2.5zm-6-4c-.827 0-1.5.673-1.5 1.5s.673 1.5 1.5 1.5h6c.827 0 1.5-.673 1.5-1.5s-.673-1.5-1.5-1.5h-6zm39 4h-6c-1.379 0-2.5-1.122-2.5-2.5s1.121-2.5 2.5-2.5h6c1.379 0 2.5 1.122 2.5 2.5s-1.121 2.5-2.5 2.5zm-6-4c-.827 0-1.5.673-1.5 1.5s.673 1.5 1.5 1.5h6c.827 0 1.5-.673 1.5-1.5s-.673-1.5-1.5-1.5h-6zM29.5 28h-10a.5.5 0 01-.5-.5v-4a.5.5 0 01.5-.5h10a.5.5 0 01.5.5v4a.5.5 0 01-.5.5zM20 27h9v-3h-9v3zm24.5 1h-10a.5.5 0 01-.5-.5v-4a.5.5 0 01.5-.5h10a.5.5 0 01.5.5v4a.5.5 0 01-.5.5zM35 27h9v-3h-9v3zm-5.5 9h-8a.5.5 0 01-.5-.5v-4a.5.5 0 01.5-.5h8a.5.5 0 01.5.5v4a.5.5 0 01-.5.5zM22 35h7v-3h-7v3zm21.5 1h-8a.5.5 0 01-.5-.5v-4a.5.5 0 01.5-.5h8a.5.5 0 01.5.5v4a.5.5 0 01-.5.5zM36 35h7v-3h-7v3z"/><path fill="#457abe" d="M56.5 48h-49a.5.5 0 01-.5-.5v-35a.5.5 0 01.5-.5h49a.5.5 0 01.5.5v35a.5.5 0 01-.5.5zM8 47h48V13H8v34zM31.5 6.5h1v3h-1z"/><path fill="#457abe" d="M32 7c-1.103 0-2-.897-2-2s.897-2 2-2 2 .897 2 2-.897 2-2 2zm0-3a1.001 1.001 0 000 2 1.001 1.001 0 000-2zM21.5 61h-4a.502.502 0 01-.488-.612l3-13A.502.502 0 0120.5 47h4a.502.502 0 01.488.612l-3 13A.502.502 0 0121.5 61zm-3.371-1h2.974l2.769-12h-2.974l-2.769 12zM46.5 61h-4a.5.5 0 01-.487-.388l-3-13A.502.502 0 0139.5 47h4a.5.5 0 01.487.388l3 13A.502.502 0 0146.5 61zm-3.603-1h2.974l-2.769-12h-2.974l2.769 12z"/><path fill="#457abe" d="M41.974 56H22.026l.922-4h18.104l.922 4zm-18.692-1h17.436l-.461-2H23.743l-.461 2zM15.48 37.008a.502.502 0 01-.354-.146l-3.008-3.008a.5.5 0 010-.707l3.008-3.008a.5.5 0 01.707 0l3.008 3.008a.5.5 0 010 .707l-3.008 3.008a.498.498 0 01-.353.146zm-2.3-3.508l2.301 2.301 2.301-2.301-2.301-2.301L13.18 33.5zm19.3 12.508a.502.502 0 01-.354-.146l-3.008-3.008a.5.5 0 010-.707l3.008-3.008a.5.5 0 01.707 0l3.008 3.008a.5.5 0 010 .707l-3.008 3.008a.498.498 0 01-.353.146zm-2.3-3.508l2.301 2.301 2.301-2.301-2.301-2.301L30.18 42.5zM32 22a.5.5 0 01-.5-.5v-2a.5.5 0 011 0v2a.5.5 0 01-.5.5z"/><path fill="#457abe" d="M39.5 24a.5.5 0 01-.5-.5V22H25v1.5a.5.5 0 01-1 0v-2a.5.5 0 01.5-.5h15a.5.5 0 01.5.5v2a.5.5 0 01-.5.5zm-24 7a.5.5 0 01-.5-.5v-5a.5.5 0 01.5-.5h4a.5.5 0 010 1H16v4.5a.5.5 0 01-.5.5zm16.98 8.992c-.234.01-.501-.225-.5-.501L31.998 34H29.5a.5.5 0 010-1h3a.499.499 0 01.5.501l-.02 5.992a.5.5 0 01-.5.499z"/><path fill="#457abe" d="M32.52 39.992a.5.5 0 01-.5-.499L32 33.501a.5.5 0 01.5-.501h3a.5.5 0 010 1h-2.498l.018 5.491a.5.5 0 01-.498.501h-.002zM15.5 41a.5.5 0 01-.5-.5v-3.992a.5.5 0 011 0V40.5a.5.5 0 01-.5.5zm24-9a.5.5 0 01-.5-.5v-3.992a.5.5 0 011 0V31.5a.5.5 0 01-.5.5zm-18 2h-3.012a.5.5 0 010-1H21.5a.5.5 0 010 1zm8 9h-9.012a.5.5 0 010-1H29.5a.5.5 0 010 1zm13.997 0h-8.009a.5.5 0 010-1h8.009a.5.5 0 010 1z"/><defs><path id="a" d="M-1235.486 289.422h675.5V422.11h-675.5z"/></defs></svg>