<svg xmlns="http://www.w3.org/2000/svg" viewBox="0 0 64 64"><path fill="#457abe" d="M32.727 37.719a.502.502 0 01-.249-.066l-6.227-3.568a.501.501 0 01.498-.868l5.978 3.426 21.252-12.17a.5.5 0 01.496.869l-21.5 12.312a.519.519 0 01-.248.065z"/><path fill="#457abe" d="M32.727 37.719a.502.502 0 01-.249-.066l-6.227-3.568a.501.501 0 01.498-.868l5.978 3.426 21.252-12.17a.5.5 0 01.496.869l-21.5 12.312a.519.519 0 01-.248.065z"/><path fill="#457abe" d="M9.225 44.04a.498.498 0 01-.434-.252.498.498 0 01.186-.682l17.275-9.894a.498.498 0 01.682.186.498.498 0 01-.186.682L9.473 43.974a.493.493 0 01-.248.066zm45.163-16.247a.502.502 0 01-.497-.565l.324-2.479-2.479-.324a.502.502 0 01-.432-.561.502.502 0 01.561-.431l2.975.388a.505.505 0 01.432.561l-.389 2.975a.5.5 0 01-.495.436zm-21.661 6.952a.496.496 0 01-.25-.067l-11.5-6.64a.5.5 0 01-.25-.433V14.326a.5.5 0 01.25-.433l11.5-6.64a.502.502 0 01.5 0l11.5 6.64a.5.5 0 01.25.433v13.279a.5.5 0 01-.25.433l-11.5 6.64a.499.499 0 01-.25.067zm-11-7.429l11 6.352 11-6.352V14.615l-11-6.351-11 6.351v12.701z"/><path fill="#457abe" d="M32.727 34.719a.5.5 0 01-.5-.5v-4.755a.5.5 0 011 0v4.755a.5.5 0 01-.5.5zm-5.475-16.353a.494.494 0 01-.25-.067l-5.994-3.46a.5.5 0 01.5-.866l5.994 3.46a.5.5 0 01-.25.933zm10.947-.121a.498.498 0 01-.25-.933l5.921-3.418a.5.5 0 01.5.866l-5.921 3.418a.504.504 0 01-.25.067zm-5.472 9.529a.5.5 0 01-.5-.5V14.68a.5.5 0 011 0v12.594a.5.5 0 01-.5.5z"/><path fill="#457abe" d="M33.586 21.203h-1.659c-1.344 0-2.437-1.085-2.437-2.418s1.093-2.418 2.437-2.418h3.523a.5.5 0 010 1h-3.523c-.792 0-1.437.636-1.437 1.418s.645 1.418 1.437 1.418h1.659a.5.5 0 010 1z"/><path fill="#457abe" d="M33.537 25.028H29.99a.5.5 0 010-1h3.547c.779 0 1.413-.634 1.413-1.413s-.634-1.412-1.413-1.412h-1.093a.5.5 0 010-1h1.093c1.331 0 2.413 1.082 2.413 2.412s-1.082 2.413-2.413 2.413zm-.81-11.786c-.827 0-1.5-.673-1.5-1.5s.673-1.5 1.5-1.5 1.5.673 1.5 1.5-.673 1.5-1.5 1.5zm0-2a.5.5 0 10.002 1.002.5.5 0 00-.002-1.002zm-8.503 16.001a1.5 1.5 0 11.753-2.799c.347.2.595.524.698.911.104.387.051.792-.15 1.139a1.485 1.485 0 01-1.301.749zm.004-2a.5.5 0 00-.251.933.499.499 0 10.501-.865.488.488 0 00-.25-.068zm17.001 1.999a1.503 1.503 0 01-1.302-.749 1.485 1.485 0 01-.15-1.138c.104-.387.353-.711.699-.911a1.487 1.487 0 011.139-.149 1.502 1.502 0 01.361 2.747c-.235.135-.493.2-.747.2zm-.003-2a.5.5 0 10.002 1 .5.5 0 00-.002-1z"/><circle cx="24.247" cy="22.742" r=".5" fill="#457abe"/><circle cx="24.247" cy="20.742" r=".5" fill="#457abe"/><circle cx="24.247" cy="18.742" r=".5" fill="#457abe"/><circle cx="41.247" cy="22.742" r=".5" fill="#457abe"/><circle cx="41.247" cy="20.742" r=".5" fill="#457abe"/><circle cx="41.247" cy="18.742" r=".5" fill="#457abe"/><circle cx="26.511" cy="14.875" fill="#457abe" transform="rotate(-29.939 26.51 14.874)" r=".5"/><circle cx="28.244" cy="13.877" fill="#457abe" transform="rotate(-29.939 28.244 13.876)" r=".5"/><circle cx="29.977" cy="12.878" fill="#457abe" transform="rotate(-29.939 29.977 12.878)" r=".5"/><circle cx="34.996" cy="29.606" fill="#457abe" transform="rotate(-29.939 34.995 29.605)" r=".5"/><circle cx="36.729" cy="28.608" fill="#457abe" transform="rotate(-29.939 36.728 28.607)" r=".5"/><circle cx="38.462" cy="27.61" fill="#457abe" transform="rotate(-29.939 38.462 27.609)" r=".5"/><circle cx="38.952" cy="14.875" fill="#457abe" transform="rotate(-60.061 38.95 14.874)" r=".5"/><circle cx="37.218" cy="13.877" fill="#457abe" transform="rotate(-60.061 37.216 13.876)" r=".5"/><circle cx="35.485" cy="12.878" fill="#457abe" transform="rotate(-60.061 35.483 12.878)" r=".5"/><circle cx="30.467" cy="29.606" fill="#457abe" transform="rotate(-60.061 30.465 29.605)" r=".5"/><circle cx="28.734" cy="28.608" fill="#457abe" transform="rotate(-60.061 28.732 28.606)" r=".5"/><circle cx="27.001" cy="27.61" fill="#457abe" transform="rotate(-60.061 26.999 27.608)" r=".5"/><path fill="#457abe" d="M40.678 56.813h-6a.5.5 0 01-.5-.5V39.102c0-.18.096-.345.252-.434l6-3.436a.5.5 0 01.748.434v20.647a.5.5 0 01-.5.5zm-5.5-1h5V36.528l-5 2.863v16.422zM51.678 56.813h-6a.5.5 0 01-.5-.5V32.802a.5.5 0 01.252-.434l6-3.436a.5.5 0 01.748.434v26.947a.5.5 0 01-.5.5zm-5.5-1h5V30.229l-5 2.863v22.721zM18.678 56.813h-6a.5.5 0 01-.5-.5v-11.75c0-.18.096-.345.252-.434l6-3.436a.5.5 0 01.748.434v15.187a.5.5 0 01-.5.499zm-5.5-1h5V41.989l-5 2.863v10.961zM29.678 56.813h-6a.5.5 0 01-.5-.5v-18.05c0-.18.096-.345.252-.434l2.822-1.616a.502.502 0 01.499.001l.047.03 3.129 1.794a.5.5 0 01.251.434v17.842a.5.5 0 01-.5.499zm-5.5-1h5V38.762l-2.682-1.537-2.318 1.328v17.26z"/><defs><path id="a" d="M-1235.486 7.422h675.5V140.11h-675.5z"/></defs></svg>