<svg width="44" height="453" viewBox="0 0 44 453" fill="none" xmlns="http://www.w3.org/2000/svg">
<circle cx="3.49609" cy="108.363" r="3" fill="#555555" fill-opacity="0.8"/>
<circle cx="3.49609" cy="90.9639" r="3" fill="#555555" fill-opacity="0.8"/>
<circle cx="3.49609" cy="73.5645" r="3" fill="#555555" fill-opacity="0.8"/>
<circle cx="3.49609" cy="56.1651" r="3" fill="#555555" fill-opacity="0.8"/>
<circle cx="3.49609" cy="38.7657" r="3" fill="#555555" fill-opacity="0.8"/>
<circle cx="3.49609" cy="21.3663" r="3" fill="#555555" fill-opacity="0.8"/>
<circle cx="3.49609" cy="3.96695" r="3" fill="#555555" fill-opacity="0.8"/>
<circle cx="3.49609" cy="128.43" r="3" fill="#555555" fill-opacity="0.8"/>
<circle cx="3.49609" cy="148.497" r="3" fill="#555555" fill-opacity="0.8"/>
<circle cx="3.49609" cy="168.564" r="3" fill="#555555" fill-opacity="0.8"/>
<circle cx="3.49609" cy="188.632" r="3" fill="#555555" fill-opacity="0.8"/>
<circle cx="3.49609" cy="208.699" r="3" fill="#555555" fill-opacity="0.8"/>
<circle cx="3.49609" cy="228.766" r="3" fill="#555555" fill-opacity="0.8"/>
<circle cx="3.49609" cy="248.833" r="3" fill="#555555" fill-opacity="0.8"/>
<circle cx="3.49609" cy="269.74" r="3" fill="#555555" fill-opacity="0.8"/>
<circle cx="3.49609" cy="288.967" r="3" fill="#555555" fill-opacity="0.8"/>
<circle cx="3.49609" cy="309.034" r="3" fill="#555555" fill-opacity="0.8"/>
<circle cx="3.49609" cy="329.101" r="3" fill="#555555" fill-opacity="0.8"/>
<circle cx="3.49609" cy="349.168" r="3" fill="#555555" fill-opacity="0.8"/>
<circle cx="3.49609" cy="369.235" r="3" fill="#555555" fill-opacity="0.8"/>
<circle cx="20.823" cy="108.363" r="3" fill="#555555" fill-opacity="0.8"/>
<circle cx="20.823" cy="90.9639" r="3" fill="#555555" fill-opacity="0.8"/>
<circle cx="20.823" cy="73.5645" r="3" fill="#555555" fill-opacity="0.8"/>
<circle cx="20.823" cy="56.1651" r="3" fill="#555555" fill-opacity="0.8"/>
<circle cx="20.823" cy="38.7657" r="3" fill="#555555" fill-opacity="0.8"/>
<circle cx="20.823" cy="21.3663" r="3" fill="#555555" fill-opacity="0.8"/>
<circle cx="20.823" cy="3.96695" r="3" fill="#555555" fill-opacity="0.8"/>
<circle cx="20.823" cy="128.43" r="3" fill="#555555" fill-opacity="0.8"/>
<circle cx="20.823" cy="148.497" r="3" fill="#555555" fill-opacity="0.8"/>
<circle cx="20.823" cy="168.564" r="3" fill="#555555" fill-opacity="0.8"/>
<circle cx="20.823" cy="188.632" r="3" fill="#555555" fill-opacity="0.8"/>
<circle cx="20.823" cy="208.259" r="3" fill="#555555" fill-opacity="0.8"/>
<circle cx="20.823" cy="228.766" r="3" fill="#555555" fill-opacity="0.8"/>
<circle cx="20.823" cy="248.833" r="3" fill="#555555" fill-opacity="0.8"/>
<circle cx="20.823" cy="268.9" r="3" fill="#555555" fill-opacity="0.8"/>
<circle cx="20.823" cy="288.967" r="3" fill="#555555" fill-opacity="0.8"/>
<circle cx="20.823" cy="309.034" r="3" fill="#555555" fill-opacity="0.8"/>
<circle cx="20.823" cy="329.101" r="3" fill="#555555" fill-opacity="0.8"/>
<circle cx="20.823" cy="349.168" r="3" fill="#555555" fill-opacity="0.8"/>
<circle cx="20.823" cy="368.369" r="3" fill="#555555" fill-opacity="0.8"/>
<circle cx="20.823" cy="389.302" r="3" fill="#555555" fill-opacity="0.8"/>
<circle cx="3.49609" cy="389.302" r="3" fill="#555555" fill-opacity="0.8"/>
<circle cx="20.823" cy="409.369" r="3" fill="#555555" fill-opacity="0.8"/>
<circle cx="3.49609" cy="409.369" r="3" fill="#555555" fill-opacity="0.8"/>
<circle cx="20.823" cy="429.436" r="3" fill="#555555" fill-opacity="0.8"/>
<circle cx="3.49609" cy="429.436" r="3" fill="#555555" fill-opacity="0.8"/>
<circle cx="20.823" cy="449.503" r="3" fill="#555555" fill-opacity="0.8"/>
<circle cx="3.49609" cy="449.503" r="3" fill="#555555" fill-opacity="0.8"/>
<circle cx="40.7158" cy="90.9639" r="3" fill="#555555" fill-opacity="0.8"/>
<circle cx="40.7158" cy="109.779" r="3" fill="#555555" fill-opacity="0.8"/>
<circle cx="40.7158" cy="73.5645" r="3" fill="#555555" fill-opacity="0.8"/>
<circle cx="40.7158" cy="56.1651" r="3" fill="#555555" fill-opacity="0.8"/>
<circle cx="40.7158" cy="38.7657" r="3" fill="#555555" fill-opacity="0.8"/>
<circle cx="40.7158" cy="21.3663" r="3" fill="#555555" fill-opacity="0.8"/>
<circle cx="40.7158" cy="3.96695" r="3" fill="#555555" fill-opacity="0.8"/>
<circle cx="40.7158" cy="128.43" r="3" fill="#555555" fill-opacity="0.8"/>
<circle cx="40.7158" cy="148.497" r="3" fill="#555555" fill-opacity="0.8"/>
<circle cx="40.7158" cy="168.564" r="3" fill="#555555" fill-opacity="0.8"/>
<circle cx="40.7158" cy="187.765" r="3" fill="#555555" fill-opacity="0.8"/>
<circle cx="40.7158" cy="208.699" r="3" fill="#555555" fill-opacity="0.8"/>
<circle cx="40.7158" cy="228.766" r="3" fill="#555555" fill-opacity="0.8"/>
<circle cx="40.7158" cy="248.833" r="3" fill="#555555" fill-opacity="0.8"/>
<circle cx="40.7158" cy="268.9" r="3" fill="#555555" fill-opacity="0.8"/>
<circle cx="40.7158" cy="288.967" r="3" fill="#555555" fill-opacity="0.8"/>
<circle cx="40.7158" cy="309.034" r="3" fill="#555555" fill-opacity="0.8"/>
<circle cx="40.7158" cy="329.101" r="3" fill="#555555" fill-opacity="0.8"/>
<circle cx="40.7158" cy="349.168" r="3" fill="#555555" fill-opacity="0.8"/>
<circle cx="40.7158" cy="369.235" r="3" fill="#555555" fill-opacity="0.8"/>
<circle cx="40.7158" cy="389.302" r="3" fill="#555555" fill-opacity="0.8"/>
<circle cx="40.7158" cy="409.369" r="3" fill="#555555" fill-opacity="0.8"/>
<circle cx="40.7158" cy="429.436" r="3" fill="#555555" fill-opacity="0.8"/>
<circle cx="40.7158" cy="449.503" r="3" fill="#555555" fill-opacity="0.8"/>
</svg>
