<svg width="94" height="132" viewBox="0 0 94 132" fill="none" xmlns="http://www.w3.org/2000/svg">
<circle cx="3.49609" cy="108.363" r="3" fill="#593A3A" fill-opacity="0.6"/>
<circle cx="55.4619" cy="108.363" r="3" fill="#593A3A" fill-opacity="0.6"/>
<circle cx="3.49609" cy="90.9639" r="3" fill="#593A3A" fill-opacity="0.6"/>
<circle cx="55.4619" cy="90.9639" r="3" fill="#593A3A" fill-opacity="0.6"/>
<circle cx="3.49609" cy="73.5645" r="3" fill="#593A3A" fill-opacity="0.6"/>
<circle cx="55.4619" cy="73.5645" r="3" fill="#593A3A" fill-opacity="0.6"/>
<circle cx="3.49609" cy="56.1651" r="3" fill="#593A3A" fill-opacity="0.6"/>
<circle cx="55.4619" cy="56.1651" r="3" fill="#593A3A" fill-opacity="0.6"/>
<circle cx="3.49609" cy="38.7657" r="3" fill="#593A3A" fill-opacity="0.6"/>
<circle cx="55.4619" cy="38.7657" r="3" fill="#593A3A" fill-opacity="0.6"/>
<circle cx="3.49609" cy="21.3663" r="3" fill="#593A3A" fill-opacity="0.6"/>
<circle cx="55.4619" cy="21.3663" r="3" fill="#593A3A" fill-opacity="0.6"/>
<circle cx="3.49609" cy="3.96695" r="3" fill="#593A3A" fill-opacity="0.6"/>
<circle cx="55.4619" cy="3.96695" r="3" fill="#593A3A" fill-opacity="0.6"/>
<circle cx="3.49609" cy="128.43" r="3" fill="#593A3A" fill-opacity="0.6"/>
<circle cx="55.4619" cy="128.43" r="3" fill="#593A3A" fill-opacity="0.6"/>
<circle cx="20.823" cy="108.363" r="3" fill="#593A3A" fill-opacity="0.6"/>
<circle cx="72.7888" cy="108.363" r="3" fill="#593A3A" fill-opacity="0.6"/>
<circle cx="20.823" cy="90.9639" r="3" fill="#593A3A" fill-opacity="0.6"/>
<circle cx="72.7888" cy="90.9639" r="3" fill="#593A3A" fill-opacity="0.6"/>
<circle cx="20.823" cy="73.5645" r="3" fill="#593A3A" fill-opacity="0.6"/>
<circle cx="72.7888" cy="73.5645" r="3" fill="#593A3A" fill-opacity="0.6"/>
<circle cx="20.823" cy="56.1651" r="3" fill="#593A3A" fill-opacity="0.6"/>
<circle cx="72.7888" cy="56.1651" r="3" fill="#593A3A" fill-opacity="0.6"/>
<circle cx="20.823" cy="38.7657" r="3" fill="#593A3A" fill-opacity="0.6"/>
<circle cx="72.7888" cy="38.7657" r="3" fill="#593A3A" fill-opacity="0.6"/>
<circle cx="20.823" cy="21.3663" r="3" fill="#593A3A" fill-opacity="0.6"/>
<circle cx="72.7888" cy="21.3663" r="3" fill="#593A3A" fill-opacity="0.6"/>
<circle cx="20.823" cy="3.96695" r="3" fill="#593A3A" fill-opacity="0.6"/>
<circle cx="72.7888" cy="3.96695" r="3" fill="#593A3A" fill-opacity="0.6"/>
<circle cx="20.823" cy="128.43" r="3" fill="#593A3A" fill-opacity="0.6"/>
<circle cx="72.7888" cy="128.43" r="3" fill="#593A3A" fill-opacity="0.6"/>
<circle cx="38.7158" cy="90.9639" r="3" fill="#593A3A" fill-opacity="0.6"/>
<circle cx="90.6816" cy="90.9639" r="3" fill="#593A3A" fill-opacity="0.6"/>
<circle cx="38.7158" cy="109.779" r="3" fill="#593A3A" fill-opacity="0.6"/>
<circle cx="90.6816" cy="109.779" r="3" fill="#593A3A" fill-opacity="0.6"/>
<circle cx="38.7158" cy="73.5645" r="3" fill="#593A3A" fill-opacity="0.6"/>
<circle cx="90.6816" cy="73.5645" r="3" fill="#593A3A" fill-opacity="0.6"/>
<circle cx="38.7158" cy="56.1651" r="3" fill="#593A3A" fill-opacity="0.6"/>
<circle cx="90.6816" cy="56.1651" r="3" fill="#593A3A" fill-opacity="0.6"/>
<circle cx="38.7158" cy="38.7657" r="3" fill="#593A3A" fill-opacity="0.6"/>
<circle cx="90.6816" cy="38.7657" r="3" fill="#593A3A" fill-opacity="0.6"/>
<circle cx="38.7158" cy="21.3663" r="3" fill="#593A3A" fill-opacity="0.6"/>
<circle cx="90.6816" cy="21.3663" r="3" fill="#593A3A" fill-opacity="0.6"/>
<circle cx="38.7158" cy="3.96695" r="3" fill="#593A3A" fill-opacity="0.6"/>
<circle cx="90.6816" cy="3.96695" r="3" fill="#593A3A" fill-opacity="0.6"/>
<circle cx="38.7158" cy="128.43" r="3" fill="#593A3A" fill-opacity="0.6"/>
<circle cx="90.6816" cy="128.43" r="3" fill="#593A3A" fill-opacity="0.6"/>
</svg>
