<svg width="289" height="50" viewBox="0 0 289 50" fill="none" xmlns="http://www.w3.org/2000/svg">
<path d="M24.9492 0L30.5507 17.2395L48.6774 17.2395L34.0126 27.8941L39.614 45.1336L24.9492 34.479L10.2844 45.1336L15.8859 27.8941L1.2211 17.2395L19.3478 17.2395L24.9492 0Z" fill="#FFB300"/>
<path d="M84.8274 0L90.4289 17.2395L108.556 17.2395L93.8908 27.8941L99.4922 45.1336L84.8274 34.479L70.1626 45.1336L75.7641 27.8941L61.0993 17.2395L79.226 17.2395L84.8274 0Z" fill="#FFB300"/>
<path d="M144.706 0L150.307 17.2395L168.434 17.2395L153.769 27.8941L159.37 45.1336L144.706 34.479L130.041 45.1336L135.642 27.8941L120.977 17.2395L139.104 17.2395L144.706 0Z" fill="#FFB300"/>
<path d="M204.584 0L210.185 17.2395L228.312 17.2395L213.647 27.8941L219.249 45.1336L204.584 34.479L189.919 45.1336L195.52 27.8941L180.856 17.2395L198.982 17.2395L204.584 0Z" fill="#FFB300"/>
<path d="M263.949 0L269.551 17.2395L287.677 17.2395L273.013 27.8941L278.614 45.1336L263.949 34.479L249.284 45.1336L254.886 27.8941L240.221 17.2395L258.348 17.2395L263.949 0Z" fill="#FFB300"/>
</svg>
