<svg height="512" viewBox="0 0 74 74" width="512" xmlns="http://www.w3.org/2000/svg"><g id="color_line" data-name="color line"><path d="m7.666 30.1v-17.881a2.96 2.96 0 0 1 2.958-2.958h17.157a2.982 2.982 0 0 1 2.593 1.528l3.668 6.646a2.945 2.945 0 0 0 2.583 1.518h27.54a2.954 2.954 0 0 1 2.958 2.958v8.189" fill="#f7be56"/><path d="m67.124 30.6a.5.5 0 0 1 -.5-.5v-8.188a2.461 2.461 0 0 0 -2.458-2.458h-27.541a3.438 3.438 0 0 1 -3.025-1.779l-3.667-6.645a2.473 2.473 0 0 0 -2.155-1.27h-17.154a2.461 2.461 0 0 0 -2.458 2.458v17.882a.5.5 0 1 1 -1 0v-17.881a3.462 3.462 0 0 1 3.458-3.458h17.157a3.475 3.475 0 0 1 3.03 1.785l3.669 6.648a2.438 2.438 0 0 0 2.146 1.26h27.54a3.462 3.462 0 0 1 3.458 3.458v8.188a.5.5 0 0 1 -.5.5z" fill="#323c6b"/><path d="m19.792 13.233h-.958a.65.65 0 0 1 0-1.3h.958a.65.65 0 0 1 0 1.3z" fill="#fff"/><path d="m10.665 17.275a.65.65 0 0 1 -.65-.65v-1.083a3.612 3.612 0 0 1 3.608-3.608h2.335a.65.65 0 1 1 0 1.3h-2.335a2.311 2.311 0 0 0 -2.308 2.309v1.083a.65.65 0 0 1 -.65.649z" fill="#fff"/><path d="m3.429 33.362 4.931 30.212a3.637 3.637 0 0 0 3.594 3.075h51.125a3.637 3.637 0 0 0 3.594-3.075l4.687-30.212a2.833 2.833 0 0 0 -2.8-3.271h-62.332a2.833 2.833 0 0 0 -2.799 3.271z" fill="#fcd462"/><path d="m71.36 33.367-4.69 30.21a3.625 3.625 0 0 1 -3.59 3.07h-51.13a3.633 3.633 0 0 1 -3.59-3.07l-.13-.78a3.726 3.726 0 0 0 1.06.16h51.12a3.652 3.652 0 0 0 3.6-3.08l4.61-29.79a2.841 2.841 0 0 1 2.74 3.28z" fill="#f7be56"/><path d="m11.394 23.288h52v6.807h-52z" fill="#eeefee"/><g fill="#323c6b"><path d="m63.395 30.6h-52a.5.5 0 0 1 -.5-.5v-6.811a.5.5 0 0 1 .5-.5h52a.5.5 0 0 1 .5.5v6.811a.5.5 0 0 1 -.5.5zm-51.5-1h51v-5.811h-51z"/><path d="m70.114 22.247a.5.5 0 0 1 -.5-.486 5.493 5.493 0 0 0 -5.45-5.307.5.5 0 0 1 0-1 6.5 6.5 0 0 1 6.45 6.279.5.5 0 0 1 -.486.514z"/><path d="m70.123 25.664a.5.5 0 0 1 -.5-.5v-1.084a.5.5 0 0 1 1 0v1.083a.5.5 0 0 1 -.5.501z"/><path d="m15.02 70.149h-.92a.5.5 0 1 1 0-1h.917a.5.5 0 0 1 0 1z"/><path d="m11.312 70.092a.411.411 0 0 1 -.048 0 7.11 7.11 0 0 1 -6.364-5.978l-.176-1.078a.5.5 0 1 1 .987-.161l.177 1.082a6.113 6.113 0 0 0 5.469 5.138.5.5 0 0 1 -.047 1z"/><path d="m63.079 67.149h-51.125a4.117 4.117 0 0 1 -4.088-3.5l-4.93-30.207a3.333 3.333 0 0 1 3.293-3.848h62.332a3.334 3.334 0 0 1 3.293 3.848l-4.687 30.209a4.117 4.117 0 0 1 -4.088 3.498zm-59.156-33.866 4.931 30.21a3.123 3.123 0 0 0 3.1 2.656h51.125a3.122 3.122 0 0 0 3.1-2.652l4.688-30.212a2.333 2.333 0 0 0 -2.305-2.694h-62.333a2.333 2.333 0 0 0 -2.306 2.692z"/></g></g></svg>