<svg height="512" viewBox="0 0 74 74" width="512" xmlns="http://www.w3.org/2000/svg"><g id="color_line" data-name="color line"><path d="m8.505 11.297h58.491v35.453h-58.491z" fill="#eeefee"/><path d="m4.333 3.856h66.833v7.441h-66.833z" fill="#9297ab"/><g fill="#323c6b"><path d="m39.43 40.75a.5.5 0 0 1 -.5-.5v-11.158a.5.5 0 0 1 1 0v11.158a.5.5 0 0 1 -.5.5z"/><path d="m45.491 40.75a.5.5 0 0 1 -.5-.5v-14.542a.5.5 0 0 1 1 0v14.542a.5.5 0 0 1 -.5.5z"/><path d="m51.553 40.75a.5.5 0 0 1 -.5-.5v-7.735a.5.5 0 0 1 1 0v7.735a.5.5 0 0 1 -.5.5z"/><path d="m57.615 40.75a.5.5 0 0 1 -.5-.5v-12.95a.5.5 0 0 1 1 0v12.95a.5.5 0 0 1 -.5.5z"/><path d="m51.067 26.208h-.044a.5.5 0 0 1 -.358-.2l-5.258-7.118-5.653 4.8a.5.5 0 1 1 -.647-.763l6.062-5.146a.5.5 0 0 1 .726.084l5.24 7.094 8.21-7.761a.5.5 0 0 1 .687.727l-8.622 8.146a.5.5 0 0 1 -.343.137z"/><path d="m59.031 22.952a.519.519 0 0 1 -.067 0 .5.5 0 0 1 -.429-.562l.573-4.266-4.409.447a.5.5 0 1 1 -.1-1l5.04-.511a.509.509 0 0 1 .41.15.5.5 0 0 1 .136.414l-.657 4.894a.5.5 0 0 1 -.497.434z"/></g><path d="m21.066 52.292h33.367v5.25h-33.367z" fill="#e7aa6c"/><path d="m54.434 58.042h-33.368a.5.5 0 0 1 -.5-.5v-5.25a.5.5 0 0 1 .5-.5h33.368a.5.5 0 0 1 .5.5v5.25a.5.5 0 0 1 -.5.5zm-32.867-1h32.367v-4.25h-32.368z" fill="#323c6b"/><path d="m25.623 57.542-4.664 12.158a2.687 2.687 0 0 0 5.018 1.925l5.4-14.083z" fill="#e7aa6c"/><path d="m23.456 73.848a3.147 3.147 0 0 1 -.873-.124 3.188 3.188 0 0 1 -2.09-4.2l4.664-12.158a.5.5 0 0 1 .467-.321h5.757a.5.5 0 0 1 .467.679l-5.404 14.076a3.211 3.211 0 0 1 -2.988 2.048zm2.511-15.806-4.541 11.837a2.187 2.187 0 0 0 1.435 2.884 2.2 2.2 0 0 0 2.65-1.318l5.141-13.4z" fill="#323c6b"/><path d="m49.877 57.542h-5.756l5.4 14.083a2.688 2.688 0 0 0 5.02-1.925z" fill="#e7aa6c"/><path d="m52.044 73.848a3.211 3.211 0 0 1 -2.988-2.048l-5.4-14.083a.5.5 0 0 1 .467-.679h5.757a.5.5 0 0 1 .467.321l4.664 12.158a3.188 3.188 0 0 1 -2.09 4.2 3.147 3.147 0 0 1 -.877.131zm-7.2-15.806 5.141 13.4a2.2 2.2 0 0 0 2.65 1.318 2.187 2.187 0 0 0 1.435-2.884l-4.536-11.834z" fill="#323c6b"/><path d="m30.77 33.157a9.036 9.036 0 1 1 -10.55-13.41l2.94 8.54z" fill="#27ccbc"/><path d="m23.16 37.827a9.535 9.535 0 0 1 -3.1-18.553.5.5 0 0 1 .634.311l2.884 8.375 7.463 4.776a.5.5 0 0 1 .151.691 9.506 9.506 0 0 1 -8.032 4.4zm-3.246-17.432a8.536 8.536 0 1 0 10.153 12.905l-7.176-4.593a.5.5 0 0 1 -.2-.258z" fill="#323c6b"/><path d="m32.2 28.287a9.019 9.019 0 0 1 -1.42 4.87h-.01l-7.61-4.87 8.64-2.65a8.949 8.949 0 0 1 .4 2.65z" fill="#fcd462"/><path d="m30.78 33.657a.533.533 0 0 1 -.28-.079l-7.61-4.87a.5.5 0 0 1 .123-.9l8.64-2.65a.5.5 0 0 1 .624.33 9.435 9.435 0 0 1 .423 2.8 9.535 9.535 0 0 1 -1.5 5.139.5.5 0 0 1 -.42.23zm-6.44-5.209 6.273 4.015a8.541 8.541 0 0 0 1.087-4.176 8.446 8.446 0 0 0 -.245-2.021z" fill="#323c6b"/><path d="m31.8 25.637-8.64 2.65-2.94-8.54a8.686 8.686 0 0 1 2.94-.5 9.035 9.035 0 0 1 8.64 6.39z" fill="#fe7058"/><path d="m23.16 28.787a.5.5 0 0 1 -.473-.337l-2.94-8.54a.5.5 0 0 1 .3-.633 9.189 9.189 0 0 1 3.109-.529 9.48 9.48 0 0 1 9.118 6.744.5.5 0 0 1 -.332.624l-8.64 2.65a.494.494 0 0 1 -.142.021zm-2.3-8.721 2.617 7.6 7.687-2.358a8.482 8.482 0 0 0 -8-5.562 8.276 8.276 0 0 0 -2.306.319z" fill="#323c6b"/><path d="m70 40.75a.5.5 0 0 1 -.5-.5v-10.05a.5.5 0 0 1 1 0v10.05a.5.5 0 0 1 -.5.5z" fill="#323c6b"/><path d="m70 28.2a.5.5 0 0 1 -.5-.5v-.969a.5.5 0 0 1 1 0v.969a.5.5 0 0 1 -.5.5z" fill="#323c6b"/><path d="m1.333 6.417a.5.5 0 0 1 -.5-.5v-5.062a.5.5 0 0 1 .5-.5h5.667a.5.5 0 0 1 0 1h-5.167v4.562a.5.5 0 0 1 -.5.5z" fill="#323c6b"/><path d="m11.375 1.355h-1.375a.5.5 0 0 1 0-1h1.375a.5.5 0 0 1 0 1z" fill="#323c6b"/><path d="m4.333 46.75h66.833v6.047h-66.833z" fill="#9297ab"/><path d="m71.17 3.857v7.44h-3v-4.47h-63.84v-2.97z" fill="#84879c"/><path d="m68.17 46.747h3v6.05h-3z" fill="#84879c"/><path d="m63.995 11.297h3v35.453h-3z" fill="#e1e6e9"/><path d="m71.167 11.8h-66.834a.5.5 0 0 1 -.5-.5v-7.445a.5.5 0 0 1 .5-.5h66.834a.5.5 0 0 1 .5.5v7.445a.5.5 0 0 1 -.5.5zm-66.333-1h65.833v-6.445h-65.834z" fill="#323c6b"/><path d="m71.167 53.3h-66.834a.5.5 0 0 1 -.5-.5v-6.05a.5.5 0 0 1 .5-.5h66.834a.5.5 0 0 1 .5.5v6.05a.5.5 0 0 1 -.5.5zm-66.333-1h65.833v-5.05h-65.834z" fill="#323c6b"/><path d="m67 47.25h-58.5a.5.5 0 0 1 -.5-.5v-35.45a.5.5 0 0 1 .5-.5h58.5a.5.5 0 0 1 .5.5v35.45a.5.5 0 0 1 -.5.5zm-58-1h57.5v-34.45h-57.5z" fill="#323c6b"/><path d="m48.292 8.879h-10.125a.65.65 0 1 1 0-1.3h10.125a.65.65 0 0 1 0 1.3z" fill="#fff"/><path d="m35.313 8.879h-.969a.65.65 0 0 1 0-1.3h.969a.65.65 0 1 1 0 1.3z" fill="#fff"/></g></svg>