<svg height="512" viewBox="0 0 74 74" width="512" xmlns="http://www.w3.org/2000/svg"><g id="color_line" data-name="color line"><path d="m56.9 35.763h11.7a3 3 0 0 1 2.98 2.993v18.88a2.988 2.988 0 0 1 -2.98 2.98h-1.4v6.173l-11.085-6.173h-16.722a2.991 2.991 0 0 1 -2.993-2.98v-6.36" fill="#fcd462"/><path d="m68.6 35.767h-11.7l-.4.3v2.357h9.67a3 3 0 0 1 2.98 3v18.88a1.1 1.1 0 0 1 -.02.26 2.994 2.994 0 0 0 2.45-2.93v-18.877a3 3 0 0 0 -2.98-2.99z" fill="#f7be56"/><path d="m53.989 64.116h-8.4a.5.5 0 0 1 0-1h8.4a.5.5 0 0 1 0 1z" fill="#323c6b"/><path d="m43.448 64.116h-.917a.5.5 0 0 1 0-1h.917a.5.5 0 0 1 0 1z" fill="#323c6b"/><path d="m56.9 18.13v28.631a4.524 4.524 0 0 1 -4.527 4.514h-25.355l-16.805 9.357v-9.356h-2.108a4.524 4.524 0 0 1 -4.527-4.514v-28.632a4.534 4.534 0 0 1 4.527-4.53h44.269a4.534 4.534 0 0 1 4.526 4.53z" fill="#89c5cd"/><path d="m56.9 18.127v28.63a4.512 4.512 0 0 1 -2.54 4.06 4.182 4.182 0 0 0 .13-1.07v-28.63a4.539 4.539 0 0 0 -4.53-4.53h-44.27a4.4 4.4 0 0 0 -1.98.46 4.538 4.538 0 0 1 4.4-3.44h44.26a4.53 4.53 0 0 1 4.53 4.52z" fill="#6eaaad"/><g fill="#323c6b"><path d="m48.867 23.281h-37.255a.5.5 0 0 1 0-1h37.255a.5.5 0 0 1 0 1z"/><path d="m48.867 32.945h-37.255a.5.5 0 0 1 0-1h37.255a.5.5 0 0 1 0 1z"/><path d="m48.867 42.61h-22.248a.5.5 0 0 1 0-1h22.248a.5.5 0 0 1 0 1z"/><path d="m1.164 15.735a.5.5 0 0 1 -.464-.693 8.009 8.009 0 0 1 7.4-4.939h.973a.5.5 0 0 1 0 1h-.968a7.011 7.011 0 0 0 -6.48 4.325.5.5 0 0 1 -.461.307z"/><path d="m12.516 11.1h-.771a.5.5 0 1 1 0-1h.771a.5.5 0 1 1 0 1z"/><path d="m10.212 61.132a.5.5 0 0 1 -.5-.5v-8.857h-1.612a5.026 5.026 0 0 1 -5.026-5.014v-28.631a5.032 5.032 0 0 1 5.026-5.03h44.27a5.032 5.032 0 0 1 5.03 5.03v28.631a5.026 5.026 0 0 1 -5.026 5.014h-25.226l-16.692 9.294a.5.5 0 0 1 -.244.063zm-2.112-47.032a4.031 4.031 0 0 0 -4.021 4.03v28.631a4.025 4.025 0 0 0 4.021 4.014h2.107a.5.5 0 0 1 .5.5v8.506l16.063-8.943a.5.5 0 0 1 .243-.063h25.362a4.025 4.025 0 0 0 4.025-4.014v-28.631a4.031 4.031 0 0 0 -4.025-4.03z"/><path d="m67.2 67.289a.5.5 0 0 1 -.243-.063l-10.973-6.11h-16.591a3.491 3.491 0 0 1 -3.493-3.48v-6.36a.5.5 0 1 1 1 0v6.36a2.49 2.49 0 0 0 2.493 2.48h16.722a.5.5 0 0 1 .243.063l10.342 5.759v-5.322a.5.5 0 0 1 .5-.5h1.4a2.483 2.483 0 0 0 2.48-2.48v-18.881a2.489 2.489 0 0 0 -2.48-2.493h-11.7a.5.5 0 0 1 0-1h11.7a3.491 3.491 0 0 1 3.48 3.493v18.88a3.485 3.485 0 0 1 -3.48 3.48h-.9v5.673a.5.5 0 0 1 -.5.5z"/></g><path d="m45.687 48.483h-9.937a.65.65 0 0 1 0-1.3h9.937a.65.65 0 1 1 0 1.3z" fill="#fff"/><path d="m33.014 48.483h-.914a.65.65 0 0 1 0-1.3h.917a.65.65 0 0 1 0 1.3z" fill="#fff"/></g></svg>