<svg height="512" viewBox="0 0 74 74" width="512" xmlns="http://www.w3.org/2000/svg"><g id="color_line" data-name="color line"><rect fill="#9297ab" height="68.869" rx="3.853" width="41.33" x="14.074" y="4.534"/><path d="m51.78 11.387v3.405h3.62v-6.405a3.845 3.845 0 0 0 -3.85-3.85h-33.62a3.843 3.843 0 0 0 -3.76 3.01.57.57 0 0 1 .13-.01h33.63a3.852 3.852 0 0 1 3.85 3.85z" fill="#84879c"/><path d="m51.78 60.167v12.38a3.41 3.41 0 0 1 -.1.85 3.839 3.839 0 0 0 3.72-3.85v-9.38z" fill="#84879c"/><path d="m14.074 15.192h41.33v44.621h-41.33z" fill="#89c5cd"/><path d="m29.881 10.568h-.981a.5.5 0 1 1 0-1h.984a.5.5 0 1 1 0 1z" fill="#323c6b"/><path d="m35.231 10.568h-.984a.5.5 0 1 1 0-1h.984a.5.5 0 1 1 0 1z" fill="#323c6b"/><path d="m40.581 10.568h-.981a.5.5 0 1 1 0-1h.983a.5.5 0 1 1 0 1z" fill="#323c6b"/><circle cx="34.739" cy="66.352" fill="#e1e6e9" r="2.419"/><g fill="#323c6b"><path d="m34.739 69.271a2.918 2.918 0 1 1 2.918-2.918 2.922 2.922 0 0 1 -2.918 2.918zm0-4.837a1.918 1.918 0 1 0 1.918 1.918 1.921 1.921 0 0 0 -1.918-1.918z"/><path d="m11.122 12.9a.5.5 0 0 1 -.5-.5v-.738a.5.5 0 0 1 1 0v.738a.5.5 0 0 1 -.5.5z"/><path d="m11.122 10.015a.5.5 0 0 1 -.5-.5v-1.128a7.333 7.333 0 0 1 5.814-7.15.5.5 0 1 1 .2.979 6.329 6.329 0 0 0 -5.018 6.171v1.128a.5.5 0 0 1 -.496.5z"/><path d="m58.355 59.146a.5.5 0 0 1 -.5-.5v-9.265a.5.5 0 0 1 1 0v9.265a.5.5 0 0 1 -.5.5z"/><path d="m58.355 62.558a.5.5 0 0 1 -.5-.5v-.922a.5.5 0 0 1 1 0v.922a.5.5 0 0 1 -.5.5z"/></g><circle cx="34.739" cy="37.503" fill="#eeefee" r="12.024"/><path d="m46.76 37.507a11.966 11.966 0 0 1 -4.77 9.58 12.023 12.023 0 0 0 -16.63-17.11 12.022 12.022 0 0 1 21.4 7.53z" fill="#e1e6e9"/><path d="m40.908 36.528-8.044-4.184a1.1 1.1 0 0 0 -1.607.975v8.369a1.1 1.1 0 0 0 1.607.975l8.044-4.184a1.1 1.1 0 0 0 0-1.951z" fill="#fe7058"/><path d="m32.356 43.289a1.6 1.6 0 0 1 -1.6-1.6v-8.371a1.6 1.6 0 0 1 2.344-1.418l8.044 4.185a1.6 1.6 0 0 1 0 2.837l-8.044 4.184a1.594 1.594 0 0 1 -.744.183zm0-10.571a.594.594 0 0 0 -.31.089.587.587 0 0 0 -.289.512v8.369a.6.6 0 0 0 .875.532l8.044-4.185a.6.6 0 0 0 0-1.063l-8.044-4.185a.6.6 0 0 0 -.276-.07z" fill="#323c6b"/><path d="m51.78 15.542h3.62v44.125h-3.62z" fill="#6eaaad"/><path d="m55.4 60.313h-41.326a.5.5 0 0 1 -.5-.5v-44.621a.5.5 0 0 1 .5-.5h41.326a.5.5 0 0 1 .5.5v44.621a.5.5 0 0 1 -.5.5zm-40.83-1h40.33v-43.621h-40.326z" fill="#323c6b"/><path d="m34.739 50.027a12.524 12.524 0 1 1 12.524-12.527 12.538 12.538 0 0 1 -12.524 12.527zm0-24.048a11.524 11.524 0 1 0 11.524 11.521 11.537 11.537 0 0 0 -11.524-11.521z" fill="#323c6b"/><path d="m51.551 73.9h-33.623a4.359 4.359 0 0 1 -4.354-4.354v-61.159a4.359 4.359 0 0 1 4.354-4.354h33.623a4.359 4.359 0 0 1 4.349 4.354v61.162a4.359 4.359 0 0 1 -4.349 4.351zm-33.623-68.866a3.357 3.357 0 0 0 -3.354 3.354v61.161a3.357 3.357 0 0 0 3.354 3.351h33.623a3.357 3.357 0 0 0 3.349-3.351v-61.162a3.357 3.357 0 0 0 -3.354-3.354z" fill="#323c6b"/><path d="m26.38 70.42h-1.08a.65.65 0 0 1 0-1.3h1.08a.65.65 0 1 1 0 1.3z" fill="#fff"/><path d="m22.375 70.42h-.822a4.508 4.508 0 0 1 -4.5-4.5v-2.42a.65.65 0 0 1 1.3 0v2.417a3.207 3.207 0 0 0 3.2 3.2h.822a.65.65 0 0 1 0 1.3z" fill="#fff"/></g></svg>