<svg height="512" viewBox="0 0 74 74" width="512" xmlns="http://www.w3.org/2000/svg"><g id="color_line" data-name="color line"><path d="m33.033 67.351v.115a4.7 4.7 0 1 0 9.395 0v-.115z" fill="#707583"/><path d="m37.73 72.664a5.2 5.2 0 0 1 -5.2-5.2v-.115a.5.5 0 0 1 .5-.5h9.395a.5.5 0 0 1 .5.5v.115a5.2 5.2 0 0 1 -5.195 5.2zm-4.18-4.812a4.2 4.2 0 0 0 8.359 0z" fill="#323c6b"/><path d="m46.885 57.071c.6-4.462 2.8-8.292 5.864-11.789a20.187 20.187 0 0 0 3.715-20.214 18.8 18.8 0 0 0 -11.226-11.49c-14.156-5.199-27.458 5.13-27.458 18.572a19.867 19.867 0 0 0 4.931 13.132c3.061 3.5 5.263 7.327 5.865 11.79z" fill="#fcd462"/><path d="m52.75 45.287c-3.06 3.49-5.26 7.32-5.86 11.78h-2.04a24.218 24.218 0 0 1 5.27-9.01 20.2 20.2 0 0 0 3.71-20.21 18.8 18.8 0 0 0 -11.23-11.49 20.2 20.2 0 0 0 -20.62 3.56 20.134 20.134 0 0 1 23.26-6.34 18.78 18.78 0 0 1 11.22 11.49 20.2 20.2 0 0 1 -3.71 20.22z" fill="#f7be56"/><g fill="#323c6b"><path d="m37.652 8.384a.5.5 0 0 1 -.5-.5v-4.1a.5.5 0 1 1 1 0v4.1a.5.5 0 0 1 -.5.5z"/><path d="m25.64 11.646a.5.5 0 0 1 -.433-.25l-2.048-3.548a.5.5 0 1 1 .865-.5l2.048 3.552a.5.5 0 0 1 -.433.75z"/><path d="m16.867 20.476a.5.5 0 0 1 -.25-.067l-3.547-2.049a.5.5 0 0 1 .5-.866l3.547 2.048a.5.5 0 0 1 -.25.933z"/><path d="m13.686 32.509h-4.1a.5.5 0 0 1 0-1h4.1a.5.5 0 1 1 0 1z"/><path d="m13.4 46.569a.5.5 0 0 1 -.25-.933l3.55-2.048a.5.5 0 0 1 .5.866l-3.552 2.046a.5.5 0 0 1 -.248.069z"/><path d="m49.822 11.646a.5.5 0 0 1 -.433-.75l2.048-3.547a.5.5 0 1 1 .865.5l-2.047 3.551a.5.5 0 0 1 -.433.246z"/><path d="m58.595 20.476a.5.5 0 0 1 -.25-.933l3.547-2.048a.5.5 0 0 1 .5.866l-3.547 2.048a.5.5 0 0 1 -.25.067z"/><path d="m65.872 32.509h-4.1a.5.5 0 0 1 0-1h4.1a.5.5 0 0 1 0 1z"/><path d="m62.063 46.569a.5.5 0 0 1 -.25-.067l-3.547-2.048a.5.5 0 0 1 .5-.866l3.547 2.048a.5.5 0 0 1 -.25.933z"/></g><path d="m42.04 57.571a.478.478 0 0 1 -.113-.013.5.5 0 0 1 -.374-.6l4.634-19.895-4.11 1.527a.507.507 0 0 1 -.433-.041l-3.914-2.364-3.913 2.364a.5.5 0 0 1 -.433.041l-4.11-1.527 4.635 19.895a.5.5 0 0 1 -.975.227l-4.846-20.8a.5.5 0 0 1 .157-.489.5.5 0 0 1 .5-.093l4.757 1.767 3.965-2.4a.5.5 0 0 1 .518 0l3.966 2.4 4.76-1.77a.5.5 0 0 1 .661.582l-4.845 20.8a.5.5 0 0 1 -.487.389z" fill="#f7be56"/><path d="m46.885 57.071v8.043c0 1.673-1.751 3.034-3.486 3.034h-11.961a2.858 2.858 0 0 1 -2.862-3.034v-8.043z" fill="#84879c"/><path d="m43.4 68.649h-11.962a3.338 3.338 0 0 1 -3.361-3.535v-8.043a.5.5 0 0 1 .5-.5h18.308a.5.5 0 0 1 .5.5v8.043a3.88 3.88 0 0 1 -3.985 3.535zm-14.324-11.078v7.543a2.346 2.346 0 0 0 2.361 2.535h11.963c1.409 0 2.985-1.084 2.985-2.535v-7.543z" fill="#323c6b"/><path d="m27.2 61.976a.5.5 0 0 1 -.05-1l20.907-2.143a.505.505 0 0 1 .548.447.5.5 0 0 1 -.446.548l-20.908 2.145z" fill="#323c6b"/><path d="m27.354 66.084a.5.5 0 0 1 -.05-1l20.753-2.124a.506.506 0 0 1 .548.447.5.5 0 0 1 -.446.548l-20.754 2.127z" fill="#323c6b"/><path d="m46.886 57.571h-18.31a.5.5 0 0 1 -.5-.433c-.533-3.948-2.413-7.719-5.746-11.528a20.445 20.445 0 0 1 3.7-30.232 20.841 20.841 0 0 1 19.38-2.268 19.411 19.411 0 0 1 11.526 11.8 20.761 20.761 0 0 1 -3.812 20.706c-3.333 3.807-5.211 7.577-5.744 11.526a.5.5 0 0 1 -.494.429zm-17.878-1h17.446c.634-3.991 2.573-7.8 5.919-11.618a19.771 19.771 0 0 0 3.618-19.721 18.4 18.4 0 0 0 -10.927-11.184 19.852 19.852 0 0 0 -18.457 2.152 19.446 19.446 0 0 0 -3.521 28.754c3.348 3.821 5.287 7.627 5.922 11.617z" fill="#323c6b"/><path d="m25.9 43.848a.65.65 0 0 1 -.491-.224l-.094-.108c-.123-.14-.236-.286-.35-.433l-.141-.179a.65.65 0 1 1 1.018-.81l.149.191c.1.126.2.252.3.372l.1.113a.65.65 0 0 1 -.491 1.076z" fill="#fff"/><path d="m23.483 40.234a.65.65 0 0 1 -.584-.366 16.489 16.489 0 0 1 -.925-12.059.65.65 0 0 1 1.242.383 15.191 15.191 0 0 0 -.673 4.472 15.04 15.04 0 0 0 1.524 6.636.651.651 0 0 1 -.584.935z" fill="#fff"/></g></svg>