<svg height="512" viewBox="0 0 74 74" width="512" xmlns="http://www.w3.org/2000/svg"><g id="color_line" data-name="color line"><path d="m71.125 40.851v-8.868l-8.848-2.339a26 26 0 0 0 -2.617-6.306l4.606-7.916-6.271-6.271-7.916 4.606a26 26 0 0 0 -6.306-2.617l-2.339-8.848h-8.868l-2.339 8.848a26 26 0 0 0 -6.306 2.617l-7.916-4.606-6.27 6.271 4.606 7.916a26 26 0 0 0 -2.617 6.306l-8.849 2.339v8.868l8.848 2.339a26 26 0 0 0 2.617 6.31l-4.605 7.911 6.271 6.271 7.916-4.606a26 26 0 0 0 6.306 2.617l2.339 8.848h8.868l2.339-8.848a26 26 0 0 0 6.306-2.617l7.916 4.606 6.271-6.271-4.607-7.911a26 26 0 0 0 2.617-6.306z" fill="#e1e6e9"/><path d="m40.14 63.487a25.847 25.847 0 0 0 3.47-1.2l-2.18 8.25h-3.15z" fill="#d5d6db"/><path d="m43.77 11.137a26.336 26.336 0 0 1 6.03 2.463l-3.35 1.95a25.921 25.921 0 0 0 -6.31-2.61l-2.34-8.853h-5.7l.47-1.79h8.86z" fill="#d5d6db"/><path d="m59.66 49.5 4.61 7.91-6.28 6.28-1.16-.68 3.8-3.8-4.6-7.92a25.764 25.764 0 0 0 2.61-6.31l3.38-.89a26.152 26.152 0 0 1 -2.36 5.41z" fill="#d5d6db"/><path d="m71.12 31.987v8.86l-3.63.96v-8.03l-8.85-2.34a25.763 25.763 0 0 0 -2.61-6.31l4.6-7.91-6.07-6.07 3.43-2 6.28 6.28-4.61 7.91a26.183 26.183 0 0 1 2.62 6.31z" fill="#d5d6db"/><path d="m36.958 74.042h-1.5a.5.5 0 0 1 0-1h1.5a.5.5 0 0 1 0 1z" fill="#323c6b"/><path d="m32.542 74.042h-2.285a.5.5 0 0 1 -.483-.372l-2.325-8.792a.5.5 0 1 1 .967-.256l2.227 8.419h1.9a.5.5 0 0 1 0 1z" fill="#323c6b"/><path d="m62.375 9.789a.5.5 0 0 1 -.354-.146l-3.621-3.621-3.775 2.2a.5.5 0 1 1 -.5-.864l4.108-2.391a.5.5 0 0 1 .605.079l3.892 3.892a.5.5 0 0 1 -.354.854z" fill="#323c6b"/><path d="m64.594 12.039a.5.5 0 0 1 -.354-.146l-.416-.416a.5.5 0 0 1 .707-.708l.416.416a.5.5 0 0 1 -.354.854z" fill="#323c6b"/><circle cx="37" cy="36.417" fill="#fff" r="16.875"/><path d="m37 53.792a17.375 17.375 0 1 1 17.375-17.375 17.394 17.394 0 0 1 -17.375 17.375zm0-33.75a16.375 16.375 0 1 0 16.375 16.375 16.393 16.393 0 0 0 -16.375-16.375z" fill="#323c6b"/><circle cx="37" cy="36.417" fill="#fff" r="16.875"/><g fill="#323c6b"><path d="m37 53.792a17.375 17.375 0 1 1 17.375-17.375 17.394 17.394 0 0 1 -17.375 17.375zm0-33.75a16.375 16.375 0 1 0 16.375 16.375 16.393 16.393 0 0 0 -16.375-16.375z"/><path d="m37 47.386a5.742 5.742 0 0 1 -5.735-5.735.5.5 0 0 1 1 0 4.735 4.735 0 1 0 4.735-4.734 5.735 5.735 0 1 1 5.735-5.735.5.5 0 1 1 -1 0 4.735 4.735 0 1 0 -4.735 4.735 5.735 5.735 0 1 1 0 11.47z"/><path d="m37 26.447a.5.5 0 0 1 -.5-.5v-1.647a.5.5 0 0 1 1 0v1.646a.5.5 0 0 1 -.5.501z"/><path d="m37 49.033a.5.5 0 0 1 -.5-.5v-1.647a.5.5 0 0 1 1 0v1.647a.5.5 0 0 1 -.5.5z"/><path d="m41.434 71.042h-8.868a.5.5 0 0 1 -.483-.372l-2.267-8.57a26.518 26.518 0 0 1 -5.894-2.446l-7.667 4.461a.5.5 0 0 1 -.6-.079l-6.274-6.271a.5.5 0 0 1 -.079-.6l4.461-7.667a26.488 26.488 0 0 1 -2.446-5.898l-8.57-2.265a.5.5 0 0 1 -.372-.483v-8.869a.5.5 0 0 1 .372-.483l8.57-2.266a26.517 26.517 0 0 1 2.445-5.894l-4.462-7.667a.5.5 0 0 1 .079-.6l6.272-6.273a.5.5 0 0 1 .6-.079l7.667 4.46a26.524 26.524 0 0 1 5.894-2.446l2.267-8.57a.5.5 0 0 1 .483-.372h8.867a.5.5 0 0 1 .483.372l2.267 8.57a26.524 26.524 0 0 1 5.894 2.446l7.667-4.46a.5.5 0 0 1 .6.079l6.271 6.271a.5.5 0 0 1 .079.6l-4.453 7.669a26.517 26.517 0 0 1 2.445 5.894l8.57 2.266a.5.5 0 0 1 .372.483v8.868a.5.5 0 0 1 -.372.483l-8.569 2.266a26.488 26.488 0 0 1 -2.445 5.894l4.462 7.666a.5.5 0 0 1 -.079.6l-6.271 6.271a.5.5 0 0 1 -.6.079l-7.667-4.461a26.518 26.518 0 0 1 -5.899 2.451l-2.267 8.57a.5.5 0 0 1 -.483.372zm-8.482-1h8.1l2.241-8.476a.5.5 0 0 1 .354-.355 25.555 25.555 0 0 0 6.185-2.567.5.5 0 0 1 .5 0l7.584 4.412 5.724-5.726-4.412-7.583a.5.5 0 0 1 0-.5 25.482 25.482 0 0 0 2.565-6.185.5.5 0 0 1 .355-.354l8.477-2.241v-8.1l-8.477-2.241a.5.5 0 0 1 -.355-.354 25.514 25.514 0 0 0 -2.565-6.185.5.5 0 0 1 0-.5l4.412-7.587-5.726-5.723-7.584 4.412a.5.5 0 0 1 -.5 0 25.556 25.556 0 0 0 -6.185-2.566.5.5 0 0 1 -.354-.355l-2.242-8.476h-8.1l-2.239 8.476a.5.5 0 0 1 -.354.355 25.556 25.556 0 0 0 -6.185 2.566.5.5 0 0 1 -.5 0l-7.585-4.412-5.726 5.723 4.412 7.583a.5.5 0 0 1 0 .5 25.514 25.514 0 0 0 -2.565 6.185.5.5 0 0 1 -.355.354l-8.477 2.246v8.1l8.477 2.241a.5.5 0 0 1 .355.354 25.482 25.482 0 0 0 2.565 6.185.5.5 0 0 1 0 .5l-4.412 7.582 5.726 5.726 7.584-4.412a.5.5 0 0 1 .5 0 25.555 25.555 0 0 0 6.185 2.567.5.5 0 0 1 .354.355z"/></g><path d="m17.229 41.4a.651.651 0 0 1 -.634-.508 20.708 20.708 0 0 1 1.05-12.35.65.65 0 0 1 1.205.49 19.49 19.49 0 0 0 -1.449 7.38 19.257 19.257 0 0 0 .464 4.2.65.65 0 0 1 -.636.792z" fill="#fff"/><path d="m20.012 26.067a.65.65 0 0 1 -.544-1c.145-.223.295-.441.448-.657a.65.65 0 1 1 1.059.755c-.144.2-.282.4-.417.61a.648.648 0 0 1 -.546.292z" fill="#fff"/></g></svg>