<svg height="512" viewBox="0 0 74 74" width="512" xmlns="http://www.w3.org/2000/svg"><g id="color_line" data-name="color line"><path d="m4.5 6.35h56.296v61.133h-56.296z" fill="#eeefee"/><path d="m60.8 6.347v61.14h-3.15v-57.97h-53.15v-3.17z" fill="#e1e6e9"/><path d="m60.796 35.874v31.609l11.704-31.609z" fill="#e1e6e9"/><path d="m60.8 67.983a.486.486 0 0 1 -.088-.008.5.5 0 0 1 -.412-.492v-31.609a.5.5 0 0 1 .5-.5h11.7a.5.5 0 0 1 .469.674l-11.7 31.609a.5.5 0 0 1 -.469.326zm.5-31.609v28.319l10.481-28.319z" fill="#323c6b"/><path d="m18.123 18.851q.946 1.362 1.869 2.8h.046q-.1-1.5-.1-3.061v-5.476h1.262v10.286h-1.254l-4.038-5.737q-1.046-1.5-1.869-2.8h-.046q.1 1.408.1 3.284v5.253h-1.253v-10.286h1.246z" fill="#323c6b"/><path d="m25.062 22.274h5.275v1.126h-6.529v-10.286h6.245v1.13h-4.991v3.323h4.438v1.133h-4.438z" fill="#323c6b"/><path d="m38.086 14.813q-.123.708-.575 2.477l-1.595 6.11h-1.272l-3.153-10.286h1.254l1.768 6.038q.423 1.453.721 2.615h.03q.152-.716.333-1.392t.317-1.208l1.561-6.053h1.254l1.553 6.053q.571 2.184.647 2.6h.031q.267-1.077.721-2.615l1.771-6.038h1.248l-3.151 10.286h-1.271l-1.589-6.11q-.435-1.707-.573-2.477z" fill="#323c6b"/><path d="m47.381 15.836a1.4 1.4 0 0 0 .184.75 1.513 1.513 0 0 0 .5.488 3.012 3.012 0 0 0 .721.315q.41.123.855.23.6.146 1.177.323a3.724 3.724 0 0 1 1.031.488 2.375 2.375 0 0 1 .732.812 2.61 2.61 0 0 1 .28 1.284 2.944 2.944 0 0 1 -.3 1.38 2.627 2.627 0 0 1 -.839.954 3.776 3.776 0 0 1 -1.266.554 6.678 6.678 0 0 1 -1.6.181 6.842 6.842 0 0 1 -.819-.05q-.419-.05-.8-.134a6.138 6.138 0 0 1 -.688-.192 2.626 2.626 0 0 1 -.491-.219v-1.142a4.812 4.812 0 0 0 .623.254 6.977 6.977 0 0 0 .715.2q.369.081.746.127a5.855 5.855 0 0 0 .708.046 5.519 5.519 0 0 0 1.026-.092 2.669 2.669 0 0 0 .857-.308 1.591 1.591 0 0 0 .585-.588 1.846 1.846 0 0 0 .216-.935 1.413 1.413 0 0 0 -.188-.761 1.559 1.559 0 0 0 -.5-.5 3.006 3.006 0 0 0 -.728-.319c-.273-.082-.562-.159-.865-.23q-.6-.138-1.173-.312a3.7 3.7 0 0 1 -1.022-.481 2.331 2.331 0 0 1 -.723-.792 2.5 2.5 0 0 1 -.273-1.238 2.951 2.951 0 0 1 .287-1.35 2.665 2.665 0 0 1 .776-.934 3.344 3.344 0 0 1 1.125-.545 5.082 5.082 0 0 1 1.361-.177 7.1 7.1 0 0 1 1.534.158 7.34 7.34 0 0 1 1.3.412v1.161a8.968 8.968 0 0 0 -1.319-.438 6.3 6.3 0 0 0 -1.457-.177 3.619 3.619 0 0 0 -1.016.127 1.993 1.993 0 0 0 -.715.361 1.445 1.445 0 0 0 -.424.569 1.932 1.932 0 0 0 -.133.74z" fill="#323c6b"/><path d="m11.532 29.994h15.385v12.41h-15.385z" fill="#27ccbc"/><g fill="#323c6b"><path d="m26.917 42.9h-15.385a.5.5 0 0 1 -.5-.5v-12.405a.5.5 0 0 1 .5-.5h15.385a.5.5 0 0 1 .5.5v12.405a.5.5 0 0 1 -.5.5zm-14.885-1h14.385v-11.405h-14.385z"/><path d="m53.29 30.495h-20.643a.5.5 0 0 1 0-1h20.643a.5.5 0 0 1 0 1z"/><path d="m53.29 36.7h-20.643a.5.5 0 0 1 0-1h20.643a.5.5 0 0 1 0 1z"/><path d="m53.29 42.9h-20.643a.5.5 0 0 1 0-1h20.643a.5.5 0 0 1 0 1z"/><path d="m53.29 49.109h-41.758a.5.5 0 1 1 0-1h41.758a.5.5 0 0 1 0 1z"/><path d="m53.29 55.314h-41.758a.5.5 0 0 1 0-1h41.758a.5.5 0 0 1 0 1z"/><path d="m53.29 61.52h-41.758a.5.5 0 1 1 0-1h41.758a.5.5 0 0 1 0 1z"/><path d="m63.8 23.667a.5.5 0 0 1 -.5-.5v-9.167a.5.5 0 0 1 1 0v9.167a.5.5 0 0 1 -.5.5z"/><path d="m63.8 27.083a.5.5 0 0 1 -.5-.5v-.833a.5.5 0 0 1 1 0v.833a.5.5 0 0 1 -.5.5z"/><path d="m10.563 70.983h-1.063a.5.5 0 0 1 0-1h1.063a.5.5 0 0 1 0 1z"/><path d="m6.875 70.983h-5.375a.5.5 0 0 1 -.5-.5v-5.66a.5.5 0 0 1 1 0v5.16h4.875a.5.5 0 0 1 0 1z"/><path d="m60.8 67.983h-56.3a.5.5 0 0 1 -.5-.5v-61.133a.5.5 0 0 1 .5-.5h56.3a.5.5 0 0 1 .5.5v61.133a.5.5 0 0 1 -.5.5zm-55.8-1h55.3v-60.133h-55.3z"/></g></g></svg>