<svg height="512" viewBox="0 0 74 74" width="512" xmlns="http://www.w3.org/2000/svg"><g id="color_line" data-name="color line"><rect fill="#89c5cd" height="55.016" rx="3.906" width="67.565" x="4.717" y="3.508"/><path d="m69.08 10.667v34.833h3.2v-38.083a3.907 3.907 0 0 0 -3.9-3.91h-59.76a3.889 3.889 0 0 0 -3.85 3.31 3.494 3.494 0 0 1 .65-.06h59.76a3.907 3.907 0 0 1 3.9 3.91z" fill="#6eaaad"/><path d="m4.717 45.624v9a3.9 3.9 0 0 0 3.9 3.9h59.764a3.9 3.9 0 0 0 3.9-3.9v-9z" fill="#9297ab"/><path d="m28.503 58.524h19.994v8.142h-19.994z" fill="#bbbbcd"/><path d="m45.65 58.527h2.85v8.14h-2.85z" fill="#9297ab"/><path d="m49.725 66.667h-22.45a5.119 5.119 0 0 0 -5.119 5.119v.375h32.688v-.375a5.119 5.119 0 0 0 -5.119-5.119z" fill="#9297ab"/><path d="m54.84 71.787v.37h-3.08v-.37a5.117 5.117 0 0 0 -5.12-5.12h3.08a5.117 5.117 0 0 1 5.12 5.12z" fill="#84879c"/><circle cx="38.5" cy="52.074" fill="#d5d6db" r="2.289"/><path d="m38.5 54.863a2.789 2.789 0 1 1 2.789-2.789 2.792 2.792 0 0 1 -2.789 2.789zm0-4.578a1.789 1.789 0 1 0 1.789 1.789 1.79 1.79 0 0 0 -1.789-1.789z" fill="#323c6b"/><path d="m35.862 19.079a8.8 8.8 0 0 0 -9.178 3.593 6.91 6.91 0 0 0 -1.027 2.585 7.521 7.521 0 0 1 6.451-.856" fill="#fe7058"/><path d="m25.658 25.757a.5.5 0 0 1 -.492-.588 7.366 7.366 0 0 1 1.1-2.772 9.3 9.3 0 0 1 9.734-3.797.5.5 0 0 1 -.268.964 8.255 8.255 0 0 0 -8.632 3.381 6.371 6.371 0 0 0 -.655 1.3 8.166 8.166 0 0 1 5.813-.322.5.5 0 0 1 -.3.953 7.064 7.064 0 0 0 -6.021.794.5.5 0 0 1 -.279.087z" fill="#323c6b"/><path d="m47.274 29.444a8.8 8.8 0 0 1 -2.7 9.48 6.91 6.91 0 0 1 -2.475 1.27 7.521 7.521 0 0 0 .233-6.5" fill="#fe7058"/><path d="m42.1 40.694a.5.5 0 0 1 -.44-.737 7.062 7.062 0 0 0 .213-6.07.5.5 0 1 1 .92-.392 8.169 8.169 0 0 1 .236 5.818 6.31 6.31 0 0 0 1.232-.778 8.253 8.253 0 0 0 2.543-8.911.5.5 0 1 1 .934-.359 9.3 9.3 0 0 1 -2.85 10.05 7.35 7.35 0 0 1 -2.654 1.361.487.487 0 0 1 -.134.018z" fill="#323c6b"/><path d="m36.587 36.171a4.955 4.955 0 0 1 -2.636 3.344l-.11.056a3.5 3.5 0 0 0 -1.928 3.17c-.059-.105-1.332-2.852-.64-3.957a3.744 3.744 0 0 1 -1.948.678c-1.814.131-2.763 3.188-2.8 3.283-.045-.114-1.295-4.021 1.336-5.44 0 0 1.1-.644.734-1.574-.619-1.029-2.868.386-2.936.434a10 10 0 0 1 2.5-4.646 4.937 4.937 0 0 1 1.589-1.064z" fill="#fcd462"/><path d="m31.91 43.237a.493.493 0 0 1 -.433-.252 9.1 9.1 0 0 1 -.907-3.273 4.33 4.33 0 0 1 -1.211.249c-1.025.074-1.886 1.552-2.349 2.91a.524.524 0 0 1 -.468.356.487.487 0 0 1 -.483-.3c-.017-.043-1.5-4.409 1.564-6.062.012-.008.709-.434.506-.951.01.03-.033-.018-.139-.042a3.993 3.993 0 0 0 -2.05.706.507.507 0 0 1 -.536.014.5.5 0 0 1 -.244-.474 10.415 10.415 0 0 1 2.646-4.952 5.4 5.4 0 0 1 1.751-1.172.5.5 0 0 1 .513.078l6.837 5.716a.5.5 0 0 1 .167.493 5.443 5.443 0 0 1 -2.9 3.682l-.118.06a3.005 3.005 0 0 0 -1.645 2.69.5.5 0 0 1 -.363.506.525.525 0 0 1 -.138.018zm-4.072-8.379a1.712 1.712 0 0 1 .35.034 1.245 1.245 0 0 1 .835.581 1.861 1.861 0 0 1 -.91 2.263 3.254 3.254 0 0 0 -1.4 3.324 3.528 3.528 0 0 1 2.575-2.1 3.254 3.254 0 0 0 1.708-.6.5.5 0 0 1 .7.683 2.894 2.894 0 0 0 .092 1.941 3.714 3.714 0 0 1 1.837-1.871l.325.4-.224-.447a4.453 4.453 0 0 0 2.3-2.716l-6.353-5.311a4.42 4.42 0 0 0 -1.155.829 9.3 9.3 0 0 0 -2.048 3.313 3.755 3.755 0 0 1 1.368-.323z" fill="#323c6b"/><path d="m34.609 34.518a2.068 2.068 0 0 1 -1.1 1.4l-.046.023a1.461 1.461 0 0 0 -.8 1.323c-.025-.044-.556-1.19-.267-1.651a1.562 1.562 0 0 1 -.813.283c-.757.055-1.153 1.33-1.169 1.37-.019-.048-.54-1.678.558-2.27 0 0 .459-.269.306-.657-.258-.43-1.2.161-1.226.181a4.173 4.173 0 0 1 1.045-1.939 2.06 2.06 0 0 1 .663-.444z" fill="#fe7058"/><g fill="#323c6b"><path d="m67 62.024h-8.187a.5.5 0 0 1 0-1h8.187a.5.5 0 0 1 0 1z"/><path d="m56.031 62.024h-.74a.5.5 0 0 1 0-1h.74a.5.5 0 0 1 0 1z"/><path d="m1.717 7.915a.5.5 0 0 1 -.5-.5 7.414 7.414 0 0 1 7.407-7.407h.293a.5.5 0 1 1 0 1h-.293a6.414 6.414 0 0 0 -6.407 6.407.5.5 0 0 1 -.5.5z"/><path d="m12.625 1.008h-1.083a.5.5 0 1 1 0-1h1.083a.5.5 0 1 1 0 1z"/></g><path d="m28.818 29.661 2.68-1.457 7.472 6.427-.982 2.861z" fill="#bbbbcd"/><path d="m37.988 37.992a.5.5 0 0 1 -.325-.12l-9.17-7.831a.5.5 0 0 1 .086-.82l2.681-1.457a.5.5 0 0 1 .565.061l7.475 6.427a.5.5 0 0 1 .147.541l-.982 2.86a.5.5 0 0 1 -.341.32.507.507 0 0 1 -.136.019zm-8.288-8.239 8.058 6.881.633-1.845-6.953-5.981z" fill="#323c6b"/><path d="m55.94 8.438a32.947 32.947 0 0 1 -1.12 7.44 9.07 9.07 0 0 1 -3.77-2.05 8.952 8.952 0 0 1 -2.41-3.56 33.065 33.065 0 0 1 7.3-1.83z" fill="#fe7058"/><path d="m54.82 16.378a.517.517 0 0 1 -.13-.017 9.555 9.555 0 0 1 -3.977-2.161 9.4 9.4 0 0 1 -2.543-3.759.5.5 0 0 1 .3-.64 33.258 33.258 0 0 1 7.42-1.86.516.516 0 0 1 .386.127.5.5 0 0 1 .164.372 33.153 33.153 0 0 1 -1.14 7.56.5.5 0 0 1 -.484.374zm-5.52-5.814a8.587 8.587 0 0 0 5.168 4.685 34.441 34.441 0 0 0 .956-6.237 34.5 34.5 0 0 0 -6.124 1.552z" fill="#323c6b"/><path d="m30.438 27.571a47.735 47.735 0 0 1 6.482-9.713 29.494 29.494 0 0 1 11.72-7.59 8.952 8.952 0 0 0 2.41 3.56 9.07 9.07 0 0 0 3.77 2.05 29.377 29.377 0 0 1 -6.44 12.39 45.554 45.554 0 0 1 -8.684 7.4z" fill="#eeefee"/><path d="m39.7 36.165a.5.5 0 0 1 -.329-.124l-9.259-8.094a.5.5 0 0 1 -.121-.595 47.908 47.908 0 0 1 6.562-9.83 30.241 30.241 0 0 1 11.916-7.722.5.5 0 0 1 .641.3 8.406 8.406 0 0 0 2.277 3.361 8.557 8.557 0 0 0 3.563 1.939.5.5 0 0 1 .35.6 30.14 30.14 0 0 1 -6.55 12.6 46.3 46.3 0 0 1 -8.794 7.487.5.5 0 0 1 -.256.078zm-8.64-8.717 8.69 7.6a46.116 46.116 0 0 0 8.263-7.111 28.92 28.92 0 0 0 6.2-11.714 9.583 9.583 0 0 1 -5.856-5.311 29.011 29.011 0 0 0 -11.067 7.283 47.756 47.756 0 0 0 -6.234 9.253z" fill="#323c6b"/><circle cx="46.748" cy="18.365" fill="#05afd6" r="2.594" transform="matrix(.672 -.74 .74 .672 1.722 40.621)"/><path d="m46.747 21.458a3.093 3.093 0 1 1 2.292-1.012 3.083 3.083 0 0 1 -2.292 1.012zm0-5.186a2.093 2.093 0 1 0 1.407.543 2.088 2.088 0 0 0 -1.406-.543z" fill="#323c6b"/><path d="m68.376 59.024h-59.752a4.411 4.411 0 0 1 -4.406-4.406v-47.203a4.411 4.411 0 0 1 4.406-4.407h59.752a4.411 4.411 0 0 1 4.406 4.406v47.2a4.411 4.411 0 0 1 -4.406 4.41zm-59.752-55.016a3.41 3.41 0 0 0 -3.407 3.407v47.2a3.41 3.41 0 0 0 3.406 3.406h59.753a3.41 3.41 0 0 0 3.406-3.406v-47.2a3.41 3.41 0 0 0 -3.406-3.406z" fill="#323c6b"/><path d="m69.08 46v11.867a4.052 4.052 0 0 1 -.05.6 3.9 3.9 0 0 0 3.25-3.85v-8.617z" fill="#84879c"/><path d="m68.381 59.024h-59.762a4.407 4.407 0 0 1 -4.4-4.4v-9a.5.5 0 0 1 .5-.5h67.564a.5.5 0 0 1 .5.5v9a4.407 4.407 0 0 1 -4.402 4.4zm-63.164-12.9v8.5a3.405 3.405 0 0 0 3.4 3.4h59.764a3.405 3.405 0 0 0 3.4-3.4v-8.5z" fill="#323c6b"/><path d="m54.844 72.66h-32.687a.5.5 0 0 1 -.5-.5v-.375a5.625 5.625 0 0 1 5.619-5.619h22.449a5.625 5.625 0 0 1 5.619 5.619v.375a.5.5 0 0 1 -.5.5zm-32.186-1h31.684a4.625 4.625 0 0 0 -4.618-4.494h-22.449a4.625 4.625 0 0 0 -4.617 4.494z" fill="#323c6b"/><path d="m48.5 67.167h-20a.5.5 0 0 1 -.5-.5v-8.143a.5.5 0 0 1 .5-.5h20a.5.5 0 0 1 .5.5v8.142a.5.5 0 0 1 -.5.501zm-19.5-1h19v-7.143h-19z" fill="#323c6b"/><path d="m15.221 43.137h-4.3a3.029 3.029 0 0 1 -3.021-3.026v-2.1a.65.65 0 0 1 1.3 0v2.1a1.728 1.728 0 0 0 1.726 1.726h4.3a.65.65 0 0 1 0 1.3z" fill="#fff"/><path d="m18.888 43.137h-.846a.65.65 0 1 1 0-1.3h.846a.65.65 0 1 1 0 1.3z" fill="#fff"/></g></svg>