<svg height="512" viewBox="0 0 74 74" width="512" xmlns="http://www.w3.org/2000/svg"><g id="color_line" data-name="color line"><path d="m48.425 38.075a21 21 0 1 0 -31.021 0" fill="#fcd462"/><path d="m53.92 23.927a20.86 20.86 0 0 1 -5.49 14.15h-.65a20.8 20.8 0 0 0 3.7-11.9 21.007 21.007 0 0 0 -33.91-16.577 20.993 20.993 0 0 1 36.35 14.33z" fill="#f7be56"/><path d="m38.136 38.763a15.7 15.7 0 1 0 -10.457 0" fill="#fcd462"/><path d="m38.136 39.263a.5.5 0 0 1 -.166-.972 15.2 15.2 0 1 0 -10.125 0 .5.5 0 1 1 -.333.943 16.215 16.215 0 1 1 10.79 0 .5.5 0 0 1 -.166.029z" fill="#323c6b"/><path d="m32.911 32.646a4.617 4.617 0 0 1 -4.611-4.611.5.5 0 0 1 1 0 3.611 3.611 0 1 0 3.611-3.611 4.611 4.611 0 1 1 4.611-4.611.5.5 0 0 1 -1 0 3.611 3.611 0 1 0 -3.611 3.611 4.611 4.611 0 1 1 0 9.222z" fill="#323c6b"/><path d="m32.911 16.2a.5.5 0 0 1 -.5-.5v-1.292a.5.5 0 0 1 1 0v1.292a.5.5 0 0 1 -.5.5z" fill="#323c6b"/><path d="m32.911 33.939a.5.5 0 0 1 -.5-.5v-1.293a.5.5 0 0 1 1 0v1.293a.5.5 0 0 1 -.5.5z" fill="#323c6b"/><path d="m11.585 13.479a.493.493 0 0 1 -.229-.056.5.5 0 0 1 -.216-.673l.1-.2c.1-.19.193-.379.3-.565a.5.5 0 0 1 .872.489c-.1.173-.187.351-.277.528l-.1.206a.5.5 0 0 1 -.45.271z" fill="#323c6b"/><path d="m13.09 10.917a.5.5 0 0 1 -.412-.782 24.878 24.878 0 0 1 7.4-7.066.5.5 0 1 1 .525.851 23.88 23.88 0 0 0 -7.1 6.78.5.5 0 0 1 -.413.217z" fill="#323c6b"/><path d="m48.425 38.575a.5.5 0 0 1 -.369-.837 20.5 20.5 0 1 0 -30.283 0 .5.5 0 0 1 -.737.675 21.5 21.5 0 1 1 31.758 0 .5.5 0 0 1 -.369.162z" fill="#323c6b"/><rect fill="#fcd462" height="16.424" rx="2.706" width="46.525" x="17.827" y="54.493"/><rect fill="#fcd462" height="16.424" rx="2.706" width="46.525" x="9.648" y="38.069"/><path d="m42.8 50.093a.5.5 0 0 1 -.5-.5v-6.624a.5.5 0 0 1 1 0v6.624a.5.5 0 0 1 -.5.5z" fill="#323c6b"/><path d="m29.615 50.093a.5.5 0 0 1 -.5-.5v-6.624a.5.5 0 0 1 1 0v6.624a.5.5 0 0 1 -.5.5z" fill="#323c6b"/><path d="m36.206 50.093a.5.5 0 0 1 -.5-.5v-6.624a.5.5 0 0 1 1 0v6.624a.5.5 0 0 1 -.5.5z" fill="#323c6b"/><path d="m23.024 50.093a.5.5 0 0 1 -.5-.5v-6.624a.5.5 0 0 1 1 0v6.624a.5.5 0 0 1 -.5.5z" fill="#323c6b"/><path d="m49.388 50.093a.5.5 0 0 1 -.5-.5v-6.624a.5.5 0 0 1 1 0v6.624a.5.5 0 0 1 -.5.5z" fill="#323c6b"/><path d="m16.433 50.093a.5.5 0 0 1 -.5-.5v-6.624a.5.5 0 0 1 1 0v6.624a.5.5 0 0 1 -.5.5z" fill="#323c6b"/><path d="m56.17 40.777v11.01a2.71 2.71 0 0 1 -2.7 2.71h-2.92a2.712 2.712 0 0 0 2.71-2.71v-11.01a2.706 2.706 0 0 0 -2.71-2.71h2.92a2.7 2.7 0 0 1 2.7 2.71z" fill="#f7be56"/><path d="m64.35 57.2v11.01a2.7 2.7 0 0 1 -2.7 2.71h-2.92a2.712 2.712 0 0 0 2.71-2.71v-11.01a2.71 2.71 0 0 0 -2.71-2.7h2.92a2.7 2.7 0 0 1 2.7 2.7z" fill="#f7be56"/><g fill="#323c6b"><path d="m50.976 66.517a.5.5 0 0 1 -.5-.5v-6.624a.5.5 0 0 1 1 0v6.624a.5.5 0 0 1 -.5.5z"/><path d="m37.794 66.517a.5.5 0 0 1 -.5-.5v-6.624a.5.5 0 0 1 1 0v6.624a.5.5 0 0 1 -.5.5z"/><path d="m44.385 66.517a.5.5 0 0 1 -.5-.5v-6.624a.5.5 0 0 1 1 0v6.624a.5.5 0 0 1 -.5.5z"/><path d="m31.2 66.517a.5.5 0 0 1 -.5-.5v-6.624a.5.5 0 0 1 1 0v6.624a.5.5 0 0 1 -.5.5z"/><path d="m57.567 66.517a.5.5 0 0 1 -.5-.5v-6.624a.5.5 0 0 1 1 0v6.624a.5.5 0 0 1 -.5.5z"/><path d="m24.612 66.517a.5.5 0 0 1 -.5-.5v-6.624a.5.5 0 0 1 1 0v6.624a.5.5 0 0 1 -.5.5z"/><path d="m62.916 74.269a.5.5 0 0 1 -.111-.987 5.244 5.244 0 0 0 4.047-5.071v-2.011a.5.5 0 0 1 1 0v2.01a6.173 6.173 0 0 1 -4.824 6.046.488.488 0 0 1 -.112.013z"/><path d="m67.352 64.423a.5.5 0 0 1 -.5-.5v-.812a.5.5 0 0 1 1 0v.813a.5.5 0 0 1 -.5.499z"/><path d="m53.467 54.993h-41.113a3.209 3.209 0 0 1 -3.206-3.206v-11.012a3.21 3.21 0 0 1 3.206-3.206h41.113a3.21 3.21 0 0 1 3.206 3.206v11.012a3.209 3.209 0 0 1 -3.206 3.206zm-41.113-16.424a2.209 2.209 0 0 0 -2.206 2.206v11.012a2.208 2.208 0 0 0 2.206 2.206h41.113a2.208 2.208 0 0 0 2.206-2.206v-11.012a2.209 2.209 0 0 0 -2.206-2.206z"/><path d="m61.646 71.417h-41.113a3.209 3.209 0 0 1 -3.206-3.206v-11.011a3.21 3.21 0 0 1 3.206-3.206h41.113a3.21 3.21 0 0 1 3.206 3.206v11.011a3.209 3.209 0 0 1 -3.206 3.206zm-41.113-16.424a2.209 2.209 0 0 0 -2.206 2.207v11.011a2.208 2.208 0 0 0 2.206 2.206h41.113a2.208 2.208 0 0 0 2.206-2.206v-11.011a2.209 2.209 0 0 0 -2.206-2.206z"/></g><path d="m31.031 41.261h-8.614a.65.65 0 1 1 0-1.3h8.615a.65.65 0 0 1 0 1.3z" fill="#fff"/><path d="m34.469 41.261h-.812a.65.65 0 0 1 0-1.3h.813a.65.65 0 0 1 0 1.3z" fill="#fff"/></g></svg>