<svg height="512" viewBox="0 0 74 74" width="512" xmlns="http://www.w3.org/2000/svg"><g id="color_line" data-name="color line"><path d="m36.2 57.21 3.338 6.436 5.439-8.037a4.475 4.475 0 0 0 .267-4.569l-2.112-4.073z" fill="#fe7058"/><path d="m44.98 55.607-5.44 8.04-3.34-6.44.02-.02 2.03 3.92 5.44-8.04a4.473 4.473 0 0 0 .49-4.067l1.07 2.04a4.489 4.489 0 0 1 -.27 4.567z" fill="#ea6453"/><path d="m39.54 64.146h-.03a.5.5 0 0 1 -.415-.269l-3.337-6.437a.5.5 0 0 1 .03-.51l6.932-10.242a.524.524 0 0 1 .443-.219.5.5 0 0 1 .415.269l2.112 4.073a4.971 4.971 0 0 1 -.3 5.079l-5.439 8.037a.5.5 0 0 1 -.411.219zm-2.757-6.9 2.817 5.424 4.968-7.341a3.972 3.972 0 0 0 .237-4.059l-1.725-3.327z" fill="#323c6b"/><path d="m46.072 42.625a10.64 10.64 0 0 0 11.217-2.6 9.105 9.105 0 1 0 5.466-16.925 10.677 10.677 0 0 0 -12.549-8.292 15.006 15.006 0 0 0 -28.506-.45 14.949 14.949 0 1 0 -4.574 29.4" fill="#89c5cd"/><path d="m68.9 37.987a8.986 8.986 0 0 0 .38-2.6 9.115 9.115 0 0 0 -8.24-9.07 10.694 10.694 0 0 0 -10.46-8.5 10.217 10.217 0 0 0 -2.09.21 15 15 0 0 0 -26.61-4.16 15.008 15.008 0 0 1 28.33.95 10.221 10.221 0 0 1 2.09-.21 10.694 10.694 0 0 1 10.46 8.5 9.1 9.1 0 0 1 6.14 14.88z" fill="#6eaaad"/><path d="m22.15 47.7-7.216-.706 5.439-8.037a4.475 4.475 0 0 1 4.142-1.946l4.566.447z" fill="#fe7058"/><path d="m22.15 48.2h-.049l-7.216-.706a.5.5 0 0 1 -.365-.778l5.439-8.037a4.96 4.96 0 0 1 4.605-2.163l4.566.447a.5.5 0 0 1 .365.778l-6.931 10.239a.5.5 0 0 1 -.414.22zm-6.33-1.622 6.083.6 6.294-9.3-3.729-.365a3.971 3.971 0 0 0 -3.68 1.729z" fill="#323c6b"/><path d="m29.39 60.814a5.228 5.228 0 0 1 -.849 3.62c-1.919 2.836-11.506 5.941-11.506 5.941s-.681-10.054 1.238-12.89a5.228 5.228 0 0 1 3.045-2.134z" fill="#fcd462"/><path d="m28.54 64.437c-1.92 2.83-11.51 5.94-11.51 5.94s-.07-1.04-.1-2.54c2.54-.9 8.92-3.33 10.45-5.59a4.8 4.8 0 0 0 .84-2.22l1.17.79a5.232 5.232 0 0 1 -.85 3.62z" fill="#f7be56"/><path d="m29.38 11.043a.65.65 0 0 1 -.38-1.174q.386-.282.792-.532a.65.65 0 1 1 .681 1.107q-.361.222-.7.473a.647.647 0 0 1 -.393.126z" fill="#fff"/><path d="m42.184 10.917a.644.644 0 0 1 -.373-.118 10.4 10.4 0 0 0 -8.894-1.45.65.65 0 0 1 -.373-1.249 11.707 11.707 0 0 1 10.014 1.635.65.65 0 0 1 -.374 1.182z" fill="#fff"/><path d="m64.588 19.792a.5.5 0 0 1 -.45-.281c-.045-.092-.095-.182-.145-.272l-.081-.149a.5.5 0 0 1 .882-.472l.076.138c.057.1.114.208.167.316a.5.5 0 0 1 -.23.668.493.493 0 0 1 -.219.052z" fill="#323c6b"/><path d="m73.406 28.917a.5.5 0 0 1 -.476-.347 11.559 11.559 0 0 0 -6.14-6.913.5.5 0 1 1 .42-.907 12.56 12.56 0 0 1 6.672 7.514.5.5 0 0 1 -.323.629.507.507 0 0 1 -.153.024z" fill="#323c6b"/><path d="m44.247 62.542a.5.5 0 0 1 -.414-.78l.423-.625a.5.5 0 0 1 .828.561l-.423.625a.5.5 0 0 1 -.414.219z" fill="#323c6b"/><path d="m39.2 70h-.029a.5.5 0 0 1 -.415-.269l-2.087-4.025a.5.5 0 1 1 .888-.46l1.7 3.279 3.1-4.579a.5.5 0 0 1 .828.561l-3.57 5.275a.5.5 0 0 1 -.415.218z" fill="#323c6b"/><path d="m52.132 29.057v.01c-.332.031-.673.052-1.015.052a8.88 8.88 0 0 1 -8.569-6.538 26.588 26.588 0 0 1 8.569-2.342 26.827 26.827 0 0 1 1.015 8.818z" fill="#fe7058"/><path d="m52.132 29.067a19.713 19.713 0 0 1 -3.191 10.071l-14.723 21.762-14.568-9.857 14.733-21.758a19.64 19.64 0 0 1 8.165-6.7 8.88 8.88 0 0 0 8.569 6.538c.341-.004.683-.023 1.015-.056z" fill="#eeefee"/><path d="m52.13 29.057v.01c-.33.03-.67.05-1.01.05a7.961 7.961 0 0 1 -1.47-.13c.05-.44.09-.87.11-1.3v-.02a27.742 27.742 0 0 0 -.59-7.17 17.335 17.335 0 0 1 1.95-.26 26.918 26.918 0 0 1 1.01 8.82z" fill="#ea6453"/><path d="m52.13 29.067a19.615 19.615 0 0 1 -3.19 10.07l-14.72 21.763-2.28-1.54 14.63-21.6a19.327 19.327 0 0 0 3.08-8.77 7.961 7.961 0 0 0 1.47.13c.34-.003.68-.02 1.01-.053z" fill="#e1e6e9"/><circle cx="41.745" cy="34.087" fill="#05afd6" r="3.912" transform="matrix(.56 -.828 .828 .56 -9.882 49.553)"/><g fill="#323c6b"><path d="m41.735 38.5a4.425 4.425 0 1 1 .844-.081 4.379 4.379 0 0 1 -.844.081zm.017-7.825a3.482 3.482 0 0 0 -.653.063 3.4 3.4 0 1 0 .653-.062z"/><path d="m29.9 51.89a.5.5 0 0 1 -.414-.78l4.852-7.169a.5.5 0 1 1 .828.561l-4.855 7.168a.5.5 0 0 1 -.411.22z"/><path d="m25.477 50.474a.5.5 0 0 1 -.414-.78l4.852-7.169a.5.5 0 1 1 .828.561l-4.852 7.169a.5.5 0 0 1 -.414.219z"/><path d="m32.854 55.466a.5.5 0 0 1 -.414-.78l4.852-7.169a.5.5 0 0 1 .828.561l-4.852 7.169a.5.5 0 0 1 -.414.219z"/><path d="m17.127 44.256h-.027a15.455 15.455 0 1 1 4.284-30.489 15.506 15.506 0 0 1 29.163.479 11.171 11.171 0 0 1 12.619 8.4 9.608 9.608 0 1 1 -5.791 18 11.143 11.143 0 0 1 -11.036 2.6.5.5 0 1 1 .3-.954 10.145 10.145 0 0 0 10.295-2.612.5.5 0 0 1 .611-.082 8.606 8.606 0 1 0 5.163-15.998.5.5 0 0 1 -.443-.4 10.177 10.177 0 0 0 -11.965-7.9.5.5 0 0 1 -.575-.342 14.506 14.506 0 0 0 -27.556-.439.492.492 0 0 1 -.6.32 14.45 14.45 0 1 0 -4.421 28.415.5.5 0 0 1 -.027 1z"/><path d="m51.117 29.619a9.394 9.394 0 0 1 -9.051-6.906.5.5 0 0 1 .271-.584 26.856 26.856 0 0 1 8.748-2.388.5.5 0 0 1 .507.344 27.075 27.075 0 0 1 1.04 8.986.5.5 0 0 1 -.453.495c-.347.034-.705.053-1.062.053zm-7.965-6.763a8.4 8.4 0 0 0 7.965 5.763c.179 0 .357-.006.535-.016a27.119 27.119 0 0 0 -.9-7.827 26.94 26.94 0 0 0 -7.6 2.08z"/><path d="m34.217 61.4a.5.5 0 0 1 -.28-.086l-14.567-9.856a.5.5 0 0 1 -.134-.694l14.733-21.764a19.994 19.994 0 0 1 8.369-6.877.5.5 0 0 1 .692.322 8.392 8.392 0 0 0 8.086 6.169c.326 0 .652-.02.968-.049a.482.482 0 0 1 .394.137.5.5 0 0 1 .152.388 20.1 20.1 0 0 1 -3.276 10.323l-14.722 21.764a.5.5 0 0 1 -.415.223zm-13.873-10.49 13.74 9.29 14.443-21.342a18.89 18.89 0 0 0 3.068-9.25c-.159.007-.318.012-.478.012a9.4 9.4 0 0 1 -8.877-6.337 18.8 18.8 0 0 0 -7.44 6.282z"/><path d="m17.035 70.875a.5.5 0 0 1 -.5-.466c-.028-.417-.67-10.26 1.323-13.2a5.777 5.777 0 0 1 3.306-2.33.5.5 0 0 1 .433.062l8.073 5.459a.5.5 0 0 1 .219.379 5.779 5.779 0 0 1 -.934 3.935c-1.992 2.944-11.368 6.007-11.766 6.136a.5.5 0 0 1 -.154.025zm4.206-14.975a4.58 4.58 0 0 0 -2.555 1.862c-1.386 2.057-1.352 8.788-1.186 11.932 2.979-1.019 9.242-3.487 10.631-5.54a4.579 4.579 0 0 0 .779-3.064z"/></g><path d="m31.726 62.863-13.153-8.945 2.469-1.935 11.59 7.844z" fill="#bbbbcd"/><path d="m31.727 63.363a.5.5 0 0 1 -.281-.086l-13.154-8.945a.5.5 0 0 1 -.027-.807l2.469-1.936a.5.5 0 0 1 .589-.021l11.59 7.844a.5.5 0 0 1 .2.557l-.906 3.036a.5.5 0 0 1 -.312.328.505.505 0 0 1 -.168.03zm-12.307-9.474 12.023 8.176.605-2.03-10.985-7.435z" fill="#323c6b"/></g></svg>