<svg height="512" viewBox="0 0 74 74" width="512" xmlns="http://www.w3.org/2000/svg"><g id="color_line" data-name="color line"><path d="m17.224 62.482 19.676 6.938a7.95 7.95 0 0 0 7.874-1.51l25.226-22.042a3.587 3.587 0 0 0 -4.458-5.54l-22.361 11.272-14.927-2.567 11.931-.842a3.369 3.369 0 0 0 -.258-6.7l-11.519-.618-3.221-1.473a17.73 17.73 0 0 0 -7.963-1.623z" fill="#fcd462"/><path d="m70 45.867-25.23 22.04a7.923 7.923 0 0 1 -7.87 1.51l-19.68-6.93v-2.087l17.93 6.32a7.947 7.947 0 0 0 7.87-1.51l25.23-22.04a3.552 3.552 0 0 0 .97-2.87 3.275 3.275 0 0 1 .78.62 3.569 3.569 0 0 1 0 4.947z" fill="#f7be56"/><rect fill="#27ccbc" height="32.1" rx="2.079" width="14.228" x="3" y="35.066"/><path d="m17.23 61.675v3.12a2.078 2.078 0 0 1 -2.08 2.08h-10.07a2.078 2.078 0 0 1 -2.08-2.08v-3.12a2.076 2.076 0 0 0 2.08 2.07h10.07a2.076 2.076 0 0 0 2.08-2.07z" fill="#21b3a9"/><circle cx="10.114" cy="60.211" fill="#e1e6e9" r="2.294"/><path d="m10.114 63.005a2.794 2.794 0 1 1 2.794-2.794 2.8 2.8 0 0 1 -2.794 2.794zm0-4.589a1.794 1.794 0 1 0 1.794 1.794 1.8 1.8 0 0 0 -1.794-1.793z" fill="#323c6b"/><path d="m56.932 31.893v4.774a2.268 2.268 0 0 1 -2.313 1.933h-7.619a1.9 1.9 0 0 1 -1.916-1.933v-4.774" fill="#84879c"/><path d="m54.619 39.1h-7.619a2.4 2.4 0 0 1 -2.416-2.433v-4.774a.5.5 0 0 1 1 0v4.774a1.393 1.393 0 0 0 1.416 1.433h7.618c.816 0 1.813-.661 1.813-1.433v-4.774a.5.5 0 0 1 1 0v4.774a2.759 2.759 0 0 1 -2.812 2.433z" fill="#323c6b"/><path d="m45.085 31.893h11.847a14.155 14.155 0 0 1 3.642-6.867 12.707 12.707 0 1 0 -19.132 0 14.162 14.162 0 0 1 3.643 6.867z" fill="#eeefee"/><path d="m50.21 6.207a12.626 12.626 0 0 1 11.5 12.32 12.447 12.447 0 0 1 -2.792 8.64 20.787 20.787 0 0 1 1.652-2.14 12.706 12.706 0 1 0 -19.91-15.74 12.668 12.668 0 0 1 9.55-3.08z" fill="#e1e6e9"/><path d="m48.2 38.6v.069a2.808 2.808 0 1 0 5.617 0v-.069z" fill="#bbbbcd"/><g fill="#323c6b"><path d="m51.008 41.979a3.312 3.312 0 0 1 -3.308-3.308.563.563 0 0 1 .5-.569h5.617a.5.5 0 0 1 .5.5 3.328 3.328 0 0 1 -3.309 3.377zm-2.268-2.879a2.309 2.309 0 0 0 4.536 0z"/><path d="m48.266 20.62a.5.5 0 0 1 -.354-.146l-2.612-2.613a.5.5 0 0 1 .707-.707l2.258 2.258 7.321-7.322a.5.5 0 0 1 .707.707l-7.673 7.676a.5.5 0 0 1 -.354.147z"/><path d="m47.82 69.729a.5.5 0 0 1 -.329-.876l.493-.43a.5.5 0 0 1 .657.753l-.493.43a.5.5 0 0 1 -.328.123z"/><path d="m39.539 73.373a11.437 11.437 0 0 1 -3.809-.652.5.5 0 0 1 .333-.943 10.524 10.524 0 0 0 9.1-1.062.5.5 0 1 1 .539.842 11.422 11.422 0 0 1 -6.163 1.815z"/><path d="m59 3.639a.5.5 0 0 1 -.254-.07c-.151-.089-.309-.167-.466-.247l-.26-.131a.5.5 0 0 1 .462-.887l.244.124c.179.089.358.179.53.281a.5.5 0 0 1 -.255.93z"/><path d="m66.039 12.625a.5.5 0 0 1 -.479-.356 15.2 15.2 0 0 0 -4.6-7.1.5.5 0 1 1 .655-.755 16.191 16.191 0 0 1 4.905 7.567.5.5 0 0 1 -.335.623.509.509 0 0 1 -.146.021z"/><path d="m56.932 34.625h-11.848a.5.5 0 0 1 0-1h11.848a.5.5 0 0 1 0 1z"/><path d="m56.932 36.875h-11.848a.5.5 0 0 1 0-1h11.848a.5.5 0 0 1 0 1z"/><path d="m56.932 32.393h-11.848a.5.5 0 0 1 -.492-.411 13.538 13.538 0 0 0 -3.526-6.627 13.207 13.207 0 1 1 19.884 0 13.538 13.538 0 0 0 -3.526 6.627.5.5 0 0 1 -.492.411zm-11.437-1h11.026a14.76 14.76 0 0 1 3.679-6.693 12.207 12.207 0 1 0 -18.379 0 14.758 14.758 0 0 1 3.679 6.693z"/><path d="m39.534 70.372a8.435 8.435 0 0 1 -2.805-.479l-19.671-6.939a.5.5 0 0 1 -.333-.472v-24.7a.5.5 0 0 1 .481-.5 18.238 18.238 0 0 1 8.188 1.667l3.136 1.43 11.425.613a3.869 3.869 0 0 1 .3 7.695l-7.843.554 10.688 1.841 22.218-11.2a4.086 4.086 0 0 1 5.046 6.33l-25.264 22.075a8.462 8.462 0 0 1 -5.566 2.085zm-21.81-8.244 19.337 6.821a7.454 7.454 0 0 0 7.379-1.415l25.235-22.042a3.088 3.088 0 0 0 -3.87-4.737l-22.4 11.293a.49.49 0 0 1 -.31.046l-14.926-2.568a.5.5 0 0 1 .05-.991l11.931-.841a2.869 2.869 0 0 0 -.251-5.7l-11.517-.618a.5.5 0 0 1 -.181-.044l-3.221-1.469a17.353 17.353 0 0 0 -7.255-1.59z"/></g><path d="m52.9 50.833a.65.65 0 0 1 -.293-1.23l.683-.344a.65.65 0 0 1 .585 1.161l-.683.344a.646.646 0 0 1 -.292.069z" fill="#fff"/><path d="m56 49.273a.65.65 0 0 1 -.293-1.23l8-4.035a.65.65 0 0 1 .585 1.161l-8 4.035a.645.645 0 0 1 -.292.069z" fill="#fff"/><path d="m15.149 67.666h-10.07a2.582 2.582 0 0 1 -2.579-2.579v-27.941a2.582 2.582 0 0 1 2.579-2.579h10.07a2.582 2.582 0 0 1 2.58 2.579v27.941a2.582 2.582 0 0 1 -2.58 2.579zm-10.07-32.1a1.581 1.581 0 0 0 -1.579 1.58v27.941a1.581 1.581 0 0 0 1.579 1.579h10.07a1.581 1.581 0 0 0 1.58-1.579v-27.941a1.581 1.581 0 0 0 -1.58-1.579z" fill="#323c6b"/></g></svg>