<svg height="512" viewBox="0 0 74 74" width="512" xmlns="http://www.w3.org/2000/svg"><g id="color_line" data-name="color line"><path d="m51.568 42.228 18.676 15.2a7.428 7.428 0 1 1 -10.272 10.659l-15.88-18.1" fill="#9297ab"/><path d="m70.91 68.347a7.306 7.306 0 0 1 -3.55 2.05 5.675 5.675 0 0 0 .57-.53 7.424 7.424 0 0 0 -.66-10.92l-17.83-14.51 2.13-2.21 18.67 15.2a7.425 7.425 0 0 1 .67 10.92z" fill="#84879c"/><g fill="#323c6b"><path d="m46.8 5.249a.5.5 0 0 1 -.3-.1c-.234-.175-.477-.337-.719-.5l-.326-.22a.5.5 0 0 1 .564-.825l.317.214c.257.172.514.344.763.531a.5.5 0 0 1 -.3.9z"/><path d="m54.47 13.766a.5.5 0 0 1 -.43-.244 28.965 28.965 0 0 0 -4.789-6.043c-.3-.287-.6-.565-.913-.838a.5.5 0 0 1 .662-.75c.319.283.635.57.943.867a29.981 29.981 0 0 1 4.957 6.252.5.5 0 0 1 -.429.756z"/><path d="m71.552 72.223a.5.5 0 0 1 -.288-.909q.4-.281.774-.6a.5.5 0 0 1 .65.76q-.41.351-.851.66a.5.5 0 0 1 -.285.089z"/><path d="m65.558 74.123h-.261a10.855 10.855 0 0 1 -6.231-2.163.5.5 0 1 1 .6-.8 9.858 9.858 0 0 0 5.66 1.966h.237a9.9 9.9 0 0 0 3.266-.566.5.5 0 1 1 .329.944 10.9 10.9 0 0 1 -3.6.619z"/></g><circle cx="29.265" cy="28.215" fill="#9297ab" r="26.3" transform="matrix(.694 -.72 .72 .694 -11.359 29.708)"/><path d="m51.49 42.287a26.3 26.3 0 0 0 -46.28-24.7 26.306 26.306 0 0 1 42.31-8.31 26.324 26.324 0 0 1 3.97 33.01z" fill="#84879c"/><circle cx="29.265" cy="28.215" fill="#89c5cd" r="19.931" transform="matrix(.694 -.72 .72 .694 -11.359 29.708)"/><path d="m29.261 48.636a20.415 20.415 0 1 1 14.715-6.243 20.359 20.359 0 0 1 -14.715 6.243zm.014-39.852q-.184 0-.368 0a19.416 19.416 0 1 0 .368 0z" fill="#323c6b"/><path d="m29.261 55a26.779 26.779 0 1 1 19.3-8.189 26.707 26.707 0 0 1 -19.3 8.189zm.017-52.587q-.244 0-.488 0a25.8 25.8 0 1 0 .488 0z" fill="#323c6b"/><path d="m65.559 71.123h-.189a7.947 7.947 0 0 1 -5.774-2.7l-15.88-18.1a.5.5 0 0 1 .752-.659l15.88 18.1a6.927 6.927 0 0 0 10.2.245 6.854 6.854 0 0 0 1.927-5.23 6.942 6.942 0 0 0 -2.547-4.955l-18.676-15.2a.5.5 0 0 1 .631-.775l18.676 15.2a7.928 7.928 0 0 1 -5 14.082z" fill="#323c6b"/><path d="m21.812 50.7a.661.661 0 0 1 -.21-.035 23.606 23.606 0 0 1 -7.602-4.294.65.65 0 1 1 .837-.994 22.317 22.317 0 0 0 7.188 4.058.65.65 0 0 1 -.21 1.266z" fill="#fff"/><path d="m11.565 43.629a.648.648 0 0 1 -.505-.241c-.187-.23-.369-.464-.551-.7a.65.65 0 1 1 1.027-.8c.176.227.352.453.533.677a.65.65 0 0 1 -.5 1.059z" fill="#fff"/></g></svg>