<svg height="512" viewBox="0 0 74 74" width="512" xmlns="http://www.w3.org/2000/svg"><g id="color_line" data-name="color line"><path d="m3.373 15.889h65.127v42.055h-65.127z" fill="#27ccbc"/><path d="m68.5 15.887v42.06h-3.37v-38.85h-61.76v-3.21z" fill="#21b3a9"/><path d="m8.981 47.587v-21.34a4.75 4.75 0 0 0 4.75-4.75h44.412a4.75 4.75 0 0 0 4.75 4.75v21.34a4.75 4.75 0 0 0 -4.75 4.75h-44.412a4.75 4.75 0 0 0 -4.75-4.75z" fill="#eeefee"/><path d="m58.143 52.837h-44.413a.5.5 0 0 1 -.5-.5 4.255 4.255 0 0 0 -4.25-4.25.5.5 0 0 1 -.5-.5v-21.34a.5.5 0 0 1 .5-.5 4.254 4.254 0 0 0 4.25-4.25.5.5 0 0 1 .5-.5h44.413a.5.5 0 0 1 .5.5 4.254 4.254 0 0 0 4.25 4.25.5.5 0 0 1 .5.5v21.34a.5.5 0 0 1 -.5.5 4.255 4.255 0 0 0 -4.25 4.25.5.5 0 0 1 -.5.5zm-43.936-1h43.459a5.26 5.26 0 0 1 4.727-4.727v-20.387a5.259 5.259 0 0 1 -4.727-4.723h-43.459a5.259 5.259 0 0 1 -4.727 4.723v20.387a5.26 5.26 0 0 1 4.727 4.727z" fill="#323c6b"/><path d="m20.39 41.487h-5.5a.5.5 0 1 1 0-1h5.5a.5.5 0 1 1 0 1z" fill="#323c6b"/><path d="m21.341 37.417h-7.4a.5.5 0 0 1 0-1h7.4a.5.5 0 0 1 0 1z" fill="#323c6b"/><path d="m20.39 33.346h-5.5a.5.5 0 1 1 0-1h5.5a.5.5 0 1 1 0 1z" fill="#323c6b"/><path d="m56.982 41.487h-5.5a.5.5 0 0 1 0-1h5.5a.5.5 0 1 1 0 1z" fill="#323c6b"/><path d="m57.934 37.417h-7.4a.5.5 0 0 1 0-1h7.4a.5.5 0 0 1 0 1z" fill="#323c6b"/><path d="m56.982 33.346h-5.5a.5.5 0 0 1 0-1h5.5a.5.5 0 0 1 0 1z" fill="#323c6b"/><ellipse cx="35.937" cy="36.917" fill="#27ccbc" rx="10.854" ry="15.42"/><g fill="#323c6b"><path d="m35.937 52.836c-6.261 0-11.354-7.142-11.354-15.92s5.093-15.916 11.354-15.916 11.354 7.142 11.354 15.919-5.091 15.917-11.354 15.917zm0-30.839c-5.71 0-10.354 6.693-10.354 14.919s4.645 14.92 10.354 14.92 10.354-6.693 10.354-14.92-4.645-14.916-10.354-14.916z"/><path d="m35.937 45.112a4.352 4.352 0 0 1 -4.348-4.348.5.5 0 0 1 1 0 3.348 3.348 0 1 0 3.348-3.348 4.347 4.347 0 1 1 4.348-4.347.5.5 0 0 1 -1 0 3.348 3.348 0 1 0 -3.348 3.347 4.348 4.348 0 0 1 0 8.7z"/><path d="m35.937 29.722a.5.5 0 0 1 -.5-.5v-1.21a.5.5 0 0 1 1 0v1.21a.5.5 0 0 1 -.5.5z"/><path d="m35.937 46.322a.5.5 0 0 1 -.5-.5v-1.21a.5.5 0 0 1 1 0v1.21a.5.5 0 0 1 -.5.5z"/><path d="m9.778 61.317h-1.117a.5.5 0 1 1 0-1h1.117a.5.5 0 0 1 0 1z"/><path d="m6.187 61.317h-5.687a.5.5 0 0 1 -.5-.5v-4.506a.5.5 0 0 1 1 0v4.006h5.187a.5.5 0 0 1 0 1z"/><path d="m53.774 13.516h-11.133a.5.5 0 0 1 0-1h11.133a.5.5 0 0 1 0 1z"/><path d="m57.426 13.516h-1.018a.5.5 0 0 1 0-1h1.018a.5.5 0 0 1 0 1z"/><path d="m68.5 58.444h-65.127a.5.5 0 0 1 -.5-.5v-42.054a.5.5 0 0 1 .5-.5h65.127a.5.5 0 0 1 .5.5v42.054a.5.5 0 0 1 -.5.5zm-64.627-1h64.127v-41.054h-64.127z"/></g><path d="m6.187 37.57a.65.65 0 0 1 -.65-.65v-8.909a.65.65 0 0 1 1.3 0v8.909a.65.65 0 0 1 -.65.65z" fill="#fff"/><path d="m6.187 41.222a.65.65 0 0 1 -.65-.65v-1.018a.65.65 0 0 1 1.3 0v1.018a.65.65 0 0 1 -.65.65z" fill="#fff"/></g></svg>