<svg height="512" viewBox="0 0 74 74" width="512" xmlns="http://www.w3.org/2000/svg"><g id="color_line" data-name="color line"><circle cx="37.484" cy="36.042" fill="#89c5cd" r="34"/><path d="m71.484 36.042a33.883 33.883 0 0 1 -11.51 25.49 33.993 33.993 0 0 0 -47.98-47.98 33.994 33.994 0 0 1 59.49 22.49z" fill="#6eaaad"/><g fill="#323c6b"><path d="m37.484 70.542c-10 0-18.13-15.477-18.13-34.5s8.133-34.5 18.13-34.5 18.13 15.477 18.13 34.5-8.133 34.5-18.13 34.5zm0-68c-9.445 0-17.13 15.028-17.13 33.5s7.685 33.5 17.13 33.5 17.13-15.028 17.13-33.5-7.684-33.5-17.13-33.5z"/><path d="m37.484 70.542a.5.5 0 0 1 -.5-.5v-68a.5.5 0 0 1 1 0v68a.5.5 0 0 1 -.5.5z"/><path d="m71.484 36.542h-68a.5.5 0 0 1 0-1h68a.5.5 0 0 1 0 1z"/><path d="m12.244 63.542a.5.5 0 0 1 -.342-.135 37.784 37.784 0 0 1 -6.63-8.192.5.5 0 0 1 .859-.513 36.732 36.732 0 0 0 6.454 7.974.5.5 0 0 1 -.342.865z"/><path d="m4.338 52.958a.5.5 0 0 1 -.448-.278c-.127-.256-.245-.518-.363-.78l-.144-.317a.5.5 0 1 1 .908-.417l.146.323c.113.25.227.5.349.747a.5.5 0 0 1 -.448.722z"/><path d="m65.609 12.54a.5.5 0 0 1 -.38-.175 36.931 36.931 0 0 0 -6.66-6.079.5.5 0 0 1 .58-.814 37.889 37.889 0 0 1 6.84 6.244.5.5 0 0 1 -.38.825z"/><path d="m68.106 15.823a.5.5 0 0 1 -.413-.219l-.078-.114c-.156-.23-.312-.46-.475-.687a.5.5 0 1 1 .813-.583c.167.233.328.47.489.708l.077.114a.5.5 0 0 1 -.413.781z"/><path d="m37.484 70.542a34.5 34.5 0 1 1 34.5-34.5 34.539 34.539 0 0 1 -34.5 34.5zm0-68a33.5 33.5 0 1 0 33.5 33.5 33.538 33.538 0 0 0 -33.5-33.5z"/></g><path d="m24.56 26.567a.64.64 0 0 1 -.105-.008.65.65 0 0 1 -.537-.746 50.214 50.214 0 0 1 2.743-10.4.65.65 0 0 1 1.189.525 47.558 47.558 0 0 0 -2.65 10.083.65.65 0 0 1 -.64.546z" fill="#fff"/><path d="m28.47 13.942a.65.65 0 0 1 -.574-.952c.1-.194.206-.381.31-.568a.687.687 0 0 1 .9-.288.617.617 0 0 1 .272.849l-.04.071c-.1.178-.2.356-.295.541a.65.65 0 0 1 -.573.347z" fill="#fff"/><path d="m37.484 54.171c-19.023 0-34.5-8.133-34.5-18.13s15.477-18.129 34.5-18.129 34.5 8.133 34.5 18.129-15.476 18.13-34.5 18.13zm0-35.259c-18.472 0-33.5 7.684-33.5 17.129s15.028 17.13 33.5 17.13 33.5-7.685 33.5-17.13-15.028-17.129-33.5-17.129z" fill="#323c6b"/></g></svg>