<svg height="512" viewBox="0 0 74 74" width="512" xmlns="http://www.w3.org/2000/svg"><g id="color_line" data-name="color line"><path d="m22.086 29.318-9.296-20.608 6.655-5.793 10.433 22.463" fill="#fe7058"/><path d="m22.086 29.818a.5.5 0 0 1 -.456-.294l-9.3-20.608a.5.5 0 0 1 .128-.583l6.659-5.793a.5.5 0 0 1 .781.167l10.433 22.463a.5.5 0 1 1 -.906.421l-10.154-21.861-5.871 5.113 9.144 20.27a.5.5 0 0 1 -.456.706z" fill="#323c6b"/><path d="m42.633 25.38 10.433-22.455 6.655 5.785-9.296 20.61" fill="#fe7058"/><path d="m59.72 8.707-9.3 20.61-2.81-1.42 9.394-21.546z" fill="#ea6453"/><path d="m19.445 2.917h33.621l-3.803 8.194h-26.012z" fill="#ea6453"/><path d="m49.263 11.611h-26.012a.5.5 0 0 1 -.453-.29l-3.806-8.194a.5.5 0 0 1 .453-.71h33.62a.5.5 0 0 1 .453.71l-3.8 8.194a.5.5 0 0 1 -.455.29zm-25.692-1h25.372l3.339-7.194h-32.053z" fill="#323c6b"/><path d="m53.065 3.417h-33.62a.5.5 0 0 1 0-1h33.62a.5.5 0 0 1 0 1z" fill="#323c6b"/><path d="m43.875 7.013h-1a.65.65 0 1 1 0-1.3h1a.65.65 0 1 1 0 1.3z" fill="#fff"/><path d="m40.125 7.013h-8.625a.65.65 0 1 1 0-1.3h8.625a.65.65 0 1 1 0 1.3z" fill="#fff"/><g fill="#323c6b"><path d="m15.484 22.479a.5.5 0 0 1 -.456-.294l-3.383-7.5a.5.5 0 0 1 .912-.411l3.383 7.5a.5.5 0 0 1 -.456.706z"/><path d="m11.171 12.917a.5.5 0 0 1 -.456-.294l-.254-.562a.5.5 0 0 1 .912-.411l.254.563a.5.5 0 0 1 -.456.706z"/><path d="m50.425 29.82a.5.5 0 0 1 -.456-.706l9.143-20.271-5.873-5.1-10.153 21.848a.5.5 0 1 1 -.906-.421l10.432-22.455a.5.5 0 0 1 .781-.167l6.655 5.785a.5.5 0 0 1 .128.583l-9.3 20.61a.5.5 0 0 1 -.451.294z"/><path d="m63.145 44.534a.5.5 0 0 1 -.5-.447 26.375 26.375 0 0 0 -2.636-9.006.5.5 0 0 1 .895-.447 27.368 27.368 0 0 1 2.735 9.347.5.5 0 0 1 -.443.55z"/><path d="m63.286 48.217h-.015a.5.5 0 0 1 -.485-.515l.008-.225c.006-.187.013-.373.013-.562l-.009-.293a.5.5 0 1 1 1-.01l.009.3c0 .2-.007.4-.014.6l-.007.219a.5.5 0 0 1 -.5.486z"/></g><circle cx="36.205" cy="46.917" fill="#fcd462" r="24"/><path d="m60.207 46.919a23.925 23.925 0 0 1 -8.716 18.5 23.991 23.991 0 0 0 -33.272-34.382 24 24 0 0 1 41.988 15.882z" fill="#f7be56"/><path d="m36.2 65.615a18.7 18.7 0 1 1 18.7-18.7 18.719 18.719 0 0 1 -18.7 18.7zm0-36.4a17.7 17.7 0 1 0 17.7 17.7 17.717 17.717 0 0 0 -17.7-17.696z" fill="#323c6b"/><path d="m36.205 36.15 3.169 6.422 7.087 1.03-5.128 4.998 1.21 7.058-6.338-3.332-6.339 3.332 1.21-7.058-5.128-4.998 7.087-1.03z" fill="#eeefee"/><path d="m41.338 48.604 1.209 7.052-2.378-1.252-.775-4.539 5.128-5.004-7.082-1.023-2.513-5.088 1.282-2.595 3.164 6.421 7.083 1.024z" fill="#e1e6e9"/><path d="m36.2 71.417a24.5 24.5 0 1 1 24.5-24.5 24.528 24.528 0 0 1 -24.5 24.5zm0-48a23.5 23.5 0 1 0 23.5 23.5 23.527 23.527 0 0 0 -23.5-23.5z" fill="#323c6b"/><path d="m42.543 56.158a.5.5 0 0 1 -.232-.058l-6.111-3.209-6.1 3.209a.5.5 0 0 1 -.726-.527l1.166-6.8-4.94-4.814a.5.5 0 0 1 .276-.853l6.827-.992 3.053-6.186a.52.52 0 0 1 .9 0l3.054 6.186 6.827.992a.5.5 0 0 1 .276.853l-4.943 4.816 1.166 6.8a.5.5 0 0 1 -.493.584zm-6.343-4.332a.493.493 0 0 1 .232.058l5.442 2.86-1.039-6.06a.5.5 0 0 1 .145-.442l4.4-4.292-6.08-.884a.5.5 0 0 1 -.376-.273l-2.724-5.513-2.721 5.513a.5.5 0 0 1 -.376.273l-6.085.884 4.4 4.292a.5.5 0 0 1 .145.442l-1.039 6.06 5.441-2.86a.493.493 0 0 1 .235-.058z" fill="#323c6b"/></g></svg>