<svg height="512" viewBox="0 0 74 74" width="512" xmlns="http://www.w3.org/2000/svg"><g id="color_line" data-name="color line"><circle cx="37.14" cy="37.114" fill="#fcd462" r="34"/><path d="m62.95 59.247a34 34 0 0 0 -54.19-40.87 34 34 0 1 1 54.19 40.87z" fill="#f7be56"/><circle cx="37.14" cy="37.114" fill="#fcd462" r="24.719"/><g fill="#323c6b"><path d="m37.14 62.334a25.219 25.219 0 1 1 25.22-25.22 25.248 25.248 0 0 1 -25.22 25.22zm0-49.439a24.219 24.219 0 1 0 24.22 24.219 24.246 24.246 0 0 0 -24.22-24.214z"/><path d="m37.14 51.538a7.47 7.47 0 0 1 -7.462-7.462.5.5 0 0 1 1 0 6.462 6.462 0 1 0 6.462-6.462 7.462 7.462 0 1 1 7.46-7.461.5.5 0 0 1 -1 0 6.462 6.462 0 1 0 -6.462 6.461 7.462 7.462 0 0 1 0 14.924z"/><path d="m37.14 23.691a.5.5 0 0 1 -.5-.5v-2.191a.5.5 0 1 1 1 0v2.19a.5.5 0 0 1 -.5.501z"/><path d="m37.14 53.728a.5.5 0 0 1 -.5-.5v-2.19a.5.5 0 0 1 1 0v2.19a.5.5 0 0 1 -.5.5z"/><path d="m37.14 8.949a.5.5 0 0 1 -.5-.5v-1.475a.5.5 0 1 1 1 0v1.475a.5.5 0 0 1 -.5.5z"/><path d="m25.48 11.427a.5.5 0 0 1 -.457-.3l-.6-1.347a.5.5 0 0 1 .914-.407l.6 1.347a.5.5 0 0 1 -.254.66.489.489 0 0 1 -.203.047z"/><path d="m15.837 18.433a.5.5 0 0 1 -.337-.133l-1.1-.986a.5.5 0 1 1 .67-.743l1.1.986a.5.5 0 0 1 -.335.872z"/><path d="m9.877 28.756a.5.5 0 0 1 -.154-.024l-1.4-.456a.5.5 0 0 1 .309-.951l1.4.456a.5.5 0 0 1 -.154.976z"/><path d="m7.164 40.765a.5.5 0 0 1 -.052-1l1.466-.154a.49.49 0 0 1 .55.445.5.5 0 0 1 -.444.549l-1.466.154z"/><path d="m11.037 52.685a.5.5 0 0 1 -.25-.933l1.277-.737a.5.5 0 0 1 .5.866l-1.277.737a.5.5 0 0 1 -.25.067z"/><path d="m19.424 62a.5.5 0 0 1 -.4-.794l.866-1.193a.5.5 0 1 1 .809.588l-.866 1.193a.5.5 0 0 1 -.409.206z"/><path d="m30.874 67.1a.5.5 0 0 1 -.49-.6l.307-1.442a.508.508 0 0 1 .593-.385.5.5 0 0 1 .386.593l-.308 1.434a.5.5 0 0 1 -.488.4z"/><path d="m43.405 67.1a.5.5 0 0 1 -.488-.4l-.307-1.442a.5.5 0 0 1 .39-.593.507.507 0 0 1 .593.385l.307 1.442a.5.5 0 0 1 -.49.6z"/><path d="m54.855 62a.5.5 0 0 1 -.4-.206l-.87-1.194a.5.5 0 1 1 .809-.588l.866 1.188a.5.5 0 0 1 -.4.794z"/><path d="m63.242 52.685a.5.5 0 0 1 -.25-.067l-1.277-.737a.5.5 0 0 1 .5-.866l1.277.737a.5.5 0 0 1 -.25.933z"/><path d="m67.116 40.765h-.054l-1.462-.157a.5.5 0 0 1 -.444-.549.491.491 0 0 1 .55-.445l1.467.154a.5.5 0 0 1 -.052 1z"/><path d="m64.4 28.756a.5.5 0 0 1 -.154-.976l1.4-.456a.5.5 0 0 1 .309.951l-1.4.456a.5.5 0 0 1 -.155.025z"/><path d="m58.442 18.433a.5.5 0 0 1 -.335-.872l1.1-.986a.5.5 0 1 1 .67.743l-1.1.986a.5.5 0 0 1 -.335.129z"/><path d="m48.8 11.427a.5.5 0 0 1 -.457-.7l.6-1.347a.5.5 0 0 1 .914.407l-.6 1.347a.5.5 0 0 1 -.457.293z"/><path d="m20.353 70.552a.492.492 0 0 1 -.228-.055l-.247-.126c-.373-.189-.746-.38-1.109-.585a.5.5 0 1 1 .492-.87c.351.2.711.381 1.07.564l.249.127a.5.5 0 0 1 -.228.945z"/><path d="m16.071 67.989a.5.5 0 0 1 -.286-.09 37.8 37.8 0 0 1 -8.236-7.791.5.5 0 1 1 .789-.614 36.79 36.79 0 0 0 8.02 7.584.5.5 0 0 1 -.286.91z"/><path d="m51.64 3.609a.494.494 0 0 1 -.2-.041c-.112-.048-.223-.1-.333-.15-.135-.062-.269-.124-.406-.18a.5.5 0 1 1 .373-.928c.153.062.3.131.453.2l.308.139a.5.5 0 0 1 -.2.959z"/><path d="m62.577 10.819a.5.5 0 0 1 -.344-.137 36.755 36.755 0 0 0 -8.2-5.879.5.5 0 0 1 .465-.886 37.755 37.755 0 0 1 8.424 6.04.5.5 0 0 1 -.344.863z"/><path d="m37.14 71.614a34.5 34.5 0 1 1 34.5-34.5 34.539 34.539 0 0 1 -34.5 34.5zm0-68a33.5 33.5 0 1 0 33.5 33.5 33.538 33.538 0 0 0 -33.5-33.5z"/></g><path d="m16.2 34.119c-.064.412-.111.829-.152 1.248" fill="#fcd462"/><path d="m16.051 36.017h-.064a.65.65 0 0 1 -.583-.71c.042-.431.091-.86.156-1.284a.65.65 0 0 1 1.285.2c-.062.4-.108.805-.148 1.212a.649.649 0 0 1 -.646.582z" fill="#fff"/><path d="m23.471 21.231a21.114 21.114 0 0 0 -6.6 9.96" fill="#fcd462"/><path d="m16.868 31.841a.651.651 0 0 1 -.621-.841 21.7 21.7 0 0 1 6.806-10.267.65.65 0 0 1 .836 1 20.417 20.417 0 0 0 -6.4 9.653.649.649 0 0 1 -.621.455z" fill="#fff"/></g></svg>