<svg height="512" viewBox="0 0 74 74" width="512" xmlns="http://www.w3.org/2000/svg"><g id="color_line" data-name="color line"><path d="m26.952 15.6c0-7.114 4.5-11.357 10.048-11.357s10.048 4.238 10.048 11.357c0 6.06-4.5 10.972-10.048 10.972s-10.048-4.917-10.048-10.972z" fill="#89c5cd"/><path d="m55.262 39.97v5.058h-36.524v-5.058a11.657 11.657 0 0 1 11.662-11.66h1.168a9.346 9.346 0 0 0 10.869 0h1.163a11.657 11.657 0 0 1 11.662 11.66z" fill="#89c5cd"/><path d="m43.38 24.087a11.652 11.652 0 0 0 1.75-6.18c0-7.12-4.5-11.36-10.05-11.36a9.644 9.644 0 0 0 -6.4 2.32 9.5 9.5 0 0 1 8.32-4.63c5.55 0 10.05 4.24 10.05 11.36a11.4 11.4 0 0 1 -3.67 8.49z" fill="#6eaaad"/><path d="m55.26 39.967v5.06h-2.635v-2.75c0-6.44-4.495-12.92-10.935-12.92h-1.17a9.569 9.569 0 0 0 1.91-1.05h1.17a11.66 11.66 0 0 1 11.66 11.66z" fill="#6eaaad"/><path d="m47.086 45.527h-20.172a.5.5 0 0 1 -.5-.5v-8.359a.5.5 0 0 1 1 0v7.859h19.172v-7.859a.5.5 0 0 1 1 0v8.359a.5.5 0 0 1 -.5.5z" fill="#323c6b"/><path d="m64.872 59.193a.5.5 0 0 1 -.5-.5v-3.528a2.5 2.5 0 0 0 -2.5-2.5h-49.746a2.5 2.5 0 0 0 -2.5 2.5v3.528a.5.5 0 0 1 -1 0v-3.528a3.5 3.5 0 0 1 3.5-3.5h49.747a3.5 3.5 0 0 1 3.5 3.5v3.528a.5.5 0 0 1 -.501.5z" fill="#323c6b"/><path d="m37 59.193a.5.5 0 0 1 -.5-.5v-13.666a.5.5 0 0 1 1 0v13.666a.5.5 0 0 1 -.5.5z" fill="#323c6b"/><rect fill="#fcd462" height="10.224" rx="1.065" width="10.224" x="4.016" y="58.693"/><rect fill="#fe7058" height="10.224" rx="1.065" width="10.224" x="31.888" y="58.693"/><rect fill="#27ccbc" height="10.224" rx="1.065" width="10.224" x="59.76" y="58.693"/><path d="m14.24 59.761v8.09a1.065 1.065 0 0 1 -1.065 1.065h-1.265v-7.89h-7.89v-1.265a1.065 1.065 0 0 1 1.065-1.061h8.09a1.065 1.065 0 0 1 1.065 1.061z" fill="#f7be56"/><path d="m42.11 59.761v8.09a1.065 1.065 0 0 1 -1.065 1.065h-1.265v-7.89h-7.89v-1.265a1.065 1.065 0 0 1 1.065-1.061h8.09a1.065 1.065 0 0 1 1.065 1.061z" fill="#ea6453"/><path d="m69.98 59.761v8.09a1.065 1.065 0 0 1 -1.065 1.065h-1.265v-7.89h-7.89v-1.265a1.065 1.065 0 0 1 1.065-1.061h8.09a1.065 1.065 0 0 1 1.065 1.061z" fill="#21b3a9"/><g fill="#323c6b"><path d="m41.25 2.44a.5.5 0 0 1 -.163-.027c-.2-.069-.41-.126-.617-.185l.071-.5.134-.481c.29.08.516.144.737.22a.5.5 0 0 1 -.163.973z"/><path d="m48.615 9.25a.5.5 0 0 1 -.455-.291 12.421 12.421 0 0 0 -4.795-5.479.5.5 0 1 1 .52-.854 13.411 13.411 0 0 1 5.184 5.916.5.5 0 0 1 -.454.709z"/><path d="m55.318 48.527h-8.949a.5.5 0 0 1 0-1h8.949a.5.5 0 1 1 0 1z"/><path d="m44.057 48.527h-.75a.5.5 0 0 1 0-1h.75a.5.5 0 1 1 0 1z"/><path d="m37 27.067c-5.816 0-10.548-5.146-10.548-11.472 0-6.981 4.337-11.857 10.548-11.857s10.548 4.876 10.548 11.862c0 6.321-4.732 11.467-10.548 11.467zm0-22.33c-5.622 0-9.548 4.465-9.548 10.857 0 5.774 4.283 10.472 9.548 10.472s9.548-4.7 9.548-10.472c0-6.394-3.926-10.856-9.548-10.856z"/><path d="m55.262 45.527h-36.524a.5.5 0 0 1 -.5-.5v-5.057a12.174 12.174 0 0 1 12.162-12.16h1.168a.5.5 0 0 1 .288.091 8.984 8.984 0 0 0 10.293 0 .5.5 0 0 1 .288-.091h1.163a12.174 12.174 0 0 1 12.16 12.16v5.058a.5.5 0 0 1 -.498.499zm-36.024-1h35.524v-4.557a11.173 11.173 0 0 0 -11.162-11.16h-1.009a9.994 9.994 0 0 1 -11.182 0h-1.009a11.173 11.173 0 0 0 -11.16 11.16z"/></g><path d="m22.8 36.74a.651.651 0 0 1 -.584-.934 9.081 9.081 0 0 1 6.966-5.051.65.65 0 0 1 .174 1.288 7.784 7.784 0 0 0 -5.97 4.33.651.651 0 0 1 -.586.367z" fill="#fff"/><path d="m22.181 39.349h-.041a.65.65 0 0 1 -.609-.689q.018-.294.056-.583a.65.65 0 1 1 1.289.166q-.031.246-.047.5a.65.65 0 0 1 -.648.606z" fill="#fff"/><path d="m13.175 69.417h-8.094a1.566 1.566 0 0 1 -1.565-1.564v-8.095a1.567 1.567 0 0 1 1.565-1.565h8.094a1.566 1.566 0 0 1 1.564 1.565v8.094a1.566 1.566 0 0 1 -1.564 1.565zm-8.094-10.224a.566.566 0 0 0 -.565.565v8.094a.565.565 0 0 0 .565.564h8.094a.565.565 0 0 0 .564-.564v-8.094a.565.565 0 0 0 -.564-.565z" fill="#323c6b"/><path d="m41.047 69.417h-8.094a1.566 1.566 0 0 1 -1.565-1.564v-8.095a1.567 1.567 0 0 1 1.565-1.565h8.094a1.567 1.567 0 0 1 1.565 1.565v8.094a1.566 1.566 0 0 1 -1.565 1.565zm-8.094-10.224a.566.566 0 0 0 -.565.565v8.094a.565.565 0 0 0 .565.564h8.094a.565.565 0 0 0 .565-.564v-8.094a.566.566 0 0 0 -.565-.565z" fill="#323c6b"/><path d="m68.919 69.417h-8.094a1.566 1.566 0 0 1 -1.564-1.564v-8.095a1.566 1.566 0 0 1 1.564-1.565h8.094a1.567 1.567 0 0 1 1.565 1.565v8.094a1.566 1.566 0 0 1 -1.565 1.565zm-8.094-10.224a.565.565 0 0 0 -.564.565v8.094a.565.565 0 0 0 .564.564h8.094a.565.565 0 0 0 .565-.564v-8.094a.566.566 0 0 0 -.565-.565z" fill="#323c6b"/></g></svg>