<svg height="512" viewBox="0 0 74 74" width="512" xmlns="http://www.w3.org/2000/svg"><g id="color_line" data-name="color line"><path d="m46.363 56.712h-18.726l-2.611 8.919h23.948z" fill="#bbbbcd"/><path d="m48.97 65.627h-2.777l-2.61-8.91h2.777z" fill="#9297ab"/><path d="m50.28 65.631h-26.56a3.864 3.864 0 0 0 -3.864 3.864v.977h34.287v-.977a3.864 3.864 0 0 0 -3.863-3.864z" fill="#9297ab"/><path d="m54.144 70.971h-34.288a.5.5 0 0 1 -.5-.5v-.977a4.369 4.369 0 0 1 4.364-4.364h26.559a4.369 4.369 0 0 1 4.364 4.364v.977a.5.5 0 0 1 -.499.5zm-33.787-1h33.287v-.477a3.368 3.368 0 0 0 -3.364-3.364h-26.56a3.367 3.367 0 0 0 -3.364 3.364z" fill="#323c6b"/><path d="m48.974 66.131h-23.948a.5.5 0 0 1 -.48-.641l2.611-8.919a.5.5 0 0 1 .48-.359h18.726a.5.5 0 0 1 .48.359l2.61 8.919a.5.5 0 0 1 -.48.641zm-23.28-1h22.612l-2.317-7.919h-17.978z" fill="#323c6b"/><rect fill="#89c5cd" height="53.246" rx="3.455" width="68" x="3" y="4.238"/><path d="m3 45.027v9a3.455 3.455 0 0 0 3.455 3.455h61.09a3.455 3.455 0 0 0 3.455-3.454v-9z" fill="#9297ab"/><circle cx="37.51" cy="51.255" fill="#d5d6db" r="1.839"/><path d="m37.51 53.594a2.339 2.339 0 1 1 2.338-2.339 2.342 2.342 0 0 1 -2.338 2.339zm0-3.678a1.339 1.339 0 1 0 1.338 1.339 1.34 1.34 0 0 0 -1.338-1.338z" fill="#323c6b"/><rect fill="#fcd462" height="20.903" rx="1.861" width="31.304" x="21.348" y="14.513"/><path d="m52.65 16.377v17.18a1.857 1.857 0 0 1 -1.86 1.86h-.75v-16.817a1.863 1.863 0 0 0 -1.86-1.86h-26.83v-.36a1.857 1.857 0 0 1 1.86-1.86h27.58a1.857 1.857 0 0 1 1.86 1.857z" fill="#f7be56"/><g fill="#323c6b"><path d="m37 25.465a2.766 2.766 0 0 1 -1.592-.5l-13.539-9.5a.5.5 0 1 1 .574-.818l13.539 9.5a1.778 1.778 0 0 0 2.035 0l13.539-9.5a.5.5 0 1 1 .574.818l-13.539 9.5a2.766 2.766 0 0 1 -1.591.5z"/><path d="m67.125 60.983h-9.562a.5.5 0 0 1 0-1h9.563a.5.5 0 0 1 0 1z"/><path d="m55.313 60.983h-.563a.5.5 0 0 1 0-1h.563a.5.5 0 0 1 0 1z"/><path d="m.21 6.6a.493.493 0 0 1 -.124-.016.5.5 0 0 1 -.361-.604 6.944 6.944 0 0 1 6.73-5.242h1.545a.5.5 0 0 1 0 1h-1.545a5.946 5.946 0 0 0 -5.761 4.49.5.5 0 0 1 -.484.372z"/><path d="m11.5 1.738h-1.021a.5.5 0 1 1 0-1h1.021a.5.5 0 0 1 0 1z"/></g><path d="m67.62 44.833h3.38v-37.133a3.461 3.461 0 0 0 -3.46-3.46h-61.08a3.456 3.456 0 0 0 -3.43 3h61.14a3.453 3.453 0 0 1 3.45 3.46z" fill="#6eaaad"/><path d="m67.62 45.375v11.652a2.319 2.319 0 0 1 -.04.46 3.459 3.459 0 0 0 3.42-3.46v-8.652z" fill="#84879c"/><path d="m67.545 57.983h-61.09a3.96 3.96 0 0 1 -3.955-3.955v-46.335a3.96 3.96 0 0 1 3.955-3.955h61.09a3.96 3.96 0 0 1 3.955 3.955v46.335a3.96 3.96 0 0 1 -3.955 3.955zm-61.09-53.245a2.958 2.958 0 0 0 -2.955 2.955v46.335a2.958 2.958 0 0 0 2.955 2.955h61.09a2.958 2.958 0 0 0 2.955-2.955v-46.335a2.958 2.958 0 0 0 -2.955-2.955z" fill="#323c6b"/><path d="m67.545 57.983h-61.09a3.96 3.96 0 0 1 -3.955-3.955v-9a.5.5 0 0 1 .5-.5h68a.5.5 0 0 1 .5.5v9a3.96 3.96 0 0 1 -3.955 3.955zm-64.045-12.456v8.5a2.958 2.958 0 0 0 2.955 2.955h61.09a2.958 2.958 0 0 0 2.955-2.954v-8.5z" fill="#323c6b"/><path d="m50.791 35.917h-27.582a2.364 2.364 0 0 1 -2.362-2.361v-17.181a2.365 2.365 0 0 1 2.362-2.362h27.582a2.365 2.365 0 0 1 2.362 2.362v17.18a2.364 2.364 0 0 1 -2.362 2.362zm-27.581-20.9a1.363 1.363 0 0 0 -1.362 1.362v17.18a1.363 1.363 0 0 0 1.362 1.361h27.581a1.363 1.363 0 0 0 1.362-1.361v-17.184a1.363 1.363 0 0 0 -1.362-1.362z" fill="#323c6b"/><path d="m37.437 42.067h-10.75a.65.65 0 0 1 0-1.3h10.75a.65.65 0 1 1 0 1.3z" fill="#fff"/><path d="m24.052 42.067h-.725a.65.65 0 1 1 0-1.3h.725a.65.65 0 1 1 0 1.3z" fill="#fff"/></g></svg>