<svg height="512" viewBox="0 0 74 74" width="512" xmlns="http://www.w3.org/2000/svg"><g id="color_line" data-name="color line"><path d="m48.53 56.487a8.946 8.946 0 0 0 -1.99 5.38l-7.33-14.99a8.045 8.045 0 0 1 -7.35-4.75l-7.41-16.46a22.731 22.731 0 0 1 3.28-22.75l18.28 41.24z" fill="#eeefee"/><path d="m46.54 62.367a.5.5 0 0 1 -.449-.28l-7.191-14.716a8.6 8.6 0 0 1 -2.031-.313 8.705 8.705 0 0 1 -2.3-1.051 8.584 8.584 0 0 1 -3.169-3.676l-7.41-16.459a23.035 23.035 0 0 1 -1.724-8.785 23.324 23.324 0 0 1 5.073-14.487.5.5 0 0 1 .848.109l18.28 41.24a.5.5 0 0 1 .033.1l2.521 12.33a.5.5 0 0 1 -.1.415 8.4 8.4 0 0 0 -1.879 5.08.5.5 0 0 1 -.395.474.487.487 0 0 1 -.107.019zm-18.926-58.478a22.325 22.325 0 0 0 -4.344 13.2 22.024 22.024 0 0 0 1.643 8.391l7.4 16.444a7.581 7.581 0 0 0 2.787 3.244 7.4 7.4 0 0 0 4.106 1.208.5.5 0 0 1 .449.28l6.587 13.472a9.382 9.382 0 0 1 1.748-3.769l-2.459-12.049z" fill="#323c6b"/><path d="m37 46.577a8.129 8.129 0 0 1 -2.21.3l-7.33 14.99a8.946 8.946 0 0 0 -1.99-5.38l2.52-12.33 2.37-5.35 1.5 3.32a8.091 8.091 0 0 0 2.97 3.46 8.2 8.2 0 0 0 2.17.99z" fill="#eeefee"/><path d="m51.23 17.087a22.682 22.682 0 0 1 -1.68 8.58l-5.91 13.14-6.64-14.98 9.27-20.91a22.729 22.729 0 0 1 4.96 14.17z" fill="#eeefee"/><path d="m37 46.577a8.129 8.129 0 0 1 -2.21.3l-7.33 14.99a8.891 8.891 0 0 0 -1.37-4.5l6-12.28a8.3 8.3 0 0 0 1.81-.2 8.072 8.072 0 0 0 .93.7 8.2 8.2 0 0 0 2.17.99z" fill="#e1e6e9"/><path d="m51.23 17.087a22.682 22.682 0 0 1 -1.68 8.58l-5.91 13.14-1.74-3.92 4.95-11.01a22.721 22.721 0 0 0 -1.18-19.61l.6-1.35a22.729 22.729 0 0 1 4.96 14.17z" fill="#e1e6e9"/><ellipse cx="54.897" cy="62.178" fill="#eeefee" rx="8.377" ry="9.553"/><path d="m54.9 72.231c-4.895 0-8.877-4.51-8.877-10.053s3.977-10.053 8.877-10.053 8.877 4.51 8.877 10.053-3.985 10.053-8.877 10.053zm0-19.106c-4.343 0-7.877 4.061-7.877 9.053s3.534 9.053 7.877 9.053 7.877-4.061 7.877-9.053-3.537-9.053-7.877-9.053z" fill="#323c6b"/><ellipse cx="54.897" cy="62.178" fill="#fff" rx="5.223" ry="6.094"/><g fill="#323c6b"><path d="m54.9 68.772c-3.155 0-5.723-2.958-5.723-6.594s2.567-6.594 5.723-6.594 5.723 2.958 5.723 6.594-2.571 6.594-5.723 6.594zm0-12.187c-2.6 0-4.723 2.509-4.723 5.594s2.119 5.594 4.723 5.594 4.723-2.509 4.723-5.594-2.123-5.595-4.723-5.595z"/><circle cx="36.719" cy="38.654" r="1.813"/><path d="m23.385 31.1a.5.5 0 0 1 -.457-.295l-1.71-3.8a26.189 26.189 0 0 1 -1.12-3.384.5.5 0 0 1 .969-.249 25.01 25.01 0 0 0 1.07 3.239l1.7 3.785a.5.5 0 0 1 -.456.705z"/><path d="m20.125 21.729a.5.5 0 0 1 -.493-.419c-.023-.141-.039-.283-.055-.425l-.033-.274a.5.5 0 0 1 .99-.138l.037.3c.014.125.028.251.049.376a.5.5 0 0 1 -.413.574.508.508 0 0 1 -.082.006z"/><path d="m37.2 16.479a.5.5 0 0 1 -.457-.7l.434-.979a.5.5 0 0 1 .914.405l-.434.979a.5.5 0 0 1 -.457.295z"/><path d="m38.628 13.25a.5.5 0 0 1 -.457-.7l3.473-7.833a.5.5 0 1 1 .914.405l-3.473 7.833a.5.5 0 0 1 -.457.295z"/><path d="m27.46 62.367a.487.487 0 0 1 -.105-.011.5.5 0 0 1 -.395-.474 8.4 8.4 0 0 0 -1.879-5.08.5.5 0 0 1 -.1-.415l2.519-12.33a.482.482 0 0 1 .033-.1l2.367-5.357a.561.561 0 0 1 .457-.3.5.5 0 0 1 .456.294l1.5 3.32a7.583 7.583 0 0 0 2.787 3.254 7.677 7.677 0 0 0 2.034.928.5.5 0 0 1 0 .962 8.6 8.6 0 0 1 -2.031.313l-7.2 14.715a.5.5 0 0 1 -.443.281zm-1.454-6.007a9.379 9.379 0 0 1 1.748 3.769l6.587-13.472c.141-.286.515-.273.831-.29q-.311-.166-.612-.36a8.584 8.584 0 0 1 -3.16-3.676l-1.04-2.3-1.9 4.279z"/><path d="m43.64 39.307a.5.5 0 0 1 -.456-.3l-6.64-14.98a.5.5 0 0 1 0-.405l9.27-20.91a.5.5 0 0 1 .848-.109 23.324 23.324 0 0 1 5.068 14.483 23.022 23.022 0 0 1 -1.717 8.77l-5.913 13.156a.5.5 0 0 1 -.46.295zm-6.093-15.48 6.1 13.753 5.45-12.119a22.011 22.011 0 0 0 1.636-8.375 22.325 22.325 0 0 0 -4.344-13.2z"/></g><ellipse cx="19.103" cy="62.178" fill="#eeefee" rx="8.377" ry="9.553"/><path d="m19.1 72.231c-4.895 0-8.877-4.51-8.877-10.053s3.985-10.053 8.877-10.053 8.877 4.51 8.877 10.053-3.977 10.053-8.877 10.053zm0-19.106c-4.343 0-7.877 4.061-7.877 9.053s3.534 9.053 7.877 9.053 7.877-4.061 7.877-9.053-3.531-9.053-7.877-9.053z" fill="#323c6b"/><ellipse cx="19.103" cy="62.178" fill="#fff" rx="5.223" ry="6.094"/><path d="m19.1 68.772c-3.155 0-5.723-2.958-5.723-6.594s2.567-6.594 5.723-6.594 5.723 2.958 5.723 6.594-2.565 6.594-5.723 6.594zm0-12.187c-2.6 0-4.723 2.509-4.723 5.594s2.123 5.593 4.723 5.593 4.723-2.509 4.723-5.594-2.116-5.594-4.723-5.594z" fill="#323c6b"/></g></svg>