<svg height="512" viewBox="0 0 74 74" width="512" xmlns="http://www.w3.org/2000/svg"><g id="color_line" data-name="color line"><path d="m28.36 22.637a18.031 18.031 0 0 0 -7.14 7.14 2.1 2.1 0 0 0 -.35-.13l-13.98-3.98a32.9 32.9 0 0 1 17.36-17.36l3.98 13.98a2.1 2.1 0 0 0 .13.35z" fill="#eeefee"/><path d="m21.219 30.277a.5.5 0 0 1 -.208-.045 1.57 1.57 0 0 0 -.264-.1l-13.994-3.985a.5.5 0 0 1 -.323-.677 33.19 33.19 0 0 1 17.624-17.623.5.5 0 0 1 .677.323l3.98 13.98a1.6 1.6 0 0 0 .1.28.5.5 0 0 1 -.216.645 17.424 17.424 0 0 0 -6.941 6.941.5.5 0 0 1 -.435.261zm-13.642-4.935 13.416 3.819a18.413 18.413 0 0 1 6.753-6.752l-3.82-13.416a32.184 32.184 0 0 0 -16.349 16.349z" fill="#323c6b"/><path d="m67.11 25.667-13.98 3.98a2.1 2.1 0 0 0 -.35.13 18.031 18.031 0 0 0 -7.14-7.14 2.1 2.1 0 0 0 .13-.35l3.98-13.98a32.9 32.9 0 0 1 17.36 17.36z" fill="#eeefee"/><path d="m67.11 51.167a32.9 32.9 0 0 1 -17.36 17.36l-3.98-13.98a2.1 2.1 0 0 0 -.13-.35 18.031 18.031 0 0 0 7.14-7.14 2.092 2.092 0 0 0 .35.13z" fill="#eeefee"/><path d="m67.11 25.667-3.08.88a32.664 32.664 0 0 0 -15.06-15.51l.78-2.73a32.9 32.9 0 0 1 17.36 17.36z" fill="#e1e6e9"/><path d="m67.11 51.167a32.9 32.9 0 0 1 -17.36 17.36l-.76-2.68a32.7 32.7 0 0 0 15.06-15.547z" fill="#e1e6e9"/><path d="m28.36 54.2a2.1 2.1 0 0 0 -.13.35l-3.98 13.98a32.9 32.9 0 0 1 -17.36-17.363l13.98-3.98a2.092 2.092 0 0 0 .35-.13 18.031 18.031 0 0 0 7.14 7.143z" fill="#eeefee"/><path d="m24.25 69.027a.5.5 0 0 1 -.2-.04 33.193 33.193 0 0 1 -17.62-17.625.5.5 0 0 1 .323-.677l13.98-3.98a1.613 1.613 0 0 0 .28-.1.5.5 0 0 1 .645.216 17.424 17.424 0 0 0 6.942 6.937.5.5 0 0 1 .216.645 1.57 1.57 0 0 0 -.1.264l-3.984 14a.5.5 0 0 1 -.266.314.5.5 0 0 1 -.216.046zm-16.673-17.536a32.184 32.184 0 0 0 16.349 16.349l3.819-13.415a18.413 18.413 0 0 1 -6.753-6.753z" fill="#323c6b"/><path d="m45.64 54.7a.508.508 0 0 1 -.159-.026.5.5 0 0 1 -.3-.269 2.071 2.071 0 0 0 -1.891-1.205l-12.581-.01a2.076 2.076 0 0 0 -1.893 1.21.5.5 0 0 1 -.7.233 18.415 18.415 0 0 1 -7.335-7.333.5.5 0 0 1 .233-.7 2.071 2.071 0 0 0 1.206-1.894l.01-12.581a2.075 2.075 0 0 0 -1.215-1.893.5.5 0 0 1 -.233-.7 18.415 18.415 0 0 1 7.338-7.332.5.5 0 0 1 .7.233 2.071 2.071 0 0 0 1.894 1.206h12.576a2.071 2.071 0 0 0 1.894-1.206.5.5 0 0 1 .7-.233 18.415 18.415 0 0 1 7.339 7.339.5.5 0 0 1 -.233.7 2.071 2.071 0 0 0 -1.205 1.894l-.01 12.581a2.076 2.076 0 0 0 1.211 1.886.5.5 0 0 1 .233.7 18.415 18.415 0 0 1 -7.339 7.339.5.5 0 0 1 -.24.061zm-14.93-2.51 12.581.01a3.086 3.086 0 0 1 2.537 1.32 17.41 17.41 0 0 0 6.272-6.275 3.085 3.085 0 0 1 -1.33-2.538l.01-12.581a3.085 3.085 0 0 1 1.32-2.537 17.412 17.412 0 0 0 -6.272-6.272 3.087 3.087 0 0 1 -2.538 1.32h-12.58a3.087 3.087 0 0 1 -2.538-1.32 17.414 17.414 0 0 0 -6.272 6.272 3.084 3.084 0 0 1 1.33 2.538l-.01 12.581a3.086 3.086 0 0 1 -1.32 2.537 17.41 17.41 0 0 0 6.272 6.272 3.085 3.085 0 0 1 2.538-1.33z" fill="#323c6b"/><path d="m45.64 54.7a.508.508 0 0 1 -.159-.026.5.5 0 0 1 -.3-.269 2.071 2.071 0 0 0 -1.891-1.205l-12.581-.01a2.076 2.076 0 0 0 -1.893 1.21.5.5 0 0 1 -.7.233 18.415 18.415 0 0 1 -7.335-7.333.5.5 0 0 1 .233-.7 2.071 2.071 0 0 0 1.206-1.894l.01-12.581a2.075 2.075 0 0 0 -1.215-1.893.5.5 0 0 1 -.233-.7 18.415 18.415 0 0 1 7.338-7.332.5.5 0 0 1 .7.233 2.071 2.071 0 0 0 1.894 1.206h12.576a2.071 2.071 0 0 0 1.894-1.206.5.5 0 0 1 .7-.233 18.415 18.415 0 0 1 7.339 7.339.5.5 0 0 1 -.233.7 2.071 2.071 0 0 0 -1.205 1.894l-.01 12.581a2.076 2.076 0 0 0 1.211 1.886.5.5 0 0 1 .233.7 18.415 18.415 0 0 1 -7.339 7.339.5.5 0 0 1 -.24.061zm-14.93-2.51 12.581.01a3.086 3.086 0 0 1 2.537 1.32 17.41 17.41 0 0 0 6.272-6.275 3.085 3.085 0 0 1 -1.33-2.538l.01-12.581a3.085 3.085 0 0 1 1.32-2.537 17.412 17.412 0 0 0 -6.272-6.272 3.087 3.087 0 0 1 -2.538 1.32h-12.58a3.087 3.087 0 0 1 -2.538-1.32 17.414 17.414 0 0 0 -6.272 6.272 3.084 3.084 0 0 1 1.33 2.538l-.01 12.581a3.086 3.086 0 0 1 -1.32 2.537 17.41 17.41 0 0 0 6.272 6.272 3.085 3.085 0 0 1 2.538-1.33z" fill="#323c6b"/><path d="m49.925 7.683-.179.625-3.98 13.977a2.082 2.082 0 0 1 -.129.347 2.557 2.557 0 0 1 -2.343 1.509h-12.588a2.557 2.557 0 0 1 -2.343-1.509 2.082 2.082 0 0 1 -.129-.347l-3.98-13.977-.179-.625a2.563 2.563 0 0 1 2.462-3.266h20.926a2.563 2.563 0 0 1 2.462 3.266z" fill="#fe7058"/><path d="m22.735 32.123-.01 12.587a2.557 2.557 0 0 1 -1.509 2.343 2.077 2.077 0 0 1 -.347.129l-13.978 3.981-.625.179a2.563 2.563 0 0 1 -3.266-2.462v-20.926a2.563 2.563 0 0 1 3.266-2.462l.625.179 13.977 3.981a2.082 2.082 0 0 1 .347.129 2.566 2.566 0 0 1 1.52 2.342z" fill="#fe7058"/><path d="m5.556 51.942a3.067 3.067 0 0 1 -3.056-3.062v-20.926a3.064 3.064 0 0 1 3.9-2.943l14.6 4.159a2.586 2.586 0 0 1 .418.156 3.064 3.064 0 0 1 1.811 2.8l-.01 12.587a3.063 3.063 0 0 1 -1.806 2.8 2.493 2.493 0 0 1 -.43.157l-14.583 4.153a3.105 3.105 0 0 1 -.844.119zm0-26.05a2.067 2.067 0 0 0 -2.056 2.062v20.926a2.064 2.064 0 0 0 2.629 1.981l14.6-4.16a1.589 1.589 0 0 0 .276-.1 2.063 2.063 0 0 0 1.217-1.888l.01-12.588a2.066 2.066 0 0 0 -1.222-1.886 1.647 1.647 0 0 0 -.267-.1l-14.614-4.166a2.07 2.07 0 0 0 -.571-.081z" fill="#323c6b"/><path d="m47.463 72.417h-20.926a2.563 2.563 0 0 1 -2.462-3.266l.179-.625 3.981-13.977a2.085 2.085 0 0 1 .129-.347 2.566 2.566 0 0 1 2.343-1.519l12.587.01a2.557 2.557 0 0 1 2.343 1.507 2.085 2.085 0 0 1 .129.347l3.981 13.977.179.625a2.563 2.563 0 0 1 -2.463 3.268z" fill="#fe7058"/><path d="m47.463 72.917h-20.926a3.063 3.063 0 0 1 -2.943-3.9l4.159-14.6a2.587 2.587 0 0 1 .154-.417 3.067 3.067 0 0 1 2.8-1.813l12.588.01a3.062 3.062 0 0 1 2.798 1.803 2.558 2.558 0 0 1 .157.43l4.155 14.587a3.063 3.063 0 0 1 -2.943 3.9zm-16.757-19.735a2.067 2.067 0 0 0 -1.886 1.218 1.667 1.667 0 0 0 -.1.265l-4.164 14.623a2.063 2.063 0 0 0 1.981 2.628h20.926a2.063 2.063 0 0 0 1.981-2.628l-4.159-14.6a1.669 1.669 0 0 0 -.1-.278 2.063 2.063 0 0 0 -1.887-1.214z" fill="#323c6b"/><path d="m71 27.954v20.926a2.563 2.563 0 0 1 -3.266 2.462l-.625-.179-13.978-3.981a2.077 2.077 0 0 1 -.347-.129 2.566 2.566 0 0 1 -1.519-2.343l.01-12.587a2.557 2.557 0 0 1 1.509-2.343 2.082 2.082 0 0 1 .347-.129l13.978-3.981.625-.179a2.563 2.563 0 0 1 3.266 2.463z" fill="#fe7058"/><path d="m49.92 7.687-.17.62-3.98 13.98a2.1 2.1 0 0 1 -.13.35 2.56 2.56 0 0 1 -2.35 1.5h-.41l3.87-13.59.17-.63a2.554 2.554 0 0 0 -2.46-3.26h-20.46a2.571 2.571 0 0 1 2.54-2.24h20.92a2.562 2.562 0 0 1 2.46 3.27z" fill="#ea6453"/><path d="m22.735 32.123-.01 12.587a2.557 2.557 0 0 1 -1.509 2.343 2.077 2.077 0 0 1 -.347.129l-13.978 3.981-.625.179a2.563 2.563 0 0 1 -3.266-2.462v-20.926a2.563 2.563 0 0 1 3.266-2.462l.625.179 13.977 3.981a2.082 2.082 0 0 1 .347.129 2.566 2.566 0 0 1 1.52 2.342z" fill="#fe7058"/><path d="m5.556 51.942a3.067 3.067 0 0 1 -3.056-3.062v-20.926a3.064 3.064 0 0 1 3.9-2.943l14.6 4.159a2.586 2.586 0 0 1 .418.156 3.064 3.064 0 0 1 1.811 2.8l-.01 12.587a3.063 3.063 0 0 1 -1.806 2.8 2.493 2.493 0 0 1 -.43.157l-14.583 4.153a3.105 3.105 0 0 1 -.844.119zm0-26.05a2.067 2.067 0 0 0 -2.056 2.062v20.926a2.064 2.064 0 0 0 2.629 1.981l14.6-4.16a1.589 1.589 0 0 0 .276-.1 2.063 2.063 0 0 0 1.217-1.888l.01-12.588a2.066 2.066 0 0 0 -1.222-1.886 1.647 1.647 0 0 0 -.267-.1l-14.614-4.166a2.07 2.07 0 0 0 -.571-.081z" fill="#323c6b"/><path d="m6.375 41.05a.65.65 0 0 1 -.65-.65v-.325a.65.65 0 0 1 1.3 0v.325a.65.65 0 0 1 -.65.65z" fill="#fff"/><path d="m8.93 47.442a3.218 3.218 0 0 1 -3.2-3.212v-1.73a.65.65 0 0 1 1.3 0v1.725a1.914 1.914 0 0 0 2.438 1.837l.625-.179a.65.65 0 0 1 .357 1.25l-.625.179a3.249 3.249 0 0 1 -.895.13z" fill="#fff"/><path d="m47.463 72.417h-20.926a2.563 2.563 0 0 1 -2.462-3.266l.179-.625 3.981-13.977a2.085 2.085 0 0 1 .129-.347 2.566 2.566 0 0 1 2.343-1.519l12.587.01a2.557 2.557 0 0 1 2.343 1.507 2.085 2.085 0 0 1 .129.347l3.981 13.977.179.625a2.563 2.563 0 0 1 -2.463 3.268z" fill="#fe7058"/><path d="m47.463 72.917h-20.926a3.063 3.063 0 0 1 -2.943-3.9l4.159-14.6a2.587 2.587 0 0 1 .154-.417 3.067 3.067 0 0 1 2.8-1.813l12.588.01a3.062 3.062 0 0 1 2.798 1.803 2.558 2.558 0 0 1 .157.43l4.155 14.587a3.063 3.063 0 0 1 -2.943 3.9zm-16.757-19.735a2.067 2.067 0 0 0 -1.886 1.218 1.667 1.667 0 0 0 -.1.265l-4.164 14.623a2.063 2.063 0 0 0 1.981 2.628h20.926a2.063 2.063 0 0 0 1.981-2.628l-4.159-14.6a1.669 1.669 0 0 0 -.1-.278 2.063 2.063 0 0 0 -1.887-1.214z" fill="#323c6b"/><path d="m71 27.957v20.92a2.561 2.561 0 0 1 -3 2.52v-20.08a2.562 2.562 0 0 0 -3.27-2.46l-.62.18-12.83 3.65v-.56a2.56 2.56 0 0 1 1.5-2.35 2.1 2.1 0 0 1 .35-.13l13.98-3.98.62-.17a2.562 2.562 0 0 1 3.27 2.46z" fill="#ea6453"/><g fill="#323c6b"><path d="m15.061 67.131a.5.5 0 0 1 -.29-.093q-.267-.19-.529-.387a.5.5 0 1 1 .6-.8c.167.126.335.249.506.37a.5.5 0 0 1 -.291.907z"/><path d="m12.413 64.786a.5.5 0 0 1 -.344-.138 36.241 36.241 0 0 1 -5.806-7.124.5.5 0 0 1 .849-.524 35.237 35.237 0 0 0 5.645 6.928.5.5 0 0 1 -.344.862z"/><path d="m40.208 1.917h-.792a.5.5 0 1 1 0-1h.792a.5.5 0 1 1 0 1z"/><path d="m51.9 4.127a.5.5 0 0 1 -.4-.2 5.02 5.02 0 0 0 -4.038-2.012h-4.65a.5.5 0 1 1 0-1h4.65a6.012 6.012 0 0 1 4.838 2.411.5.5 0 0 1 -.4.8z"/><path d="m43.294 24.642h-12.588a3.062 3.062 0 0 1 -2.8-1.805 2.563 2.563 0 0 1 -.157-.43l-4.155-14.587a3.064 3.064 0 0 1 2.943-3.9h20.926a3.064 3.064 0 0 1 2.943 3.9l-4.159 14.6a2.592 2.592 0 0 1 -.154.417 3.062 3.062 0 0 1 -2.799 1.805zm-16.757-19.725a2.063 2.063 0 0 0 -1.981 2.629l4.159 14.6a1.675 1.675 0 0 0 .1.279 2.063 2.063 0 0 0 1.887 1.214h12.592a2.062 2.062 0 0 0 1.886-1.212 1.672 1.672 0 0 0 .1-.265l4.164-14.617a2.063 2.063 0 0 0 -1.981-2.629z"/><path d="m68.444 51.942a3.1 3.1 0 0 1 -.847-.119l-14.6-4.16a2.51 2.51 0 0 1 -.418-.155 3.065 3.065 0 0 1 -1.811-2.8l.01-12.588a3.061 3.061 0 0 1 1.806-2.8 2.549 2.549 0 0 1 .427-.157l14.589-4.152a3.064 3.064 0 0 1 3.9 2.943v20.926a3.067 3.067 0 0 1 -3.056 3.062zm0-26.05a2.07 2.07 0 0 0 -.571.081l-14.6 4.159a1.6 1.6 0 0 0 -.276.1 2.062 2.062 0 0 0 -1.217 1.888l-.01 12.588a2.067 2.067 0 0 0 1.218 1.892 1.617 1.617 0 0 0 .265.1l14.619 4.164a2.064 2.064 0 0 0 2.628-1.984v-20.926a2.067 2.067 0 0 0 -2.058-2.062z"/><path d="m52.781 30.277a.5.5 0 0 1 -.439-.26 17.424 17.424 0 0 0 -6.942-6.942.5.5 0 0 1 -.216-.645 1.57 1.57 0 0 0 .1-.264l3.984-14a.5.5 0 0 1 .677-.323 33.19 33.19 0 0 1 17.625 17.628.5.5 0 0 1 -.323.677l-13.98 3.98a1.6 1.6 0 0 0 -.278.1.5.5 0 0 1 -.208.049zm-6.526-7.868a18.414 18.414 0 0 1 6.753 6.753l13.416-3.819a32.184 32.184 0 0 0 -16.35-16.35z"/><path d="m49.75 69.027a.5.5 0 0 1 -.215-.049.5.5 0 0 1 -.266-.314l-3.98-13.98a1.6 1.6 0 0 0 -.1-.28.5.5 0 0 1 .216-.645 17.424 17.424 0 0 0 6.941-6.941.5.5 0 0 1 .645-.216 1.581 1.581 0 0 0 .263.1l14 3.984a.5.5 0 0 1 .323.677 33.193 33.193 0 0 1 -17.631 17.624.5.5 0 0 1 -.196.04zm-3.5-14.6 3.824 13.413a32.184 32.184 0 0 0 16.349-16.349l-13.415-3.819a18.412 18.412 0 0 1 -6.753 6.753z"/></g></g></svg>