<svg height="512" viewBox="0 0 74 74" width="512" xmlns="http://www.w3.org/2000/svg"><g id="color_line" data-name="color line"><path d="m71 28.1-.03-5.5-5.49-1.417a16.1 16.1 0 0 0 -1.643-3.9l2.826-4.919-3.905-3.864-4.888 2.88a16.1 16.1 0 0 0 -3.915-1.6l-1.48-5.469-5.493.03-1.419 5.489a16.1 16.1 0 0 0 -3.9 1.643l-4.917-2.826-3.863 3.906 2.88 4.888a16.1 16.1 0 0 0 -1.6 3.915l-5.473 1.479.03 5.493 5.489 1.419a16.1 16.1 0 0 0 1.643 3.9l-2.826 4.919 3.906 3.863 4.888-2.88a16.1 16.1 0 0 0 3.915 1.6l1.479 5.473 5.493-.03 1.421-5.492a16.1 16.1 0 0 0 3.9-1.643l4.919 2.826 3.863-3.906-2.88-4.888a16.1 16.1 0 0 0 1.6-3.915z" fill="#9297ab"/><path d="m36.442 50.054-1.257-4.182-4.5.152a12.8 12.8 0 0 0 -2.128-2.6l1.05-4.386-3.846-2.068-3.08 3.294a12.8 12.8 0 0 0 -3.345-.34l-2.358-3.841-4.182 1.257.152 4.5a12.8 12.8 0 0 0 -2.6 2.128l-4.386-1.05-2.075 3.849 3.294 3.08a12.8 12.8 0 0 0 -.34 3.345l-3.841 2.358 1.257 4.182 4.5-.152a12.8 12.8 0 0 0 2.128 2.6l-1.045 4.388 3.846 2.068 3.08-3.294a12.8 12.8 0 0 0 3.345.34l2.358 3.841 4.182-1.257-.152-4.5a12.8 12.8 0 0 0 2.6-2.128l4.386 1.05 2.068-3.846-3.294-3.08a12.8 12.8 0 0 0 .34-3.345z" fill="#9297ab"/><path d="m41.67 11.477a15.11 15.11 0 0 1 2.7-1.26l-.47 1.81a16.049 16.049 0 0 0 -3.9 1.65l-4.92-2.83-2.01 2.03-.19-.32 3.87-3.91z" fill="#84879c"/><path d="m71 28.1-1.68.45-.02-3.75-5.49-1.41a15.64 15.64 0 0 0 -1.64-3.9l2.83-4.923-3.91-3.86-4.89 2.88a15.765 15.765 0 0 0 -3.91-1.6l-1.48-5.48-4.4.02.57-2.19 5.5-.03 1.47 5.48a15.834 15.834 0 0 1 3.92 1.6l4.89-2.88 3.9 3.86-2.82 4.92a16.025 16.025 0 0 1 1.64 3.9l5.49 1.42z" fill="#84879c"/><path d="m33.52 48.077-4.51.15a13.09 13.09 0 0 0 -2.12-2.61l1.04-4.38-3.84-2.07-3.08 3.3a12.468 12.468 0 0 0 -3.35-.34l-2.35-3.85-2.46.74-.06-1.68 4.18-1.26 2.36 3.85a12.507 12.507 0 0 1 3.35.34l3.08-3.3 3.84 2.07-1.05 4.38a13.136 13.136 0 0 1 2.13 2.61l4.5-.15 1.26 4.18-1.97 1.21z" fill="#84879c"/><circle cx="49.845" cy="25.465" fill="#fff" r="9.682" transform="matrix(1 -.006 .006 1 -.14 .276)"/><path d="m49.843 35.646a10.181 10.181 0 0 1 -.054-20.363h.057a10.192 10.192 0 0 1 10.18 10.126 10.179 10.179 0 0 1 -10.126 10.237zm0-19.363h-.052a9.182 9.182 0 0 0 -6.406 15.709 9.181 9.181 0 0 0 15.638-6.579 9.181 9.181 0 0 0 -9.18-9.131z" fill="#323c6b"/><circle cx="19.721" cy="52.802" fill="#fff" r="7.523" transform="matrix(.958 -.288 .288 .958 -14.369 7.915)"/><g fill="#323c6b"><path d="m19.71 60.829a8.045 8.045 0 1 1 2.32-.343 7.985 7.985 0 0 1 -2.32.343zm.02-15.054a7.027 7.027 0 0 0 -6.735 9.049 7.021 7.021 0 1 0 6.735-9.049z"/><path d="m43.322 7.01a.5.5 0 0 1 -.484-.625l.226-.875a.5.5 0 0 1 .969.25l-.226.875a.5.5 0 0 1 -.485.375z"/><path d="m44.024 4.292a.483.483 0 0 1 -.125-.016.5.5 0 0 1 -.359-.609l.63-2.438a.5.5 0 0 1 .481-.375l5.439-.03a.5.5 0 0 1 0 1l-5.055.028-.533 2.065a.5.5 0 0 1 -.478.375z"/><path d="m35.036 66.638a.5.5 0 0 1 -.116-.014l-4.161-1a.5.5 0 0 1 .232-.973l3.787.907 1.622-3.018a.5.5 0 0 1 .881.474l-1.807 3.361a.5.5 0 0 1 -.438.263z"/><path d="m37.844 61.187a.5.5 0 0 1 -.44-.736l.3-.562a.5.5 0 1 1 .881.473l-.3.562a.5.5 0 0 1 -.441.263z"/><path d="m47.216 47.12a.5.5 0 0 1 -.482-.37l-1.405-5.2a16.63 16.63 0 0 1 -3.5-1.431l-4.641 2.734a.5.5 0 0 1 -.605-.075l-3.905-3.863a.5.5 0 0 1 -.082-.6l2.683-4.67a16.646 16.646 0 0 1 -1.47-3.485l-5.209-1.347a.5.5 0 0 1 -.375-.481l-.03-5.493a.5.5 0 0 1 .369-.486l5.2-1.4a16.629 16.629 0 0 1 1.431-3.5l-2.734-4.64a.5.5 0 0 1 .075-.605l3.855-3.908a.5.5 0 0 1 .6-.082l4.675 2.682a16.609 16.609 0 0 1 3.485-1.469l1.349-5.215a.5.5 0 0 1 .481-.375l5.494-.03a.5.5 0 0 1 .482.37l1.4 5.2a16.617 16.617 0 0 1 3.5 1.43l4.643-2.738a.5.5 0 0 1 .605.075l3.906 3.863a.5.5 0 0 1 .082.6l-2.684 4.67a16.619 16.619 0 0 1 1.47 3.485l5.211 1.347a.5.5 0 0 1 .375.481l.03 5.494a.5.5 0 0 1 -.369.486l-5.2 1.4a16.551 16.551 0 0 1 -1.43 3.5l2.734 4.64a.5.5 0 0 1 -.075.605l-3.855 3.916a.5.5 0 0 1 -.6.082l-4.67-2.683a16.6 16.6 0 0 1 -3.49 1.466l-1.347 5.211a.5.5 0 0 1 -.481.375l-5.493.031zm-5.4-8.073a.5.5 0 0 1 .248.066 15.632 15.632 0 0 0 3.794 1.55.5.5 0 0 1 .356.354l1.379 5.1 4.724-.027 1.322-5.116a.5.5 0 0 1 .361-.356 15.609 15.609 0 0 0 3.776-1.592.5.5 0 0 1 .5 0l4.585 2.634 3.321-3.36-2.682-4.556a.5.5 0 0 1 0-.5 15.654 15.654 0 0 0 1.55-3.794.5.5 0 0 1 .353-.356l5.1-1.378-.026-4.724-5.116-1.322a.5.5 0 0 1 -.361-.355 15.608 15.608 0 0 0 -1.592-3.776.5.5 0 0 1 0-.5l2.635-4.585-3.363-3.325-4.556 2.685a.5.5 0 0 1 -.5 0 15.634 15.634 0 0 0 -3.795-1.55.5.5 0 0 1 -.355-.354l-1.378-5.1-4.725.026-1.323 5.119a.5.5 0 0 1 -.353.357 15.582 15.582 0 0 0 -3.776 1.588.5.5 0 0 1 -.5 0l-4.588-2.628-3.321 3.358 2.685 4.556a.5.5 0 0 1 0 .5 15.651 15.651 0 0 0 -1.551 3.794.5.5 0 0 1 -.353.356l-5.1 1.379.026 4.723 5.116 1.323a.5.5 0 0 1 .357.352 15.672 15.672 0 0 0 1.592 3.777.5.5 0 0 1 0 .5l-2.634 4.585 3.363 3.325 4.556-2.685a.5.5 0 0 1 .253-.068z"/><path d="m22.469 70.023a.5.5 0 0 1 -.426-.238l-2.209-3.6a13.086 13.086 0 0 1 -2.9-.294l-2.884 3.085a.5.5 0 0 1 -.6.1l-3.85-2.067a.5.5 0 0 1 -.25-.557l.983-4.107a13.327 13.327 0 0 1 -1.845-2.256l-4.218.142a.476.476 0 0 1 -.5-.355l-1.249-4.183a.5.5 0 0 1 .217-.57l3.6-2.208a13.372 13.372 0 0 1 .295-2.9l-3.088-2.882a.5.5 0 0 1 -.1-.6l2.067-3.846a.5.5 0 0 1 .557-.25l4.107.983a13.383 13.383 0 0 1 2.256-1.845l-.143-4.218a.5.5 0 0 1 .356-.5l4.185-1.257a.5.5 0 0 1 .569.217l2.208 3.6a13.043 13.043 0 0 1 2.9.295l2.884-3.085a.5.5 0 0 1 .6-.1l3.847 2.073a.5.5 0 0 1 .25.557l-.988 4.102a13.327 13.327 0 0 1 1.845 2.256l4.219-.142a.478.478 0 0 1 .5.355l1.256 4.182a.5.5 0 0 1 -.217.57l-3.6 2.208a13.379 13.379 0 0 1 -.295 2.9l3.092 2.883a.5.5 0 0 1 .1.6l-2.067 3.846a.5.5 0 0 1 -.557.25l-4.107-.983a13.337 13.337 0 0 1 -2.255 1.845l.142 4.219a.5.5 0 0 1 -.356.5l-4.188 1.252a.5.5 0 0 1 -.143.023zm-2.359-4.841a.5.5 0 0 1 .426.238l2.157 3.513 3.445-1.033-.138-4.122a.5.5 0 0 1 .237-.442 12.346 12.346 0 0 0 2.5-2.045.5.5 0 0 1 .48-.144l4.012.96 1.7-3.168-3.013-2.817a.5.5 0 0 1 -.145-.48 12.334 12.334 0 0 0 .326-3.214.5.5 0 0 1 .238-.442l3.513-2.156-1.035-3.444-4.12.139a.469.469 0 0 1 -.442-.237 12.3 12.3 0 0 0 -2.045-2.5.5.5 0 0 1 -.144-.48l.96-4.011-3.168-1.7-2.813 3.003a.5.5 0 0 1 -.48.145 12.4 12.4 0 0 0 -3.214-.327.52.52 0 0 1 -.441-.238l-2.156-3.513-3.45 1.04.14 4.119a.5.5 0 0 1 -.237.442 12.3 12.3 0 0 0 -2.5 2.045.506.506 0 0 1 -.48.144l-4.011-.957-1.7 3.168 3.013 2.817a.5.5 0 0 1 .145.48 12.329 12.329 0 0 0 -.326 3.214.5.5 0 0 1 -.238.442l-3.516 2.153 1.036 3.445 4.119-.139a.5.5 0 0 1 .442.237 12.3 12.3 0 0 0 2.045 2.5.5.5 0 0 1 .144.48l-.96 4.011 3.168 1.7 2.816-3.008a.5.5 0 0 1 .48-.146 12.3 12.3 0 0 0 3.214.327z"/></g><path d="m47.688 38.535a.642.642 0 0 1 -.113-.01l-.23-.039c-.242-.04-.484-.081-.721-.14a.65.65 0 0 1 .314-1.262c.2.051.41.084.618.119l.243.041a.65.65 0 0 1 -.111 1.29z" fill="#fff"/><path d="m44.375 37.488a.646.646 0 0 1 -.283-.065 13.3 13.3 0 0 1 -5.65-5.171.65.65 0 0 1 1.117-.666 12 12 0 0 0 5.1 4.667.65.65 0 0 1 -.283 1.235z" fill="#fff"/></g></svg>