<svg height="512" viewBox="0 0 74 74" width="512" xmlns="http://www.w3.org/2000/svg"><g id="color_line" data-name="color line"><path d="m47.456 41.726 3.571 3.571-5.695 5.695-3.587-3.587" fill="#707583"/><path d="m45.332 51.492a.5.5 0 0 1 -.354-.146l-3.587-3.587a.5.5 0 0 1 .707-.707l3.233 3.234 4.989-4.986-3.22-3.221a.5.5 0 0 1 .707-.707l3.571 3.571a.5.5 0 0 1 0 .707l-5.7 5.695a.5.5 0 0 1 -.346.147z" fill="#323c6b"/><path d="m51.012 45.32-5.657 5.657a2.883 2.883 0 0 0 0 4.077l14.617 14.617a4.839 4.839 0 0 0 6.843 0l2.892-2.892a4.839 4.839 0 0 0 0-6.843l-14.617-14.616a2.883 2.883 0 0 0 -4.078 0z" fill="#9297ab"/><path d="m69.71 59.937-14.62-14.62a2.9 2.9 0 0 0 -4.08 0l-1.916 1.92v.053a2.9 2.9 0 0 1 4.046.027l14.62 14.62a4.827 4.827 0 0 1 .36 6.43l1.59-1.59a4.835 4.835 0 0 0 0-6.84z" fill="#84879c"/><circle cx="27.553" cy="27.422" fill="#9297ab" r="25.506" transform="matrix(.707 -.707 .707 .707 -11.32 27.515)"/><path d="m46.02 45a25.506 25.506 0 0 0 -38.55-33.193 6.175 6.175 0 0 0 -.43.46 25.5 25.5 0 1 1 38.98 32.733z" fill="#84879c"/><circle cx="27.553" cy="27.422" fill="#89c5cd" r="19.172" transform="matrix(.707 -.707 .707 .707 -11.32 27.515)"/><g fill="#323c6b"><path d="m27.554 47.085a19.663 19.663 0 0 1 -13.911-33.573 19.672 19.672 0 1 1 13.911 33.573zm-13.204-32.866a18.673 18.673 0 1 0 26.407 0 18.7 18.7 0 0 0 -26.407 0z"/><path d="m27.554 38.243a5.667 5.667 0 0 1 -5.661-5.66.5.5 0 0 1 1 0 4.661 4.661 0 1 0 4.661-4.66 5.66 5.66 0 1 1 5.66-5.661.5.5 0 0 1 -1 0 4.661 4.661 0 1 0 -4.66 4.661 5.66 5.66 0 1 1 0 11.32z"/><path d="m27.554 17.6a.5.5 0 0 1 -.5-.5v-1.621a.5.5 0 0 1 1 0v1.621a.5.5 0 0 1 -.5.5z"/><path d="m27.554 39.866a.5.5 0 0 1 -.5-.5v-1.623a.5.5 0 0 1 1 0v1.624a.5.5 0 0 1 -.5.499z"/></g><path d="m48.412 62.354 5.531 5.531" fill="#9297ab"/><path d="m53.943 68.385a.5.5 0 0 1 -.354-.146l-5.531-5.531a.5.5 0 0 1 .708-.708l5.534 5.532a.5.5 0 0 1 -.354.854z" fill="#323c6b"/><path d="m45.975 59.917.562.562" fill="#9297ab"/><path d="m46.537 60.979a.5.5 0 0 1 -.354-.146l-.562-.562a.5.5 0 0 1 .707-.707l.563.563a.5.5 0 0 1 -.354.854z" fill="#323c6b"/><path d="m45.75 5.481c-.2-.168-.41-.325-.62-.481" fill="#9297ab"/><path d="m45.75 5.981a.5.5 0 0 1 -.319-.115c-.2-.162-.4-.314-.6-.464a.5.5 0 1 1 .594-.8c.218.161.434.324.643.5a.5.5 0 0 1 -.319.885z" fill="#323c6b"/><path d="m54.349 17.75a28.322 28.322 0 0 0 -6.179-10" fill="#9297ab"/><path d="m54.35 18.25a.5.5 0 0 1 -.471-.331 27.729 27.729 0 0 0 -6.069-9.819.5.5 0 1 1 .723-.69 28.716 28.716 0 0 1 6.287 10.171.5.5 0 0 1 -.471.669z" fill="#323c6b"/><path d="m27.554 53.428a26.005 26.005 0 0 1 -18.389-44.394 26.006 26.006 0 0 1 36.777 36.777 25.836 25.836 0 0 1 -18.388 7.617zm0-51.011a24.842 24.842 0 0 0 -17.682 7.324 25.006 25.006 0 1 0 17.682-7.324z" fill="#323c6b"/><path d="m63.395 71.586a5.322 5.322 0 0 1 -3.775-1.561l-14.62-14.617a3.383 3.383 0 0 1 0-4.785l5.657-5.657a3.386 3.386 0 0 1 4.784 0l14.62 14.617a5.344 5.344 0 0 1 0 7.55l-2.892 2.892a5.322 5.322 0 0 1 -3.774 1.561zm-10.343-26.609a2.378 2.378 0 0 0 -1.686.7l-5.657 5.653a2.385 2.385 0 0 0 0 3.371l14.617 14.617a4.343 4.343 0 0 0 6.136 0l2.892-2.892a4.344 4.344 0 0 0 0-6.136l-14.618-14.617a2.377 2.377 0 0 0 -1.684-.696z" fill="#323c6b"/><path d="m14.716 46.192a.646.646 0 0 1 -.375-.12 21.9 21.9 0 0 1 -6.571-7.2.65.65 0 0 1 1.125-.651 20.644 20.644 0 0 0 6.2 6.8.65.65 0 0 1 -.377 1.18z" fill="#fff"/><path d="m6.894 36.227a.651.651 0 0 1 -.608-.42l-.224-.607a.65.65 0 0 1 1.223-.443l.217.589a.651.651 0 0 1 -.608.88z" fill="#fff"/></g></svg>