<svg height="512" viewBox="0 0 74 74" width="512" xmlns="http://www.w3.org/2000/svg"><g id="color_line" data-name="color line"><path d="m63.857 22.513-2.33 2.78h-.01l-13.3-11.16 2.34-2.79z" fill="#eeefee"/><path d="m68.506 16.956-4.65 5.557-13.3-11.17 4.644-5.543a4.317 4.317 0 0 1 6.09-.53l6.68 5.6a4.327 4.327 0 0 1 .536 6.086z" fill="#9297ab"/><path d="m15.957 70.343-5.44 2.24 1.25-5.75a5.827 5.827 0 0 1 4.19 3.51z" fill="#84879c"/><path d="m10.517 73.083a.5.5 0 0 1 -.488-.606l1.25-5.75a.5.5 0 0 1 .591-.383 6.329 6.329 0 0 1 4.553 3.815.5.5 0 0 1 -.274.646l-5.44 2.24a.5.5 0 0 1 -.192.038zm1.628-5.637-.937 4.312 4.08-1.68a5.313 5.313 0 0 0 -1.3-1.622 5.238 5.238 0 0 0 -1.843-1.01z" fill="#323c6b"/><path d="m27.787 65.493-11.83 4.85a5.827 5.827 0 0 0 -4.19-3.51l2.72-12.5q10.59.885 13.3 11.16z" fill="#e7aa6c"/><path d="m61.517 25.293-33.73 40.2q-2.715-10.275-13.3-11.16l33.73-40.2z" fill="#27ccbc"/><path d="m61.68 20.687-.024-.02h-.022l.036.03-2.33 2.77 2.18 1.83h.01l2.33-2.78z" fill="#e1e6e9"/><path d="m67.97 10.867-2.177-1.825h-.031l.018.015a4.327 4.327 0 0 1 .54 6.09l-4.57 5.453v.064h-.05l-.017.02 2.18 1.83 4.65-5.56a4.327 4.327 0 0 0 -.543-6.087z" fill="#84879c"/><path d="m27.79 65.5-11.83 4.85a5.642 5.642 0 0 0 -1.47-2.11l12.01-5.633.185-.221a19.253 19.253 0 0 1 1.105 3.114z" fill="#d09865"/><path d="m61.52 25.3-33.73 40.2a19.253 19.253 0 0 0 -1.11-3.11l32.65-38.91h.01v-.01z" fill="#21b3a9"/><g fill="#323c6b"><path d="m28.329 56.32a.5.5 0 0 1 -.383-.821l25.354-30.219a.5.5 0 0 1 .766.643l-25.354 30.219a.5.5 0 0 1 -.383.178z"/><path d="m23.921 52.621a.5.5 0 0 1 -.383-.821l25.357-30.219a.5.5 0 0 1 .766.643l-25.361 30.218a.5.5 0 0 1 -.379.179z"/><path d="m52.9 4.371a.5.5 0 0 1 -.383-.822 7.813 7.813 0 0 1 10.483-1.376.5.5 0 1 1 -.574.818 6.813 6.813 0 0 0 -9.147 1.2.5.5 0 0 1 -.379.18z"/><path d="m65.838 5.667a.5.5 0 0 1 -.321-.117l-1-.838a.5.5 0 0 1 .643-.767l1 .838a.5.5 0 0 1 -.321.883z"/><path d="m45.595 49.436a.5.5 0 0 1 -.383-.821l7.656-9.125a.5.5 0 0 1 .766.643l-7.656 9.125a.5.5 0 0 1 -.383.178z"/><path d="m42.815 52.749a.5.5 0 0 1 -.383-.821l.839-1a.5.5 0 1 1 .766.643l-.839 1a.5.5 0 0 1 -.383.178z"/><path d="m61.526 25.792a.526.526 0 0 1 -.331-.117l-13.295-11.159a.5.5 0 0 1 -.062-.7l2.34-2.79a.5.5 0 0 1 .7-.062l13.3 11.17a.5.5 0 0 1 .062.7l-2.33 2.78a.5.5 0 0 1 -.384.178zm-12.605-11.721 12.54 10.521 1.691-2.019-12.534-10.526z"/><path d="m63.856 23.013a.5.5 0 0 1 -.321-.117l-13.3-11.17a.5.5 0 0 1 -.062-.7l4.64-5.547a4.817 4.817 0 0 1 6.8-.591l6.68 5.6a4.84 4.84 0 0 1 .6 6.794l-4.65 5.557a.5.5 0 0 1 -.34.177zm-12.6-11.732 12.539 10.527 4.328-5.172a3.837 3.837 0 0 0 -.479-5.386l-6.68-5.6a3.816 3.816 0 0 0 -5.386.468z"/><path d="m15.957 70.843a.5.5 0 0 1 -.465-.316 5.329 5.329 0 0 0 -3.828-3.205.5.5 0 0 1 -.386-.6l2.722-12.496a.49.49 0 0 1 .53-.392c7.257.606 11.88 4.486 13.742 11.53a.5.5 0 0 1 -.294.59l-11.83 4.85a.489.489 0 0 1 -.191.039zm-3.6-4.377a6.217 6.217 0 0 1 2.271 1.225 6.307 6.307 0 0 1 1.588 2.009l10.972-4.5c-1.791-6.271-5.823-9.655-12.307-10.327z"/><path d="m27.787 65.993a.491.491 0 0 1 -.109-.012.5.5 0 0 1 -.374-.36c-1.767-6.685-5.973-10.214-12.859-10.79a.5.5 0 0 1 -.341-.819l33.73-40.2a.5.5 0 0 1 .339-.177.481.481 0 0 1 .365.115l13.3 11.16a.5.5 0 0 1 .062.7l-33.73 40.204a.5.5 0 0 1 -.383.179zm-12.313-12.059c6.4.816 10.615 4.35 12.534 10.518l32.8-39.1-12.53-10.515z"/></g><path d="m21.147 51.559a.65.65 0 0 1 -.5-1.062l6.075-7.408a.65.65 0 0 1 1.006.824l-6.078 7.408a.65.65 0 0 1 -.503.238z" fill="#fff"/><path d="m28.625 42.442a.65.65 0 0 1 -.5-1.062l.619-.755a.65.65 0 1 1 1.006.824l-.619.755a.65.65 0 0 1 -.506.238z" fill="#fff"/></g></svg>