<svg height="512" viewBox="0 0 74 74" width="512" xmlns="http://www.w3.org/2000/svg"><g id="color_line" data-name="color line"><path d="m69.02 48.355a33.98 33.98 0 1 0 -20.584 20.584" fill="#89c5cd"/><path d="m71 36.917a33.666 33.666 0 0 1 -1.98 11.44l-3 3a34.006 34.006 0 0 0 -32.02-45.44 33.849 33.849 0 0 0 -22.49 8.51 33.994 33.994 0 0 1 59.49 22.49z" fill="#6eaaad"/><path d="m37 71.415c-9.768 0-17.715-15.476-17.715-34.5s7.945-34.497 17.715-34.497 17.728 15.476 17.728 34.5c0 1.406-.039 2.691-.118 3.927a.5.5 0 0 1 -1-.064c.078-1.214.116-2.478.116-3.862 0-18.471-7.5-33.5-16.728-33.5s-16.715 15.027-16.715 33.5 7.5 33.5 16.715 33.5c2.789 0 5.553-1.423 7.992-4.116a.5.5 0 1 1 .74.671c-2.63 2.904-5.653 4.441-8.73 4.441z" fill="#323c6b"/><path d="m37 71.311a.5.5 0 0 1 -.5-.5v-67.892a.5.5 0 1 1 1 0v67.892a.5.5 0 0 1 -.5.5z" fill="#323c6b"/><path d="m40.939 54.188h-33.354a.5.5 0 0 1 0-1h33.354a.5.5 0 0 1 0 1z" fill="#323c6b"/><path d="m70.948 37.365h-67.891a.5.5 0 0 1 0-1h67.891a.5.5 0 0 1 0 1z" fill="#323c6b"/><path d="m66.42 20.544h-58.834a.5.5 0 0 1 0-1h58.834a.5.5 0 0 1 0 1z" fill="#323c6b"/><path d="m55.893 67.914a12.108 12.108 0 1 1 12.107-12.108 12.122 12.122 0 0 1 -12.107 12.108z" fill="#e1e6e9"/><path d="m55.893 68.414a12.608 12.608 0 1 1 12.607-12.608 12.622 12.622 0 0 1 -12.607 12.608zm0-24.215a11.608 11.608 0 1 0 11.607 11.607 11.621 11.621 0 0 0 -11.607-11.606z" fill="#323c6b"/><path d="m55.892 70.914a15.108 15.108 0 1 1 15.108-15.108 15.108 15.108 0 0 1 -15.108 15.108" fill="#eeefee"/><path d="m67.09 65.947a15.1 15.1 0 0 0 -24.1-18 15.107 15.107 0 1 1 24.1 18z" fill="#e1e6e9"/><path d="m66.41 66.637a15.1 15.1 0 0 1 -21.04 0 6.713 6.713 0 0 1 6.72-6.58h.67a5.4 5.4 0 0 0 6.26 0h.68a6.7 6.7 0 0 1 6.71 6.58z" fill="#fcd462"/><path d="m56.014 71.42a15.881 15.881 0 0 1 -10.99-4.42.5.5 0 0 1 -.154-.371 7.251 7.251 0 0 1 7.22-7.071h.67a.5.5 0 0 1 .286.09 4.976 4.976 0 0 0 5.685 0 .5.5 0 0 1 .289-.092h.68a7.234 7.234 0 0 1 7.21 7.072.5.5 0 0 1 -.145.359 15.022 15.022 0 0 1 -10.751 4.433zm-10.136-4.991a14.562 14.562 0 0 0 20.025.007 6.232 6.232 0 0 0 -6.2-5.879h-.525a5.982 5.982 0 0 1 -6.569 0h-.519a6.248 6.248 0 0 0 -6.212 5.872z" fill="#323c6b"/><path d="m50.077 70.256a.5.5 0 0 1 -.5-.5v-4.129a.5.5 0 0 1 1 0v4.129a.5.5 0 0 1 -.5.5z" fill="#323c6b"/><path d="m61.709 70.256a.5.5 0 0 1 -.5-.5v-4.129a.5.5 0 0 1 1 0v4.129a.5.5 0 0 1 -.5.5z" fill="#323c6b"/><path d="m50.239 52.056c0-4 2.531-6.389 5.653-6.389s5.653 2.387 5.653 6.389c0 3.409-2.531 6.362-5.653 6.362s-5.653-2.953-5.653-6.362z" fill="#fcd462"/><g fill="#323c6b"><path d="m55.893 58.918c-3.335 0-6.153-3.143-6.153-6.863 0-4.056 2.53-6.889 6.153-6.889s6.152 2.834 6.152 6.89c0 3.72-2.817 6.862-6.152 6.862zm0-12.752c-3.034 0-5.153 2.422-5.153 5.889 0 3.178 2.36 5.863 5.153 5.863s5.152-2.685 5.152-5.863c0-3.467-2.119-5.888-5.152-5.888z"/><path d="m55.435 5.417a.5.5 0 0 1 -.232-.057c-.235-.124-.476-.241-.716-.355a.5.5 0 1 1 .432-.9c.252.121.5.243.749.372a.5.5 0 0 1 -.232.943z"/><path d="m66.063 14.566a.5.5 0 0 1 -.393-.191 36.673 36.673 0 0 0 -8.119-7.6.5.5 0 1 1 .564-.825 37.649 37.649 0 0 1 8.34 7.808.5.5 0 0 1 -.393.809z"/><path d="m71.617 65.25a.5.5 0 0 1 -.435-.748c.151-.265.292-.537.43-.811a.5.5 0 1 1 .893.449c-.146.289-.294.577-.453.856a.5.5 0 0 1 -.435.254z"/><path d="m63.5 72.723a.5.5 0 0 1 -.212-.953 17.823 17.823 0 0 0 6.4-5.061.5.5 0 1 1 .783.62 18.831 18.831 0 0 1 -6.763 5.347.5.5 0 0 1 -.208.047z"/><path d="m37 71.415a34.481 34.481 0 1 1 32.491-22.892.5.5 0 0 1 -.941-.338 33.481 33.481 0 1 0 -20.282 20.283.5.5 0 0 1 .338.941 34.214 34.214 0 0 1 -11.606 2.006z"/><path d="m55.893 71.414a15.608 15.608 0 1 1 15.607-15.608 15.626 15.626 0 0 1 -15.607 15.608zm0-30.216a14.608 14.608 0 1 0 14.607 14.608 14.625 14.625 0 0 0 -14.607-14.606z"/></g><path d="m10.616 51.254a.651.651 0 0 1 -.578-.351l-.161-.303c-.126-.236-.251-.472-.365-.715a.65.65 0 1 1 1.174-.557c.106.224.224.443.339.662l.168.317a.649.649 0 0 1 -.576.949z" fill="#fff"/><path d="m8.941 47.442a.652.652 0 0 1 -.613-.435 30.318 30.318 0 0 1 -1.6-7.345.65.65 0 1 1 1.295-.116 29.022 29.022 0 0 0 1.532 7.03.651.651 0 0 1 -.613.866z" fill="#fff"/></g></svg>