<svg height="512" viewBox="0 0 74 74" width="512" xmlns="http://www.w3.org/2000/svg"><g id="color_line" data-name="color line"><rect fill="#9297ab" height="47.717" rx="3.808" width="66.162" x="3.919" y="16.902"/><path d="m70.08 20.707v40.1a3.809 3.809 0 0 1 -3.03 3.73 3.909 3.909 0 0 0 .11-.91v-40.1a3.809 3.809 0 0 0 -3.81-3.81h-58.54a3.941 3.941 0 0 0 -.77.08 3.789 3.789 0 0 1 3.69-2.89h58.54a3.8 3.8 0 0 1 3.81 3.8z" fill="#84879c"/><path d="m52.261 38.542h-30.522a.5.5 0 1 1 0-1h30.522a.5.5 0 0 1 0 1z" fill="#323c6b"/><path d="m15.8 38.3a.51.51 0 0 1 -.149-.022 5.809 5.809 0 0 1 -3.741-3.615l-6.958-16.783a.5.5 0 0 1 .924-.383l6.968 16.803a4.757 4.757 0 0 0 3.1 3.016.5.5 0 0 1 -.149.978z" fill="#323c6b"/><path d="m58.2 38.3a.5.5 0 0 1 -.149-.978 4.739 4.739 0 0 0 3.094-2.99l6.807-16.51a.5.5 0 0 1 .925.381l-6.8 16.484a5.793 5.793 0 0 1 -3.731 3.589.51.51 0 0 1 -.146.024z" fill="#323c6b"/><rect fill="#eeefee" height="8.793" rx="1.312" width="5.946" x="52.254" y="34.248"/><path d="m56.888 43.541h-3.322a1.814 1.814 0 0 1 -1.812-1.812v-6.169a1.814 1.814 0 0 1 1.812-1.812h3.321a1.814 1.814 0 0 1 1.813 1.812v6.168a1.814 1.814 0 0 1 -1.812 1.813zm-3.321-8.793a.813.813 0 0 0 -.812.813v6.168a.813.813 0 0 0 .812.813h3.321a.813.813 0 0 0 .813-.812v-6.17a.813.813 0 0 0 -.812-.812z" fill="#323c6b"/><rect fill="#eeefee" height="8.793" rx="1.312" width="5.946" x="15.8" y="34.248"/><path d="m20.434 43.541h-3.322a1.814 1.814 0 0 1 -1.812-1.813v-6.168a1.814 1.814 0 0 1 1.812-1.812h3.321a1.814 1.814 0 0 1 1.812 1.813v6.168a1.814 1.814 0 0 1 -1.811 1.812zm-3.321-8.793a.813.813 0 0 0 -.812.813v6.168a.813.813 0 0 0 .813.813h3.321a.813.813 0 0 0 .812-.812v-6.17a.813.813 0 0 0 -.812-.812z" fill="#323c6b"/><path d="m52.431 14.083v2.817h-4.531v-2.719a2.716 2.716 0 0 0 -2.715-2.715h-16.368a2.716 2.716 0 0 0 -2.717 2.715v2.719h-4.531v-2.817a6.4 6.4 0 0 1 6.392-6.383h18.078a6.4 6.4 0 0 1 6.392 6.383z" fill="#707583"/><g fill="#323c6b"><path d="m52.431 17.4h-4.531a.5.5 0 0 1 -.5-.5v-2.72a2.217 2.217 0 0 0 -2.215-2.214h-16.368a2.217 2.217 0 0 0 -2.217 2.215v2.719a.5.5 0 0 1 -.5.5h-4.531a.5.5 0 0 1 -.5-.5v-2.817a6.9 6.9 0 0 1 6.892-6.883h18.078a6.9 6.9 0 0 1 6.892 6.883v2.817a.5.5 0 0 1 -.5.5zm-4.034-1h3.534v-2.317a5.894 5.894 0 0 0 -5.892-5.883h-18.078a5.894 5.894 0 0 0 -5.892 5.883v2.317h3.531v-2.22a3.218 3.218 0 0 1 3.215-3.214h16.368a3.218 3.218 0 0 1 3.217 3.215z"/><path d="m73 56.492a.5.5 0 0 1 -.5-.5v-.608a.5.5 0 0 1 1 0v.608a.5.5 0 0 1 -.5.5z"/><path d="m70.909 66.176a.5.5 0 0 1 -.344-.862 6.158 6.158 0 0 0 1.936-4.5v-2.755a.5.5 0 0 1 1 0v2.752a7.147 7.147 0 0 1 -2.247 5.227.5.5 0 0 1 -.345.138z"/><path d="m1 46.627a.5.5 0 0 1 -.5-.5v-8.8a.5.5 0 0 1 1 0v8.8a.5.5 0 0 1 -.5.5z"/><path d="m1 35.706a.5.5 0 0 1 -.5-.5v-.639a.5.5 0 0 1 1 0v.639a.5.5 0 0 1 -.5.5z"/><path d="m66.272 65.119h-58.545a4.313 4.313 0 0 1 -4.308-4.309v-40.1a4.313 4.313 0 0 1 4.309-4.31h58.544a4.313 4.313 0 0 1 4.309 4.308v40.1a4.313 4.313 0 0 1 -4.309 4.311zm-58.544-47.719a3.312 3.312 0 0 0 -3.309 3.31v40.1a3.312 3.312 0 0 0 3.308 3.309h58.545a3.313 3.313 0 0 0 3.309-3.309v-40.1a3.312 3.312 0 0 0 -3.309-3.31z"/></g><path d="m44.443 60.754a.643.643 0 0 1 .049.257.65.65 0 0 1 -.658.642l-8.876-.088a.65.65 0 1 1 .017-1.3l8.876.088a.65.65 0 0 1 .592.401z" fill="#fff"/><path d="m33.045 60.636a.643.643 0 0 1 .049.257.65.65 0 0 1 -.658.642l-.638-.008a.65.65 0 1 1 .017-1.3l.638.008a.65.65 0 0 1 .592.401z" fill="#fff"/></g></svg>