<svg height="512" viewBox="0 0 74 74" width="512" xmlns="http://www.w3.org/2000/svg"><g id="color_line" data-name="color line"><path d="m11.868 57.8h56.449a2.432 2.432 0 0 1 2.432 2.432 9.207 9.207 0 0 1 -9.207 9.207h-42.9a9.207 9.207 0 0 1 -9.206-9.209 2.432 2.432 0 0 1 2.432-2.43z" fill="#e1e6e9"/><path d="m70.75 60.227a9.206 9.206 0 0 1 -9.21 9.21h-42.9a9.2 9.2 0 0 1 -8.02-4.69 9.145 9.145 0 0 0 4.93 1.43h42.9a9.211 9.211 0 0 0 9.17-8.38h.7a2.433 2.433 0 0 1 2.43 2.43z" fill="#d5d6db"/><path d="m4.75 17.5a7.517 7.517 0 0 1 5.787-2.709h8.087v4.3h-8.087a3.234 3.234 0 0 0 -3.179 3.829c1.144 6.47 3.541 17.3 3.933 18.29a2.1 2.1 0 0 1 .084.212 3.567 3.567 0 0 0 3.825 2.678h3.426v4.3h-3.426a7.806 7.806 0 0 1 -7.884-5.561c-.761-2-3.467-15.068-4.19-19.163a7.516 7.516 0 0 1 1.624-6.176z" fill="#e1e6e9"/><path d="m18.624 48.9h-3.424a8.279 8.279 0 0 1 -8.36-5.9c-.774-2.029-3.475-15.079-4.209-19.237a8.035 8.035 0 0 1 7.906-9.476h8.087a.5.5 0 0 1 .5.5v4.3a.5.5 0 0 1 -.5.5h-8.087a2.735 2.735 0 0 0 -2.687 3.243c1.181 6.678 3.563 17.325 3.906 18.2a2.294 2.294 0 0 1 .093.238 3.089 3.089 0 0 0 3.351 2.332h3.426a.5.5 0 0 1 .5.5v4.3a.5.5 0 0 1 -.502.5zm-8.087-33.608a7.035 7.035 0 0 0 -6.922 8.3c.71 4.021 3.419 17.117 4.166 19.074a7.345 7.345 0 0 0 7.419 5.234h2.926v-3.3h-2.926a4.055 4.055 0 0 1 -4.3-3.021 1.482 1.482 0 0 0 -.063-.162c-.415-1.05-2.823-11.918-3.971-18.413a3.734 3.734 0 0 1 3.671-4.413h7.587v-3.3z" fill="#323c6b"/><path d="m62.6 9.01v43.36a5.427 5.427 0 0 1 -5.429 5.43h-34.157a5.427 5.427 0 0 1 -5.427-5.427v-43.363z" fill="#e1e6e9"/><path d="m62.6 9.007v43.36a5.429 5.429 0 0 1 -5.43 5.43h-3.87a5.426 5.426 0 0 0 5.42-5.43v-43.36z" fill="#d5d6db"/><g fill="#323c6b"><path d="m19.749 72.936h-1.106a12.565 12.565 0 0 1 -9.1-3.866.5.5 0 1 1 .719-.7 11.572 11.572 0 0 0 8.381 3.562h1.106a.5.5 0 1 1 0 1z"/><path d="m23.291 72.936h-.958a.5.5 0 0 1 0-1h.958a.5.5 0 0 1 0 1z"/><path d="m65.6 42.792a.5.5 0 0 1 -.5-.5v-10.071a.5.5 0 0 1 1 0v10.071a.5.5 0 0 1 -.5.5z"/><path d="m65.6 30.4a.5.5 0 0 1 -.5-.5v-.929a.5.5 0 0 1 1 0v.929a.5.5 0 0 1 -.5.5z"/><path d="m61.542 69.937h-42.9a9.718 9.718 0 0 1 -9.706-9.707 2.936 2.936 0 0 1 2.932-2.93h56.448a2.936 2.936 0 0 1 2.933 2.933 9.718 9.718 0 0 1 -9.707 9.704zm-49.674-11.637a1.935 1.935 0 0 0 -1.932 1.93 8.716 8.716 0 0 0 8.707 8.707h42.9a8.716 8.716 0 0 0 8.707-8.707 1.935 1.935 0 0 0 -1.934-1.93z"/><path d="m57.171 58.3h-34.157a5.934 5.934 0 0 1 -5.927-5.927v-43.363a.5.5 0 0 1 .5-.5h45.013a.5.5 0 0 1 .5.5v43.36a5.934 5.934 0 0 1 -5.929 5.93zm-39.084-48.79v42.86a4.933 4.933 0 0 0 4.927 4.93h34.157a4.933 4.933 0 0 0 4.929-4.929v-42.861z"/></g></g></svg>