<svg height="512" viewBox="0 0 74 74" width="512" xmlns="http://www.w3.org/2000/svg"><g id="color_line" data-name="color line"><path d="m71 41.144-.049-8.829-8.823-2.28a25.884 25.884 0 0 0 -2.64-6.264l4.542-7.906-6.277-6.21-7.853 4.629a25.884 25.884 0 0 0 -6.3-2.571l-2.377-8.8-8.823.052-2.28 8.823a25.884 25.884 0 0 0 -6.264 2.64l-7.909-4.542-6.208 6.278 4.629 7.856a25.884 25.884 0 0 0 -2.568 6.292l-8.8 2.378.049 8.829 8.823 2.28a25.884 25.884 0 0 0 2.64 6.264l-4.543 7.906 6.278 6.209 7.853-4.629a25.884 25.884 0 0 0 6.3 2.571l2.377 8.8 8.829-.049 2.28-8.823a25.884 25.884 0 0 0 6.264-2.64l7.906 4.542 6.209-6.278-4.629-7.856a25.884 25.884 0 0 0 2.564-6.295z" fill="#9297ab"/><path d="m59.63 49.817 4.63 7.85-2.32 2.35-4.43-7.51a26.146 26.146 0 0 0 2.57-6.3l1.4-.38a24.928 24.928 0 0 1 -1.85 3.99z" fill="#84879c"/><path d="m71 41.147-2.13.57-.04-6.71-8.83-2.28a25.718 25.718 0 0 0 -2.64-6.27l4.55-7.9-6.28-6.21-7.86 4.63a25.518 25.518 0 0 0 -6.29-2.57l-2.38-8.8-7.39.04.69-2.68 8.83-.05 2.37 8.8a25.748 25.748 0 0 1 6.3 2.57l7.85-4.63 6.28 6.21-4.54 7.9a26.115 26.115 0 0 1 2.64 6.27l8.82 2.28z" fill="#84879c"/><circle cx="37" cy="36.917" fill="#fff" r="17.833" transform="matrix(1 -.006 .006 1 -.203 .205)"/><path d="m37 55.25a18.333 18.333 0 1 1 18.333-18.435 18.333 18.333 0 0 1 -18.233 18.435zm0-35.667h-.1a17.334 17.334 0 1 0 17.433 17.238 17.334 17.334 0 0 0 -17.333-17.238z" fill="#323c6b"/><path d="m29.889 32.32c0-4.724 3.184-7.542 7.111-7.542s7.111 2.818 7.111 7.542a7.113 7.113 0 1 1 -14.222 0z" fill="#fcd462"/><path d="m49.928 49.192a17.821 17.821 0 0 1 -25.855 0 8.266 8.266 0 0 1 8.249-7.84h.827a6.623 6.623 0 0 0 7.7 0h.827a8.266 8.266 0 0 1 8.252 7.84z" fill="#fcd462"/><path d="m29.889 32.32c0-4.724 3.184-7.542 7.111-7.542s7.111 2.818 7.111 7.542a7.113 7.113 0 1 1 -14.222 0z" fill="#fcd462"/><path d="m49.93 49.2a8.274 8.274 0 0 0 -8.25-7.84h-.83a6.882 6.882 0 0 1 -2.444 1.058v.182h.814a8.26 8.26 0 0 1 8.25 7.84 17.826 17.826 0 0 1 -3.67 2.97 17.768 17.768 0 0 0 6.13-4.21z" fill="#f7be56"/><path d="m44.11 32.317a7.311 7.311 0 0 1 -3.46 6.25 7.3 7.3 0 0 0 1.38-4.29c0-4.73-3.19-7.54-7.11-7.54a7.132 7.132 0 0 0 -3.73 1 6.849 6.849 0 0 1 5.81-2.96c3.93 0 7.11 2.823 7.11 7.54z" fill="#f7be56"/><g fill="#323c6b"><path d="m29.469 53.527a.5.5 0 0 1 -.5-.5v-4.846a.5.5 0 0 1 1 0v4.846a.5.5 0 0 1 -.5.5z"/><path d="m44.531 53.527a.5.5 0 0 1 -.5-.5v-4.846a.5.5 0 0 1 1 0v4.846a.5.5 0 0 1 -.5.5z"/><path d="m64.047 62.652a.5.5 0 0 1 -.355-.852l3.7-3.741-1.992-3.385a.5.5 0 1 1 .861-.508l2.19 3.717a.5.5 0 0 1 -.075.605l-3.976 4.012a.5.5 0 0 1 -.353.152z"/><path d="m62.064 64.731a.5.5 0 0 1 -.355-.852l.29-.293a.5.5 0 1 1 .711.7l-.29.293a.5.5 0 0 1 -.356.152z"/><path d="m28.254 7.646a.484.484 0 0 1 -.125-.016.5.5 0 0 1 -.359-.609l.146-.562a.5.5 0 0 1 .968.25l-.146.563a.5.5 0 0 1 -.484.374z"/><path d="m28.828 5.292a.484.484 0 0 1 -.125-.016.5.5 0 0 1 -.359-.609l1.243-4.814a.5.5 0 0 1 .481-.375l5.6-.035a.51.51 0 0 1 .5.5.5.5 0 0 1 -.5.5l-5.21.033-1.147 4.441a.5.5 0 0 1 -.483.375z"/><path d="m32.773 71.417a.5.5 0 0 1 -.483-.37l-2.3-8.518a26.412 26.412 0 0 1 -5.88-2.4l-7.61 4.48a.5.5 0 0 1 -.605-.075l-6.277-6.209a.5.5 0 0 1 -.082-.6l4.4-7.656a26.414 26.414 0 0 1 -2.467-5.853l-8.545-2.216a.5.5 0 0 1 -.375-.481l-.049-8.826a.5.5 0 0 1 .37-.486l8.519-2.3a26.393 26.393 0 0 1 2.4-5.88l-4.481-7.61a.5.5 0 0 1 .075-.605l6.208-6.277a.5.5 0 0 1 .6-.082l7.656 4.4a26.419 26.419 0 0 1 5.853-2.467l2.214-8.546a.5.5 0 0 1 .481-.375l8.829-.049a.5.5 0 0 1 .483.37l2.3 8.519a26.412 26.412 0 0 1 5.88 2.4l7.613-4.48a.5.5 0 0 1 .6.075l6.277 6.208a.5.5 0 0 1 .082.6l-4.4 7.656a26.414 26.414 0 0 1 2.467 5.853l8.543 2.208a.5.5 0 0 1 .375.481l.049 8.829a.5.5 0 0 1 -.37.486l-8.519 2.3a26.412 26.412 0 0 1 -2.4 5.88l4.482 7.607a.5.5 0 0 1 -.075.605l-6.203 6.287a.5.5 0 0 1 -.6.082l-7.656-4.4a26.419 26.419 0 0 1 -5.853 2.467l-2.208 8.543a.5.5 0 0 1 -.481.375l-8.829.049zm-8.673-12.368a.5.5 0 0 1 .248.066 25.413 25.413 0 0 0 6.171 2.521.5.5 0 0 1 .356.354l2.277 8.425 8.059-.045 2.189-8.45a.5.5 0 0 1 .352-.357 25.392 25.392 0 0 0 6.143-2.589.5.5 0 0 1 .5 0l7.572 4.35 5.667-5.73-4.434-7.526a.5.5 0 0 1 0-.5 25.413 25.413 0 0 0 2.521-6.171.5.5 0 0 1 .354-.356l8.425-2.28-.047-8.061-8.453-2.182a.5.5 0 0 1 -.357-.352 25.421 25.421 0 0 0 -2.589-6.143.5.5 0 0 1 0-.5l4.35-7.572-5.729-5.667-7.524 4.433a.5.5 0 0 1 -.5 0 25.413 25.413 0 0 0 -6.173-2.517.5.5 0 0 1 -.356-.354l-2.277-8.428-8.059.045-2.186 8.45a.5.5 0 0 1 -.352.357 25.392 25.392 0 0 0 -6.143 2.589.5.5 0 0 1 -.5 0l-7.572-4.35-5.667 5.729 4.434 7.528a.5.5 0 0 1 0 .5 25.4 25.4 0 0 0 -2.521 6.171.5.5 0 0 1 -.354.356l-8.425 2.279.045 8.059 8.455 2.184a.5.5 0 0 1 .357.352 25.421 25.421 0 0 0 2.589 6.143.5.5 0 0 1 0 .5l-4.346 7.574 5.729 5.667 7.524-4.433a.5.5 0 0 1 .247-.069z"/></g><path d="m49.928 49.192a17.821 17.821 0 0 1 -25.855 0 8.266 8.266 0 0 1 8.249-7.84h.827a6.623 6.623 0 0 0 7.7 0h.827a8.266 8.266 0 0 1 8.252 7.84z" fill="none"/><path d="m49.928 49.192a17.821 17.821 0 0 1 -25.855 0 8.266 8.266 0 0 1 8.249-7.84h.827a6.623 6.623 0 0 0 7.7 0h.827a8.266 8.266 0 0 1 8.252 7.84z" fill="none"/><path d="m37 55.247a18.388 18.388 0 0 1 -13.288-5.71.5.5 0 0 1 -.137-.37 8.758 8.758 0 0 1 8.749-8.314h.827a.5.5 0 0 1 .287.091 6.221 6.221 0 0 0 7.13 0 .5.5 0 0 1 .287-.091h.827a8.758 8.758 0 0 1 8.749 8.314.5.5 0 0 1 -.136.37 18.131 18.131 0 0 1 -13.195 5.71zm-12.415-6.247a17.322 17.322 0 0 0 24.829 0 7.758 7.758 0 0 0 -7.736-7.153h-.672a7.225 7.225 0 0 1 -8.014 0h-.672a7.758 7.758 0 0 0 -7.735 7.153z" fill="#323c6b"/><path d="m37 40.106a7.709 7.709 0 0 1 -7.611-7.787c0-4.735 3.13-8.042 7.611-8.042s7.611 3.307 7.611 8.042a7.709 7.709 0 0 1 -7.611 7.787zm0-14.829c-3.893 0-6.611 2.9-6.611 7.042a6.613 6.613 0 1 0 13.222 0c0-4.145-2.718-7.041-6.611-7.041z" fill="#323c6b"/><path d="m15.744 39.067a.65.65 0 0 1 -.648-.6l-.021-.285c-.028-.377-.056-.755-.058-1.14a21.742 21.742 0 0 1 1.727-8.624.65.65 0 0 1 1.2.506 20.453 20.453 0 0 0 -1.624 8.111c0 .354.029.7.055 1.049l.021.291a.65.65 0 0 1 -.6.694z" fill="#fff"/><path d="m18.737 26.593a.65.65 0 0 1 -.55-1l.335-.528a.65.65 0 1 1 1.1.7l-.333.525a.65.65 0 0 1 -.552.303z" fill="#fff"/></g></svg>