<svg height="512" viewBox="0 0 74 74" width="512" xmlns="http://www.w3.org/2000/svg"><g id="color_line" data-name="color line"><path d="m30.359 45.381h13.3a92.53 92.53 0 0 1 5.941-24.165 13.455 13.455 0 0 0 .884-4.965 13.485 13.485 0 0 0 -26.97.151 13.432 13.432 0 0 0 1.144 5.443 72.589 72.589 0 0 1 5.701 23.536z" fill="#e7aa6c"/><path d="m50.48 16.247a13.4 13.4 0 0 1 -.88 4.97 92.377 92.377 0 0 0 -5.94 24.16h-3.2a95.553 95.553 0 0 1 5.6-21.23 13.48 13.48 0 0 0 -12.08-18.29 13.38 13.38 0 0 0 -7.23 1.78 13.459 13.459 0 0 1 10.77-4.71 13.612 13.612 0 0 1 12.96 13.32z" fill="#d09865"/><path d="m28.387 45.381h17.226a1.333 1.333 0 0 1 1.333 1.333v4.6a0 0 0 0 1 0 0h-19.893a0 0 0 0 1 0 0v-4.6a1.333 1.333 0 0 1 1.334-1.333z" fill="#9297ab"/><path d="m46.947 51.811h-19.894a.5.5 0 0 1 -.5-.5v-4.6a1.835 1.835 0 0 1 1.833-1.833h17.227a1.835 1.835 0 0 1 1.833 1.833v4.6a.5.5 0 0 1 -.499.5zm-19.394-1h18.894v-4.1a.835.835 0 0 0 -.833-.833h-17.227a.835.835 0 0 0 -.833.833z" fill="#323c6b"/><path d="m16.707 51.31h40.586a5.417 5.417 0 0 1 5.417 5.417v7.817a1.4 1.4 0 0 1 -1.4 1.4h-48.62a1.4 1.4 0 0 1 -1.4-1.4v-7.817a5.417 5.417 0 0 1 5.417-5.417z" fill="#bbbbcd"/><path d="m61.993 54.042h-.029a5.381 5.381 0 0 0 -4.67-2.731h-40.587a5.4 5.4 0 0 0 -4.818 2.981h44.249a3.263 3.263 0 0 1 3.262 3.262v6.992a1.4 1.4 0 0 1 -1.4 1.4h3.31a1.4 1.4 0 0 0 1.4-1.4v-7.82a5.383 5.383 0 0 0 -.717-2.684z" fill="#9297ab"/><path d="m16.792 69.943-1.5-4h43.418l-1.5 4a1.5 1.5 0 0 1 -1.405.973h-37.605a1.5 1.5 0 0 1 -1.408-.973z" fill="#9297ab"/><g fill="#323c6b"><path d="m55.8 71.417h-37.6a2.011 2.011 0 0 1 -1.874-1.3l-1.5-4a.5.5 0 0 1 .468-.676h43.416a.5.5 0 0 1 .468.676l-1.5 4a2.011 2.011 0 0 1 -1.878 1.3zm-39.789-4.974 1.249 3.324a1 1 0 0 0 .937.649h37.603a1 1 0 0 0 .937-.649l1.249-3.324z"/><path d="m53.484 16.719a.5.5 0 0 1 -.5-.495 15.739 15.739 0 0 0 -3.084-9.138.5.5 0 0 1 .8-.586 16.736 16.736 0 0 1 3.282 9.717.5.5 0 0 1 -.495.505z"/><path d="m53.1 20.354a.52.52 0 0 1 -.1-.01.5.5 0 0 1 -.388-.591c.08-.382.15-.767.2-1.154a.5.5 0 1 1 .99.137c-.057.41-.131.817-.215 1.221a.5.5 0 0 1 -.487.397z"/><path d="m8.307 57.01h-.017a.5.5 0 0 1 -.483-.516c.011-.322.03-.643.072-.957a.5.5 0 1 1 .991.134 8.536 8.536 0 0 0 -.064.856.5.5 0 0 1 -.499.483z"/><path d="m9.061 53.729a.5.5 0 0 1 -.454-.708 8.947 8.947 0 0 1 8.1-5.21.5.5 0 0 1 0 1 7.943 7.943 0 0 0 -7.191 4.627.5.5 0 0 1 -.455.291z"/><path d="m43.66 45.881h-13.3a.5.5 0 0 1 -.5-.459 72.149 72.149 0 0 0 -5.66-23.375 13.988 13.988 0 0 1 13.338-19.62 14.134 14.134 0 0 1 13.446 13.819 13.932 13.932 0 0 1 -.917 5.149 91.173 91.173 0 0 0 -5.909 24.034.5.5 0 0 1 -.498.452zm-12.841-1h12.388a92.507 92.507 0 0 1 5.926-23.843 12.933 12.933 0 0 0 .851-4.781 13.123 13.123 0 0 0 -12.484-12.831 12.991 12.991 0 0 0 -12.384 18.217 72.918 72.918 0 0 1 5.703 23.238z"/></g><path d="m33.033 39.056a.65.65 0 0 1 -.643-.56 76.387 76.387 0 0 0 -1.49-7.733.65.65 0 0 1 1.262-.313 77.607 77.607 0 0 1 1.514 7.866.65.65 0 0 1 -.553.734.643.643 0 0 1 -.09.006z" fill="#fff"/><path d="m30.785 28.483a.65.65 0 0 1 -.624-.468l-.219-.732a.65.65 0 0 1 1.243-.38l.224.747a.651.651 0 0 1 -.441.807.661.661 0 0 1 -.183.026z" fill="#fff"/><path d="m61.311 66.443h-48.622a1.9 1.9 0 0 1 -1.9-1.9v-7.816a5.923 5.923 0 0 1 5.917-5.917h40.587a5.923 5.923 0 0 1 5.917 5.917v7.817a1.9 1.9 0 0 1 -1.899 1.899zm-44.6-14.633a4.922 4.922 0 0 0 -4.917 4.917v7.817a.9.9 0 0 0 .9.9h48.617a.9.9 0 0 0 .9-.9v-7.817a4.922 4.922 0 0 0 -4.917-4.917z" fill="#323c6b"/></g></svg>