<svg height="512" viewBox="0 0 74 74" width="512" xmlns="http://www.w3.org/2000/svg"><g id="color_line" data-name="color line"><path d="m5.832 21.57a2.832 2.832 0 0 0 -2.832 2.83v16a2.832 2.832 0 0 0 2.832 2.832h13.913v-21.662z" fill="#fe7058"/><path d="m19.745 21.57v21.668l29.675 11.013v-43.695z" fill="#eeefee"/><rect fill="#fe7058" height="50.327" rx="3.494" width="6.988" x="49.42" y="7.24"/><path d="m19.75 21.567v2.8h-13.92a2.834 2.834 0 0 0 -2.83 2.833v-2.79a2.836 2.836 0 0 1 2.83-2.84z" fill="#ea6453"/><path d="m49.42 10.557v2.8l-29.67 11.01v-2.8z" fill="#e1e6e9"/><path d="m56.41 10.737v2.79a3.495 3.495 0 1 0 -6.99 0v-2.79a3.493 3.493 0 0 1 1.02-2.47 3.443 3.443 0 0 1 2.47-1.03 3.5 3.5 0 0 1 3.5 3.5z" fill="#ea6453"/><path d="m21.564 64.087-4.071-20.849h-10.857l4.215 21.625a2.118 2.118 0 0 0 2.082 1.731h6.548a2.118 2.118 0 0 0 2.083-2.507z" fill="#9297ab"/><path d="m19.481 67.093h-6.547a2.618 2.618 0 0 1 -2.573-2.139l-4.216-21.621a.5.5 0 0 1 .491-.6h10.857a.5.5 0 0 1 .491.4l4.071 20.85a2.618 2.618 0 0 1 -2.574 3.1zm-12.239-23.355 4.1 21.029a1.618 1.618 0 0 0 1.591 1.326h6.548a1.618 1.618 0 0 0 1.592-1.913l-3.992-20.442z" fill="#323c6b"/><path d="m56.408 25.616v13.576a6.788 6.788 0 1 0 0-13.576z" fill="#fcd462"/><path d="m63.2 32.407a5.952 5.952 0 0 1 -.13 1.27 6.768 6.768 0 0 0 -6.66-5.52v-2.54a6.79 6.79 0 0 1 6.79 6.79z" fill="#f7be56"/><path d="m63.2 23.758a.5.5 0 0 1 -.311-.892l2.819-2.236a.5.5 0 0 1 .621.783l-2.819 2.236a.5.5 0 0 1 -.31.109z" fill="#323c6b"/><path d="m71 32.9h-3.6a.5.5 0 0 1 0-1h3.6a.5.5 0 0 1 0 1z" fill="#323c6b"/><path d="m66.016 44.286a.5.5 0 0 1 -.311-.108l-2.819-2.236a.5.5 0 1 1 .621-.783l2.819 2.236a.5.5 0 0 1 -.311.892z" fill="#323c6b"/><circle cx="8.258" cy="37.888" fill="#e1e6e9" r="1.84"/><g fill="#323c6b"><path d="m8.259 40.228a2.34 2.34 0 1 1 2.34-2.34 2.343 2.343 0 0 1 -2.34 2.34zm0-3.68a1.34 1.34 0 1 0 1.34 1.34 1.341 1.341 0 0 0 -1.34-1.34z"/><path d="m26.375 16.409a.5.5 0 0 1 -.174-.969l1.042-.387a.5.5 0 1 1 .348.938l-1.042.387a.5.5 0 0 1 -.174.031z"/><path d="m30.042 15.048a.5.5 0 0 1 -.174-.969l7.875-2.923a.5.5 0 1 1 .348.938l-7.875 2.923a.5.5 0 0 1 -.174.031z"/><path d="m59.408 51.813a.5.5 0 0 1 -.5-.5v-.713a.5.5 0 0 1 1 0v.708a.5.5 0 0 1 -.5.505z"/><path d="m54.5 60.863a.5.5 0 0 1 -.122-.985 5.986 5.986 0 0 0 4.53-5.805v-.615a.5.5 0 0 1 1 0v.615a6.985 6.985 0 0 1 -5.286 6.775.5.5 0 0 1 -.122.015z"/><path d="m19.745 43.738h-13.913a3.336 3.336 0 0 1 -3.332-3.333v-16a3.336 3.336 0 0 1 3.332-3.333h13.913a.5.5 0 0 1 .5.5v21.666a.5.5 0 0 1 -.5.5zm-13.913-21.669a2.335 2.335 0 0 0 -2.332 2.331v16a2.335 2.335 0 0 0 2.332 2.333h13.413v-20.664z"/><path d="m49.42 54.751a.5.5 0 0 1 -.174-.031l-29.675-11.013a.5.5 0 0 1 -.326-.469v-21.669a.5.5 0 0 1 .326-.469l29.675-11.013a.5.5 0 0 1 .459.058.5.5 0 0 1 .215.411v43.7a.5.5 0 0 1 -.5.5zm-29.175-11.861 28.675 10.643v-42.258l-28.675 10.642z"/><path d="m52.914 58.067a4 4 0 0 1 -3.994-3.994v-43.339a3.994 3.994 0 1 1 7.988 0v43.339a4 4 0 0 1 -3.994 3.994zm0-50.327a3 3 0 0 0 -2.994 2.994v43.339a2.994 2.994 0 0 0 5.988 0v-43.339a3 3 0 0 0 -2.994-2.994z"/><path d="m56.408 39.692a.5.5 0 0 1 -.5-.5v-13.576a.5.5 0 0 1 .5-.5 7.288 7.288 0 0 1 0 14.576zm.5-13.557v12.537a6.288 6.288 0 0 0 0-12.537z"/></g><path d="m52 39.108a.65.65 0 0 1 -.65-.65v-9.25a.65.65 0 0 1 1.3 0v9.25a.65.65 0 0 1 -.65.65z" fill="#fff"/><path d="m52 42.2a.65.65 0 0 1 -.65-.65v-.633a.65.65 0 0 1 1.3 0v.633a.65.65 0 0 1 -.65.65z" fill="#fff"/></g></svg>