<svg height="512" viewBox="0 0 74 74" width="512" xmlns="http://www.w3.org/2000/svg"><g id="color_line" data-name="color line"><path d="m64.729 4h-39.629v68h39.629a2.667 2.667 0 0 0 2.671-2.667v-62.666a2.667 2.667 0 0 0 -2.671-2.667z" fill="#eeefee"/><path d="m67.4 6.667v62.67a2.667 2.667 0 0 1 -2.67 2.663h-.87v-62.043a2.663 2.663 0 0 0 -2.67-2.67h-36.09v-3.287h39.63a2.676 2.676 0 0 1 2.67 2.667z" fill="#e1e6e9"/><path d="m12.807 4h12.293a0 0 0 0 1 0 0v68a0 0 0 0 1 0 0h-12.293a2.667 2.667 0 0 1 -2.667-2.667v-62.666a2.667 2.667 0 0 1 2.667-2.667z" fill="#9297ab"/><path d="m25.1 4v3.29h-14.96v-.62a2.67 2.67 0 0 1 2.67-2.67z" fill="#84879c"/><path d="m13.676 11.98h-7.076a.5.5 0 0 1 0-1h7.072a.5.5 0 0 1 0 1z" fill="#323c6b"/><path d="m13.676 20.82h-7.076a.5.5 0 0 1 0-1h7.072a.5.5 0 0 1 0 1z" fill="#323c6b"/><path d="m13.676 29.66h-7.076a.5.5 0 0 1 0-1h7.072a.5.5 0 0 1 0 1z" fill="#323c6b"/><path d="m13.676 38.5h-7.076a.5.5 0 0 1 0-1h7.072a.5.5 0 0 1 0 1z" fill="#323c6b"/><path d="m13.676 47.34h-7.076a.5.5 0 0 1 0-1h7.072a.5.5 0 0 1 0 1z" fill="#323c6b"/><path d="m13.676 56.18h-7.076a.5.5 0 0 1 0-1h7.072a.5.5 0 0 1 0 1z" fill="#323c6b"/><path d="m13.676 65.02h-7.076a.5.5 0 0 1 0-1h7.072a.5.5 0 0 1 0 1z" fill="#323c6b"/><path d="m46.245 13.271c-3.89 0-7.044 2.975-7.044 7.961 0 4.248 3.154 7.928 7.044 7.928s7.044-3.68 7.044-7.928c-.001-4.987-3.154-7.961-7.044-7.961z" fill="#89c5cd"/><path d="m59.654 39.189v2.638h-26.812v-2.638a8.524 8.524 0 0 1 8.551-8.373h.867a6.879 6.879 0 0 0 7.977 0h.854a8.543 8.543 0 0 1 8.563 8.373z" fill="#89c5cd"/><path d="m53.29 21.237a8.331 8.331 0 0 1 -2.98 6.43 8.557 8.557 0 0 0 1.08-4.16c0-4.98-3.15-7.96-7.04-7.96a6.691 6.691 0 0 0 -4.17 1.39 6.651 6.651 0 0 1 6.06-3.67c3.89 0 7.05 2.98 7.05 7.97z" fill="#6eaaad"/><path d="m59.65 39.187v2.64h-3.02v-2.64a8.533 8.533 0 0 0 -6.71-8.17 3.436 3.436 0 0 0 .32-.2h.85a8.537 8.537 0 0 1 8.56 8.37z" fill="#6eaaad"/><g fill="#323c6b"><path d="m61.548 51.467h-30.6a.5.5 0 0 1 0-1h30.6a.5.5 0 0 1 0 1z"/><path d="m61.548 60.215h-30.6a.5.5 0 0 1 0-1h30.6a.5.5 0 0 1 0 1z"/><path d="m70.4 44.928a.5.5 0 0 1 -.5-.5v-.938a.5.5 0 0 1 1 0v.938a.5.5 0 0 1 -.5.5z"/><path d="m70.4 57.3a.5.5 0 0 1 -.5-.5v-10.247a.5.5 0 0 1 1 0v10.247a.5.5 0 0 1 -.5.5z"/><path d="m28.125 1.5h-1.167a.5.5 0 0 1 0-1h1.167a.5.5 0 0 1 0 1z"/><path d="m40.125 1.5h-8.875a.5.5 0 0 1 0-1h8.875a.5.5 0 0 1 0 1z"/><path d="m64.729 72.5h-39.629a.5.5 0 0 1 -.5-.5v-68a.5.5 0 0 1 .5-.5h39.63a3.17 3.17 0 0 1 3.17 3.167v62.666a3.17 3.17 0 0 1 -3.171 3.167zm-39.13-1h39.13a2.169 2.169 0 0 0 2.171-2.167v-62.666a2.169 2.169 0 0 0 -2.171-2.167h-39.129z"/><path d="m25.1 72.5h-12.293a3.17 3.17 0 0 1 -3.167-3.167v-62.666a3.17 3.17 0 0 1 3.167-3.167h12.293a.5.5 0 0 1 .5.5v68a.5.5 0 0 1 -.5.5zm-12.293-68a2.169 2.169 0 0 0 -2.167 2.167v62.666a2.169 2.169 0 0 0 2.167 2.167h11.793v-67z"/><path d="m46.244 29.66c-4.089 0-7.543-3.86-7.543-8.428 0-4.982 3.1-8.461 7.543-8.461s7.544 3.479 7.544 8.461c0 4.568-3.455 8.428-7.544 8.428zm0-15.89c-3.853 0-6.543 3.068-6.543 7.461 0 4.026 3 7.428 6.543 7.428s6.544-3.4 6.544-7.428c0-4.392-2.688-7.46-6.544-7.46z"/><path d="m59.654 42.327h-26.812a.5.5 0 0 1 -.5-.5v-2.638a9.075 9.075 0 0 1 9.051-8.873h.867a.5.5 0 0 1 .287.09 6.474 6.474 0 0 0 7.4 0 .5.5 0 0 1 .287-.09h.854a9.1 9.1 0 0 1 9.063 8.863v2.647a.5.5 0 0 1 -.497.501zm-26.312-1h25.812v-2.133a8 8 0 0 0 -8.063-7.877h-.7a7.484 7.484 0 0 1 -8.287 0h-.712a8.069 8.069 0 0 0 -8.05 7.883z"/></g><path d="m21.333 61.758a.65.65 0 0 1 -.65-.65v-.458a.65.65 0 0 1 1.3 0v.458a.65.65 0 0 1 -.65.65z" fill="#fff"/><path d="m21.333 58.84a.65.65 0 0 1 -.65-.65v-7.357a.65.65 0 0 1 1.3 0v7.357a.65.65 0 0 1 -.65.65z" fill="#fff"/></g></svg>