<svg height="512" viewBox="0 0 74 74" width="512" xmlns="http://www.w3.org/2000/svg"><g id="color_line" data-name="color line"><path d="m50.929 27.293c1.4.162 3.945.72 3.505 4.182-.4 3.157-3.893 4.987-5.571 5.025" fill="#fcd462"/><path d="m48.863 37a.5.5 0 0 1 -.012-1c1.352-.031 4.711-1.628 5.086-4.588a3.262 3.262 0 0 0 -.484-2.485 3.752 3.752 0 0 0 -2.582-1.137.5.5 0 1 1 .115-.993 4.8 4.8 0 0 1 3.254 1.513 4.208 4.208 0 0 1 .689 3.228c-.438 3.455-4.229 5.42-6.054 5.462z" fill="#323c6b"/><path d="m22.619 27.293c-1.4.162-3.945.72-3.505 4.182.4 3.157 3.893 4.987 5.571 5.025" fill="#fcd462"/><path d="m24.684 37h-.012c-1.824-.042-5.615-2.007-6.055-5.462a4.209 4.209 0 0 1 .689-3.228 4.8 4.8 0 0 1 3.256-1.51.5.5 0 1 1 .115.993 3.755 3.755 0 0 0 -2.583 1.138 3.261 3.261 0 0 0 -.484 2.484c.376 2.96 3.735 4.558 5.086 4.588a.5.5 0 0 1 -.012 1z" fill="#323c6b"/><path d="m46.109 47.156h.116a20.4 20.4 0 0 1 20.4 20.4v3.36h-59.25v-3.36a20.4 20.4 0 0 1 20.41-20.4h-.285l9.271 3.485z" fill="#89c5cd"/><path d="m66.62 67.557v3.36h-59.24v-2.94h55.41v-3.36a20.357 20.357 0 0 0 -6.15-14.6 20.39 20.39 0 0 1 9.98 17.54z" fill="#6eaaad"/><path d="m43.594 44.763-6.839 5.878-6.839-5.878z" fill="#fcd462"/><path d="m36.755 51.141a.5.5 0 0 1 -.326-.121l-6.839-5.878a.5.5 0 0 1 .326-.879h13.678a.5.5 0 0 1 .326.879l-6.839 5.878a.5.5 0 0 1 -.326.121zm-5.49-5.878 5.49 4.719 5.49-4.719z" fill="#323c6b"/><path d="m51.3 28.373v1.415c-.438 8.2-6.781 17.371-14.52 17.371-3.706 0-7.158-2.057-9.765-5.071a18.555 18.555 0 0 1 -4.3-12.239l.02-2.861.591-2.892a3.517 3.517 0 0 1 3.065-2.637 54.031 54.031 0 0 0 10.409-2.291c6.007-1.853 10.864-.855 12.656 4.48l.937 3.971a1.1 1.1 0 0 0 .907.754z" fill="#fcd462"/><path d="m51.3 28.377v1.41c-.44 8.2-6.79 17.37-14.52 17.37-3.71 0-7.16-2.05-9.77-5.07q-.465-.54-.87-1.11a12.789 12.789 0 0 0 8.94 4.18c7.74 0 14.09-9.17 14.52-17.37v-3.51l.79 3.34a1.1 1.1 0 0 0 .91.76z" fill="#f7be56"/><path d="m56 71.416h-38a.5.5 0 0 1 -.5-.5v-9.749a.5.5 0 0 1 1 0v9.249h37v-9.249a.5.5 0 0 1 1 0v9.749a.5.5 0 0 1 -.5.5z" fill="#323c6b"/><path d="m49.949 43.939a2.918 2.918 0 0 1 -.44-.034l-10.365-1.577a.5.5 0 0 1 .15-.988l10.365 1.578a1.95 1.95 0 0 0 2.235-1.929v-6.048a.5.5 0 0 1 1 0v6.047a2.951 2.951 0 0 1 -2.945 2.951z" fill="#323c6b"/><circle cx="37.349" cy="41.039" fill="#9297ab" r="2.036"/><path d="m37.349 43.576a2.536 2.536 0 1 1 2.537-2.536 2.539 2.539 0 0 1 -2.537 2.536zm0-4.073a1.536 1.536 0 1 0 1.537 1.537 1.538 1.538 0 0 0 -1.537-1.54z" fill="#323c6b"/><path d="m53.311 22.824c-.377 1.986-.774 4.582-.774 4.582a1.111 1.111 0 0 1 -1.1.978.625.625 0 0 1 -.142-.01 1.1 1.1 0 0 1 -.906-.753l-.937-3.971c-1.792-5.337-6.652-6.335-12.652-4.482a54.031 54.031 0 0 1 -10.41 2.291 3.517 3.517 0 0 0 -3.065 2.641l-.591 2.892a.877.877 0 0 1 -.367.55.851.851 0 0 1 -.5.153.915.915 0 0 1 -.886-.7s-.866-2.9-1.517-5.447c-.071-.3-.132-.591-.193-.9a14.129 14.129 0 0 1 6.793-14.462 22.4 22.4 0 0 1 10.936-3.268 18.129 18.129 0 0 1 5.4.957 16.63 16.63 0 0 1 10.911 18.949z" fill="#707583"/><g fill="#323c6b"><path d="m51.438 28.883a1.048 1.048 0 0 1 -.264-.025 1.577 1.577 0 0 1 -1.264-1.095l-.944-4c-1.966-5.853-7.626-5.472-12.023-4.117a54.533 54.533 0 0 1 -10.506 2.311 3.03 3.03 0 0 0 -2.629 2.267l-.584 2.865a1.381 1.381 0 0 1 -.578.865 1.336 1.336 0 0 1 -.777.238 1.417 1.417 0 0 1 -1.369-1.083c0-.007-.87-2.918-1.517-5.445-.074-.308-.138-.61-.2-.923a14.656 14.656 0 0 1 7.023-14.984 22.949 22.949 0 0 1 11.194-3.34 18.57 18.57 0 0 1 5.552.982 17.1 17.1 0 0 1 11.248 19.518c-.371 1.954-.768 4.539-.771 4.564a1.6 1.6 0 0 1 -1.591 1.402zm-9.586-11.07c4.017 0 6.816 1.931 8.074 5.677l.949 4.016a.6.6 0 0 0 .492.374.612.612 0 0 0 .673-.527c.007-.047.406-2.649.78-4.621a16.1 16.1 0 0 0 -10.58-18.382 17.81 17.81 0 0 0 -5.24-.933 21.91 21.91 0 0 0 -10.679 3.2 13.65 13.65 0 0 0 -6.556 13.941c.058.29.117.579.188.867.64 2.5 1.5 5.394 1.511 5.422a.426.426 0 0 0 .615.286.393.393 0 0 0 .168-.249l.588-2.884a4.04 4.04 0 0 1 3.51-3.035 53.682 53.682 0 0 0 10.3-2.271 17.819 17.819 0 0 1 5.207-.881z"/><path d="m5.26 61.9a.512.512 0 0 1 -.126-.016.5.5 0 0 1 -.357-.61l.065-.257c.054-.214.107-.427.171-.637a.5.5 0 0 1 .957.289c-.059.195-.108.394-.158.592l-.068.265a.5.5 0 0 1 -.484.374z"/><path d="m6.4 58.6a.5.5 0 0 1 -.456-.7 24.059 24.059 0 0 1 4.856-7.1.5.5 0 0 1 .713.7 23.081 23.081 0 0 0 -4.658 6.811.5.5 0 0 1 -.455.289z"/><path d="m54.145 10.583a.5.5 0 0 1 -.438-.26 19.094 19.094 0 0 0 -5.36-6.162.5.5 0 0 1 .594-.8 20.087 20.087 0 0 1 5.644 6.486.5.5 0 0 1 -.2.679.494.494 0 0 1 -.24.057z"/><path d="m55.242 12.958a.5.5 0 0 1 -.469-.327l-.049-.133c-.037-.1-.074-.206-.116-.307a.5.5 0 0 1 .924-.384c.048.115.091.233.133.351l.046.126a.5.5 0 0 1 -.469.673z"/><path d="m66.625 71.416h-59.25a.5.5 0 0 1 -.5-.5v-3.36a20.929 20.929 0 0 1 20.579-20.9h.051.28a.5.5 0 0 1 .421.229l8.57 3.222 9.158-3.419a.5.5 0 0 1 .175-.032h.115a20.924 20.924 0 0 1 20.9 20.9v3.36a.5.5 0 0 1 -.499.5zm-58.75-1h58.25v-2.86a19.923 19.923 0 0 0 -19.9-19.9h-.025l-9.25 3.453a.5.5 0 0 1 -.351 0l-9.177-3.45a19.929 19.929 0 0 0 -19.548 19.9z"/><path d="m36.775 47.659c-3.616 0-7.219-1.862-10.143-5.243a19.021 19.021 0 0 1 -4.419-12.57l.021-2.861.6-2.989a4.04 4.04 0 0 1 3.51-3.035 53.682 53.682 0 0 0 10.3-2.271c6.815-2.1 11.531-.4 13.276 4.8l.949 4.016a.6.6 0 0 0 .492.374.5.5 0 0 1 .428.495v1.415c-.444 8.448-6.963 17.869-15.014 17.869zm5.107-28.853a17.14 17.14 0 0 0 -4.939.84 54.533 54.533 0 0 1 -10.506 2.311 3.03 3.03 0 0 0 -2.629 2.267l-.584 2.865-.011 2.764a18.027 18.027 0 0 0 4.176 11.91c2.73 3.157 6.064 4.9 9.386 4.9 7.508 0 13.595-8.921 14.021-16.9v-1.017a1.577 1.577 0 0 1 -.885-.982l-.944-4c-1.267-3.775-4.074-4.958-7.084-4.958z"/></g><path d="m27.505 47.154 2.411-2.391 6.839 5.878-5.767 4.888z" fill="#eeefee"/><path d="m30.988 56.029a.481.481 0 0 1 -.117-.014.5.5 0 0 1 -.345-.294l-3.483-8.375a.5.5 0 0 1 .109-.547l2.411-2.391a.5.5 0 0 1 .679-.024l6.839 5.878a.5.5 0 0 1 0 .761l-5.769 4.887a.5.5 0 0 1 -.324.119zm-2.888-8.757 3.088 7.428 4.8-4.066-6.044-5.2z" fill="#323c6b"/><path d="m46.109 47.154-2.515-2.391-6.839 5.878 5.767 4.888z" fill="#eeefee"/><path d="m44.75 45.857v.01l-.01-.01z" fill="#e1e6e9"/><path d="m46.11 47.157-3.59 8.37-1.41-1.19 3.64-8.47z" fill="#e1e6e9"/><path d="m42.521 56.029a.5.5 0 0 1 -.323-.119l-5.767-4.888a.5.5 0 0 1 0-.761l6.839-5.878a.5.5 0 0 1 .671.017l2.516 2.391a.5.5 0 0 1 .115.559l-3.588 8.375a.5.5 0 0 1 -.46.3zm-5-5.391 4.8 4.071 3.185-7.433-1.936-1.84z" fill="#323c6b"/></g></svg>