<svg height="512" viewBox="0 0 74 74" width="512" xmlns="http://www.w3.org/2000/svg"><g id="color_line" data-name="color line"><path d="m47.346 56.8a39.766 39.766 0 0 1 6.177-15.047 19.946 19.946 0 0 0 3.537-11.666 20.062 20.062 0 0 0 -40.122.3 19.963 19.963 0 0 0 3.426 11.213 41.727 41.727 0 0 1 6.268 15.2z" fill="#eeefee"/><path d="m57.06 30.087a19.907 19.907 0 0 1 -3.54 11.67 39.773 39.773 0 0 0 -6.17 15.05h-2.49a39.666 39.666 0 0 1 5.75-13.05 19.928 19.928 0 0 0 3.54-11.67 20.2 20.2 0 0 0 -18.97-19.73 19.989 19.989 0 0 0 -10.94 2.55 19.952 19.952 0 0 1 13.85-4.55 20.2 20.2 0 0 1 18.97 19.73z" fill="#e1e6e9"/><g fill="#323c6b"><path d="m37 6.943a.5.5 0 0 1 -.5-.5v-3.526a.5.5 0 0 1 1 0v3.526a.5.5 0 0 1 -.5.5z"/><path d="m25.028 10.151a.5.5 0 0 1 -.434-.25l-1.762-3.054a.5.5 0 0 1 .866-.5l1.762 3.053a.5.5 0 0 1 -.433.75z"/><path d="m16.263 18.916a.5.5 0 0 1 -.25-.067l-3.054-1.763a.5.5 0 1 1 .5-.866l3.054 1.763a.5.5 0 0 1 -.25.933z"/><path d="m13.055 30.888h-3.526a.5.5 0 0 1 0-1h3.526a.5.5 0 1 1 0 1z"/><path d="m13.21 44.624a.5.5 0 0 1 -.25-.933l3.054-1.763a.5.5 0 0 1 .5.866l-3.054 1.763a.5.5 0 0 1 -.25.067z"/><path d="m48.972 10.151a.5.5 0 0 1 -.433-.75l1.761-3.054a.5.5 0 0 1 .866.5l-1.76 3.053a.5.5 0 0 1 -.434.251z"/><path d="m57.737 18.916a.5.5 0 0 1 -.25-.933l3.054-1.763a.5.5 0 0 1 .5.866l-3.054 1.763a.5.5 0 0 1 -.25.067z"/><path d="m64.471 30.888h-3.526a.5.5 0 0 1 0-1h3.526a.5.5 0 0 1 0 1z"/><path d="m60.79 44.624a.5.5 0 0 1 -.25-.067l-3.054-1.763a.5.5 0 1 1 .5-.866l3.054 1.763a.5.5 0 0 1 -.25.933z"/></g><circle cx="37" cy="30.575" fill="#fcd462" r="13.408"/><path d="m50.41 30.577a13.376 13.376 0 0 1 -5.59 10.89 13.4 13.4 0 0 0 -17.83-19.8 13.4 13.4 0 0 1 23.42 8.91z" fill="#f7be56"/><path d="m37 39.507a4.721 4.721 0 0 1 -4.716-4.716.5.5 0 0 1 1 0 3.716 3.716 0 1 0 3.716-3.716 4.716 4.716 0 1 1 4.716-4.716.5.5 0 0 1 -1 0 3.716 3.716 0 1 0 -3.716 3.716 4.716 4.716 0 0 1 0 9.432z" fill="#323c6b"/><path d="m37 22.644a.5.5 0 0 1 -.5-.5v-1.327a.5.5 0 1 1 1 0v1.326a.5.5 0 0 1 -.5.501z" fill="#323c6b"/><path d="m37 40.833a.5.5 0 0 1 -.5-.5v-1.326a.5.5 0 0 1 1 0v1.326a.5.5 0 0 1 -.5.5z" fill="#323c6b"/><path d="m27.813 61.546h-2.047a1.278 1.278 0 0 0 0 2.553h2.047z" fill="#707583"/><path d="m27.813 64.6h-2.047a1.778 1.778 0 0 1 0-3.553h2.047a.5.5 0 0 1 .5.5v2.553a.5.5 0 0 1 -.5.5zm-2.047-2.553a.779.779 0 0 0 0 1.553h1.547v-1.554z" fill="#323c6b"/><path d="m48.216 61.546h-2.091v2.554h2.091a1.278 1.278 0 0 0 0-2.553z" fill="#707583"/><path d="m48.215 64.6h-2.09a.5.5 0 0 1 -.5-.5v-2.554a.5.5 0 0 1 .5-.5h2.09a1.777 1.777 0 0 1 0 3.553zm-1.59-1h1.59a.779.779 0 0 0 0-1.553h-1.59z" fill="#323c6b"/><path d="m47.348 56.808v3.709a10.358 10.358 0 1 1 -20.716 0v-3.709z" fill="#9297ab"/><path d="m47.35 56.807v3.71a10.362 10.362 0 0 1 -10.35 10.4 9.661 9.661 0 0 1 -1.2-.07 10.362 10.362 0 0 0 9.16-10.33v-3.71z" fill="#84879c"/><path d="m47.347 61.563h-20.715a.5.5 0 0 1 0-1h20.715a.5.5 0 0 1 0 1z" fill="#323c6b"/><path d="m46.133 65.912h-18.287a.5.5 0 0 1 0-1h18.287a.5.5 0 0 1 0 1z" fill="#323c6b"/><path d="m51.774 52.354a.5.5 0 0 1 -.166-.028.5.5 0 0 1 -.306-.638 36.56 36.56 0 0 1 4.144-8.3.5.5 0 1 1 .827.562 35.538 35.538 0 0 0 -4.027 8.073.5.5 0 0 1 -.472.331z" fill="#323c6b"/><path d="m50.729 55.917a.5.5 0 0 1 -.485-.621l.046-.187c.063-.254.126-.508.195-.76a.5.5 0 0 1 .965.262c-.066.246-.128.493-.189.74l-.047.188a.5.5 0 0 1 -.485.378z" fill="#323c6b"/><path d="m22.459 13.035a.5.5 0 0 1 -.316-.888c.374-.3.757-.6 1.149-.881a.5.5 0 0 1 .582.813c-.376.27-.742.553-1.1.844a.5.5 0 0 1 -.315.112z" fill="#323c6b"/><path d="m27.209 10.042a.5.5 0 0 1 -.209-.952 23.339 23.339 0 0 1 8.217-2.176.5.5 0 1 1 .075 1 22.354 22.354 0 0 0 -7.866 2.083.493.493 0 0 1 -.217.045z" fill="#323c6b"/><path d="m47.347 57.3h-20.715a.5.5 0 0 1 -.491-.406 41.4 41.4 0 0 0 -6.191-15.02 20.564 20.564 0 1 1 33.985.164 39.4 39.4 0 0 0 -6.1 14.854.5.5 0 0 1 -.488.408zm-20.3-1h19.887a40.39 40.39 0 0 1 6.179-14.831 19.56 19.56 0 1 0 -32.334-.155 42.437 42.437 0 0 1 6.263 14.986z" fill="#323c6b"/><path d="m37 44.484a13.909 13.909 0 1 1 13.909-13.909 13.924 13.924 0 0 1 -13.909 13.909zm0-26.817a12.909 12.909 0 1 0 12.909 12.908 12.924 12.924 0 0 0 -12.909-12.908z" fill="#323c6b"/><path d="m37 71.417a10.894 10.894 0 0 1 -10.862-10.9v-3.709a.5.5 0 0 1 .5-.5h20.71a.5.5 0 0 1 .5.5v3.708a10.853 10.853 0 0 1 -10.848 10.901zm-9.867-14.109v3.208a9.892 9.892 0 0 0 9.867 9.901 9.853 9.853 0 0 0 9.853-9.9v-3.209z" fill="#323c6b"/></g></svg>