<svg height="512" viewBox="0 0 74 74" width="512" xmlns="http://www.w3.org/2000/svg"><g id="color_line" data-name="color line"><path d="m34.587 15.778v-4.466h6.727v4.466" fill="#e1e6e9"/><path d="m41.314 16.278a.5.5 0 0 1 -.5-.5v-3.966h-5.727v3.967a.5.5 0 0 1 -1 0v-4.467a.5.5 0 0 1 .5-.5h6.727a.5.5 0 0 1 .5.5v4.467a.5.5 0 0 1 -.5.499z" fill="#323c6b"/><rect fill="#9297ab" height="9.046" rx="1.098" transform="matrix(-1 0 0 -1 75.901 13.586)" width="16.89" x="29.505" y="2.27"/><path d="m45.3 11.815h-14.7a1.6 1.6 0 0 1 -1.6-1.6v-6.847a1.6 1.6 0 0 1 1.6-1.6h14.7a1.6 1.6 0 0 1 1.6 1.6v6.851a1.6 1.6 0 0 1 -1.6 1.596zm-14.7-9.045a.6.6 0 0 0 -.6.6v6.851a.6.6 0 0 0 .6.6h14.7a.6.6 0 0 0 .6-.6v-6.853a.6.6 0 0 0 -.6-.6z" fill="#323c6b"/><path d="m52.893 19.806 1.638-2.237 2.828 2.08-1.638 2.224" fill="#e1e6e9"/><path d="m55.72 22.374a.5.5 0 0 1 -.4-.8l1.341-1.821-2.021-1.487-1.34 1.834a.5.5 0 0 1 -.807-.591l1.638-2.237a.5.5 0 0 1 .328-.2.5.5 0 0 1 .372.091l2.828 2.081a.5.5 0 0 1 .106.7l-1.641 2.226a.5.5 0 0 1 -.404.204z" fill="#323c6b"/><rect fill="#9297ab" height="5.336" rx=".708" transform="matrix(.805 .593 -.593 .805 20.977 -30.915)" width="10.814" x="52.124" y="13.794"/><path d="m60.149 22.035a1.2 1.2 0 0 1 -.714-.234l-7.566-5.575a1.21 1.21 0 0 1 -.256-1.689l2.326-3.156a1.209 1.209 0 0 1 1.689-.256l7.565 5.575a1.209 1.209 0 0 1 .256 1.689l-2.326 3.156a1.206 1.206 0 0 1 -.974.49zm-5.238-10.145a.209.209 0 0 0 -.168.084l-2.326 3.156a.209.209 0 0 0 .044.292l7.567 5.578a.209.209 0 0 0 .291-.044l2.326-3.156a.208.208 0 0 0 -.045-.3l-7.566-5.57a.207.207 0 0 0 -.123-.04z" fill="#323c6b"/><path d="m20.181 21.873-1.638-2.224 2.827-2.08 1.638 2.237" fill="#e1e6e9"/><path d="m20.181 22.374a.5.5 0 0 1 -.4-.2l-1.641-2.228a.5.5 0 0 1 .106-.7l2.828-2.081a.5.5 0 0 1 .7.107l1.638 2.237a.5.5 0 1 1 -.807.591l-1.342-1.833-2.021 1.487 1.341 1.821a.5.5 0 0 1 -.4.8z" fill="#323c6b"/><rect fill="#9297ab" height="5.336" rx=".708" transform="matrix(-.805 .593 -.593 -.805 42.925 18.821)" width="10.814" x="12.963" y="13.794"/><path d="m15.751 22.036a1.208 1.208 0 0 1 -.975-.492l-2.325-3.156a1.209 1.209 0 0 1 .256-1.689l7.566-5.574a1.209 1.209 0 0 1 1.689.255l2.325 3.157a1.208 1.208 0 0 1 -.256 1.689l-7.565 5.574a1.2 1.2 0 0 1 -.715.236zm5.24-10.146a.208.208 0 0 0 -.124.041l-7.567 5.569a.234.234 0 0 0 -.044.291l2.325 3.156a.209.209 0 0 0 .292.044l7.566-5.574a.209.209 0 0 0 .044-.292l-2.325-3.156a.208.208 0 0 0 -.167-.079z" fill="#323c6b"/><path d="m33.367 8.815a.5.5 0 0 1 -.5-.5v-3.045a.5.5 0 0 1 1 0v3.045a.5.5 0 0 1 -.5.5z" fill="#323c6b"/><path d="m37.951 8.815a.5.5 0 0 1 -.5-.5v-3.045a.5.5 0 0 1 1 0v3.045a.5.5 0 0 1 -.5.5z" fill="#323c6b"/><path d="m42.534 8.815a.5.5 0 0 1 -.5-.5v-3.045a.5.5 0 0 1 1 0v3.045a.5.5 0 0 1 -.5.5z" fill="#323c6b"/><circle cx="37.951" cy="42.972" fill="#9297ab" r="27.297"/><path d="m65.25 42.977a27.275 27.275 0 0 1 -11.01 21.91 27.293 27.293 0 0 0 -35.13-41.65 27.287 27.287 0 0 1 46.14 19.74z" fill="#84879c"/><circle cx="37.951" cy="42.972" fill="#eeefee" r="21.828"/><path d="m59.78 42.977a21.8 21.8 0 0 1 -10.66 18.75 21.826 21.826 0 0 0 -24.73-35.85 21.823 21.823 0 0 1 35.39 17.1z" fill="#e1e6e9"/><path d="m37.951 26.679a.5.5 0 0 1 -.5-.5v-1.721a.5.5 0 0 1 1 0v1.721a.5.5 0 0 1 -.5.5z" fill="#323c6b"/><path d="m37.951 61.987a.5.5 0 0 1 -.5-.5v-1.721a.5.5 0 0 1 1 0v1.721a.5.5 0 0 1 -.5.5z" fill="#323c6b"/><path d="m56.466 43.472h-1.721a.5.5 0 0 1 0-1h1.721a.5.5 0 0 1 0 1z" fill="#323c6b"/><path d="m21.157 43.472h-1.721a.5.5 0 0 1 0-1h1.721a.5.5 0 0 1 0 1z" fill="#323c6b"/><path d="m49.392 30.112-14.049 9.628a4.221 4.221 0 0 0 -.419 6.635 4.221 4.221 0 0 0 6.542-1.189z" fill="#9297ab"/><path d="m37.718 47.944a4.722 4.722 0 0 1 -2.658-8.617l14.049-9.627a.5.5 0 0 1 .725.646l-7.927 15.073a4.692 4.692 0 0 1 -3.334 2.447 4.792 4.792 0 0 1 -.855.078zm10.293-16.28-12.386 8.488a3.721 3.721 0 1 0 5.4 4.8z" fill="#323c6b"/><circle cx="37.951" cy="42.972" fill="#eeefee" r="1.668" transform="matrix(.665 -.747 .747 .665 -19.38 42.764)"/><g fill="#323c6b"><path d="m37.948 45.141a2.168 2.168 0 0 1 -1.617-3.609 2.153 2.153 0 0 1 1.494-.723 2.175 2.175 0 0 1 1.568.544 2.168 2.168 0 0 1 -1.315 3.784c-.044.002-.087.004-.13.004zm0-3.336a1.165 1.165 0 0 0 -.874.392 1.169 1.169 0 1 0 .874-.392z"/><path d="m12.86 60.417a.5.5 0 0 1 -.415-.22 30.62 30.62 0 0 1 -4.234-9.233.5.5 0 0 1 .966-.26 29.619 29.619 0 0 0 4.1 8.933.5.5 0 0 1 -.414.78z"/><path d="m8.123 48.75a.5.5 0 0 1 -.492-.413c-.04-.221-.076-.444-.109-.667a.5.5 0 0 1 .988-.15q.049.322.105.642a.5.5 0 0 1 -.4.58.494.494 0 0 1 -.092.008z"/><path d="m66.525 33.417a.5.5 0 0 1 -.472-.334c-.079-.225-.165-.446-.254-.666a.5.5 0 1 1 .927-.375c.095.234.187.47.271.709a.5.5 0 0 1 -.306.638.5.5 0 0 1 -.166.028z"/><path d="m68.21 45h-.025a.5.5 0 0 1 -.475-.524c.024-.5.038-1 .038-1.5a29.806 29.806 0 0 0 -.961-7.513.5.5 0 1 1 .968-.252 30.8 30.8 0 0 1 .993 7.765q0 .781-.039 1.552a.5.5 0 0 1 -.499.472z"/><path d="m37.951 70.77a27.8 27.8 0 1 1 27.8-27.8 27.829 27.829 0 0 1 -27.8 27.8zm0-54.6a26.8 26.8 0 1 0 26.8 26.8 26.828 26.828 0 0 0 -26.8-26.795z"/><path d="m37.951 65.3a22.327 22.327 0 1 1 22.327-22.328 22.353 22.353 0 0 1 -22.327 22.328zm0-43.655a21.327 21.327 0 1 0 21.327 21.327 21.351 21.351 0 0 0 -21.327-21.327z"/></g><path d="m43 67.7a.65.65 0 0 1 -.132-1.286 23.8 23.8 0 0 0 8.2-3.409.65.65 0 1 1 .712 1.088 25.08 25.08 0 0 1 -8.644 3.593.657.657 0 0 1 -.136.014z" fill="#fff"/><path d="m38.583 68.225a.65.65 0 0 1 -.016-1.3c.2 0 .406-.013.608-.023a.644.644 0 0 1 .682.617.651.651 0 0 1 -.617.682q-.319.015-.639.024z" fill="#fff"/></g></svg>