<svg height="512" viewBox="0 0 74 74" width="512" xmlns="http://www.w3.org/2000/svg"><g id="color_line" data-name="color line"><path d="m61.337 68h-47.924a2.774 2.774 0 0 1 -2.774-2.774v-5.684h53.472v5.687a2.774 2.774 0 0 1 -2.774 2.771z" fill="#9297ab"/><path d="m64.11 59.547v5.68a2.778 2.778 0 0 1 -2.77 2.78h-2.92a2.778 2.778 0 0 0 2.77-2.78v-5.68z" fill="#84879c"/><path d="m69.312 30.729-.33 2.45a2.189 2.189 0 0 1 -2.68 1.84l-10.802-2.644a2.179 2.179 0 0 1 -1.67-2.36l.31-2.96z" fill="#9297ab"/><path d="m66.811 35.579a2.673 2.673 0 0 1 -.624-.073l-10.806-2.645a2.681 2.681 0 0 1 -2.048-2.9l.31-2.961a.5.5 0 0 1 .209-.356.492.492 0 0 1 .406-.077l15.172 3.676a.5.5 0 0 1 .378.553l-.33 2.45a2.686 2.686 0 0 1 -2.667 2.333zm-12.232-7.9-.251 2.392a1.682 1.682 0 0 0 1.287 1.821l10.808 2.645a1.691 1.691 0 0 0 1.351-.253 1.663 1.663 0 0 0 .714-1.167l.27-2z" fill="#323c6b"/><path d="m69.97 25.857-.66 4.87-15.17-3.67.25-2.36a2.917 2.917 0 0 0 -2.28-3.14 66.656 66.656 0 0 0 -29.39 0 2.917 2.917 0 0 0 -2.28 3.14l.25 2.36-15.17 3.67-.66-4.87a7.746 7.746 0 0 1 4.24-7.97c8.54-4.27 19.37-6.18 28.32-6.19 8.95.01 19.78 1.92 28.31 6.19a7.746 7.746 0 0 1 4.24 7.97z" fill="#89c5cd"/><path d="m69.97 25.857-.66 4.87-2.27-.55.35-2.57a7.746 7.746 0 0 0 -4.24-7.97c-8.53-4.27-19.36-6.18-28.31-6.19-8.77.01-19.35 1.85-27.81 5.95a7.608 7.608 0 0 1 2.07-1.51c8.54-4.27 19.37-6.18 28.32-6.19 8.95.01 19.78 1.92 28.31 6.19a7.746 7.746 0 0 1 4.24 7.97z" fill="#6eaaad"/><path d="m5.521 30.729.33 2.45a2.189 2.189 0 0 0 2.68 1.84l10.8-2.644a2.179 2.179 0 0 0 1.669-2.36l-.31-2.96z" fill="#9297ab"/><path d="m8.023 35.579a2.686 2.686 0 0 1 -2.667-2.334l-.331-2.445a.5.5 0 0 1 .378-.553l15.172-3.674a.491.491 0 0 1 .406.077.5.5 0 0 1 .209.35l.31 2.96a2.682 2.682 0 0 1 -2.053 2.9l-10.798 2.64a2.7 2.7 0 0 1 -.626.079zm-1.946-4.47.27 2a1.663 1.663 0 0 0 .714 1.168 1.7 1.7 0 0 0 1.354.252l10.8-2.643a1.682 1.682 0 0 0 1.292-1.82l-.251-2.394z" fill="#323c6b"/><path d="m31.478 27.292v-2.459a1.155 1.155 0 0 0 -1.155-1.155h-2.033a1.155 1.155 0 0 0 -1.155 1.155v2.458z" fill="#89c5cd"/><path d="m31.478 27.792h-4.344a.5.5 0 0 1 -.5-.5v-2.459a1.657 1.657 0 0 1 1.655-1.656h2.033a1.657 1.657 0 0 1 1.655 1.656v2.458a.5.5 0 0 1 -.499.501zm-3.843-1h3.343v-1.959a.656.656 0 0 0 -.655-.656h-2.033a.656.656 0 0 0 -.655.656z" fill="#323c6b"/><path d="m47.616 27.292v-2.459a1.155 1.155 0 0 0 -1.155-1.155h-2.033a1.155 1.155 0 0 0 -1.155 1.155v2.458z" fill="#89c5cd"/><path d="m47.616 27.792h-4.344a.5.5 0 0 1 -.5-.5v-2.459a1.657 1.657 0 0 1 1.655-1.656h2.033a1.657 1.657 0 0 1 1.655 1.656v2.458a.5.5 0 0 1 -.499.501zm-3.843-1h3.343v-1.959a.656.656 0 0 0 -.655-.656h-2.033a.656.656 0 0 0 -.655.656z" fill="#323c6b"/><path d="m64.111 59.542v-10.632a5.31 5.31 0 0 0 -2.917-4.8c-5.8-2.814-8.81-8.393-9.611-14.819a2.726 2.726 0 0 0 -2.714-2.373h-22.988a2.726 2.726 0 0 0 -2.714 2.373c-.8 6.426-3.816 12.005-9.611 14.819a5.31 5.31 0 0 0 -2.917 4.8v10.632z" fill="#89c5cd"/><path d="m64.11 48.907v10.64h-2.96v-10.64a5.3 5.3 0 0 0 -2.92-4.8c-5.79-2.81-8.81-8.39-9.61-14.82a2.722 2.722 0 0 0 -2.71-2.37h2.96a2.722 2.722 0 0 1 2.71 2.37c.8 6.43 3.82 12.01 9.61 14.82a5.3 5.3 0 0 1 2.92 4.8z" fill="#6eaaad"/><circle cx="37.375" cy="43.229" fill="#eeefee" r="9.243"/><g fill="#323c6b"><path d="m37.375 52.973a9.743 9.743 0 1 1 9.744-9.743 9.754 9.754 0 0 1 -9.744 9.743zm0-18.487a8.743 8.743 0 1 0 8.744 8.744 8.754 8.754 0 0 0 -8.744-8.744z"/><path d="m37.375 37.412a.5.5 0 0 1 -.5-.5v-.642a.5.5 0 0 1 1 0v.642a.5.5 0 0 1 -.5.5z"/><path d="m32.908 39.262a.5.5 0 0 1 -.354-.146l-.454-.454a.5.5 0 0 1 .707-.707l.454.454a.5.5 0 0 1 -.354.854z"/><path d="m31.058 43.729h-.642a.5.5 0 1 1 0-1h.642a.5.5 0 1 1 0 1z"/><path d="m32.454 48.65a.5.5 0 0 1 -.354-.85l.454-.454a.5.5 0 0 1 .707.707l-.454.454a.5.5 0 0 1 -.353.143z"/><path d="m37.375 50.689a.5.5 0 0 1 -.5-.5v-.642a.5.5 0 0 1 1 0v.642a.5.5 0 0 1 -.5.5z"/><path d="m42.3 48.65a.5.5 0 0 1 -.354-.146l-.454-.454a.5.5 0 0 1 .707-.707l.454.454a.5.5 0 0 1 -.354.854z"/><path d="m44.334 43.729h-.642a.5.5 0 0 1 0-1h.642a.5.5 0 0 1 0 1z"/><path d="m41.842 39.262a.5.5 0 0 1 -.354-.854l.454-.454a.5.5 0 0 1 .707.707l-.454.454a.5.5 0 0 1 -.353.147z"/><path d="m28.438 71.5h-9.48a.5.5 0 1 1 0-1h9.479a.5.5 0 0 1 0 1z"/><path d="m16.656 71.5h-.656a.5.5 0 0 1 0-1h.656a.5.5 0 0 1 0 1z"/><path d="m64.781 14.66a.5.5 0 0 1 -.194-.039c-.136-.057-.276-.11-.417-.163a.5.5 0 0 1 .351-.937c.154.058.307.116.454.178a.5.5 0 0 1 -.194.961z"/><path d="m72.638 22.413a.5.5 0 0 1 -.48-.364 10.292 10.292 0 0 0 -5.308-6.4l-.32-.152a.5.5 0 1 1 .44-.9l.327.156a11.294 11.294 0 0 1 5.823 7.02.5.5 0 0 1 -.346.617.485.485 0 0 1 -.136.023z"/><path d="m5.52 31.227a.5.5 0 0 1 -.5-.433l-.66-4.87a8.242 8.242 0 0 1 4.513-8.485c7.8-3.9 18.466-6.231 28.542-6.242 10.081.011 20.748 2.345 28.534 6.243a8.24 8.24 0 0 1 4.512 8.485l-.66 4.869a.5.5 0 0 1 -.213.346.492.492 0 0 1 -.4.073l-15.17-3.67a.5.5 0 0 1 -.375-.543l.25-2.36a2.417 2.417 0 0 0 -1.893-2.595 66.463 66.463 0 0 0 -29.174 0 2.417 2.417 0 0 0 -1.891 2.6l.252 2.355a.5.5 0 0 1 -.379.539l-15.17 3.67a.485.485 0 0 1 -.118.018zm31.9-19.03c-9.928.011-20.432 2.305-28.1 6.137a7.241 7.241 0 0 0 -3.968 7.455l.585 4.322 14.206-3.437-.2-1.924a3.417 3.417 0 0 1 2.669-3.681 67.45 67.45 0 0 1 29.606 0 3.417 3.417 0 0 1 2.669 3.679l-.2 1.926 14.202 3.436.585-4.321a7.239 7.239 0 0 0 -3.967-7.454c-7.655-3.835-18.155-6.127-28.088-6.135z"/></g><path d="m17.064 23.986a.65.65 0 0 1 -.642-.554l-.083-.551a3.567 3.567 0 0 1 2.618-3.959q1.324-.354 2.651-.657a.65.65 0 0 1 .288 1.268q-1.3.3-2.6.645a2.267 2.267 0 0 0 -1.667 2.514l.082.548a.648.648 0 0 1 -.644.746z" fill="#fff"/><path d="m24.133 19.051a.65.65 0 0 1 -.121-1.289l.815-.15a.65.65 0 1 1 .228 1.28l-.8.147a.653.653 0 0 1 -.122.012z" fill="#fff"/><path d="m64.111 60.042h-53.472a.5.5 0 0 1 -.5-.5v-10.632a5.827 5.827 0 0 1 3.2-5.25c6.628-3.219 8.734-9.625 9.333-14.432a3.227 3.227 0 0 1 3.21-2.811h22.987a3.227 3.227 0 0 1 3.21 2.812c.6 4.807 2.705 11.212 9.333 14.431a5.827 5.827 0 0 1 3.2 5.25v10.632a.5.5 0 0 1 -.5.5zm-52.973-1h52.473v-10.132a4.823 4.823 0 0 0 -2.635-4.351c-5.487-2.665-9-8.065-9.889-15.207a2.226 2.226 0 0 0 -2.218-1.935h-22.988a2.226 2.226 0 0 0 -2.218 1.935c-.891 7.143-4.4 12.543-9.889 15.208a4.823 4.823 0 0 0 -2.635 4.351z" fill="#323c6b"/><path d="m61.337 68.5h-47.924a3.277 3.277 0 0 1 -3.274-3.273v-6.185h54.472v6.188a3.277 3.277 0 0 1 -3.274 3.27zm-50.2-8.461v5.188a2.276 2.276 0 0 0 2.276 2.273h47.924a2.276 2.276 0 0 0 2.274-2.273v-5.185z" fill="#323c6b"/></g></svg>