<svg height="512" viewBox="0 0 74 74" width="512" xmlns="http://www.w3.org/2000/svg"><g id="color_line" data-name="color line"><path d="m48.772 2h-38.337v68h53.13v-53.206z" fill="#eeefee"/><path d="m63.57 16.79v53.21h-53.14v-2.92h50.14v-53.29z" fill="#e1e6e9"/><path d="m49.709 32.083h5.607v31.333h-5.607z" fill="#fe7058" transform="matrix(-1 0 0 -1 105.025 95.5)"/><path d="m55.316 63.917h-5.607a.5.5 0 0 1 -.5-.5v-31.334a.5.5 0 0 1 .5-.5h5.607a.5.5 0 0 1 .5.5v31.334a.5.5 0 0 1 -.5.5zm-5.107-1h4.607v-30.334h-4.607z" fill="#323c6b"/><path d="m39.367 41.1h5.607v22.317h-5.607z" fill="#fcd462" transform="matrix(-1 0 0 -1 84.342 104.516)"/><path d="m44.974 63.917h-5.607a.5.5 0 0 1 -.5-.5v-22.317a.5.5 0 0 1 .5-.5h5.607a.5.5 0 0 1 .5.5v22.317a.5.5 0 0 1 -.5.5zm-5.107-1h4.607v-21.317h-4.607z" fill="#323c6b"/><path d="m29.026 34.417h5.607v29h-5.607z" fill="#27ccbc" transform="matrix(-1 0 0 -1 63.658 97.833)"/><path d="m34.633 63.917h-5.607a.5.5 0 0 1 -.5-.5v-29a.5.5 0 0 1 .5-.5h5.607a.5.5 0 0 1 .5.5v29a.5.5 0 0 1 -.5.5zm-5.107-1h4.607v-28h-4.607z" fill="#323c6b"/><path d="m18.684 43.855h5.607v19.562h-5.607z" fill="#bbbbcd" transform="matrix(-1 0 0 -1 42.975 107.272)"/><path d="m24.291 63.917h-5.607a.5.5 0 0 1 -.5-.5v-19.562a.5.5 0 0 1 .5-.5h5.607a.5.5 0 0 1 .5.5v19.562a.5.5 0 0 1 -.5.5zm-5.107-1h4.607v-18.562h-4.607z" fill="#323c6b"/><path d="m33.118 8.511h-15.529a.5.5 0 0 1 0-1h15.529a.5.5 0 1 1 0 1z" fill="#323c6b"/><path d="m27.824 13.27h-10.235a.5.5 0 0 1 0-1h10.235a.5.5 0 0 1 0 1z" fill="#323c6b"/><path d="m48.772 16.794h14.793l-14.793-14.794z" fill="#d5d6db"/><g fill="#323c6b"><path d="m63.565 17.293h-14.794a.5.5 0 0 1 -.5-.5v-14.793a.5.5 0 0 1 .854-.354l14.794 14.794a.5.5 0 0 1 -.354.854zm-14.294-1h13.087l-13.087-13.086z"/><path d="m66.565 66.688a.5.5 0 0 1 -.5-.5v-.656a.5.5 0 0 1 1 0v.656a.5.5 0 0 1 -.5.5z"/><path d="m66.565 73.5h-5.815a.5.5 0 0 1 0-1h5.315v-4.125a.5.5 0 0 1 1 0v4.625a.5.5 0 0 1 -.5.5z"/><path d="m7.435 40a.5.5 0 0 1 -.5-.5v-9.8a.5.5 0 0 1 1 0v9.8a.5.5 0 0 1 -.5.5z"/><path d="m7.435 28a.5.5 0 0 1 -.5-.5v-.917a.5.5 0 0 1 1 0v.917a.5.5 0 0 1 -.5.5z"/><path d="m63.565 70.5h-53.13a.5.5 0 0 1 -.5-.5v-68a.5.5 0 0 1 .5-.5h38.336a.5.5 0 0 1 .354.146l14.794 14.794a.5.5 0 0 1 .146.354v53.206a.5.5 0 0 1 -.5.5zm-52.631-1h52.131v-52.5l-14.501-14.5h-37.629z"/></g></g></svg>