<svg height="512" viewBox="0 0 74 74" width="512" xmlns="http://www.w3.org/2000/svg"><g id="color_line" data-name="color line"><path d="m37 2.917a24.592 24.592 0 0 0 -13.693 45.024l13.693 22.976 13.693-22.976a24.592 24.592 0 0 0 -13.693-45.024z" fill="#27ccbc"/><path d="m54.98 44.287a24.6 24.6 0 0 0 -38.06-30.98 24.594 24.594 0 1 1 38.06 30.98z" fill="#21b3a9"/><circle cx="37" cy="27.326" fill="#fff" r="17.159"/><path d="m37 44.985a17.659 17.659 0 1 1 17.659-17.66 17.679 17.679 0 0 1 -17.659 17.66zm0-34.319a16.659 16.659 0 1 0 16.659 16.66 16.678 16.678 0 0 0 -16.659-16.659z" fill="#323c6b"/><path d="m41.47 21.34h-8.94a.5.5 0 0 1 -.5-.5v-1.716a2.053 2.053 0 0 1 2.051-2.051h5.839a2.053 2.053 0 0 1 2.051 2.051v1.716a.5.5 0 0 1 -.501.5zm-8.44-1h7.94v-1.216a1.052 1.052 0 0 0 -1.051-1.051h-5.838a1.052 1.052 0 0 0 -1.051 1.051z" fill="#323c6b"/><rect fill="#e7aa6c" height="14.987" rx="1.367" width="20.38" x="26.81" y="20.84"/><path d="m45.823 36.327h-17.646a1.869 1.869 0 0 1 -1.867-1.867v-12.253a1.869 1.869 0 0 1 1.867-1.867h17.646a1.869 1.869 0 0 1 1.867 1.867v12.253a1.869 1.869 0 0 1 -1.867 1.867zm-17.646-14.987a.868.868 0 0 0 -.867.867v12.253a.868.868 0 0 0 .867.867h17.646a.868.868 0 0 0 .867-.867v-12.253a.868.868 0 0 0 -.867-.867z" fill="#323c6b"/><path d="m42.9 27.74h-11.8a2.047 2.047 0 0 1 -1.85-1.179l-2.412-5.176a.5.5 0 0 1 .906-.423l2.412 5.176a1.043 1.043 0 0 0 .943.6h11.801a1.043 1.043 0 0 0 .943-.6l2.4-5.182a.5.5 0 0 1 .907.421l-2.4 5.182a2.047 2.047 0 0 1 -1.85 1.181z" fill="#323c6b"/><rect fill="#eeefee" height="3.266" rx=".487" width="2.721" x="35.64" y="26.229"/><g fill="#323c6b"><path d="m37.874 29.995h-1.748a.988.988 0 0 1 -.987-.987v-2.292a.988.988 0 0 1 .987-.987h1.747a.988.988 0 0 1 .987.987v2.292a.988.988 0 0 1 -.986.987zm-1.734-3.266v2.279l1.734-.013-.013-2.278z"/><path d="m30.479 66.333a.5.5 0 0 1 -.43-.244l-4.462-7.489a.5.5 0 1 1 .859-.512l4.461 7.486a.5.5 0 0 1 -.429.756z"/><path d="m24.768 56.75a.5.5 0 0 1 -.43-.244l-.359-.6a.5.5 0 0 1 .859-.512l.359.6a.5.5 0 0 1 -.429.756z"/><path d="m57.737 9.833a.5.5 0 0 1 -.376-.17c-.162-.185-.326-.366-.493-.545a.5.5 0 0 1 .733-.681c.173.187.343.375.512.566a.5.5 0 0 1 -.376.83z"/><path d="m63.743 21.34a.5.5 0 0 1 -.485-.38 26.7 26.7 0 0 0 -4.209-9.169.5.5 0 1 1 .813-.582 27.7 27.7 0 0 1 4.367 9.511.5.5 0 0 1 -.365.605.512.512 0 0 1 -.121.015z"/><path d="m37 71.417a.5.5 0 0 1 -.43-.244l-13.635-22.881a25.1 25.1 0 1 1 28.13 0l-13.635 22.88a.5.5 0 0 1 -.43.245zm0-68a24.092 24.092 0 0 0 -13.415 44.108.5.5 0 0 1 .151.16l13.264 22.255 13.263-22.255a.5.5 0 0 1 .151-.16 24.092 24.092 0 0 0 -13.414-44.108z"/></g><path d="m16.283 27.15h-.026a.65.65 0 0 1 -.624-.675 21.134 21.134 0 0 1 2.235-8.682.65.65 0 0 1 1.162.582 19.85 19.85 0 0 0 -2.1 8.152.649.649 0 0 1 -.647.623z" fill="#fff"/><path d="m19.932 16.233a.65.65 0 0 1 -.534-1.02c.182-.264.371-.522.562-.779a.65.65 0 0 1 1.04.777c-.182.244-.362.491-.535.742a.649.649 0 0 1 -.533.28z" fill="#fff"/></g></svg>