<svg height="512" viewBox="0 0 74 74" width="512" xmlns="http://www.w3.org/2000/svg"><g id="color_line" data-name="color line"><path d="m50.6 50.58a83.067 83.067 0 0 1 -4.286-32.219h-18.628a83.067 83.067 0 0 1 -4.286 32.219z" fill="#9297ab"/><path d="m54.06 59h-34.12a12.992 12.992 0 0 0 3.29-6.58h27.54a12.992 12.992 0 0 0 3.29 6.58z" fill="#9297ab"/><path d="m50.6 50.577h-3.46a83.185 83.185 0 0 1 -4.29-32.22h3.46a83.186 83.186 0 0 0 4.29 32.22z" fill="#84879c"/><path d="m54.06 59h-3.46a12.992 12.992 0 0 1 -3.29-6.58h3.46a12.992 12.992 0 0 0 3.29 6.58z" fill="#84879c"/><path d="m49.993 1.5v14.435a2.426 2.426 0 0 1 -2.426 2.426h-21.134a2.426 2.426 0 0 1 -2.426-2.426v-14.435h3.113l1.994 9.369h2.775l-.709-9.369h3.794l.639 9.369h2.772l.641-9.369h3.794l-.711 9.369h2.769l1.995-9.369z" fill="#bbbbcd"/><path d="m49.99 1.5v14.44a2.416 2.416 0 0 1 -2.42 2.42h-2.84a2.424 2.424 0 0 0 2.43-2.42v-14.44z" fill="#9297ab"/><g fill="#323c6b"><path d="m23.4 39.313a.5.5 0 0 1 -.491-.6 74.443 74.443 0 0 0 1.191-8.833.5.5 0 0 1 1 .074 75.414 75.414 0 0 1 -1.212 8.955.5.5 0 0 1 -.488.404z"/><path d="m24.788 27.948h-.017a.5.5 0 0 1 -.483-.516c.006-.159.006-.321.006-.483v-.428a.55.55 0 0 1 .512-.489.5.5 0 0 1 .488.511v.406c0 .173 0 .346-.006.515a.5.5 0 0 1 -.5.484z"/><path d="m56.354 74.417a.5.5 0 1 1 0-1 4.644 4.644 0 0 0 4.64-4.639v-.194a.5.5 0 0 1 1 0v.194a5.646 5.646 0 0 1 -5.64 5.639z"/><path d="m61.494 66.5a.5.5 0 0 1 -.5-.5v-1.167a.5.5 0 0 1 1 0v1.167a.5.5 0 0 1 -.5.5z"/><path d="m50.6 51.08h-27.2a.5.5 0 0 1 -.476-.654 82.264 82.264 0 0 0 4.263-32.038.5.5 0 0 1 .5-.527h18.627a.5.5 0 0 1 .5.527 82.286 82.286 0 0 0 4.262 32.038.5.5 0 0 1 -.476.654zm-26.513-1h25.826a82.783 82.783 0 0 1 -4.125-31.219h-17.575a82.76 82.76 0 0 1 -4.126 31.219z"/><path d="m54.06 59.5h-34.12a.5.5 0 0 1 -.361-.845 12.568 12.568 0 0 0 3.16-6.329.5.5 0 0 1 .491-.406h27.54a.5.5 0 0 1 .491.406 12.568 12.568 0 0 0 3.16 6.329.5.5 0 0 1 -.361.845zm-33.021-1h31.922a13.714 13.714 0 0 1 -2.6-5.58h-26.722a13.714 13.714 0 0 1 -2.6 5.58z"/></g><rect fill="#bbbbcd" height="4.392" rx="2.196" width="31.243" x="21.379" y="49.125"/><path d="m50.426 54.017h-26.851a2.7 2.7 0 1 1 0-5.392h26.851a2.7 2.7 0 1 1 0 5.392zm-26.851-4.392a1.7 1.7 0 1 0 0 3.392h26.851a1.7 1.7 0 1 0 0-3.392z" fill="#323c6b"/><rect fill="#bbbbcd" height="12.241" rx="2.139" width="42.988" x="15.506" y="58.676"/><path d="m56.35 58.677h-.44v10.1a2.13 2.13 0 0 1 -1.243 1.938v.2h1.683a2.136 2.136 0 0 0 2.14-2.14v-7.96a2.136 2.136 0 0 0 -2.14-2.138z" fill="#9297ab"/><path d="m47.567 18.861h-21.133a2.929 2.929 0 0 1 -2.926-2.926v-14.435a.5.5 0 0 1 .5-.5h3.112a.5.5 0 0 1 .489.4l1.909 8.973h1.832l-.669-8.831a.5.5 0 0 1 .133-.377.5.5 0 0 1 .366-.165h3.794a.5.5 0 0 1 .5.466l.607 8.9h1.839l.608-8.9a.5.5 0 0 1 .5-.466h3.792a.5.5 0 0 1 .366.16.5.5 0 0 1 .133.377l-.671 8.831h1.826l1.91-8.968a.5.5 0 0 1 .489-.4h3.12a.5.5 0 0 1 .5.5v14.435a2.929 2.929 0 0 1 -2.926 2.926zm-23.059-16.861v13.935a1.928 1.928 0 0 0 1.926 1.926h21.133a1.928 1.928 0 0 0 1.926-1.926v-13.935h-2.216l-1.909 8.973a.5.5 0 0 1 -.489.4h-2.77a.5.5 0 0 1 -.366-.16.5.5 0 0 1 -.133-.377l.671-8.836h-2.788l-.608 8.9a.5.5 0 0 1 -.5.466h-2.772a.5.5 0 0 1 -.5-.466l-.606-8.9h-2.788l.669 8.831a.5.5 0 0 1 -.133.377.5.5 0 0 1 -.366.16h-2.775a.5.5 0 0 1 -.489-.4l-1.909-8.968z" fill="#323c6b"/><path d="m56.354 71.417h-38.708a2.643 2.643 0 0 1 -2.64-2.639v-7.963a2.643 2.643 0 0 1 2.64-2.639h38.708a2.643 2.643 0 0 1 2.64 2.639v7.962a2.643 2.643 0 0 1 -2.64 2.64zm-38.708-12.241a1.641 1.641 0 0 0 -1.64 1.639v7.962a1.641 1.641 0 0 0 1.64 1.639h38.708a1.641 1.641 0 0 0 1.64-1.639v-7.962a1.641 1.641 0 0 0 -1.64-1.639z" fill="#323c6b"/><path d="m41.173 46.848h-.694a.65.65 0 1 1 0-1.3h.694a.65.65 0 1 1 0 1.3z" fill="#fff"/><path d="m38.031 46.848h-7.52a.65.65 0 1 1 0-1.3h7.521a.65.65 0 1 1 0 1.3z" fill="#fff"/></g></svg>