<svg height="512" viewBox="0 0 74 74" width="512" xmlns="http://www.w3.org/2000/svg"><g id="color_line" data-name="color line"><rect fill="#bbbbcd" height="60.169" rx="3.337" width="42.107" x="15.946" y="8.861"/><path d="m58.05 12.2v53.49a3.331 3.331 0 0 1 -3.33 3.34h-35.44a3.322 3.322 0 0 1 -3.32-3.17h35.06a3.337 3.337 0 0 0 3.34-3.33v-53.5a.97.97 0 0 0 -.01-.17h.37a3.331 3.331 0 0 1 3.33 3.34z" fill="#9297ab"/><path d="m33.856 43.377 3.944-10.451-5.423-.926a1.906 1.906 0 0 1 -.568-.229 1.876 1.876 0 0 1 -.453-2.669l8.088-11.549-3.581 10.77 5.571.9a1.977 1.977 0 0 1 1.531 2.327 1.905 1.905 0 0 1 -.277.666z" fill="#fe7058"/><path d="m33.856 43.876a.5.5 0 0 1 -.468-.677l3.73-9.882-4.826-.824a2.439 2.439 0 0 1 -.743-.294 2.182 2.182 0 0 1 -1-1.44 2.5 2.5 0 0 1 .4-1.943l8.088-11.548a.5.5 0 0 1 .884.444l-3.4 10.212 4.991.806a2.49 2.49 0 0 1 1.941 2.92 2.43 2.43 0 0 1 -.354.849l-8.851 11.188a.5.5 0 0 1 -.392.189zm4.033-23.23-6.124 8.743a1.522 1.522 0 0 0 -.24 1.164 1.192 1.192 0 0 0 .543.791 1.42 1.42 0 0 0 .42.169l5.4.92a.5.5 0 0 1 .384.669l-2.81 7.442 6.838-8.637a1.459 1.459 0 0 0 .181-.462 1.48 1.48 0 0 0 -1.146-1.731l-5.548-.9a.5.5 0 0 1 -.395-.651z" fill="#323c6b"/><path d="m21.454 51.27h31.091v10.572h-31.091z" fill="#27ccbc"/><path d="m49.63 51.27h2.92v10.57h-2.92z" fill="#21b3a9"/><path d="m43.609 2.03h-13.218a1.974 1.974 0 0 0 -1.974 1.97v4.861h17.166v-4.861a1.974 1.974 0 0 0 -1.974-1.97z" fill="#bbbbcd"/><path d="m45.583 9.361h-17.166a.5.5 0 0 1 -.5-.5v-4.861a2.476 2.476 0 0 1 2.474-2.47h13.218a2.476 2.476 0 0 1 2.474 2.47v4.861a.5.5 0 0 1 -.5.5zm-16.666-1h16.166v-4.361a1.475 1.475 0 0 0 -1.474-1.47h-13.218a1.475 1.475 0 0 0 -1.474 1.47z" fill="#323c6b"/><path d="m43.609 2.03h-13.218a1.974 1.974 0 0 0 -1.974 1.97v4.861h17.166v-4.861a1.974 1.974 0 0 0 -1.974-1.97z" fill="#bbbbcd"/><g fill="#323c6b"><path d="m45.583 9.361h-17.166a.5.5 0 0 1 -.5-.5v-4.861a2.476 2.476 0 0 1 2.474-2.47h13.218a2.476 2.476 0 0 1 2.474 2.47v4.861a.5.5 0 0 1 -.5.5zm-16.666-1h16.166v-4.361a1.475 1.475 0 0 0 -1.474-1.47h-13.218a1.475 1.475 0 0 0 -1.474 1.47z"/><path d="m56.375 72.3a.5.5 0 0 1 -.131-.982 5.847 5.847 0 0 0 4.31-5.626v-1.162a.5.5 0 0 1 1 0v1.164a6.848 6.848 0 0 1 -5.048 6.591.488.488 0 0 1 -.131.015z"/><path d="m61.054 62.687a.5.5 0 0 1 -.5-.5v-.625a.5.5 0 0 1 1 0v.625a.5.5 0 0 1 -.5.5z"/><path d="m12.875 35.53a.5.5 0 0 1 -.5-.5v-10.166a.5.5 0 0 1 1 0v10.166a.5.5 0 0 1 -.5.5z"/><path d="m12.875 22.879a.5.5 0 0 1 -.5-.5v-.625a.5.5 0 0 1 1 0v.625a.5.5 0 0 1 -.5.5z"/><path d="m54.717 69.53h-35.434a3.841 3.841 0 0 1 -3.837-3.836v-53.494a3.842 3.842 0 0 1 3.837-3.837h35.434a3.842 3.842 0 0 1 3.837 3.837v53.5a3.841 3.841 0 0 1 -3.837 3.83zm-35.434-60.169a2.84 2.84 0 0 0 -2.837 2.839v53.5a2.84 2.84 0 0 0 2.837 2.836h35.434a2.84 2.84 0 0 0 2.837-2.836v-53.5a2.84 2.84 0 0 0 -2.837-2.837z"/><path d="m52.546 62.342h-31.092a.5.5 0 0 1 -.5-.5v-10.572a.5.5 0 0 1 .5-.5h31.092a.5.5 0 0 1 .5.5v10.572a.5.5 0 0 1 -.5.5zm-30.592-1h30.092v-9.572h-30.092z"/></g><path d="m51.708 13.035h-8.328a.65.65 0 1 1 0-1.3h8.328a.65.65 0 1 1 0 1.3z" fill="#fff"/><path d="m40.854 13.035h-.917a.65.65 0 1 1 0-1.3h.917a.65.65 0 1 1 0 1.3z" fill="#fff"/></g></svg>