<svg height="512" viewBox="0 0 74 74" width="512" xmlns="http://www.w3.org/2000/svg"><g id="color_line" data-name="color line"><path d="m11.874 31.604v7.053h35.564z" fill="#e1e6e9"/><path d="m47.438 39.157h-35.564a.5.5 0 0 1 -.5-.5v-7.057a.5.5 0 0 1 .6-.49l35.563 7.054a.5.5 0 0 1 -.1.99zm-35.063-1h29.972l-29.973-5.945z" fill="#323c6b"/><path d="m66.874 29.352h.011z" fill="#fe7058"/><path d="m66.885 29.854a.473.473 0 0 1 -.09-.008.505.505 0 0 1 -.408-.579.5.5 0 0 1 .569-.408h.008.011a.5.5 0 0 1 -.078.992z" fill="#323c6b"/><path d="" fill="#fe7058"/><path d="m66.042 28.568h-.055a.5.5 0 0 1 -.445-.5.508.508 0 0 1 .012-.108.463.463 0 0 1 .015-.051.5.5 0 0 1 .975.156.47.47 0 0 1 -.013.11.5.5 0 0 1 -.489.393z" fill="#323c6b"/><path d="m58.543 41.007-52.676-10.796c1.708-7.961 13.083-13.901 22.196-11.911l39.411 8.112a1.918 1.918 0 0 1 1.5 2.314l-2.174 9.574" fill="#fe7058"/><path d="m68.973 28.727-2.173 9.573-3.19 1.05 1.92-8.48a1.912 1.912 0 0 0 -1.5-2.31l-39.41-8.11a20.732 20.732 0 0 0 -13.41 1.99c4.56-3.52 11.15-5.39 16.85-4.14l39.41 8.12a1.919 1.919 0 0 1 1.503 2.307z" fill="#ea6453"/><path d="m1.968 53.657h67.402v4.519h-67.402z" fill="#9297ab"/><path d="m69.369 58.676h-67.401a.5.5 0 0 1 -.5-.5v-4.519a.5.5 0 0 1 .5-.5h67.4a.5.5 0 0 1 .5.5v4.519a.5.5 0 0 1 -.499.5zm-66.9-1h66.4v-3.519h-66.401z" fill="#323c6b"/><path d="m66.039 53.657v-5.875l-6.069-1.013h-49.253a6.009 6.009 0 0 0 -4.263 1.768 8.343 8.343 0 0 0 -1.784 5.12z" fill="#fe7058"/><path d="m62.793 48.083h3.25v5.573h-3.25z" fill="#ea6453"/><path d="m12.438 43.009h11.375v3.761h-11.375z" fill="#e1e6e9"/><path d="m23.813 47.27h-11.375a.5.5 0 0 1 -.5-.5v-3.761a.5.5 0 0 1 .5-.5h11.375a.5.5 0 0 1 .5.5v3.761a.5.5 0 0 1 -.5.5zm-10.875-1h10.375v-2.761h-10.375z" fill="#323c6b"/><path d="m24.16 20.585-.414 1.486" fill="#84879c"/><path d="m23.746 22.571a.491.491 0 0 1 -.134-.019.5.5 0 0 1 -.348-.616l.414-1.486a.5.5 0 0 1 .963.269l-.414 1.486a.5.5 0 0 1 -.481.366z" fill="#323c6b"/><path d="m27.443 21.272-.414 1.486" fill="#84879c"/><path d="m27.028 23.258a.491.491 0 0 1 -.134-.019.5.5 0 0 1 -.348-.616l.414-1.486a.5.5 0 0 1 .963.269l-.414 1.486a.5.5 0 0 1 -.481.366z" fill="#323c6b"/><path d="m30.725 21.96-.414 1.486" fill="#84879c"/><path d="m30.311 23.946a.491.491 0 0 1 -.134-.019.5.5 0 0 1 -.348-.616l.414-1.486a.5.5 0 0 1 .963.269l-.414 1.486a.5.5 0 0 1 -.481.366z" fill="#323c6b"/><path d="m34.007 22.647-.414 1.486" fill="#84879c"/><g fill="#323c6b"><path d="m33.593 24.633a.491.491 0 0 1 -.134-.019.5.5 0 0 1 -.348-.614l.414-1.486a.5.5 0 0 1 .963.269l-.414 1.486a.5.5 0 0 1 -.481.364z"/><path d="m12.715 18.5-.516-.858c.291-.159.546-.3.8-.429a.5.5 0 0 1 .453.892c-.245.122-.491.256-.737.395z"/><path d="m15.938 16.974a.5.5 0 0 1 -.174-.969 24.224 24.224 0 0 1 10.851-1.475.5.5 0 0 1 .445.549.5.5 0 0 1 -.549.445 23.262 23.262 0 0 0 -10.4 1.419.5.5 0 0 1 -.173.031z"/><path d="m48.313 61.676h-11.125a.5.5 0 0 1 0-1h11.125a.5.5 0 0 1 0 1z"/><path d="m33.688 61.676h-1.125a.5.5 0 0 1 0-1h1.125a.5.5 0 0 1 0 1z"/><path d="m58.544 41.507a.512.512 0 0 1 -.1-.01l-52.677-10.797a.5.5 0 0 1 -.318-.216.506.506 0 0 1 -.07-.378c.737-3.436 3.218-6.665 6.985-9.092a21.81 21.81 0 0 1 15.806-3.2l39.405 8.111a2.417 2.417 0 0 1 1.882 2.915l-2.168 9.571a.5.5 0 1 1 -.975-.221l2.168-9.572a1.419 1.419 0 0 0 -1.106-1.718l-39.414-8.11a20.776 20.776 0 0 0 -15.057 3.065c-3.359 2.164-5.625 4.979-6.431 7.971l52.17 10.692a.5.5 0 0 1 -.1.99z"/><path d="m66.039 54.157h-61.37a.5.5 0 0 1 -.5-.537 8.937 8.937 0 0 1 1.931-5.436 6.488 6.488 0 0 1 4.617-1.915h49.253l6.151 1.02a.5.5 0 0 1 .418.493v5.875a.5.5 0 0 1 -.5.5zm-60.821-1h60.321v-4.951l-5.651-.943-49.171.007a5.491 5.491 0 0 0 -3.91 1.622 7.449 7.449 0 0 0 -1.589 4.265z"/></g><path d="m69.369 43.009a5.6 5.6 0 0 1 -4.446 5.476 5.181 5.181 0 0 1 -1.147.126 5.585 5.585 0 0 1 -4.447-2.2 5.52 5.52 0 0 1 -1.155-3.4 5.6 5.6 0 1 1 11.2 0z" fill="#9297ab"/><path d="m69.373 43.007a5.589 5.589 0 0 1 -3.34 5.12 5.6 5.6 0 0 0 -4.04-9.47 5.517 5.517 0 0 0 -2.26.48 5.595 5.595 0 0 1 9.64 3.87z" fill="#84879c"/><circle cx="63.774" cy="43.009" fill="#eeefee" r="2.426"/><path d="m63.773 45.935a2.926 2.926 0 1 1 2.927-2.926 2.929 2.929 0 0 1 -2.927 2.926zm0-4.852a1.926 1.926 0 1 0 1.927 1.926 1.928 1.928 0 0 0 -1.927-1.926z" fill="#323c6b"/><path d="m63.775 49.111a6.045 6.045 0 0 1 -4.844-2.4 5.98 5.98 0 0 1 -1.258-3.7 6.1 6.1 0 1 1 7.351 5.966 5.651 5.651 0 0 1 -1.249.134zm0-11.2a5.107 5.107 0 0 0 -5.1 5.1 5 5 0 0 0 1.05 3.093 5.057 5.057 0 0 0 4.052 2.009 4.676 4.676 0 0 0 1.035-.113 5.1 5.1 0 0 0 -1.036-10.091z" fill="#323c6b"/><path d="m49.17 36.263a.664.664 0 0 1 -.135-.014l-9.157-1.931a.65.65 0 0 1 .268-1.272l9.154 1.931a.65.65 0 0 1 -.133 1.286z" fill="#fff"/><path d="m52.448 36.988a.664.664 0 0 1 -.135-.014l-.759-.16a.65.65 0 0 1 .268-1.272l.759.16a.65.65 0 0 1 -.133 1.286z" fill="#fff"/></g></svg>