<svg height="512" viewBox="0 0 74 74" width="512" xmlns="http://www.w3.org/2000/svg"><g id="color_line" data-name="color line"><path d="m11.41 4.906h22.289v68h-22.289z" fill="#fcd462"/><path d="m33.696 4.908v68h-3.23v-64.96h-19.06v-3.04z" fill="#f7be56"/><g fill="#323c6b"><path d="m33.7 12.631h-4.983a.5.5 0 0 1 0-1h4.983a.5.5 0 0 1 0 1z"/><path d="m33.7 19.325h-3.235a.5.5 0 0 1 0-1h3.235a.5.5 0 0 1 0 1z"/><path d="m33.7 26.018h-4.983a.5.5 0 0 1 0-1h4.983a.5.5 0 0 1 0 1z"/><path d="m33.7 32.712h-3.235a.5.5 0 0 1 0-1h3.235a.5.5 0 0 1 0 1z"/><path d="m33.7 39.406h-4.983a.5.5 0 0 1 0-1h4.983a.5.5 0 0 1 0 1z"/><path d="m33.7 46.1h-3.235a.5.5 0 0 1 0-1h3.235a.5.5 0 0 1 0 1z"/><path d="m33.7 52.793h-4.983a.5.5 0 0 1 0-1h4.983a.5.5 0 0 1 0 1z"/><path d="m33.7 66.181h-4.983a.5.5 0 0 1 0-1h4.983a.5.5 0 0 1 0 1z"/><path d="m33.7 59.487h-3.235a.5.5 0 0 1 0-1h3.235a.5.5 0 0 1 0 1z"/></g><path d="m56.83 7.976v52.734h-14.5v-52.734a3.074 3.074 0 0 1 3.077-3.076h8.353a3.074 3.074 0 0 1 3.07 3.076z" fill="#89c5cd"/><path d="m56.826 7.978v52.73h-3v-50.108a3.071 3.071 0 0 0 -3.07-3.07h-8.38a3.053 3.053 0 0 1 3.03-2.62h8.35a3.071 3.071 0 0 1 3.07 3.068z" fill="#6eaaad"/><path d="m42.34 60.709 7.243 12.197 7.242-12.197z" fill="#84879c"/><path d="m49.583 73.406a.5.5 0 0 1 -.43-.245l-7.242-12.2a.5.5 0 0 1 .43-.755h14.484a.5.5 0 0 1 .43.755l-7.242 12.2a.5.5 0 0 1 -.43.245zm-6.364-12.2 6.364 10.717 6.364-10.717z" fill="#323c6b"/><path d="m61 34.979a.5.5 0 0 1 -.5-.5v-1.409a3.283 3.283 0 0 1 .664-1.972l.435-.573a2.275 2.275 0 0 0 .46-1.368v-10.386a3.453 3.453 0 0 0 -3.449-3.449h-16.275a.5.5 0 0 1 0-1h16.273a4.454 4.454 0 0 1 4.449 4.449v10.387a3.279 3.279 0 0 1 -.663 1.972l-.435.573a2.271 2.271 0 0 0 -.459 1.367v1.408a.5.5 0 0 1 -.5.501z" fill="#323c6b"/><circle cx="22.555" cy="11.239" fill="#fff" r="2.167"/><path d="m22.555 13.906a2.667 2.667 0 1 1 2.667-2.667 2.67 2.67 0 0 1 -2.667 2.667zm0-4.333a1.667 1.667 0 1 0 1.667 1.667 1.669 1.669 0 0 0 -1.667-1.668z" fill="#323c6b"/><path d="m8.41 59.989a.5.5 0 0 1 -.5-.5v-9.417a.5.5 0 0 1 1 0v9.417a.5.5 0 0 1 -.5.5z" fill="#323c6b"/><path d="m8.41 47.572a.5.5 0 0 1 -.5-.5v-1a.5.5 0 0 1 1 0v1a.5.5 0 0 1 -.5.5z" fill="#323c6b"/><path d="m39.336 12.343a.5.5 0 0 1 -.5-.5v-.937a.5.5 0 0 1 1 0v.938a.5.5 0 0 1 -.5.499z" fill="#323c6b"/><path d="m39.336 9.031a.5.5 0 0 1 -.5-.5v-.554a6.579 6.579 0 0 1 6.571-6.571.5.5 0 0 1 0 1 5.578 5.578 0 0 0 -5.571 5.571v.554a.5.5 0 0 1 -.5.5z" fill="#323c6b"/><path d="m56.83 61.211h-14.5a.5.5 0 0 1 -.5-.5v-52.734a3.576 3.576 0 0 1 3.571-3.571h8.353a3.576 3.576 0 0 1 3.576 3.571v52.734a.5.5 0 0 1 -.5.5zm-14-1h13.5v-52.234a2.574 2.574 0 0 0 -2.571-2.571h-8.353a2.574 2.574 0 0 0 -2.571 2.571z" fill="#323c6b"/><path d="m33.7 73.406h-22.29a.5.5 0 0 1 -.5-.5v-68a.5.5 0 0 1 .5-.5h22.29a.5.5 0 0 1 .5.5v68a.5.5 0 0 1 -.5.5zm-21.789-1h21.289v-67h-21.29z" fill="#323c6b"/><path d="m45.407 40.347a.65.65 0 0 1 -.65-.65v-9.447a.65.65 0 0 1 1.3 0v9.45a.65.65 0 0 1 -.65.647z" fill="#fff"/><path d="m45.407 43.567a.65.65 0 0 1 -.65-.65v-.717a.65.65 0 0 1 1.3 0v.719a.65.65 0 0 1 -.65.648z" fill="#fff"/></g></svg>