<svg height="512" viewBox="0 0 74 74" width="512" xmlns="http://www.w3.org/2000/svg"><g id="color_line" data-name="color line"><path d="m66.42 47.187h-4.36c.16 0 .32.01.47.02h.02a4.573 4.573 0 0 1 -.49 9.12h-4.88a4.562 4.562 0 0 1 4.57 4.57 4.6 4.6 0 0 1 -3.63 4.49 3.529 3.529 0 0 1 -.42.06 2.284 2.284 0 0 1 -.25.02 2.435 2.435 0 0 1 -.27.01h-27.83a17.185 17.185 0 0 1 -7.48-1.72l-1.79-.87a3.537 3.537 0 0 1 -2.01-3.19v-25.41a5.909 5.909 0 0 1 5.91-5.91h1.45l.05-.01a9.518 9.518 0 0 0 5.41-3.54 33.327 33.327 0 0 0 4.44-7.88 39.957 39.957 0 0 0 1.76-5.69 2.779 2.779 0 0 1 3.85-1.89 7.951 7.951 0 0 1 4.45 9.37 26.361 26.361 0 0 1 -5.39 10.17l22.78-.03a4.7 4.7 0 0 1 4.76 4.23 4.518 4.518 0 0 1 -1.34 3.58 4.468 4.468 0 0 1 -3.22 1.34h3.2a4.736 4.736 0 0 1 4.81 4.28 4.591 4.591 0 0 1 -4.57 4.88z" fill="#fcd462"/><path d="m61.75 60.9a4.6 4.6 0 0 1 -3.63 4.49 3.529 3.529 0 0 1 -.42.06 2.284 2.284 0 0 1 -.25.02 2.435 2.435 0 0 1 -.27.01h-.39a6.865 6.865 0 0 0 .83-3.37c0-3.21-2.03-5.82-4.57-5.82h4.88a7.822 7.822 0 0 1 .85.04h-1.6a4.562 4.562 0 0 1 4.57 4.57z" fill="#f7be56"/><path d="m66.64 51.747a4.575 4.575 0 0 1 -4.58 4.58h-.37a6.913 6.913 0 0 0 .83-3.34c0-3.21-2.05-5.78-4.59-5.78h4.62a4.558 4.558 0 0 1 4.09 4.54z" fill="#f7be56"/><path d="m63.41 35.047a4.5 4.5 0 0 1 -.746 2.87h1.3a4.43 4.43 0 0 0 2.24-1.23 4.518 4.518 0 0 0 1.34-3.58 4.7 4.7 0 0 0 -4.76-4.23l-22.784.03a26.361 26.361 0 0 0 5.39-10.17 7.951 7.951 0 0 0 -4.45-9.37 2.779 2.779 0 0 0 -3.85 1.89c-.01.05-.03.11-.04.16a7.966 7.966 0 0 1 4.22 9.26 26.5 26.5 0 0 1 -5.39 10.17l22.78-.03a4.693 4.693 0 0 1 4.75 4.23z" fill="#f7be56"/><path d="m69.66 45.837a4.564 4.564 0 0 1 -3.24 1.35h-.39a4.449 4.449 0 0 0 .83-2.94c-.12-2.17-1.87-5.39-3.99-6.08h4.42a4.64 4.64 0 0 1 3.7 4.14 4.519 4.519 0 0 1 -1.33 3.53z" fill="#f7be56"/><rect fill="#fe7058" height="34.858" rx="2.625" width="15.073" x="3" y="28.792"/><path d="m18.07 31.417v3a2.616 2.616 0 0 0 -2.62-2.62h-9.83a2.623 2.623 0 0 0 -2.62 2.62v-3a2.623 2.623 0 0 1 2.62-2.617h9.83a2.616 2.616 0 0 1 2.62 2.617z" fill="#ea6453"/><circle cx="10.537" cy="57.739" fill="#e1e6e9" r="2.197"/><g fill="#323c6b"><path d="m10.537 60.436a2.7 2.7 0 1 1 2.7-2.7 2.7 2.7 0 0 1 -2.7 2.7zm0-4.394a1.7 1.7 0 1 0 1.7 1.7 1.7 1.7 0 0 0 -1.7-1.7z"/><path d="m51.987 68.977h-.787a.5.5 0 0 1 0-1h.792a.5.5 0 0 1 0 1z"/><path d="m49 68.977h-9.083a.5.5 0 0 1 0-1h9.083a.5.5 0 0 1 0 1z"/><path d="m28.486 23.531a.5.5 0 0 1 -.4-.8 29.7 29.7 0 0 0 3.988-7.072.5.5 0 1 1 .93.368 30.651 30.651 0 0 1 -4.118 7.3.5.5 0 0 1 -.4.204z"/><path d="m33.445 13.708a.5.5 0 0 1 -.479-.645l.149-.481a.5.5 0 1 1 .955.295l-.147.476a.5.5 0 0 1 -.478.355z"/><path d="m62.979 38.53h-16.079a.5.5 0 0 1 0-1h16.079a.5.5 0 0 1 0 1z"/><path d="m65.468 47.683h-18.11a.5.5 0 0 1 0-1h18.11a.5.5 0 0 1 0 1z"/><path d="m62.646 56.826h-18.109a.5.5 0 0 1 0-1h18.11a.5.5 0 0 1 0 1z"/></g><path d="m6.722 49.926a.65.65 0 0 0 .4-.593l.088-8.219a.65.65 0 0 0 -1.3-.017l-.088 8.219a.65.65 0 0 0 .642.658.643.643 0 0 0 .258-.048z" fill="#fff"/><path d="m7.241 38.593.008-.638a.65.65 0 0 0 -1.3-.017l-.008.638a.65.65 0 0 0 .642.658.643.643 0 0 0 .257-.049.65.65 0 0 0 .401-.592z" fill="#fff"/><path d="m57.18 65.977h-27.83a17.561 17.561 0 0 1 -7.7-1.77l-1.792-.871a4.058 4.058 0 0 1 -2.288-3.636v-25.413a6.417 6.417 0 0 1 6.41-6.41h1.45a9.076 9.076 0 0 0 5.06-3.349 33.071 33.071 0 0 0 4.375-7.765 39.153 39.153 0 0 0 1.735-5.622 3.28 3.28 0 0 1 4.542-2.23 8.4 8.4 0 0 1 4.727 9.959 28.55 28.55 0 0 1 -4.757 9.535l21.665-.029a5.2 5.2 0 0 1 5.259 4.693 5.039 5.039 0 0 1 -1.489 3.975 4.861 4.861 0 0 1 -.547.483h.177a5.21 5.21 0 0 1 5.309 4.749 5.091 5.091 0 0 1 -5.069 5.411h-1.326a5.071 5.071 0 0 1 -3.031 9.14h-1.86a5.065 5.065 0 0 1 2.05 4.07 5.1 5.1 0 0 1 -4.025 4.979 4.138 4.138 0 0 1 -.485.07 2.562 2.562 0 0 1 -.29.021 2.226 2.226 0 0 1 -.27.01zm-33.2-37.1a5.416 5.416 0 0 0 -5.41 5.41v25.413a3.055 3.055 0 0 0 1.73 2.736l1.792.871a16.573 16.573 0 0 0 7.261 1.669h27.827c.074 0 .145 0 .216-.007.1 0 .156-.01.211-.016a3.772 3.772 0 0 0 .415-.058 4.1 4.1 0 0 0 3.227-4 4.074 4.074 0 0 0 -4.07-4.07.5.5 0 0 1 0-1h4.88a4.075 4.075 0 0 0 4.08-4.08 4.068 4.068 0 0 0 -3.639-4.045c-.138-.007-.288-.017-.436-.017a.5.5 0 0 1 0-1h4.36a4.091 4.091 0 0 0 4.071-4.347 4.21 4.21 0 0 0 -4.311-3.812h-3.2a.5.5 0 0 1 0-1 3.961 3.961 0 0 0 2.862-1.189 4.047 4.047 0 0 0 1.2-3.2 4.2 4.2 0 0 0 -4.261-3.766l-22.785.038a.5.5 0 0 1 -.35-.857 25.959 25.959 0 0 0 5.258-9.95 7.41 7.41 0 0 0 -4.172-8.781 2.28 2.28 0 0 0 -3.161 1.551 40.123 40.123 0 0 1 -1.782 5.759 34.04 34.04 0 0 1 -4.5 7.993 10.044 10.044 0 0 1 -5.693 3.731 1.074 1.074 0 0 1 -.167.023z" fill="#323c6b"/><path d="m15.448 64.15h-9.823a3.129 3.129 0 0 1 -3.125-3.125v-29.608a3.129 3.129 0 0 1 3.125-3.125h9.823a3.129 3.129 0 0 1 3.125 3.125v29.608a3.129 3.129 0 0 1 -3.125 3.125zm-9.823-34.858a2.127 2.127 0 0 0 -2.125 2.125v29.608a2.127 2.127 0 0 0 2.125 2.125h9.823a2.127 2.127 0 0 0 2.125-2.125v-29.608a2.127 2.127 0 0 0 -2.125-2.125z" fill="#323c6b"/></g></svg>