<svg height="512" viewBox="0 0 74 74" width="512" xmlns="http://www.w3.org/2000/svg"><g id="color_line" data-name="color line"><path d="m3 36.917s15.222-18.257 34-18.257 34 18.257 34 18.257-15.222 18.256-34 18.256-34-18.256-34-18.256z" fill="#e1e6e9"/><path d="m71 36.917a55.664 55.664 0 0 1 -4.92 4.99c1.36-1.41 2.11-2.3 2.11-2.3s-15.23-18.26-34-18.26c-12.26 0-23.01 7.79-28.99 13.19 4.86-4.94 17.27-15.88 31.8-15.88 18.78 0 34 18.26 34 18.26z" fill="#d5d6db"/><circle cx="37" cy="36.743" fill="#9297ab" r="14.233"/><path d="m37 51.476a14.733 14.733 0 1 1 14.732-14.733 14.749 14.749 0 0 1 -14.732 14.733zm0-28.466a13.733 13.733 0 1 0 13.732 13.733 13.748 13.748 0 0 0 -13.732-13.733z" fill="#323c6b"/><path d="m37.277 25.667c.67 4.995-2.241 10.565-8.738 10.565a9.822 9.822 0 0 1 -2.586-.341c-.022.282-.043.565-.043.852a11.09 11.09 0 1 0 11.367-11.076z" fill="#89c5cd"/><g fill="#323c6b"><path d="m37 48.333a11.6 11.6 0 0 1 -11.59-11.59c0-.3.022-.6.044-.891a.5.5 0 0 1 .629-.444 9.274 9.274 0 0 0 2.455.324 7.948 7.948 0 0 0 6.2-2.628 9.4 9.4 0 0 0 2.047-7.37.5.5 0 0 1 .124-.4.549.549 0 0 1 .384-.166 11.585 11.585 0 0 1 -.293 23.165zm-10.585-11.818v.228a10.59 10.59 0 1 0 11.421-10.543 10.331 10.331 0 0 1 -2.349 7.566 8.92 8.92 0 0 1 -6.948 2.97 10.287 10.287 0 0 1 -2.124-.221z"/><path d="m5.813 23.939a.5.5 0 0 1 -.389-.813c14.764-18.39 38.023-13.898 38.257-13.849a.5.5 0 0 1 -.2.979c-.228-.045-22.9-4.41-37.278 13.5a.5.5 0 0 1 -.39.183z"/><path d="m10.779 24.049h-.011l-4.968-.11a.5.5 0 0 1 -.489-.511l.11-4.966a.49.49 0 0 1 .511-.489.5.5 0 0 1 .489.511l-.1 4.466 4.466.1a.5.5 0 0 1 -.011 1z"/><path d="m36.962 65.074a37.666 37.666 0 0 1 -6.643-.518.5.5 0 0 1 .2-.979c.229.047 22.9 4.411 37.278-13.5a.5.5 0 1 1 .779.626c-9.883 12.314-23.576 14.371-31.614 14.371z"/><path d="m68.076 55.86h-.011a.5.5 0 0 1 -.489-.511l.1-4.466-4.466-.1a.5.5 0 0 1 -.489-.511.489.489 0 0 1 .511-.489l4.966.11a.5.5 0 0 1 .489.511l-.11 4.966a.5.5 0 0 1 -.501.49z"/><path d="m26.917 57.146a.5.5 0 0 1 -.143-.021q-.3-.088-.591-.181a.5.5 0 1 1 .3-.953l.575.176a.5.5 0 0 1 -.143.979z"/><path d="m23.667 56.02a.5.5 0 0 1 -.182-.034 51.4 51.4 0 0 1 -8.48-4.3.5.5 0 1 1 .529-.849 50.347 50.347 0 0 0 8.314 4.217.5.5 0 0 1 -.182.966z"/><path d="m60.541 24.271a.5.5 0 0 1 -.269-.079l-.488-.306a.5.5 0 1 1 .525-.851l.5.314a.5.5 0 0 1 -.27.921z"/><path d="m69.249 31.261a.5.5 0 0 1 -.345-.138 68.324 68.324 0 0 0 -6.782-5.667.5.5 0 0 1 .589-.808 69.276 69.276 0 0 1 6.883 5.75.5.5 0 0 1 -.345.862z"/><path d="m37 55.673c-18.794 0-34.23-18.252-34.384-18.437a.5.5 0 0 1 0-.641c.154-.183 15.59-18.435 34.384-18.435s34.23 18.252 34.384 18.44a.5.5 0 0 1 0 .641c-.154.18-15.59 18.432-34.384 18.432zm-33.338-18.756c2.146 2.426 16.38 17.756 33.338 17.756s31.194-15.33 33.338-17.756c-2.146-2.427-16.38-17.757-33.338-17.757s-31.192 15.33-33.338 17.757z"/></g></g></svg>