<svg height="512" viewBox="0 0 74 74" width="512" xmlns="http://www.w3.org/2000/svg"><g id="color_line" data-name="color line"><circle cx="36.141" cy="40.763" fill="#fcd462" r="18.808"/><path d="m49.31 54.177a18.8 18.8 0 0 0 -28.34-24.52 18.8 18.8 0 1 1 28.34 24.52z" fill="#f7be56"/><circle cx="36.141" cy="40.763" fill="#fcd462" r="14.263"/><path d="m36.141 55.526a14.763 14.763 0 1 1 14.759-14.763 14.78 14.78 0 0 1 -14.759 14.763zm0-28.526a13.763 13.763 0 1 0 13.759 13.763 13.779 13.779 0 0 0 -13.759-13.763z" fill="#323c6b"/><path d="m22.282 28.531a.5.5 0 0 1 -.339-.132l-8.07-7.443a.5.5 0 1 1 .678-.735l8.07 7.443a.5.5 0 0 1 -.339.868z" fill="#323c6b"/><path d="m47.678 26.411a.5.5 0 0 1 -.391-.811l9.324-11.729a.5.5 0 0 1 .783.622l-9.324 11.729a.5.5 0 0 1 -.392.189z" fill="#323c6b"/><path d="m59.065 52.57a.5.5 0 0 1 -.221-.052l-6.053-3a.5.5 0 1 1 .443-.9l6.053 3a.5.5 0 0 1 -.222.948z" fill="#323c6b"/><path d="m13.859 60.914a.5.5 0 0 1 -.333-.873l8.127-7.272a.5.5 0 1 1 .667.745l-8.127 7.272a.5.5 0 0 1 -.334.128z" fill="#323c6b"/><circle cx="10.647" cy="17.302" fill="#89c5cd" r="4.846"/><circle cx="60.764" cy="9.205" fill="#27ccbc" r="6.247"/><circle cx="64.753" cy="54.631" fill="#e1e6e9" r="6.247"/><circle cx="9.247" cy="64.629" fill="#fe7058" r="6.247"/><g fill="#323c6b"><path d="m36.141 49.367a4.557 4.557 0 0 1 -4.552-4.552.5.5 0 0 1 1 0 3.552 3.552 0 1 0 3.552-3.552 4.552 4.552 0 1 1 4.552-4.552.5.5 0 0 1 -1 0 3.552 3.552 0 1 0 -3.552 3.552 4.552 4.552 0 0 1 0 9.1z"/><path d="m36.141 33.159a.5.5 0 0 1 -.5-.5v-1.274a.5.5 0 0 1 1 0v1.274a.5.5 0 0 1 -.5.5z"/><path d="m36.141 50.642a.5.5 0 0 1 -.5-.5v-1.275a.5.5 0 0 1 1 0v1.275a.5.5 0 0 1 -.5.5z"/><path d="m37 63.037a.5.5 0 0 1 -.019-1 21.047 21.047 0 0 0 9.325-2.567.5.5 0 0 1 .479.878 22.038 22.038 0 0 1 -9.764 2.688z"/><path d="m34.5 63h-.038c-.279-.021-.554-.054-.827-.09a.5.5 0 1 1 .134-.991c.254.034.509.065.768.084a.5.5 0 0 1 -.037 1z"/><path d="m32.458 19.8a.5.5 0 0 1 -.084-.993l.318-.059c.205-.039.411-.078.62-.1a.5.5 0 0 1 .127.992c-.189.024-.374.06-.559.095l-.336.062a.508.508 0 0 1 -.086.003z"/><path d="m45.083 21.381a.5.5 0 0 1 -.205-.044 21.1 21.1 0 0 0 -8.3-1.869.5.5 0 0 1 -.49-.51.49.49 0 0 1 .51-.49 22.086 22.086 0 0 1 8.7 1.958.5.5 0 0 1 -.206.956z"/><path d="m27.61 48.333a.5.5 0 0 1 -.386-.181 11.5 11.5 0 0 1 -2.653-6.837.5.5 0 0 1 .476-.523.492.492 0 0 1 .523.476 10.51 10.51 0 0 0 2.43 6.247.5.5 0 0 1 -.385.819z"/><path d="m25.3 38.93a.488.488 0 0 1 -.112-.013.5.5 0 0 1 -.376-.6c.054-.237.116-.471.181-.7a.5.5 0 1 1 .963.27c-.061.216-.118.435-.169.656a.5.5 0 0 1 -.487.387z"/><path d="m36.141 60.071a19.308 19.308 0 1 1 19.307-19.308 19.329 19.329 0 0 1 -19.307 19.308zm0-37.615a18.308 18.308 0 1 0 18.307 18.307 18.329 18.329 0 0 0 -18.307-18.307z"/></g><path d="m15.49 17.307a4.851 4.851 0 0 1 -3.14 4.53 4.844 4.844 0 0 0 -4.2-7.25 4.64 4.64 0 0 0 -1.71.32 4.841 4.841 0 0 1 9.05 2.4z" fill="#6eaaad"/><path d="m67.01 9.207a6.231 6.231 0 0 1 -3.58 5.64 6.249 6.249 0 0 0 -5.17-9.76 6.028 6.028 0 0 0 -2.65.6 6.186 6.186 0 0 1 5.15-2.73 6.252 6.252 0 0 1 6.25 6.25z" fill="#21b3a9"/><path d="m71 54.627a6.233 6.233 0 0 1 -3.59 5.65 6.245 6.245 0 0 0 -5.16-9.77 6.118 6.118 0 0 0 -2.64.59 6.243 6.243 0 0 1 11.39 3.53z" fill="#d5d6db"/><path d="m15.49 64.627a6.229 6.229 0 0 1 -3.6 5.66 6.156 6.156 0 0 0 1.1-3.53 6.244 6.244 0 0 0 -6.24-6.25 6.027 6.027 0 0 0 -2.65.6 6.238 6.238 0 0 1 11.39 3.52z" fill="#ea6453"/><path d="m10.647 22.648a5.346 5.346 0 1 1 5.346-5.348 5.352 5.352 0 0 1 -5.346 5.348zm0-9.692a4.346 4.346 0 1 0 4.346 4.344 4.351 4.351 0 0 0 -4.346-4.343z" fill="#323c6b"/><path d="m60.764 15.951a6.747 6.747 0 1 1 6.747-6.751 6.754 6.754 0 0 1 -6.747 6.751zm0-12.493a5.747 5.747 0 1 0 5.747 5.742 5.753 5.753 0 0 0 -5.747-5.742z" fill="#323c6b"/><path d="m64.753 61.378a6.747 6.747 0 1 1 6.747-6.747 6.754 6.754 0 0 1 -6.747 6.747zm0-12.493a5.747 5.747 0 1 0 5.747 5.746 5.753 5.753 0 0 0 -5.747-5.746z" fill="#323c6b"/><path d="m9.247 71.375a6.747 6.747 0 1 1 6.747-6.747 6.754 6.754 0 0 1 -6.747 6.747zm0-12.493a5.747 5.747 0 1 0 5.747 5.747 5.753 5.753 0 0 0 -5.747-5.747z" fill="#323c6b"/></g></svg>