<svg height="512" viewBox="0 0 74 74" width="512" xmlns="http://www.w3.org/2000/svg"><g id="color_line" data-name="color line"><rect fill="#eeefee" height="35.198" rx="2.645" width="52.472" x="16.312" y="16.254"/><g fill="#323c6b"><path d="m66.14 51.953h-47.183a3.148 3.148 0 0 1 -3.145-3.145v-29.908a3.148 3.148 0 0 1 3.145-3.145h47.183a3.148 3.148 0 0 1 3.144 3.145v29.908a3.148 3.148 0 0 1 -3.144 3.145zm-47.183-35.2a2.147 2.147 0 0 0 -2.144 2.147v29.908a2.147 2.147 0 0 0 2.145 2.145h47.182a2.147 2.147 0 0 0 2.145-2.145v-29.908a2.147 2.147 0 0 0 -2.145-2.145z"/><path d="m63.117 23.513h-15.374a.5.5 0 0 1 0-1h15.374a.5.5 0 0 1 0 1z"/><path d="m43.44 23.513h-12.908a.5.5 0 0 1 0-1h12.908a.5.5 0 0 1 0 1z"/><path d="m63.117 30.74h-6.034a.5.5 0 0 1 0-1h6.034a.5.5 0 0 1 0 1z"/><path d="m53.3 30.74h-20.459a.5.5 0 0 1 0-1h20.459a.5.5 0 0 1 0 1z"/><path d="m63.117 37.967h-14.534a.5.5 0 0 1 0-1h14.534a.5.5 0 0 1 0 1z"/><path d="m44.265 37.967h-12.908a.5.5 0 0 1 0-1h12.908a.5.5 0 0 1 0 1z"/><path d="m63.117 45.194h-8.185a.5.5 0 0 1 0-1h8.186a.5.5 0 0 1 0 1z"/><path d="m51.679 45.194h-16a.5.5 0 0 1 0-1h16a.5.5 0 0 1 0 1z"/><path d="m71.734 23.987a.5.5 0 0 1 -.5-.5v-.451a.5.5 0 1 1 1 0v.451a.5.5 0 0 1 -.5.5z"/><path d="m51.679 54.9h-9.872a.5.5 0 0 1 0-1h9.872a.5.5 0 0 1 0 1z"/><path d="m39.209 54.9h-.584a.5.5 0 0 1 0-1h.584a.5.5 0 1 1 0 1z"/><path d="m71.734 21.323a.5.5 0 0 1 -.5-.5v-1.923a5.118 5.118 0 0 0 -3.334-4.776.5.5 0 0 1 .348-.937 6.121 6.121 0 0 1 3.986 5.713v1.924a.5.5 0 0 1 -.5.499z"/></g><path d="m26.184 36.44a1.759 1.759 0 0 1 1.807 2.16 3.324 3.324 0 0 1 -2.871 2.59" fill="#fcd462"/><path d="m25.119 41.686a.5.5 0 0 1 -.012-1 2.854 2.854 0 0 0 2.393-2.153 1.456 1.456 0 0 0 -.2-1.1 1.722 1.722 0 0 0 -1.169-.5.5.5 0 1 1 .115-.993 2.693 2.693 0 0 1 1.841.872 2.4 2.4 0 0 1 .405 1.844 3.812 3.812 0 0 1 -3.356 3.027z" fill="#323c6b"/><path d="m11.592 36.44a1.759 1.759 0 0 0 -1.807 2.16 3.324 3.324 0 0 0 2.871 2.59" fill="#fcd462"/><path d="m12.656 41.686h-.012a3.812 3.812 0 0 1 -3.355-3.027 2.4 2.4 0 0 1 .405-1.844 2.691 2.691 0 0 1 1.84-.872.5.5 0 1 1 .115.993 1.722 1.722 0 0 0 -1.168.5 1.456 1.456 0 0 0 -.2 1.1 2.853 2.853 0 0 0 2.387 2.153.5.5 0 0 1 -.012 1z" fill="#323c6b"/><path d="m23.7 46.678h.06a10.513 10.513 0 0 1 10.515 10.515v1.732h-30.541v-1.732a10.517 10.517 0 0 1 10.52-10.515h-.144l4.779 1.8z" fill="#89c5cd"/><path d="m34.272 57.194v1.732h-30.535v-1.516h28.563v-1.731a10.493 10.493 0 0 0 -3.17-7.526 10.51 10.51 0 0 1 5.142 9.041z" fill="#6eaaad"/><path d="m22.403 45.445-3.525 3.03-3.525-3.03z" fill="#fcd462"/><path d="m18.878 48.975a.5.5 0 0 1 -.326-.121l-3.524-3.03a.5.5 0 0 1 .326-.879h7.046a.5.5 0 0 1 .326.879l-3.526 3.03a.5.5 0 0 1 -.322.121zm-2.178-3.03 2.176 1.871 2.177-1.871z" fill="#323c6b"/><path d="m26.373 37v.73c-.226 4.225-3.5 8.954-7.484 8.954a6.84 6.84 0 0 1 -5.033-2.614 9.564 9.564 0 0 1 -2.215-6.308l.01-1.475.3-1.491a1.813 1.813 0 0 1 1.58-1.359 27.85 27.85 0 0 0 5.369-1.185c3.1-.955 5.6-.441 6.524 2.309l.483 2.047a.568.568 0 0 0 .466.392z" fill="#fcd462"/><path d="m26.376 37v.727c-.227 4.227-3.5 8.953-7.484 8.953a6.835 6.835 0 0 1 -5.036-2.613q-.24-.278-.448-.572a6.592 6.592 0 0 0 4.608 2.155c3.99 0 7.263-4.727 7.484-8.953v-1.812l.407 1.722a.569.569 0 0 0 .469.393z" fill="#f7be56"/><path d="m28.8 59.425h-19.589a.5.5 0 0 1 -.5-.5v-5.025a.5.5 0 0 1 1 0v4.525h18.589v-4.525a.5.5 0 0 1 1 0v5.025a.5.5 0 0 1 -.5.5z" fill="#323c6b"/><path d="m27.412 34.136c-.194 1.023-.4 2.362-.4 2.362a.573.573 0 0 1 -.567.5.322.322 0 0 1 -.072.002.568.568 0 0 1 -.467-.388l-.483-2.047c-.923-2.754-3.423-3.265-6.523-2.313a27.85 27.85 0 0 1 -5.364 1.181 1.813 1.813 0 0 0 -1.58 1.359l-.3 1.491a.452.452 0 0 1 -.189.283.439.439 0 0 1 -.257.079.472.472 0 0 1 -.457-.362s-.446-1.5-.782-2.808c-.037-.152-.068-.3-.1-.462a7.283 7.283 0 0 1 3.5-7.453 11.548 11.548 0 0 1 5.629-1.684 9.345 9.345 0 0 1 2.782.493 8.572 8.572 0 0 1 5.63 9.767z" fill="#707583"/><path d="m26.446 37.5a1.255 1.255 0 0 1 -.2-.021 1.04 1.04 0 0 1 -.819-.729l-.49-2.075c-.947-2.811-3.727-2.614-5.89-1.946a28.357 28.357 0 0 1 -5.464 1.2 1.319 1.319 0 0 0 -1.144.99l-.3 1.463a.96.96 0 0 1 -.4.6.935.935 0 0 1 -.537.164.97.97 0 0 1 -.941-.742s-.445-1.494-.781-2.8c-.04-.165-.073-.324-.105-.489a7.8 7.8 0 0 1 3.732-7.979 12.086 12.086 0 0 1 5.893-1.76 9.836 9.836 0 0 1 2.938.518 9.056 9.056 0 0 1 5.962 10.335c-.192 1.016-.4 2.344-.4 2.344a1.064 1.064 0 0 1 -1.054.927zm-4.922-6.195a4.262 4.262 0 0 1 4.376 3.095l.5 2.091c.019 0 .089.015.107.019.02-.09.225-1.438.421-2.47a8.055 8.055 0 0 0 -5.29-9.2 8.94 8.94 0 0 0 -2.638-.464 11.044 11.044 0 0 0 -5.38 1.613 6.792 6.792 0 0 0 -3.265 6.936c.028.142.058.287.093.432.333 1.3.776 2.783.776 2.783l.237-1.448a2.33 2.33 0 0 1 2.024-1.757 27.415 27.415 0 0 0 5.263-1.161 9.49 9.49 0 0 1 2.776-.467z" fill="#323c6b"/><path d="m34.274 59.425h-30.54a.5.5 0 0 1 -.5-.5v-1.732a11.031 11.031 0 0 1 10.837-11.013h.184a.5.5 0 0 1 .363.157l4.272 1.603 4.636-1.73a.5.5 0 0 1 .175-.032h.06a11.028 11.028 0 0 1 11.013 11.015v1.732a.5.5 0 0 1 -.5.5zm-30.04-1h29.54v-1.232a10.026 10.026 0 0 0 -9.984-10.015l-4.727 1.765a.5.5 0 0 1 -.351 0l-4.687-1.762a10.03 10.03 0 0 0 -9.791 10.012z" fill="#323c6b"/><path d="m18.889 47.18a7.281 7.281 0 0 1 -5.411-2.787 10.055 10.055 0 0 1 -2.337-6.639l.011-1.475.314-1.587a2.33 2.33 0 0 1 2.024-1.757 27.415 27.415 0 0 0 5.263-1.161c3.657-1.128 6.2-.2 7.144 2.628l.5 2.091a.557.557 0 0 1 .48.5v.73c-.242 4.477-3.707 9.457-7.988 9.457zm2.619-14.87a8.541 8.541 0 0 0 -2.461.419 28.357 28.357 0 0 1 -5.464 1.2 1.319 1.319 0 0 0 -1.144.99l-.3 1.463v1.378a9.05 9.05 0 0 0 2.095 5.979 6.3 6.3 0 0 0 4.653 2.439c3.679 0 6.775-4.559 6.985-8.48v-.366a1.048 1.048 0 0 1 -.446-.583l-.49-2.075a3.3 3.3 0 0 0 -3.428-2.363z" fill="#323c6b"/><path d="m14.11 46.677 1.243-1.232 3.525 3.03-2.972 2.519z" fill="#eeefee"/><path d="m15.906 51.494a.481.481 0 0 1 -.117-.014.5.5 0 0 1 -.345-.294l-1.8-4.317a.5.5 0 0 1 .11-.547l1.246-1.232a.5.5 0 0 1 .678-.024l3.522 3.034a.5.5 0 0 1 0 .761l-2.972 2.52a.5.5 0 0 1 -.322.113zm-1.206-4.694 1.4 3.375 2-1.7-2.729-2.347z" fill="#323c6b"/><path d="m23.7 46.677-1.297-1.232-3.525 3.03 2.973 2.519z" fill="#eeefee"/><path d="m22.999 46.009v.005l-.005-.005z" fill="#e1e6e9"/><path d="m23.7 46.679-1.85 4.314-.727-.613 1.876-4.366z" fill="#e1e6e9"/><path d="m21.851 51.494a.5.5 0 0 1 -.323-.119l-2.973-2.52a.5.5 0 0 1 0-.761l3.525-3.03a.5.5 0 0 1 .671.017l1.3 1.232a.5.5 0 0 1 .115.559l-1.85 4.317a.5.5 0 0 1 -.46.3zm-2.2-3.022 2.009 1.7 1.44-3.372-.717-.682z" fill="#323c6b"/></g></svg>