<svg height="512" viewBox="0 0 74 74" width="512" xmlns="http://www.w3.org/2000/svg"><g id="color_line" data-name="color line"><circle cx="37" cy="36.917" fill="#9297ab" r="33"/><path d="m37 70.417a33.5 33.5 0 1 1 33.5-33.5 33.538 33.538 0 0 1 -33.5 33.5zm0-66a32.5 32.5 0 1 0 32.5 32.5 32.537 32.537 0 0 0 -32.5-32.5z" fill="#323c6b"/><circle cx="37" cy="36.917" fill="#eeefee" r="26.042"/><path d="m37 63.458a26.542 26.542 0 1 1 26.542-26.541 26.572 26.572 0 0 1 -26.542 26.541zm0-52.083a25.542 25.542 0 1 0 25.542 25.542 25.571 25.571 0 0 0 -25.542-25.542z" fill="#323c6b"/><path d="m37 54.417a17.022 17.022 0 0 1 -7.448-32.33 1.558 1.558 0 1 1 1.364 2.8 13.924 13.924 0 1 0 12.141 0 1.559 1.559 0 1 1 1.354-2.808 16.867 16.867 0 0 1 9.615 15.307 17.045 17.045 0 0 1 -17.026 17.031z" fill="#fe7058"/><path d="m36.924 31.7a1.559 1.559 0 0 1 -1.559-1.559v-13.291a1.559 1.559 0 1 1 3.117 0v13.293a1.559 1.559 0 0 1 -1.558 1.557z" fill="#fe7058"/><g fill="#323c6b"><path d="m17.333 67.547a.5.5 0 0 1 -.274-.082c-.46-.3-.906-.624-1.352-.945a.5.5 0 1 1 .586-.811c.434.313.866.626 1.314.92a.5.5 0 0 1 -.274.918z"/><path d="m13.188 64.363a.5.5 0 0 1 -.331-.125 36.79 36.79 0 0 1 -7.4-9.006.5.5 0 0 1 .863-.5 35.793 35.793 0 0 0 7.194 8.762.5.5 0 0 1 -.331.875z"/><path d="m55.5 6.548a.5.5 0 0 1 -.258-.072c-.253-.152-.512-.293-.771-.434l-.338-.185a.5.5 0 0 1 .484-.875l.33.181c.273.148.546.3.811.456a.5.5 0 0 1 -.258.928z"/><path d="m66.645 17.042a.5.5 0 0 1 -.411-.216 35.747 35.747 0 0 0 -7.786-8.173.5.5 0 1 1 .605-.8 36.746 36.746 0 0 1 8 8.4.5.5 0 0 1 -.411.784z"/></g><path d="m61.88 53.483a.65.65 0 0 1 -.546-1c.145-.226.278-.458.413-.69l.167-.289a.65.65 0 0 1 1.121.659l-.163.28c-.145.249-.289.5-.444.741a.648.648 0 0 1 -.548.299z" fill="#fff"/><path d="m51.9 63.066a.65.65 0 0 1 -.329-1.211 28.922 28.922 0 0 0 7.949-6.846.65.65 0 0 1 1.014.814 30.221 30.221 0 0 1 -8.307 7.154.647.647 0 0 1 -.327.089z" fill="#fff"/></g></svg>