<svg height="512" viewBox="0 0 74 74" width="512" xmlns="http://www.w3.org/2000/svg"><g id="color_line" data-name="color line"><path d="m28.875 37.038h16.25v32.879h-16.25z" fill="#27ccbc"/><path d="m45.125 70.417h-16.25a.5.5 0 0 1 -.5-.5v-32.879a.5.5 0 0 1 .5-.5h16.25a.5.5 0 0 1 .5.5v32.879a.5.5 0 0 1 -.5.5zm-15.75-1h15.25v-31.879h-15.25z" fill="#323c6b"/><path d="m8.708 53.477h16.25v16.44h-16.25z" fill="#fe7058"/><path d="m24.958 70.417h-16.25a.5.5 0 0 1 -.5-.5v-16.44a.5.5 0 0 1 .5-.5h16.25a.5.5 0 0 1 .5.5v16.44a.5.5 0 0 1 -.5.5zm-15.75-1h15.25v-15.44h-15.25z" fill="#323c6b"/><path d="m49.042 47.083h16.25v22.833h-16.25z" fill="#05afd6"/><path d="m65.292 70.417h-16.25a.5.5 0 0 1 -.5-.5v-22.834a.5.5 0 0 1 .5-.5h16.25a.5.5 0 0 1 .5.5v22.834a.5.5 0 0 1 -.5.5zm-15.75-1h15.25v-21.834h-15.25z" fill="#323c6b"/><path d="m32.189 23.268h-.009c-4.926-.951-8.51-4.4-9.226-8.789l-.863-5.613a2.575 2.575 0 0 1 .45-2.055 2.463 2.463 0 0 1 1.752-1.011l3.835-.045a.464.464 0 0 1 .506.494.5.5 0 0 1 -.494.506l-3.8.043a1.454 1.454 0 0 0 -1 .606 1.594 1.594 0 0 0 -.274 1.281l.868 5.639c.647 3.971 3.919 7.095 8.334 7.955a.46.46 0 0 1 .456.5.534.534 0 0 1 -.535.489z" fill="#323c6b"/><path d="m41.816 23.268a.5.5 0 0 1 0-1 10 10 0 0 0 8.247-7.95l.862-5.6a1.614 1.614 0 0 0 -.268-1.318 1.461 1.461 0 0 0 -1.034-.608l-3.757-.041a.5.5 0 0 1 .006-1h.006l3.8.043a2.476 2.476 0 0 1 1.79 1.015 2.594 2.594 0 0 1 .44 2.091l-.857 5.578c-.716 4.4-4.3 7.843-9.13 8.784a.574.574 0 0 1 -.105.006z" fill="#323c6b"/><rect fill="#84879c" height="6.888" rx="1.038" width="14.202" x="29.903" y="30.15"/><path d="m43.066 37.538h-12.126a1.54 1.54 0 0 1 -1.54-1.538v-4.813a1.54 1.54 0 0 1 1.54-1.537h12.126a1.54 1.54 0 0 1 1.534 1.537v4.813a1.54 1.54 0 0 1 -1.534 1.538zm-12.126-6.888a.538.538 0 0 0 -.538.537v4.813a.538.538 0 0 0 .538.538h12.126a.538.538 0 0 0 .534-.538v-4.813a.538.538 0 0 0 -.538-.537z" fill="#323c6b"/><path d="m32.353 32.412h9.3v2.364h-9.3z" fill="#eeefee"/><path d="m41.653 35.275h-9.3a.5.5 0 0 1 -.5-.5v-2.363a.5.5 0 0 1 .5-.5h9.3a.5.5 0 0 1 .5.5v2.364a.5.5 0 0 1 -.5.499zm-8.8-1h8.3v-1.363h-8.3z" fill="#323c6b"/><path d="m38.212 23.667c.216 3.878 3.529 6.478 3.529 6.478h-9.388s3.391-2.9 3.546-6.446a4.5 4.5 0 0 0 2.313-.032z" fill="#fcd462"/><g fill="#323c6b"><path d="m41.741 30.645h-9.387a.5.5 0 0 1 -.325-.88c.032-.027 3.228-2.807 3.371-6.088a.5.5 0 0 1 .628-.461 3.964 3.964 0 0 0 2.059-.033.5.5 0 0 1 .421.08.5.5 0 0 1 .2.376c.2 3.6 3.308 6.089 3.34 6.113a.5.5 0 0 1 -.31.893zm-8.172-1h6.913a9.979 9.979 0 0 1 -2.716-5.375 5.006 5.006 0 0 1 -1.419.025 10.466 10.466 0 0 1 -2.778 5.35z"/><path d="m68.063 53.615a.5.5 0 0 1 -.5-.5v-.583a.5.5 0 0 1 1 0v.583a.5.5 0 0 1 -.5.5z"/><path d="m68.063 51.052a.5.5 0 0 1 -.5-.5v-5.969h-3a.5.5 0 0 1 0-1h3.5a.5.5 0 0 1 .5.5v6.469a.5.5 0 0 1 -.5.5z"/><path d="m19.042 51.167h-.584a.5.5 0 1 1 0-1h.584a.5.5 0 1 1 0 1z"/><path d="m16.333 51.167h-6.786a.5.5 0 0 1 0-1h6.786a.5.5 0 0 1 0 1z"/></g><path d="m28.488 4a31.987 31.987 0 0 0 -.561 5.966c0 8.346 4.063 15.111 9.076 15.111s9.076-6.766 9.076-15.111a31.987 31.987 0 0 0 -.561-5.966z" fill="#fcd462"/><path d="m37 25.577c-5.28 0-9.576-7-9.576-15.611a32.509 32.509 0 0 1 .576-6.074.5.5 0 0 1 .488-.392h17.03a.5.5 0 0 1 .488.392 32.468 32.468 0 0 1 .572 6.074c0 8.608-4.296 15.611-9.578 15.611zm-8.1-21.077a33.4 33.4 0 0 0 -.47 5.466c0 8.057 3.848 14.611 8.576 14.611s8.575-6.554 8.575-14.611a33.355 33.355 0 0 0 -.472-5.466z" fill="#323c6b"/><path d="m37.003 10.583 1.095 2.219 2.449.356-1.772 1.727.418 2.439-2.19-1.151-2.19 1.151.418-2.439-1.772-1.727 2.449-.356z" fill="#eeefee"/><path d="m39.193 17.824a.5.5 0 0 1 -.232-.058l-1.961-1.029-1.958 1.029a.5.5 0 0 1 -.726-.527l.374-2.18-1.58-1.543a.5.5 0 0 1 .276-.853l2.189-.318.979-1.983a.52.52 0 0 1 .9 0l.979 1.983 2.189.318a.5.5 0 0 1 .276.853l-1.586 1.544.375 2.18a.5.5 0 0 1 -.493.584zm-4.66-4.317 1.046 1.02a.5.5 0 0 1 .145.442l-.247 1.44 1.294-.68a.5.5 0 0 1 .465 0l1.294.68-.248-1.44a.5.5 0 0 1 .145-.442l1.047-1.02-1.447-.21a.5.5 0 0 1 -.376-.273l-.651-1.311-.646 1.31a.5.5 0 0 1 -.376.273z" fill="#323c6b"/><path d="m41 65.779v-.694a.65.65 0 1 1 1.3 0v.694a.65.65 0 1 1 -1.3 0z" fill="#fff"/><path d="m41 62.637v-7.52a.65.65 0 1 1 1.3 0v7.521a.65.65 0 1 1 -1.3 0z" fill="#fff"/></g></svg>