<svg height="512" viewBox="0 0 74 74" width="512" xmlns="http://www.w3.org/2000/svg"><g id="color_line" data-name="color line"><path d="m50.047 2.917h-40.317v68h54.54v-53.777z" fill="#eeefee"/><path d="m64.27 71.417h-54.54a.5.5 0 0 1 -.5-.5v-68a.5.5 0 0 1 .5-.5h40.317a.5.5 0 0 1 .354.146l14.222 14.223a.5.5 0 0 1 .146.354v53.777a.5.5 0 0 1 -.499.5zm-54.039-1h53.539v-53.07l-13.93-13.93h-39.61z" fill="#323c6b"/><path d="m35.747 10.228c-3.444 0-6.236 2.634-6.236 7.048 0 3.761 2.792 7.019 6.236 7.019s6.236-3.258 6.236-7.019c0-4.414-2.792-7.048-6.236-7.048z" fill="#89c5cd"/><path d="m47.619 33.581v2.335h-23.738v-2.335a7.546 7.546 0 0 1 7.57-7.412h.767a6.091 6.091 0 0 0 7.063 0h.756a7.564 7.564 0 0 1 7.582 7.412z" fill="#89c5cd"/><path d="m41.984 17.281a7.375 7.375 0 0 1 -2.638 5.693 7.576 7.576 0 0 0 .956-3.683c0-4.409-2.789-7.047-6.233-7.047a5.924 5.924 0 0 0 -3.692 1.231 5.888 5.888 0 0 1 5.365-3.249c3.445-.001 6.242 2.637 6.242 7.055z" fill="#6eaaad"/><path d="m47.615 33.579v2.337h-2.673v-2.337a7.555 7.555 0 0 0 -5.942-7.233 3.042 3.042 0 0 0 .283-.177h.753a7.558 7.558 0 0 1 7.579 7.41z" fill="#6eaaad"/><g fill="#323c6b"><path d="m35.747 24.8c-3.651 0-6.736-3.443-6.736-7.519 0-4.444 2.771-7.548 6.736-7.548s6.736 3.1 6.736 7.548c0 4.072-3.083 7.519-6.736 7.519zm0-14.067c-3.378 0-5.736 2.693-5.736 6.548 0 3.534 2.627 6.519 5.736 6.519s5.736-2.985 5.736-6.519c0-3.86-2.358-6.552-5.736-6.552z"/><path d="m47.619 36.417h-23.738a.5.5 0 0 1 -.5-.5v-2.335a8.093 8.093 0 0 1 8.07-7.913h.768a.5.5 0 0 1 .287.09 5.678 5.678 0 0 0 6.488 0 .5.5 0 0 1 .287-.09h.756a8.112 8.112 0 0 1 8.082 7.9v2.345a.5.5 0 0 1 -.5.503zm-23.238-1h22.738v-1.83a7.022 7.022 0 0 0 -7.082-6.917h-.6a6.687 6.687 0 0 1 -7.371 0h-.613a7.087 7.087 0 0 0 -7.07 6.921z"/><path d="m56.75 42.417h-39.5a.5.5 0 0 1 0-1h39.5a.5.5 0 0 1 0 1z"/><path d="m56.75 50.026h-39.5a.5.5 0 0 1 0-1h39.5a.5.5 0 0 1 0 1z"/><path d="m56.75 57.635h-39.5a.5.5 0 0 1 0-1h39.5a.5.5 0 0 1 0 1z"/><path d="m56.75 65.244h-39.5a.5.5 0 0 1 0-1h39.5a.5.5 0 0 1 0 1z"/><path d="m67.27 56.333a.5.5 0 0 1 -.5-.5v-1.333a.5.5 0 0 1 1 0v1.333a.5.5 0 0 1 -.5.5z"/><path d="m6.73 30.542a.5.5 0 0 1 -.5-.5v-9a.5.5 0 0 1 1 0v9a.5.5 0 0 1 -.5.5z"/><path d="m6.73 19.167a.5.5 0 0 1 -.5-.5v-1.625a.5.5 0 0 1 1 0v1.625a.5.5 0 0 1 -.5.5z"/><path d="m67.27 52.583a.5.5 0 0 1 -.5-.5v-9.333a.5.5 0 0 1 1 0v9.333a.5.5 0 0 1 -.5.5z"/></g><path d="m50.047 17.14h14.223l-14.223-14.223z" fill="#d5d6db"/><path d="m64.27 17.64h-14.223a.5.5 0 0 1 -.5-.5v-14.223a.5.5 0 0 1 .854-.354l14.222 14.223a.5.5 0 0 1 -.354.854zm-13.723-1h12.516l-12.516-12.516z" fill="#323c6b"/></g></svg>