<svg height="512" viewBox="0 0 74 74" width="512" xmlns="http://www.w3.org/2000/svg"><g id="color_line" data-name="color line"><path d="m39.747 17.947h-5.494a15.066 15.066 0 0 0 -15.066 15.066v19.663a18.093 18.093 0 0 0 17.163 18.229 17.814 17.814 0 0 0 18.463-17.805v-20.087a15.066 15.066 0 0 0 -15.066-15.066z" fill="#9297ab"/><path d="m54.81 33.017v20.09a17.815 17.815 0 0 1 -18.46 17.8 17.6 17.6 0 0 1 -14.22-8.24 17.364 17.364 0 0 0 11.42 4.84 17.815 17.815 0 0 0 18.46-17.8v-20.09a15.066 15.066 0 0 0 -2.16-7.79 15.074 15.074 0 0 1 4.96 11.19z" fill="#84879c"/><path d="m37 22.559a1.96 1.96 0 0 0 -1.96 1.96v4.989a1.96 1.96 0 1 0 3.921 0v-4.989a1.96 1.96 0 0 0 -1.961-1.96z" fill="#e1e6e9"/><g fill="#323c6b"><path d="m37 31.969a2.463 2.463 0 0 1 -2.46-2.46v-4.989a2.46 2.46 0 0 1 4.921 0v4.989a2.463 2.463 0 0 1 -2.461 2.46zm0-8.91a1.462 1.462 0 0 0 -1.46 1.46v4.989a1.46 1.46 0 0 0 2.921 0v-4.988a1.462 1.462 0 0 0 -1.461-1.461z"/><path d="m54.813 36.957h-35.626a.5.5 0 0 1 0-1h35.626a.5.5 0 0 1 0 1z"/><path d="m37 36.96a.5.5 0 0 1 -.5-.5v-4.988a.5.5 0 0 1 1 0v4.988a.5.5 0 0 1 -.5.5z"/><path d="m37 23.057a.5.5 0 0 1 -.5-.5v-6.064a2.25 2.25 0 0 0 -2.248-2.248h-10.667a3.248 3.248 0 0 1 0-6.5h20.123a2.25 2.25 0 0 0 2.247-2.245v-2.583a.5.5 0 0 1 1 0v2.583a3.251 3.251 0 0 1 -3.247 3.25h-20.123a2.248 2.248 0 0 0 0 4.5h10.667a3.251 3.251 0 0 1 3.248 3.243v6.064a.5.5 0 0 1 -.5.5z"/><path d="m55.643 62.833a.5.5 0 0 1 -.447-.723c.146-.294.281-.593.413-.895a.5.5 0 1 1 .916.4c-.138.316-.28.63-.434.939a.5.5 0 0 1 -.448.279z"/><path d="m48.352 71.038a.5.5 0 0 1 -.272-.92 20.056 20.056 0 0 0 3.284-2.651 20.569 20.569 0 0 0 2.636-3.241.5.5 0 1 1 .836.549 21.55 21.55 0 0 1 -2.762 3.4 21.036 21.036 0 0 1 -3.448 2.784.5.5 0 0 1 -.274.079z"/><path d="m16.187 33.513a.5.5 0 0 1 -.5-.5 18.336 18.336 0 0 1 1.91-8.15.5.5 0 0 1 .9.441 17.34 17.34 0 0 0 -1.807 7.709.5.5 0 0 1 -.503.5z"/><path d="m19.4 23.25a.5.5 0 0 1 -.411-.784q.188-.272.388-.535a.5.5 0 1 1 .8.6c-.124.165-.246.331-.362.5a.5.5 0 0 1 -.415.219z"/><path d="m37.007 71.417c-.225 0-.449 0-.674-.012-9.73-.346-17.646-8.748-17.646-18.729v-19.662a15.584 15.584 0 0 1 15.566-15.567h5.494a15.584 15.584 0 0 1 15.566 15.567v20.086a18.314 18.314 0 0 1 -18.306 18.317zm-2.754-52.97a14.583 14.583 0 0 0 -14.566 14.567v19.662c0 9.449 7.483 17.4 16.682 17.729a17.314 17.314 0 0 0 17.944-17.305v-20.086a14.583 14.583 0 0 0 -14.566-14.567z"/></g><path d="m23.043 52.01a.7.7 0 0 0 .433-.639l.095-7.617a.7.7 0 0 0 -1.4-.018l-.095 7.617a.7.7 0 0 0 .692.71.693.693 0 0 0 .275-.053z" fill="#fff"/><path d="m23.6 41.034.009-.688a.7.7 0 1 0 -1.4-.018l-.009.688a.7.7 0 0 0 .692.71.694.694 0 0 0 .277-.053.7.7 0 0 0 .431-.639z" fill="#fff"/></g></svg>