<svg height="512" viewBox="0 0 74 74" width="512" xmlns="http://www.w3.org/2000/svg"><g id="color_line" data-name="color line"><path d="m68.469 49.218a33.762 33.762 0 1 0 -17.04 18.252" fill="#27ccbc"/><path d="m70.78 36.917a33.5 33.5 0 0 1 -2.31 12.3l-1.58 1.69a33.8 33.8 0 0 0 -32.05-44.47 33.756 33.756 0 0 0 -27.15 13.663 33.79 33.79 0 0 1 63.09 16.82z" fill="#21b3a9"/><path d="m63.193 45.323a27.066 27.066 0 0 0 1.322-8.406 27.523 27.523 0 1 0 -17.329 25.556" fill="#eeefee"/><path d="m37 64.93a28.013 28.013 0 1 1 28.015-28.013 27.6 27.6 0 0 1 -1.346 8.561.5.5 0 1 1 -.951-.31 26.6 26.6 0 0 0 1.3-8.251 27.013 27.013 0 1 0 -27.018 27.013 26.763 26.763 0 0 0 10-1.922.5.5 0 0 1 .371.929 27.762 27.762 0 0 1 -10.371 1.993z" fill="#323c6b"/><path d="m37 16.181a.5.5 0 0 1 -.5-.5v-2.239a.5.5 0 1 1 1 0v2.238a.5.5 0 0 1 -.5.501z" fill="#323c6b"/><path d="m37 60.891a.5.5 0 0 1 -.5-.5v-2.239a.5.5 0 0 1 1 0v2.239a.5.5 0 0 1 -.5.5z" fill="#323c6b"/><path d="m60.476 37.417h-2.239a.5.5 0 0 1 0-1h2.238a.5.5 0 0 1 0 1z" fill="#323c6b"/><path d="m15.766 37.417h-2.239a.5.5 0 0 1 0-1h2.238a.5.5 0 0 1 0 1z" fill="#323c6b"/><path d="m28.1 53.28a.5.5 0 0 1 -.437-.745l6.741-12.018a.5.5 0 0 1 .873.489l-6.74 12.018a.5.5 0 0 1 -.437.256z" fill="#323c6b"/><path d="m34.79 33.612a.5.5 0 0 1 -.432-.248l-8.958-15.337a.5.5 0 0 1 .863-.5l8.959 15.333a.5.5 0 0 1 -.432.752z" fill="#323c6b"/><circle cx="37.001" cy="36.917" fill="#84879c" r="4.415"/><path d="m37 41.832a4.915 4.915 0 1 1 4.915-4.915 4.92 4.92 0 0 1 -4.915 4.915zm0-8.832a3.915 3.915 0 1 0 3.915 3.915 3.919 3.919 0 0 0 -3.915-3.915z" fill="#323c6b"/><circle cx="58.598" cy="57.083" fill="#fcd462" r="12.62"/><path d="m71.22 57.087a12.579 12.579 0 0 1 -5.2 10.2 12.612 12.612 0 0 0 -16.72-18.72 12.613 12.613 0 0 1 21.92 8.52z" fill="#f7be56"/><circle cx="58.598" cy="57.083" fill="#fcd462" r="9.319"/><g fill="#323c6b"><path d="m58.6 66.9a9.819 9.819 0 1 1 9.819-9.819 9.83 9.83 0 0 1 -9.819 9.819zm0-18.638a8.819 8.819 0 1 0 8.819 8.819 8.829 8.829 0 0 0 -8.819-8.817z"/><path d="m58.6 63.134a3.28 3.28 0 0 1 -3.275-3.276.5.5 0 0 1 1 0 2.276 2.276 0 1 0 2.275-2.275 3.276 3.276 0 1 1 3.276-3.276.5.5 0 1 1 -1 0 2.276 2.276 0 1 0 -2.276 2.276 3.276 3.276 0 1 1 0 6.552z"/><path d="m58.6 52.031a.5.5 0 0 1 -.5-.5v-.873a.5.5 0 0 1 1 0v.873a.5.5 0 0 1 -.5.5z"/><path d="m58.6 64.007a.5.5 0 0 1 -.5-.5v-.873a.5.5 0 0 1 1 0v.873a.5.5 0 0 1 -.5.5z"/><path d="m17.372 68.5a.5.5 0 0 1 -.268-.078 37.581 37.581 0 0 1 -7.556-6.311.5.5 0 0 1 .736-.677 36.571 36.571 0 0 0 7.354 6.143.5.5 0 0 1 -.268.922z"/><path d="m7.736 59.667a.5.5 0 0 1 -.4-.2c-.163-.215-.325-.432-.484-.65a.5.5 0 0 1 .809-.589c.155.213.313.424.473.634a.5.5 0 0 1 -.4.8z"/><path d="m61.25 9.793a.5.5 0 0 1 -.329-.124c-.175-.153-.353-.3-.531-.452a.5.5 0 0 1 .641-.769c.185.154.368.31.549.468a.5.5 0 0 1 -.329.876z"/><path d="m68.75 18.875a.5.5 0 0 1 -.432-.247 36.59 36.59 0 0 0 -5.049-6.7.5.5 0 0 1 .725-.689 37.653 37.653 0 0 1 5.188 6.883.5.5 0 0 1 -.179.684.493.493 0 0 1 -.253.069z"/><circle cx="37.001" cy="36.917" r="1.956"/><path d="m58.6 70.2a13.12 13.12 0 1 1 13.119-13.117 13.135 13.135 0 0 1 -13.119 13.117zm0-25.241a12.12 12.12 0 1 0 12.121 12.12 12.134 12.134 0 0 0 -12.121-12.117z"/><path d="m37 71.2a34.283 34.283 0 1 1 34.284-34.283 33.959 33.959 0 0 1 -2.349 12.483.5.5 0 0 1 -.935-.365 32.958 32.958 0 0 0 2.28-12.118 33.283 33.283 0 1 0 -33.28 33.283 32.866 32.866 0 0 0 14.213-3.181.5.5 0 0 1 .43.9 33.86 33.86 0 0 1 -14.643 3.281z"/></g><path d="m6.606 36.65h-.02a.65.65 0 0 1 -.63-.669 30.95 30.95 0 0 1 1.948-9.958.65.65 0 1 1 1.217.456 29.682 29.682 0 0 0 -1.865 9.541.65.65 0 0 1 -.65.63z" fill="#fff"/><path d="m9.744 24.066a.643.643 0 0 1 -.288-.066.65.65 0 0 1 -.293-.871c.173-.349.362-.688.551-1.028l.115-.206a.65.65 0 1 1 1.137.63l-.116.209c-.179.321-.358.643-.522.973a.649.649 0 0 1 -.584.359z" fill="#fff"/></g></svg>