<svg height="512" viewBox="0 0 74 74" width="512" xmlns="http://www.w3.org/2000/svg"><g id="color_line" data-name="color line"><path d="m27.049 11.909h21.27l12.34 12.34v46.67h-47.32l.02-59.01h5.85" fill="#eeefee"/><g fill="#323c6b"><path d="m60.659 71.419h-47.32a.5.5 0 0 1 -.5-.5l.021-59.01a.5.5 0 0 1 .5-.5h5.85a.5.5 0 0 1 0 1h-5.35l-.021 58.01h46.32v-45.963l-12.047-12.047h-21.063a.5.5 0 0 1 0-1h21.27a.5.5 0 0 1 .354.146l12.34 12.345a.5.5 0 0 1 .146.354v46.67a.5.5 0 0 1 -.5.495z"/><path d="m54.49 39.1h-34.982a.5.5 0 0 1 0-1h34.982a.5.5 0 0 1 0 1z"/><path d="m54.49 47.1h-34.982a.5.5 0 0 1 0-1h34.982a.5.5 0 0 1 0 1z"/><path d="m54.49 55.1h-34.982a.5.5 0 0 1 0-1h34.982a.5.5 0 0 1 0 1z"/><path d="m54.49 63.1h-34.982a.5.5 0 0 1 0-1h34.982a.5.5 0 0 1 0 1z"/></g><path d="m20.666 16.832-2.965-7.305 7.654-3.107 2.962 7.297z" fill="#ea6453"/><path d="m20.666 17.333a.5.5 0 0 1 -.463-.312l-2.965-7.306a.5.5 0 0 1 .274-.651l7.654-3.106a.5.5 0 0 1 .651.275l2.961 7.3a.5.5 0 0 1 -.274.651l-7.65 3.116a.493.493 0 0 1 -.188.033zm-2.313-7.533 2.589 6.378 6.724-2.738-2.586-6.368z" fill="#323c6b"/><path d="m23.201 21.905 8.554 11.263-1.714-14.039z" fill="#bbbbcd"/><path d="m31.755 33.668a.5.5 0 0 1 -.4-.2l-8.555-11.26a.5.5 0 0 1 .21-.766l6.84-2.776a.507.507 0 0 1 .442.032.5.5 0 0 1 .242.371l1.714 14.039a.5.5 0 0 1 -.5.561zm-7.761-11.545 7.04 9.27-1.41-11.554z" fill="#323c6b"/><path d="m27.075 1.513-14.023 5.691 4.651 2.322 7.654-3.107z" fill="#fe7058"/><path d="m17.7 10.026a.5.5 0 0 1 -.224-.053l-4.648-2.322a.5.5 0 0 1 .035-.911l14.024-5.691a.5.5 0 0 1 .66.628l-1.718 4.907a.5.5 0 0 1 -.283.3l-7.654 3.105a.506.506 0 0 1 -.192.037zm-3.434-2.776 3.459 1.727 7.235-2.936 1.277-3.649z" fill="#323c6b"/><path d="m63.659 42.313a.5.5 0 0 1 -.5-.5v-.625a.5.5 0 0 1 1 0v.625a.5.5 0 0 1 -.5.5z" fill="#323c6b"/><path d="m63.659 52.6a.5.5 0 0 1 -.5-.5v-8.1a.5.5 0 0 1 1 0v8.1a.5.5 0 0 1 -.5.5z" fill="#323c6b"/><path d="m33.208 9.409h-.833a.5.5 0 0 1 0-1h.833a.5.5 0 0 1 0 1z" fill="#323c6b"/><path d="m43.625 9.409h-8.083a.5.5 0 0 1 0-1h8.083a.5.5 0 0 1 0 1z" fill="#323c6b"/><path d="m48.32 24.253h12.341l-12.341-12.341z" fill="#d5d6db"/><path d="m60.661 24.753h-12.342a.5.5 0 0 1 -.5-.5v-12.341a.5.5 0 0 1 .854-.354l12.342 12.342a.5.5 0 0 1 -.354.854zm-11.842-1h10.635l-10.635-10.634z" fill="#323c6b"/><path d="m34.762 17.213a8.8 8.8 0 0 0 -10.615-2.791 8.8 8.8 0 0 0 -5.668 9.4z" fill="#fe7058"/><path d="m18.479 24.321a.5.5 0 0 1 -.493-.415 9.318 9.318 0 0 1 5.973-9.947 9.315 9.315 0 0 1 11.216 2.972.5.5 0 0 1 -.225.746l-16.282 6.608a.506.506 0 0 1 -.189.036zm9.293-10.112a9.14 9.14 0 0 0 -3.437.676 8.4 8.4 0 0 0 -5.442 8.228l15.078-6.12a7.977 7.977 0 0 0 -6.199-2.784z" fill="#323c6b"/></g></svg>