<svg height="512" viewBox="0 0 74 74" width="512" xmlns="http://www.w3.org/2000/svg"><g id="color_line" data-name="color line"><path d="m71 15.913-13.129 8.713h-32.643v-17.426h32.643z" fill="#e7aa6c"/><path d="m71 15.917-3.23 2.14-12.25-8.13h-30.29v-2.73h32.64z" fill="#d09865"/><path d="m48.772 28.523v17.426h-32.643l-13.129-8.713 13.129-8.713z" fill="#e7aa6c"/><path d="m33.941 3.329h6.119v3.871h-6.119z" fill="#e1e6e9"/><path d="m33.941 24.626h6.119v3.897h-6.119z" fill="#e1e6e9"/><path d="m33.941 45.949h6.119v16.747h-6.119z" fill="#e1e6e9"/><path d="m52.045 69.211v.857h-30.09v-.857a6.239 6.239 0 0 1 6.306-6.511h17.478a6.239 6.239 0 0 1 6.305 6.513z" fill="#9297ab"/><path d="m37.18 3.327h2.88v3.87h-2.88z" fill="#d5d6db"/><path d="m37.18 24.627h2.88v3.9h-2.88z" fill="#d5d6db"/><path d="m37.18 45.947h2.88v16.75h-2.88z" fill="#d5d6db"/><path d="m52.04 69.207v.86h-2.87v-.86a6.232 6.232 0 0 0 -6.31-6.51h2.88a6.232 6.232 0 0 1 6.3 6.51z" fill="#84879c"/><g fill="#323c6b"><path d="m52.045 13.35h-18.67a.5.5 0 0 1 0-1h18.67a.5.5 0 0 1 0 1z"/><path d="m52.045 19.475h-18.67a.5.5 0 0 1 0-1h18.67a.5.5 0 0 1 0 1z"/><path d="m41.17 34.673h-18.67a.5.5 0 0 1 0-1h18.67a.5.5 0 0 1 0 1z"/><path d="m41.17 40.8h-18.67a.5.5 0 0 1 0-1h18.67a.5.5 0 0 1 0 1z"/><path d="m56.167 4.7h-1.25a.5.5 0 0 1 0-1h1.25a.5.5 0 0 1 0 1z"/><path d="m66.475 9.809a.5.5 0 0 1 -.276-.083l-6.808-4.519a.5.5 0 1 1 .553-.833l6.808 4.519a.5.5 0 0 1 -.276.917z"/><path d="m30.94 59.958a.5.5 0 0 1 -.5-.5v-7.271a.5.5 0 0 1 1 0v7.271a.5.5 0 0 1 -.5.5z"/><path d="m30.94 50.292a.5.5 0 0 1 -.5-.5v-.833a.5.5 0 0 1 1 0v.833a.5.5 0 0 1 -.5.5z"/></g><path d="m3.001 37.463 3.23 2.14 12.25-8.13h30.29v-2.73h-32.64z" fill="#d09865"/><path d="m48.772 46.449h-32.643a.5.5 0 0 1 -.276-.083l-13.129-8.714a.5.5 0 0 1 0-.833l13.129-8.713a.5.5 0 0 1 .276-.083h32.643a.5.5 0 0 1 .5.5v17.426a.5.5 0 0 1 -.5.5zm-32.493-1h31.993v-16.426h-31.993l-12.379 8.213z" fill="#323c6b"/><path d="m57.871 25.125h-32.643a.5.5 0 0 1 -.5-.5v-17.425a.5.5 0 0 1 .5-.5h32.643a.5.5 0 0 1 .276.083l13.129 8.717a.5.5 0 0 1 0 .833l-13.129 8.709a.5.5 0 0 1 -.276.083zm-32.144-1h31.994l12.379-8.212-12.379-8.213h-31.993z" fill="#323c6b"/><path d="m40.06 7.7h-6.12a.5.5 0 0 1 -.5-.5v-3.871a.5.5 0 0 1 .5-.5h6.12a.5.5 0 0 1 .5.5v3.871a.5.5 0 0 1 -.5.5zm-5.619-1h5.119v-2.871h-5.12z" fill="#323c6b"/><path d="m40.06 29.023h-6.12a.5.5 0 0 1 -.5-.5v-3.9a.5.5 0 0 1 .5-.5h6.12a.5.5 0 0 1 .5.5v3.9a.5.5 0 0 1 -.5.5zm-5.619-1h5.119v-2.9h-5.12z" fill="#323c6b"/><path d="m40.06 63.2h-6.12a.5.5 0 0 1 -.5-.5v-16.751a.5.5 0 0 1 .5-.5h6.12a.5.5 0 0 1 .5.5v16.751a.5.5 0 0 1 -.5.5zm-5.619-1h5.119v-15.751h-5.12z" fill="#323c6b"/><path d="m52.045 70.567h-30.09a.5.5 0 0 1 -.5-.5v-.857a6.739 6.739 0 0 1 6.806-7.01h17.478a6.739 6.739 0 0 1 6.806 7.013v.857a.5.5 0 0 1 -.5.497zm-29.59-1h29.09v-.357a5.741 5.741 0 0 0 -5.806-6.01h-17.478a5.741 5.741 0 0 0 -5.806 6.013z" fill="#323c6b"/><path d="m19.312 43.259h-2.27a.6.6 0 0 1 -.33-.1l-3.645-2.4a.6.6 0 1 1 .66-1l3.494 2.3h2.09a.6.6 0 0 1 0 1.2z" fill="#fff"/><path d="m11.646 39.571a.6.6 0 0 1 -.338-.1l-.509-.348a.6.6 0 0 1 .678-.99l.509.348a.6.6 0 0 1 -.34 1.1z" fill="#fff"/></g></svg>