<svg height="512" viewBox="0 0 74 74" width="512" xmlns="http://www.w3.org/2000/svg"><g id="color_line" data-name="color line"><circle cx="37" cy="21.506" fill="#fcd462" r="15.431"/><path d="m52.43 21.507a15.4 15.4 0 0 1 -6.34 12.46 15.423 15.423 0 0 0 -20.19-23.167 15.425 15.425 0 0 1 26.53 10.71z" fill="#f7be56"/><circle cx="37" cy="21.506" fill="#fcd462" r="11.683"/><path d="m37 33.689a12.183 12.183 0 1 1 12.184-12.183 12.2 12.2 0 0 1 -12.184 12.183zm0-23.366a11.183 11.183 0 1 0 11.184 11.183 11.2 11.2 0 0 0 -11.184-11.183z" fill="#323c6b"/><path d="m37.059 50.629a.5.5 0 0 1 -.5-.5l-.059-13.19a.5.5 0 0 1 .5-.5.5.5 0 0 1 .5.5l.059 13.192a.5.5 0 0 1 -.5.5z" fill="#323c6b"/><path d="m34.988 43.513c0 .265-.009.538-.036.812-4.644 1.186-8.057-1.724-7.619-6.5 4.367-1.109 7.655 1.4 7.655 5.688z" fill="#27ccbc"/><path d="m32.929 45.092a6.069 6.069 0 0 1 -4.018-1.4 6.688 6.688 0 0 1 -2.077-5.908.5.5 0 0 1 .375-.439 6.791 6.791 0 0 1 5.968.961 6.385 6.385 0 0 1 2.311 5.208 8.618 8.618 0 0 1 -.039.862.5.5 0 0 1 -.373.435 8.684 8.684 0 0 1 -2.147.281zm-5.129-6.86a5.594 5.594 0 0 0 1.756 4.7 5.594 5.594 0 0 0 4.918.992c.007-.138.009-.275.009-.409a5.412 5.412 0 0 0 -1.924-4.418 5.684 5.684 0 0 0 -4.759-.865z" fill="#323c6b"/><path d="m39.367 46.2c-.027-.274-.036-.547-.036-.812 0-4.288 3.285-6.807 7.655-5.694.438 4.777-2.974 7.688-7.619 6.506z" fill="#27ccbc"/><path d="m41.378 46.968a8.716 8.716 0 0 1 -2.134-.278.5.5 0 0 1 -.374-.435 8.627 8.627 0 0 1 -.039-.862 6.4 6.4 0 0 1 2.314-5.215 6.786 6.786 0 0 1 5.964-.962.5.5 0 0 1 .375.439 6.694 6.694 0 0 1 -2.075 5.908 6.081 6.081 0 0 1 -4.031 1.405zm-1.538-1.168a5.172 5.172 0 0 0 6.674-5.7 5.678 5.678 0 0 0 -4.755.864 5.421 5.421 0 0 0 -1.928 4.426c0 .137.002.274.009.41z" fill="#323c6b"/><path d="m37.059 46.456a.5.5 0 0 1 -.319-.115l-6.888-5.706a.5.5 0 0 1 .639-.771l6.888 5.706a.5.5 0 0 1 -.319.885z" fill="#323c6b"/><path d="m29.975 42.138a.5.5 0 0 1 -.088-.992l1.5-.271a.5.5 0 0 1 .178.984l-1.5.271a.508.508 0 0 1 -.09.008z" fill="#323c6b"/><path d="m32.155 42.442a.5.5 0 0 1 -.5-.493l-.021-1.468a.5.5 0 1 1 1-.014l.021 1.468a.5.5 0 0 1 -.493.507z" fill="#323c6b"/><path d="m31.675 43.589a.5.5 0 0 1 -.088-.992l1.5-.271a.5.5 0 0 1 .178.984l-1.5.271a.508.508 0 0 1 -.09.008z" fill="#323c6b"/><path d="m37.059 48.434a.5.5 0 0 1 -.317-.887l7.087-5.809a.5.5 0 0 1 .635.773l-7.087 5.809a.5.5 0 0 1 -.318.114z" fill="#323c6b"/><path d="m44.343 44.014a.508.508 0 0 1 -.09-.008l-1.5-.271a.5.5 0 0 1 .178-.984l1.5.271a.5.5 0 0 1 -.088.992z" fill="#323c6b"/><path d="m42.162 44.318h-.007a.5.5 0 0 1 -.493-.507l.021-1.468a.492.492 0 0 1 .507-.493.5.5 0 0 1 .493.507l-.021 1.468a.5.5 0 0 1 -.5.493z" fill="#323c6b"/><path d="m42.643 45.465a.508.508 0 0 1 -.09-.008l-1.5-.271a.5.5 0 0 1 .178-.984l1.5.271a.5.5 0 0 1 -.088.992z" fill="#323c6b"/><rect fill="#bbbbcd" height="5.293" rx=".94" width="26.593" x="23.678" y="50.129"/><path d="m25.539 55.422 2.1 14.218a1.21 1.21 0 0 0 1.2 1.021h16.27a1.21 1.21 0 0 0 1.2-1.021l2.1-14.218z" fill="#bbbbcd"/><path d="m50.27 51.067v3.42a.939.939 0 0 1 -.94.94h-2.58a.939.939 0 0 0 .94-.94v-3.42a.939.939 0 0 0 -.94-.94h2.58a.939.939 0 0 1 .94.94z" fill="#9297ab"/><path d="m48.41 55.427-2.11 14.21a1.213 1.213 0 0 1 -1.19 1.03h-16.27a1.223 1.223 0 0 1 -1.2-1.03l-.21-1.43h15.47a1.223 1.223 0 0 0 1.2-1.02l1.74-11.76z" fill="#9297ab"/><g fill="#323c6b"><path d="m37 29.335a4.169 4.169 0 0 1 -4.165-4.165.5.5 0 0 1 1 0 3.165 3.165 0 1 0 3.165-3.164 4.165 4.165 0 1 1 4.165-4.165.5.5 0 0 1 -1 0 3.165 3.165 0 1 0 -3.165 3.165 4.165 4.165 0 1 1 0 8.33z"/><path d="m37 14.677a.5.5 0 0 1 -.5-.5v-1.153a.5.5 0 1 1 1 0v1.153a.5.5 0 0 1 -.5.5z"/><path d="m37 30.488a.5.5 0 0 1 -.5-.5v-1.153a.5.5 0 0 1 1 0v1.153a.5.5 0 0 1 -.5.5z"/><path d="m44.756 5.672a.5.5 0 0 1 -.189-.037c-.156-.064-.316-.121-.478-.175a.5.5 0 0 1 .324-.946c.179.062.356.125.532.2a.5.5 0 0 1 -.189.963z"/><path d="m52.083 11.937a.5.5 0 0 1 -.416-.222 17.648 17.648 0 0 0 -5.2-5.1.5.5 0 1 1 .533-.846 18.644 18.644 0 0 1 5.5 5.39.5.5 0 0 1 -.416.778z"/><path d="m26.337 73.487a.5.5 0 0 1 -.286-.09 4.764 4.764 0 0 1 -1.988-3.197l-.263-2.3a.5.5 0 0 1 .994-.113l.26 2.282a3.763 3.763 0 0 0 1.568 2.508.5.5 0 0 1 -.286.91z"/><path d="m23.968 66.229a.5.5 0 0 1 -.493-.423l-.093-.594a.5.5 0 1 1 .988-.154l.093.594a.5.5 0 0 1 -.417.571.526.526 0 0 1 -.078.006z"/><path d="m37 37.437a15.931 15.931 0 1 1 15.931-15.931 15.949 15.949 0 0 1 -15.931 15.931zm0-30.862a14.931 14.931 0 1 0 14.931 14.931 14.948 14.948 0 0 0 -14.931-14.931z"/><path d="m49.331 55.922h-24.714a1.441 1.441 0 0 1 -1.439-1.439v-3.414a1.441 1.441 0 0 1 1.439-1.439h24.714a1.441 1.441 0 0 1 1.439 1.439v3.414a1.441 1.441 0 0 1 -1.439 1.439zm-24.714-5.293a.44.44 0 0 0 -.439.439v3.414a.44.44 0 0 0 .439.439h24.714a.44.44 0 0 0 .439-.439v-3.413a.44.44 0 0 0 -.439-.439z"/><path d="m45.108 71.162h-16.269a1.7 1.7 0 0 1 -1.689-1.443l-2.105-14.219a.5.5 0 0 1 .494-.573h22.87a.5.5 0 0 1 .494.573l-2.103 14.214a1.7 1.7 0 0 1 -1.692 1.448zm-18.99-15.24 2.02 13.645a.706.706 0 0 0 .7.594h16.27a.706.706 0 0 0 .7-.6l2.021-13.64z"/></g><path d="m35.356 53.074a.515.515 0 0 1 .515-.515h.375a.515.515 0 0 1 0 1.029h-.375a.515.515 0 0 1 -.515-.514z" fill="#fff"/><path d="m37.767 53.074a.515.515 0 0 1 .515-.515h5.8a.515.515 0 0 1 0 1.029h-5.8a.515.515 0 0 1 -.515-.514z" fill="#fff"/></g></svg>