<svg height="512" viewBox="0 0 74 74" width="512" xmlns="http://www.w3.org/2000/svg"><g id="color_line" data-name="color line"><path d="m32.123 49.006 11.193-.455a3.369 3.369 0 0 0 -.258-6.7l-13.325-1.358-3.221-1.469a17.73 17.73 0 0 0 -7.963-1.624v24.7l17.091 5.642a10.024 10.024 0 0 0 9.318-1.624l26.371-20.63a3.587 3.587 0 0 0 -4.458-5.54l-23.555 8.6" fill="#fcd462"/><path d="m71.33 45.487-26.37 20.63a10.017 10.017 0 0 1 -9.32 1.63l-17.09-5.647v-.31l14.01 4.62a10.017 10.017 0 0 0 9.31-1.62l26.38-20.63a3.57 3.57 0 0 0 .19-4.72 3.587 3.587 0 0 1 2.89 6.05z" fill="#f7be56"/><rect fill="#fe7058" height="32.1" rx="2.079" width="14.228" x="4.325" y="33.686"/><path d="m18.55 60.147v3.56a2.078 2.078 0 0 1 -2.08 2.08h-10.07a2.085 2.085 0 0 1 -2.08-2.08v-3.56a2.085 2.085 0 0 0 2.08 2.08h10.07a2.078 2.078 0 0 0 2.08-2.08z" fill="#ea6453"/><path d="m58.618 15.434h4.707v19.91h-4.707z" fill="#fe7058" transform="matrix(-1 0 0 -1 121.943 50.779)"/><path d="m50.714 20.309h4.707v15.035h-4.707z" fill="#fcd462" transform="matrix(-1 0 0 -1 106.136 55.654)"/><path d="m42.811 12.578h4.707v22.766h-4.707z" fill="#27ccbc" transform="matrix(-1 0 0 -1 90.329 47.923)"/><path d="m34.907 18.309h4.707v17.035h-4.707z" fill="#bbbbcd" transform="matrix(-1 0 0 -1 74.522 53.654)"/><path d="m61.32 15.437h2v19.91h-2z" fill="#ea6453"/><path d="m53.42 20.307h2v15.04h-2z" fill="#f7be56"/><path d="m45.52 12.577h2v22.77h-2z" fill="#21b3a9"/><path d="m37.61 18.307h2v17.04h-2z" fill="#9297ab"/><path d="m66.835 35.846h-35.435a.5.5 0 1 1 0-1h35.435a.5.5 0 0 1 0 1z" fill="#323c6b"/><path d="m53.067 12.31a.5.5 0 0 1 -.283-.087l-7.625-5.229-7.622 5.045a.5.5 0 0 1 -.553-.834l7.9-5.231a.5.5 0 0 1 .56 0l7.646 5.242 9.273-5.263a.5.5 0 0 1 .494.87l-9.546 5.417a.5.5 0 0 1 -.244.07z" fill="#323c6b"/><path d="m61.807 10.329a.513.513 0 0 1 -.114-.013.5.5 0 0 1 -.372-.6l.692-2.95-2.95-.692a.5.5 0 0 1 .229-.974l3.437.806a.5.5 0 0 1 .372.6l-.807 3.437a.5.5 0 0 1 -.487.386z" fill="#323c6b"/><path d="m59.648 58.935a.5.5 0 0 1 -.309-.894l.483-.378a.5.5 0 0 1 .617.787l-.483.378a.5.5 0 0 1 -.308.107z" fill="#323c6b"/><path d="m51.54 65.277a.5.5 0 0 1 -.308-.894l6.52-5.1a.5.5 0 0 1 .615.788l-6.52 5.1a.5.5 0 0 1 -.307.106z" fill="#323c6b"/><path d="m1.324 38.976a.5.5 0 0 1 -.5-.5v-.76a.5.5 0 0 1 1 0v.76a.5.5 0 0 1 -.5.5z" fill="#323c6b"/><circle cx="11.439" cy="39.426" fill="#eeefee" r="2.037"/><g fill="#323c6b"><path d="m11.438 41.963a2.537 2.537 0 1 1 2.537-2.537 2.54 2.54 0 0 1 -2.537 2.537zm0-4.074a1.537 1.537 0 1 0 1.537 1.537 1.539 1.539 0 0 0 -1.537-1.537z"/><path d="m1.333 36.185h-.008a.5.5 0 0 1 -.492-.508 5.6 5.6 0 0 1 5.567-5.491h1.5a.5.5 0 1 1 0 1h-1.5a4.6 4.6 0 0 0 -4.57 4.506.5.5 0 0 1 -.497.493z"/><path d="m38.787 68.749a10.524 10.524 0 0 1 -3.3-.532l-17.094-5.641a.5.5 0 0 1 -.344-.475v-24.701a.5.5 0 0 1 .481-.5 18.291 18.291 0 0 1 8.188 1.667l3.147 1.433 13.244 1.351a3.858 3.858 0 0 1 3.62 3.849 3.922 3.922 0 0 1 -.389 1.713l20.36-7.435a4.082 4.082 0 0 1 4.993 6.353l-26.427 20.681a10.507 10.507 0 0 1 -6.479 2.237zm-19.738-7.009 16.751 5.528a9.507 9.507 0 0 0 8.854-1.543l26.367-20.632a3.09 3.09 0 0 0 -3.891-4.719l-22.221 8.126a3.909 3.909 0 0 1 -1.514.543.475.475 0 0 1 -.108.006l-11.144.455a.51.51 0 0 1 -.521-.479.5.5 0 0 1 .479-.52l11.115-.452 1.264-.461a2.878 2.878 0 0 0 -1.452-5.243l-13.346-1.359a.508.508 0 0 1 -.156-.042l-3.226-1.469a18.059 18.059 0 0 0 -7.255-1.589z"/><path d="m16.474 66.286h-10.074a2.583 2.583 0 0 1 -2.58-2.58v-27.941a2.583 2.583 0 0 1 2.58-2.58h10.074a2.582 2.582 0 0 1 2.579 2.58v27.941a2.582 2.582 0 0 1 -2.579 2.58zm-10.074-32.1a1.582 1.582 0 0 0 -1.58 1.58v27.94a1.582 1.582 0 0 0 1.58 1.58h10.074a1.581 1.581 0 0 0 1.579-1.58v-27.941a1.581 1.581 0 0 0 -1.579-1.58z"/><path d="m63.324 35.845h-4.706a.5.5 0 0 1 -.5-.5v-19.91a.5.5 0 0 1 .5-.5h4.706a.5.5 0 0 1 .5.5v19.91a.5.5 0 0 1 -.5.5zm-4.206-1h3.706v-18.91h-3.706z"/><path d="m55.421 35.845h-4.706a.5.5 0 0 1 -.5-.5v-15.035a.5.5 0 0 1 .5-.5h4.706a.5.5 0 0 1 .5.5v15.035a.5.5 0 0 1 -.5.5zm-4.206-1h3.706v-14.035h-3.706z"/><path d="m47.518 35.845h-4.707a.5.5 0 0 1 -.5-.5v-22.766a.5.5 0 0 1 .5-.5h4.707a.5.5 0 0 1 .5.5v22.766a.5.5 0 0 1 -.5.5zm-4.207-1h3.707v-21.766h-3.707z"/><path d="m39.614 35.845h-4.707a.5.5 0 0 1 -.5-.5v-17.035a.5.5 0 0 1 .5-.5h4.707a.5.5 0 0 1 .5.5v17.035a.5.5 0 0 1 -.5.5zm-4.207-1h3.707v-16.035h-3.707z"/></g><path d="m15.465 47.443a.588.588 0 0 1 .588.588v.626a.588.588 0 0 1 -1.176 0v-.626a.588.588 0 0 1 .588-.588z" fill="#fff"/><path d="m15.465 50.394a.588.588 0 0 1 .588.588v6.487a.588.588 0 0 1 -1.176 0v-6.487a.588.588 0 0 1 .588-.588z" fill="#fff"/></g></svg>