<svg height="512" viewBox="0 0 74 74" width="512" xmlns="http://www.w3.org/2000/svg"><g id="color_line" data-name="color line"><path d="m47.2 57.678h-20.4l-2.113 8.18h24.626z" fill="#bbbbcd"/><path d="m49.313 66.358h-24.626a.5.5 0 0 1 -.484-.625l2.113-8.18a.5.5 0 0 1 .484-.375h20.4a.5.5 0 0 1 .484.375l2.113 8.18a.5.5 0 0 1 -.484.625zm-23.98-1h23.334l-1.855-7.18h-19.624z" fill="#323c6b"/><path d="m51.257 65.858h-28.514a3.494 3.494 0 0 0 -3.494 3.494v1.565h35.5v-1.565a3.494 3.494 0 0 0 -3.492-3.494z" fill="#9297ab"/><path d="m54.75 71.417h-35.5a.5.5 0 0 1 -.5-.5v-1.565a4 4 0 0 1 3.994-3.994h28.513a4 4 0 0 1 3.994 3.994v1.564a.5.5 0 0 1 -.501.501zm-35-1h34.5v-1.065a3 3 0 0 0 -2.994-2.994h-28.513a3 3 0 0 0 -2.994 2.994z" fill="#323c6b"/><path d="m70.64 44.8v9.3a3.574 3.574 0 0 1 -3.57 3.58h-60.14a3.574 3.574 0 0 1 -3.57-3.58v-9.3z" fill="#9297ab"/><path d="m67.07 58.177h-60.14a4.08 4.08 0 0 1 -4.07-4.077v-9.3a.5.5 0 0 1 .5-.5h67.28a.5.5 0 0 1 .5.5v9.3a4.08 4.08 0 0 1 -4.07 4.077zm-63.21-12.877v8.8a3.079 3.079 0 0 0 3.07 3.08h60.14a3.079 3.079 0 0 0 3.07-3.08v-8.8z" fill="#323c6b"/><path d="m70.64 6.5v38.3h-67.28v-38.3a3.574 3.574 0 0 1 3.57-3.58h60.14a3.574 3.574 0 0 1 3.57 3.58z" fill="#89c5cd"/><path d="m70.64 6.5v38.3h-3.3v-35.333a3.574 3.574 0 0 0 -3.57-3.58h-60.14a1.619 1.619 0 0 0 -.22.01 3.578 3.578 0 0 1 3.52-2.98h60.14a3.574 3.574 0 0 1 3.57 3.583z" fill="#6eaaad"/><g fill="#323c6b"><path d="m66.969 61.178h-9.136a.5.5 0 0 1 0-1h9.135a.5.5 0 0 1 0 1z"/><path d="m55.208 61.178h-.833a.5.5 0 0 1 0-1h.833a.5.5 0 0 1 0 1z"/><path d="m.355 28.854a.5.5 0 0 1 -.5-.5v-.781a.5.5 0 0 1 1 0v.781a.5.5 0 0 1 -.5.5z"/><path d="m.355 25.76a.5.5 0 0 1 -.5-.5v-9.093a.5.5 0 0 1 1 0v9.093a.5.5 0 0 1 -.5.5z"/></g><circle cx="37" cy="51.012" fill="#d5d6db" r="2.148"/><path d="m37 53.66a2.647 2.647 0 1 1 2.647-2.647 2.65 2.65 0 0 1 -2.647 2.647zm0-4.295a1.647 1.647 0 1 0 1.647 1.647 1.65 1.65 0 0 0 -1.647-1.647z" fill="#323c6b"/><path d="m44.778 21.653a1.906 1.906 0 0 1 1.957 2.335 3.6 3.6 0 0 1 -3.111 2.806" fill="#fcd462"/><path d="m43.625 27.294a.5.5 0 0 1 -.011-1 3.137 3.137 0 0 0 2.626-2.369 1.618 1.618 0 0 0 -.225-1.224 1.9 1.9 0 0 0 -1.293-.552.5.5 0 1 1 .114-.993 2.877 2.877 0 0 1 1.966.928 2.559 2.559 0 0 1 .431 1.966 4.08 4.08 0 0 1 -3.6 3.243z" fill="#323c6b"/><path d="m28.969 21.653a1.906 1.906 0 0 0 -1.957 2.335 3.6 3.6 0 0 0 3.111 2.806" fill="#fcd462"/><path d="m30.123 27.294h-.011a4.08 4.08 0 0 1 -3.6-3.243 2.562 2.562 0 0 1 .431-1.967 2.88 2.88 0 0 1 1.966-.928.5.5 0 0 1 .114.993 1.9 1.9 0 0 0 -1.293.552 1.618 1.618 0 0 0 -.226 1.224 3.137 3.137 0 0 0 2.626 2.369.5.5 0 0 1 -.011 1z" fill="#323c6b"/><path d="m53.543 44.75v-.614a11.389 11.389 0 0 0 -11.392-11.391h-.065l-5.212 1.946-5.158-1.939a11.39 11.39 0 0 0 -11.259 11.384v.614z" fill="#fe7058"/><path d="m40.682 31.408-3.819 3.283-3.819-3.283z" fill="#fcd462"/><path d="m36.863 35.191a.5.5 0 0 1 -.326-.121l-3.819-3.283a.5.5 0 0 1 .326-.879h7.638a.5.5 0 0 1 .326.879l-3.819 3.283a.5.5 0 0 1 -.326.121zm-2.47-3.283 2.47 2.124 2.47-2.124z" fill="#323c6b"/><path d="m44.983 22.256v.79c-.245 4.577-3.787 9.7-8.108 9.7a7.411 7.411 0 0 1 -5.453-2.832 10.361 10.361 0 0 1 -2.4-6.834l.011-1.6.33-1.615a1.964 1.964 0 0 1 1.712-1.465 30.171 30.171 0 0 0 5.811-1.279c3.355-1.035 6.067-.478 7.067 2.5l.523 2.217a.616.616 0 0 0 .507.418z" fill="#fcd462"/><path d="m44.985 22.258v.787c-.246 4.579-3.792 9.7-8.108 9.7a7.4 7.4 0 0 1 -5.456-2.831q-.26-.3-.486-.62a7.142 7.142 0 0 0 4.992 2.334c4.322 0 7.868-5.121 8.108-9.7v-1.96l.441 1.865a.616.616 0 0 0 .509.425z" fill="#f7be56"/><path d="m44.231 31.17a1.859 1.859 0 0 1 -.279-.021l-5.788-.881a.5.5 0 0 1 .15-.988l5.788.881a.858.858 0 0 0 .691-.2.868.868 0 0 0 .3-.659v-3.378a.5.5 0 0 1 1 0v3.376a1.87 1.87 0 0 1 -1.866 1.869z" fill="#323c6b"/><circle cx="37.195" cy="29.329" fill="#9297ab" r="1.137"/><path d="m37.195 30.966a1.637 1.637 0 1 1 1.637-1.637 1.639 1.639 0 0 1 -1.637 1.637zm0-2.274a.637.637 0 1 0 .637.637.638.638 0 0 0 -.637-.637z" fill="#323c6b"/><path d="m46.108 19.157c-.21 1.109-.432 2.559-.432 2.559a.621.621 0 0 1 -.614.546.349.349 0 0 1 -.08-.006.616.616 0 0 1 -.506-.421l-.523-2.217c-1-2.979-3.713-3.537-7.067-2.5a30.171 30.171 0 0 1 -5.811 1.282 1.964 1.964 0 0 0 -1.711 1.473l-.33 1.615a.49.49 0 0 1 -.2.307.475.475 0 0 1 -.279.085.511.511 0 0 1 -.495-.392s-.483-1.62-.847-3.042c-.04-.165-.074-.33-.108-.5a7.89 7.89 0 0 1 3.792-8.074 12.511 12.511 0 0 1 6.103-1.83 10.124 10.124 0 0 1 3.014.534 9.286 9.286 0 0 1 6.094 10.581z" fill="#707583"/><path d="m45.062 22.762a1.417 1.417 0 0 1 -.193-.019 1.1 1.1 0 0 1 -.869-.764l-.531-2.247c-1.037-3.08-4.073-2.867-6.434-2.139a30.686 30.686 0 0 1 -5.91 1.3 1.47 1.47 0 0 0 -1.278 1.107l-.324 1.587a.988.988 0 0 1 -.417.623.962.962 0 0 1 -.556.169 1.012 1.012 0 0 1 -.979-.771s-.482-1.619-.847-3.04c-.043-.178-.078-.349-.114-.526a8.409 8.409 0 0 1 4.025-8.6 13.046 13.046 0 0 1 6.365-1.9 10.587 10.587 0 0 1 3.169.56 9.77 9.77 0 0 1 6.431 11.148c-.209 1.1-.429 2.541-.429 2.541a1.109 1.109 0 0 1 -1.109.971zm-5.336-6.626a4.582 4.582 0 0 1 4.7 3.324l.536 2.262a.187.187 0 0 0 .092.041.122.122 0 0 0 .124-.1c0-.021.226-1.48.438-2.6a8.768 8.768 0 0 0 -5.758-10.011 9.72 9.72 0 0 0 -2.858-.51 12.006 12.006 0 0 0 -5.85 1.758 7.4 7.4 0 0 0 -3.557 7.557c.031.155.064.313.1.472.36 1.405.84 3.016.84 3.016l.339-1.572a2.479 2.479 0 0 1 2.159-1.873 29.754 29.754 0 0 0 5.708-1.259 10.22 10.22 0 0 1 2.987-.506z" fill="#323c6b"/><path d="m53.543 45.25h-33.086a.5.5 0 0 1 -.5-.5v-.614a11.934 11.934 0 0 1 11.753-11.884.616.616 0 0 1 .182.032l4.983 1.873 5.037-1.88a.5.5 0 0 1 .175-.032 11.919 11.919 0 0 1 11.956 11.891v.614a.5.5 0 0 1 -.5.5zm-32.586-1h32.086v-.114a10.9 10.9 0 0 0 -10.866-10.891l-5.128 1.915a.5.5 0 0 1 -.351 0l-5.069-1.906a10.931 10.931 0 0 0 -10.672 10.882z" fill="#323c6b"/><path d="m36.875 33.247a7.845 7.845 0 0 1 -5.831-3 10.844 10.844 0 0 1 -2.521-7.165l.011-1.6.34-1.711a2.479 2.479 0 0 1 2.157-1.871 29.754 29.754 0 0 0 5.708-1.259c3.939-1.216 6.669-.213 7.688 2.821l.536 2.262a.187.187 0 0 0 .092.041.5.5 0 0 1 .427.495v.79c-.257 4.825-3.992 10.197-8.607 10.197zm2.839-16.109a9.3 9.3 0 0 0 -2.681.457 30.686 30.686 0 0 1 -5.91 1.3 1.47 1.47 0 0 0 -1.276 1.105l-.324 1.587v1.5a9.842 9.842 0 0 0 2.277 6.502 6.868 6.868 0 0 0 5.073 2.657c4.007 0 7.38-4.96 7.608-9.227v-.419a1.093 1.093 0 0 1 -.481-.621l-.531-2.247a3.614 3.614 0 0 0 -3.755-2.594z" fill="#323c6b"/><path d="m31.698 32.744 1.346-1.336 3.819 3.283-3.22 2.729z" fill="#eeefee"/><path d="m33.643 37.92a.478.478 0 0 1 -.117-.014.5.5 0 0 1 -.344-.294l-1.945-4.677a.5.5 0 0 1 .109-.547l1.347-1.335a.5.5 0 0 1 .678-.024l3.819 3.283a.5.5 0 0 1 0 .761l-3.224 2.727a.5.5 0 0 1 -.323.12zm-1.354-5.059 1.553 3.739 2.251-1.908-3.024-2.6z" fill="#323c6b"/><path d="m42.087 32.744-1.405-1.336-3.819 3.283 3.22 2.729z" fill="#eeefee"/><path d="m41.328 32.019v.006l-.006-.006z" fill="#e1e6e9"/><path d="m42.087 32.745-2.005 4.674-.787-.664 2.033-4.73z" fill="#e1e6e9"/><path d="m40.083 37.92a.5.5 0 0 1 -.323-.119l-3.22-2.729a.5.5 0 0 1 0-.761l3.819-3.283a.5.5 0 0 1 .671.017l1.4 1.335a.5.5 0 0 1 .115.559l-2 4.677a.5.5 0 0 1 -.345.29.511.511 0 0 1 -.117.014zm-2.45-3.232 2.258 1.912 1.6-3.735-.825-.784z" fill="#323c6b"/><path d="m27.237 45.25a.5.5 0 0 1 -.5-.5v-4.271a.5.5 0 0 1 1 0v4.271a.5.5 0 0 1 -.5.5z" fill="#323c6b"/><path d="m46.763 45.25a.5.5 0 0 1 -.5-.5v-4.271a.5.5 0 0 1 1 0v4.271a.5.5 0 0 1 -.5.5z" fill="#323c6b"/><path d="m70.64 45.3h-67.28a.5.5 0 0 1 -.5-.5v-38.3a4.08 4.08 0 0 1 4.07-4.08h60.14a4.08 4.08 0 0 1 4.07 4.08v38.3a.5.5 0 0 1 -.5.5zm-66.78-1h66.28v-37.8a3.079 3.079 0 0 0 -3.07-3.08h-60.14a3.079 3.079 0 0 0 -3.07 3.08z" fill="#323c6b"/><path d="m8.682 48.3a.7.7 0 0 0 .639.433l7.617.095a.7.7 0 0 0 .018-1.4l-7.617-.095a.7.7 0 0 0 -.71.692.693.693 0 0 0 .053.275z" fill="#fff"/><path d="m19.658 48.855.688.009a.7.7 0 1 0 .018-1.4l-.688-.009a.7.7 0 0 0 -.71.692.694.694 0 0 0 .053.277.7.7 0 0 0 .639.431z" fill="#fff"/></g></svg>