<svg height="512" viewBox="0 0 74 74" width="512" xmlns="http://www.w3.org/2000/svg"><g id="color_line" data-name="color line"><path d="m38.186 55a16.583 16.583 0 1 1 16.583-16.583 16.6 16.6 0 0 1 -16.583 16.583z" fill="#fcd462"/><path d="m54.77 38.417a16.526 16.526 0 0 1 -5.55 12.36 16.575 16.575 0 0 0 -24.23-22.4 16.584 16.584 0 0 1 29.78 10.04z" fill="#f7be56"/><path d="m38.186 50.75a12.333 12.333 0 1 1 12.333-12.333 12.347 12.347 0 0 1 -12.333 12.333z" fill="#fcd462"/><path d="m38.186 51.25a12.833 12.833 0 1 1 12.833-12.833 12.848 12.848 0 0 1 -12.833 12.833zm0-24.667a11.833 11.833 0 1 0 11.833 11.834 11.847 11.847 0 0 0 -11.833-11.834z" fill="#323c6b"/><path d="m38.186 59a20.56 20.56 0 0 1 -14.776-34.881l-7.852-9.711a32.993 32.993 0 1 0 49.531 43.107l-10.707-6.44a20.54 20.54 0 0 1 -16.196 7.925z" fill="#bbbbcd"/><path d="m38.186 71.917a33.538 33.538 0 0 1 -33.5-33.5 33.184 33.184 0 0 1 10.53-24.373.53.53 0 0 1 .376-.135.5.5 0 0 1 .355.185l7.853 9.706a.5.5 0 0 1 -.029.662 20.06 20.06 0 1 0 30.219 26.3.5.5 0 0 1 .651-.121l10.707 6.439a.5.5 0 0 1 .15.718 33.58 33.58 0 0 1 -27.312 14.119zm-22.674-56.772a32.178 32.178 0 0 0 -9.826 23.272 32.494 32.494 0 0 0 58.679 19.246l-9.865-5.934a21.06 21.06 0 1 1 -31.754-27.637z" fill="#323c6b"/><path d="m58.769 38.417a20.438 20.438 0 0 1 -1.8 8.379l10.7 6.437a32.993 32.993 0 0 0 -3.992-35.77l-9.031 8.65a20.449 20.449 0 0 1 4.123 12.304z" fill="#fe7058"/><path d="m38.186 17.833a20.483 20.483 0 0 1 13.014 4.655l9.015-8.634a32.982 32.982 0 0 0 -40.772-2.594l7.857 9.719a20.433 20.433 0 0 1 10.886-3.146z" fill="#27ccbc"/><path d="m71.19 38.417a32.929 32.929 0 0 1 -3.52 14.82l-1.33-.8a33.028 33.028 0 0 0 -5.68-31.81l-5.9 5.65a1.533 1.533 0 0 0 -.11-.16l9.03-8.65a32.828 32.828 0 0 1 7.51 20.95z" fill="#ea6453"/><path d="m60.22 13.857-3.17 3.03a33.012 33.012 0 0 0 -36.86-4.71l-.75-.92a32.993 32.993 0 0 1 40.78 2.6z" fill="#21b3a9"/><g fill="#323c6b"><path d="m38.186 47.144a4.619 4.619 0 0 1 -4.614-4.614.5.5 0 0 1 1 0 3.614 3.614 0 1 0 3.614-3.614 4.614 4.614 0 1 1 4.614-4.616.5.5 0 0 1 -1 0 3.614 3.614 0 1 0 -3.614 3.614 4.614 4.614 0 1 1 0 9.228z"/><path d="m38.186 30.689a.5.5 0 0 1 -.5-.5v-1.289a.5.5 0 1 1 1 0v1.294a.5.5 0 0 1 -.5.495z"/><path d="m38.186 48.438a.5.5 0 0 1 -.5-.5v-1.294a.5.5 0 0 1 1 0v1.294a.5.5 0 0 1 -.5.5z"/><path d="m12.268 63.854a.5.5 0 0 1 -.36-.153 36.545 36.545 0 0 1 -7.062-10.456.5.5 0 1 1 .913-.407 35.549 35.549 0 0 0 6.87 10.169.5.5 0 0 1 -.36.847z"/><path d="m4 50.167a.5.5 0 0 1 -.475-.343q-.218-.659-.411-1.331a.5.5 0 0 1 .961-.277q.188.652.4 1.294a.5.5 0 0 1 -.318.631.49.49 0 0 1 -.157.026z"/><path d="m34.062 3.171a.5.5 0 0 1 -.056-1l.342-.041c.371-.044.742-.088 1.115-.115a.492.492 0 0 1 .537.465.5.5 0 0 1 -.461.536c-.359.027-.715.069-1.072.111l-.346.041a.448.448 0 0 1 -.059.003z"/><path d="m48.75 4.511a.494.494 0 0 1 -.146-.022 35.539 35.539 0 0 0 -10.19-1.567.5.5 0 0 1 -.5-.5.478.478 0 0 1 .5-.5 36.522 36.522 0 0 1 10.486 1.611.5.5 0 0 1 -.146.978z"/><path d="m67.671 53.732a.5.5 0 0 1 -.258-.071l-10.7-6.437a.5.5 0 0 1 -.2-.633 19.912 19.912 0 0 0 -2.265-20.179.5.5 0 0 1 .054-.661l9.032-8.65a.509.509 0 0 1 .375-.138.5.5 0 0 1 .356.181 33.558 33.558 0 0 1 7.621 21.272 33.153 33.153 0 0 1 -3.568 15.041.5.5 0 0 1 -.447.275zm-10.071-7.139 9.861 5.931a32.142 32.142 0 0 0 3.223-14.107 32.556 32.556 0 0 0 -7.052-20.217l-8.322 7.97a20.906 20.906 0 0 1 2.29 20.423z"/></g><path d="m61.675 45.115a.651.651 0 0 1 -.621-.843 19.711 19.711 0 0 0 .89-5.855q0-.6-.036-1.193a.65.65 0 0 1 1.3-.078q.037.631.038 1.271a21 21 0 0 1 -.949 6.241.65.65 0 0 1 -.622.457z" fill="#fff"/><path d="m62.363 35.622a.65.65 0 0 1 -.635-.512q-.076-.351-.164-.7a.65.65 0 1 1 1.26-.32q.094.368.175.741a.65.65 0 0 1 -.5.773.639.639 0 0 1 -.136.018z" fill="#fff"/><path d="m51.2 22.988a.5.5 0 0 1 -.317-.113 19.973 19.973 0 0 0 -23.317-1.475.5.5 0 0 1 -.654-.109l-7.858-9.719a.5.5 0 0 1 .1-.726 33.481 33.481 0 0 1 41.393 2.632.5.5 0 0 1 .012.733l-9.015 8.634a.5.5 0 0 1 -.344.143zm-13.014-5.655a21.109 21.109 0 0 1 12.987 4.49l8.306-7.955a32.482 32.482 0 0 0 -39.305-2.5l7.24 8.955a20.969 20.969 0 0 1 10.772-2.99z" fill="#323c6b"/><path d="m38.186 55.5a17.083 17.083 0 1 1 17.083-17.083 17.1 17.1 0 0 1 -17.083 17.083zm0-33.167a16.083 16.083 0 1 0 16.083 16.084 16.1 16.1 0 0 0 -16.083-16.084z" fill="#323c6b"/></g></svg>