<svg height="512" viewBox="0 0 74 74" width="512" xmlns="http://www.w3.org/2000/svg"><g id="color_line" data-name="color line"><path d="m14.955 16.25-7.628 13.811h59.04l-7.628-13.811z" fill="#eeefee"/><path d="m7.327 30.061 29.52 40.856 29.52-40.856z" fill="#eeefee"/><path d="m66.37 30.057h-3.58l-5.98-10.83h-43.5l1.64-2.98h43.79z" fill="#e1e6e9"/><path d="m62.397 30.061-27.477 38.176 1.93 2.68 29.408-40.856z" fill="#e1e6e9"/><g fill="#323c6b"><path d="m36.847 71.417a.5.5 0 0 1 -.478-.354l-12.515-40.856a.5.5 0 0 1 .478-.646h25.03a.5.5 0 0 1 .478.646l-12.515 40.856a.5.5 0 0 1 -.478.354zm-11.838-40.856 11.838 38.648 11.839-38.648z"/><path d="m24.333 30.561a.5.5 0 0 1 -.414-.219l-9.378-13.811a.5.5 0 1 1 .827-.562l9.378 13.811a.5.5 0 0 1 -.413.781z"/><path d="m49.361 30.561a.5.5 0 0 1 -.413-.781l9.377-13.811a.5.5 0 1 1 .827.562l-9.377 13.81a.5.5 0 0 1 -.414.22z"/><path d="m29.988 12.515a.5.5 0 0 1 -.367-.161l-4.352-4.714a.5.5 0 1 1 .731-.679l4.352 4.714a.5.5 0 0 1 -.367.839z"/><path d="m36.847 9.833a.5.5 0 0 1 -.5-.5v-6.416a.5.5 0 0 1 1 0v6.416a.5.5 0 0 1 -.5.5z"/><path d="m43.706 12.515a.5.5 0 0 1 -.367-.839l4.352-4.716a.5.5 0 1 1 .734.679l-4.352 4.715a.5.5 0 0 1 -.367.161z"/><path d="m8.861 21.578a.5.5 0 0 1 -.437-.742l.319-.578a.5.5 0 0 1 .875.483l-.318.579a.5.5 0 0 1 -.439.258z"/><path d="m10.091 19.349a.5.5 0 0 1 -.437-.742l3.092-5.6a.5.5 0 0 1 .438-.258h3a.5.5 0 0 1 0 1h-2.7l-2.95 5.341a.5.5 0 0 1 -.443.259z"/><path d="m56.2 49.75a.5.5 0 0 1 -.4-.793l.3-.417a.5.5 0 0 1 .811.586l-.3.417a.5.5 0 0 1 -.411.207z"/><path d="m50.162 58.112a.5.5 0 0 1 -.4-.793l4.862-6.729a.5.5 0 1 1 .811.586l-4.868 6.724a.5.5 0 0 1 -.405.212z"/><path d="m49.362 30.561h-25.029a.5.5 0 0 1 -.371-.836l12.515-13.811a.517.517 0 0 1 .741 0l12.514 13.811a.5.5 0 0 1 -.371.836zm-23.9-1h22.772l-11.387-12.566z"/><path d="m66.367 30.561h-59.04a.5.5 0 0 1 -.437-.742l7.627-13.811a.5.5 0 0 1 .438-.258h43.784a.5.5 0 0 1 .438.258l7.623 13.811a.5.5 0 0 1 -.437.742zm-58.193-1h57.346l-7.076-12.811h-43.194z"/><path d="m36.847 71.417a.5.5 0 0 1 -.405-.207l-29.52-40.856a.5.5 0 0 1 .405-.793h59.04a.5.5 0 0 1 .405.793l-29.52 40.855a.5.5 0 0 1 -.405.208zm-28.542-40.856 28.542 39.5 28.542-39.5z"/></g></g></svg>